<svg xmlns="http://www.w3.org/2000/svg" width="412" height="344" fill="none" viewBox="0 0 412 344"><g clip-path="url(#a)"><path fill="#fff" d="M300.5 343.916c-1.989 0-3.81-.268-5.572-.527-.31-.042-.621-.092-.931-.134h-.067c-2.501-.402-4.909-.862-6.948-1.255l-.101-.017c-9.784-2.118-23.906-4.361-36.366-6.344-5.195-.829-10.095-1.608-14.282-2.311-6.738-.996-14.71-2.033-22.421-3.046-2.794-.368-5.504-.72-8.047-1.055-2.97-.243-5.261-2.017-6.15-4.771-.546-1.699-.454-3.373-.378-4.72.017-.318.033-.62.033-.846v-.058l.168-4.662v-.134a5.09 5.09 0 0 1 .311-4.193l.058-.118.068-.108a57 57 0 0 1 3.767-5.349c.378-.485.755-.979 1.141-1.473 2.073-2.686 4.213-5.474 6.386-8.085l.067-.084.076-.075c2.299-2.511 7.938-8.587 12.259-13.241l4.195-4.461.059-.059c.244-.242.504-.519.781-.82.562-.603 1.208-1.297 1.988-1.959.168-.276.361-.544.588-.786l.067-.076.067-.067c2.03-2.075 4.64-2.276 5.899-2.368h.109l.109-.009c.21 0 .411-.008.621-.008 3.625 0 7.057.904 9.817 1.624l.059.016c.579.16 1.166.319 1.762.486l.671-6.562.571-6.16q.073-3.126.16-6.252l.016-.628c.42-13.484.839-24.716 1.326-34.978-6.327 5.834-12.41 10.295-18.678 13.735l-.109.059-.412.201c-1.46.703-3.272 1.573-5.504 1.749a5.843 5.843 0 0 1-3.256-.653l-.109-.059-.101-.058a15.5 15.5 0 0 1-1.636-1.122l-1.049-.242-.579-1.155c-2.341-2.235-4.086-4.922-5.236-6.805l-.05-.084c-5.093-8.796-8.559-19.334-10.288-31.32v-.075l-.016-.075c-1.251-11.325-2.92-23.645-5.245-38.619-3.113-2.301-5.647-5.047-7.392-8.026-2.19-3.75-3.046-7.734-2.492-11.618-2.299-4.603-3.441-10.136-2.979-14.404a53 53 0 0 1-2.19-8.705c-.218-.854-.344-2.201-.294-4.746.084-4.051.546-5.18 1.024-5.992.184-.318.403-.611.638-.87-.101-1.583-.16-3.332-.227-5.35-.017-.468-.034-.962-.05-1.472-.143-1.18-.336-4.612 1.627-6.93 1.091-1.281 2.602-1.984 4.255-1.984q1.17.002 2.316.469c1.317.385 2.668.778 3.977 1.146 2.568.737 5.211 1.499 7.829 2.31 2.819.553 5.152 2.327 6.587 5.047 1.007 1.9 1.535 4.252 1.477 6.487.159 2.603.411 5.323.78 8.269 1.678 1.465 2.744 3.675 3.558 5.357.226.477.57 1.18.738 1.456l.202.226.226.385a40.5 40.5 0 0 0 4.447 6.144c.529.577 1.167 1.172 1.846 1.799 1.855 1.716 3.961 3.658 5.22 6.579l.084.201.067.209c.453 1.406.721 2.695.965 3.834.016.067.033.134.042.209.251.636.52 1.264.788 1.866l.026.051.025.05c.235.552.461 1.105.696 1.665.713 1.708 1.443 3.474 2.19 5.114.705 1.557 1.981 2.972 3.575 4.654a61 61 0 0 0 6.528 5.725 193 193 0 0 0 3.155 2.352c1.175-2.252 2.366-4.52 3.365-6.328l.042-.075.042-.075c6.738-11.107 20.952-16.732 32.456-19.536a63 63 0 0 0-2.215-6.52c-1.242.36-2.509.62-3.784.787h-.076l-.084.017c-.512.05-1.023.067-1.535.067-7.678 0-14.928-5.416-19.887-14.865l-.017-.025c-4.632-8.973-7.443-20.565-8.366-34.45-.671-10.145-.26-21.369 1.158-31.956-7.568-4.219-13.367-12.873-13.274-20.515.134-10.755 5.395-17.702 13.409-17.702.956 0 1.963.109 2.97.31 4.17.853 7.661 1.23 11.32 1.23 4.187 0 8.584-.527 13.45-1.607 6.973-1.548 11.916-2.561 16.917-2.561 4.648 0 8.81.904 13.106 2.854a28.4 28.4 0 0 1 4.599 2.645l2.181-2.82c5.404 3.314 7.947 8.336 9.138 12.119 5.253.108 8.391 4.076 8.735 4.536l8.878 11.793-6.377-2.184c5.496 5.13 8.122 11.667 7.627 19.1-.453 6.746-3.289 12.638-4.984 16.153-.109.235-.218.452-.319.662a170 170 0 0 0-1.988 4.402c-2.467 5.608-5.539 12.58-10.506 18.966-3.893 5.014-6.411 12.563-7.443 16.129 0 9.525 1.603 16.355 5.001 21.36q.241.163.495.301a96 96 0 0 0 9.574 4.478l.059.025.059.025a68 68 0 0 0 7.913 2.863l.218.067.21.083a68 68 0 0 0 1.51.578c1.015.376 2.064.77 2.962 1.18a44 44 0 0 1 4.59 2.335l.025.017c5.983 3.532 10.9 8.42 14.038 13.919l.135.042h.125q.557 0 1.1.125a215 215 0 0 1 14.273 3.951 107 107 0 0 1 14.122 5.39l.059.025.058.025c2.3 1.147 4.943 2.545 7.225 4.712l.025.026c1.502 1.447 2.4 3.163 3.13 4.536.076.142.151.285.218.418l.042.084c3.138 6.202 3.566 13.007 3.575 18.849.025 9.86-.713 19.46-1.544 29.253-.596 7.064-1.376 14.63-3.046 22.037a72 72 0 0 1-.73 3.231c.26.109.52.234.772.368a10.17 10.17 0 0 1 5.546 7.667 9.4 9.4 0 0 1-.453 5.315 11.1 11.1 0 0 1 1.334 4.461c.034.209.067.427.101.645.453 2.904 1.007 6.461-.109 10.001v1.105l-.747.745a10 10 0 0 1-.31.578l-.403.694-.52.712-.051.067c-.126.159-.251.318-.386.469l.94 1.648v4.562l-.394 3.75v.644l-.093.26-.226 2.184-.973 1.113-1.033 2.813-4.497 3.322-14.5 11.559-17.772 15.149-6.1 2.244h-6.109l-10.741-3.147-6.645-1.373-6.931-2.026-7.141-1.623-.873-.561c-6.402 7.173-12.93 14.547-18.712 21.82a5.43 5.43 0 0 1-4.405 3.03h-.059l-.058.008c-.437.025-.882.042-1.335.042zm-68.387-166.618a86 86 0 0 1 2.165 4.838l.814-1.632c.142-.285.293-.72.453-1.197.176-.511.369-1.071.621-1.657-1.175-1.13-2.241-2.151-3.264-3.139-.99-.929-1.981-1.875-2.946-2.787l-1.132-1.08c1.107 2.168 2.232 4.386 3.281 6.646z"/><path fill="#fff" d="M149.587 333.496c-1.368 0-2.442-.318-3.079-.511-.059-.016-.168-.05-.168-.05-1.125-.268-2.534-.661-4.313-1.205l-.176-.05-.328-.101-.319-.1-5.303-1.674c-.998-.31-2.45-.753-3.734-1.13h-.025a694 694 0 0 1-9.692-3.063l-.688-.226c-2.794-.904-6.276-2.026-7.854-2.511a347 347 0 0 1-6.494-2.051c-1.024-.335-2.023-.653-2.979-.962l-.663-.21-.806-.259-24.14-7.96-4.28-1.414-1.62-.536a9.44 9.44 0 0 1-4.782-2.369l-.135-.117-.117-.125c-1.72-1.833-2.047-4.403-2.073-8.789v-.025c0-1.331.025-2.243.084-3.03.05-.736.143-1.406.269-2.05.293-1.49.772-2.762 1.451-4.328a31.3 31.3 0 0 1 4.162-6.93l.093-.117.1-.109a37 37 0 0 1 2.988-2.938c-1.1-4.603-.714-10.746 1.023-15.166l.034-.075c2.224-5.373 6.402-9.6 11.756-11.902l.092-.042.1-.033a52 52 0 0 1 3.961-1.314l.218-5.826.269-.05-.58-.762c-1.014-1.339-1.023-2.159-1.065-7.516v-9.424l2.165.084v-.159c-1.04-1.181-1.292-2.495-1.384-3.675-.126-1.59.167-2.862.89-3.883a5 5 0 0 1-1.687-3.173c-.16-1.196.083-2.151.444-2.87v-2.955l-.067-1.85c-.067-2.184.1-5.072 1.225-6.938.143-1.256.403-2.871.865-3.876.419-.878.973-1.489 1.577-1.925-1.015-.652-1.922-1.623-2.341-3.197l-.017-.067-.017-.067c-.486-2.084.126-4.042 1.628-5.273 1.116-.929 2.375-1.205 6.436-1.757 2.484-.335 5.354-.645 7.695-.837 12.175-1.03 17.68-1.725 25.618-3.231a761 761 0 0 1 11.252-1.975h.025c3.449-.553 6.537-1.105 7.007-1.206.511-.117 1.09-.242 1.787-.242 1.821 0 3.004.878 3.633 1.481a21.5 21.5 0 0 0 2.518 1.507l.058.033.059.034c6.042 3.264 8.718 4.795 11.454 6.561l.025.017c1.863 1.222 8.081 5.608 9.968 7.382l.185.168 1.284 1.473v.87l2.182 5.801.193 3.13 1.493 1.071c.823.586 2.291 1.222 5.068 2.193.495.168.932.318 1.343.461l2.274.77.671 2.243a48 48 0 0 1 1.225 5.172l-6.1 2.109 1.426-.05.059 1.741.151.025c1.276-.309 2.241-1.138 2.702-1.958l-.168.301-.209.285a12.3 12.3 0 0 1-1.41 1.54l1.259.217.302 4.562c.058 1.046.05 3.105-.73 4.988 1.107.921 1.569 2.084 1.762 3.005.109.536.159 1.096.201 1.959a5.8 5.8 0 0 1 2.417 1.297c1.485 1.339 1.896 3.155 2.148 4.235.008.05.025.1.033.142.16.159.302.327.437.511 1.552 2.092.973 4.561.184 7.114-.293.954-.671 1.8-1.116 2.511 0 .017.009.042.017.059.269 1.054.353 2.234.428 4.344v.376a5.4 5.4 0 0 1 1.326 2.051c.403 1.088.495 2.251.537 4.151.109 4.16-.269 7.29-2.509 9.057l-.243.192-.101.059c.143.828.252 1.657.319 2.485v.059c.184 2.553 0 3.34-.957 6.185a33 33 0 0 1-.856 2.327l-.243 1.113-.386.327q-.102.215-.193.418l-.143.31-.193.285c-.176.259-.369.518-.562.77 2.333 2.77 3.424 6.26 3.424 10.897 0 4.369-.89 7.307-3.281 10.831l-.067.092c-.168.234-.344.477-.537.72l1.132.468-6.335 4.763c-.327.242-.671.493-1.04.736l-.034.017c-.201.134-.461.301-.747.477a35 35 0 0 1-3.18 1.724l-.931.444h-.025a55 55 0 0 1-5.53 2.109c-.344.142-.655.276-.923.402l-.965.46-1.964.77a1225 1225 0 0 0-9.171 4.26 893 893 0 0 0-3.726 1.75l-.05.05-.688.301h.008l-.05.017c-.881.444-6.646 3.373-8.618 4.335l-.277.168-.268.084a9.1 9.1 0 0 1-3.659.778z"/><path fill="#fff" d="m74.957 311.676-.62-9.023q.34-.05.696-.05c.16 0 .319 0 .478.017l-.377 9.048h-.177zM128.182 140.228a303 303 0 0 1-20.617-53.868 300 300 0 0 1-5.572-23.93c-12.427-.451-23.126-8.202-26.818-19.568-2.92-8.99-.965-18.924 5.085-26.507a154 154 0 0 1-.403-1.64 8.1 8.1 0 0 1 .252-4.964l.059-.15.067-.143a8.1 8.1 0 0 1 5.354-4.453c3.18-.811 6.058-1.548 8.558-2.184 4.473-1.138 7.737-1.967 9.155-2.36a8 8 0 0 1 2.383-.369q1.538 0 2.962.578l.294.117.268.159a8.2 8.2 0 0 1 2.962 2.971c.177-.033.353-.067.537-.092q.783-.15 1.578-.15c3.331 0 6.369 2.084 7.56 5.197l.017.042q.189.502.352 1.03c5.044 3.498 8.794 8.503 10.666 14.253 2.366 7.265 1.619 15.066-2.09 21.971-3.096 5.767-7.98 10.354-13.963 13.191a258.3 258.3 0 0 0 19.61 77.103l-8.256 3.783zM47.98 198.7c-6.445 0-12.73-2.118-17.705-5.976-5.11-3.951-8.601-9.55-9.818-15.769a25.8 25.8 0 0 1-.033-9.851c-.479-2.068-.94-4.143-1.377-6.16-.176-.812-.352-1.624-.537-2.428-.277-1.255-1.132-5.097 1.301-8.436l.05-.059a7.2 7.2 0 0 1 3.013-2.335c.931-.461 1.82-.703 2.542-.896a445.385 445.385 0 0 1 3.348-.929c2.09-.561 3.97-1.071 5.874-1.565l3.155-.829a468 468 0 0 1 7.158-1.849 12.2 12.2 0 0 1 3.557-.528c.756 0 1.51.067 2.258.21l.117.025.117.025a9.64 9.64 0 0 1 5.572 3.791c.017.025.042.051.059.084 6.394 1.691 11.957 5.507 15.658 10.68a98 98 0 0 1 15.766-4.076 100 100 0 0 1 16.573-1.39c7.359 0 14.734.821 21.917 2.444l-1.88 8.872a73.4 73.4 0 0 0-33.027 1.105 71.5 71.5 0 0 0-14.634 5.734c.596 6.319-1.133 12.613-4.976 17.97-4.312 6.009-10.799 10.119-18.25 11.575a30 30 0 0 1-5.798.561"/><path fill="#fff" d="M122.509 153.662c-9.75-10.646-21.372-19.066-34.537-25.026a105 105 0 0 0-19.702-6.595c-3.743 4.478-8.601 7.909-14.215 10.019a34.4 34.4 0 0 1-12.142 2.218c-8.609 0-16.69-3.231-22.58-8.956a89.22 89.22 0 0 1-2.509.519c-.411.083-.805.159-1.191.242-.101.026-.219.051-.328.076-.57.142-1.36.326-2.307.326-.118 0-.235 0-.353-.008h-.193a4.7 4.7 0 0 1-.973-.101l-.873.134-1.61-1.431a4.95 4.95 0 0 1-1.637-3.683c-1.183-3.967-2.123-7.976-3.03-11.868l-.503-2.159c-.562-2.361-1.208-5.056-1.812-7.734-.285-1.264-.588-2.57-.83-3.926a39 39 0 0 1-.32-1.874 5.5 5.5 0 0 1 .294-3.014l1.166-2.97 2.778.074c.73-.234 1.426-.426 2.106-.619h.042c1.384-.377 2.996-.795 4.657-1.121l.42-.1h.553c.898 0 1.762.267 2.492.727a33 33 0 0 1 2.736-3.64c3.692-4.27 8.483-7.592 13.87-9.618a34.4 34.4 0 0 1 12.142-2.218c6.461 0 12.662 1.817 17.94 5.257 5.463 3.557 9.54 8.612 11.815 14.613 2.148 5.692 2.492 11.869 1.04 17.795a115.6 115.6 0 0 1 17.798 7.708c14.365 7.776 26.733 18.238 36.752 31.094l-6.939 5.842zM128.123 140.111l-.051-.125 8.249-3.783 1.686 3.406-2.895 2.277-4.648 3.649zM138.822 140.873c-2.081-15.242-1.033-30.475 3.129-45.281a110 110 0 0 1 3.248-9.65 25.8 25.8 0 0 1-5.723-8.973c-2.4-6.352-2.215-13.366.529-19.753 2.551-5.942 7.124-10.88 12.939-14.002a24.14 24.14 0 0 1 11.462-7.567h.042a22 22 0 0 1 6.335-.929 22.5 22.5 0 0 1 9.7 2.21c4.422 2.134 8.072 5.6 10.581 10.019 2.459 4.343 3.6 9.206 3.281 14.06-.017.277-.034.562-.067.855.982 6.076-.235 12.404-3.466 17.886-3.348 5.691-8.676 10.136-15.003 12.513a29.1 29.1 0 0 1-10.447 1.925c-2.735 0-5.412-.377-8.005-1.113a84 84 0 0 0-4.204 9.29c-4.472 11.877-6.301 24.85-5.286 37.514l-9.029.971zM124.54 161.722l1.888-8.872.168.034 3.046.602 1.745 9.785zM190.267 111.017l2.114 8.052-.336 1.532 1.049 7.056 2.115 4.728-.252 2.896.395 3.139 2.391 5.6 4.128 4.21 2.518 1.916.948 5.784 1.804 10.479 2.156 15.04 2.895 17.837 4.573 15.132 4.49 8.178 3.423 5.298 2.249.987 5.63-2.36 11.446-7.993 9.675-8.956 4.287-4.31.924 2.72-.882 16.154-2.651 54.78h-5.379l-11.185-2.72h-3.046l-6.402 7.39-18.184 20.055-6.117 8.026-.562 3.223.545 8.328 3.155 1.347 34.53 4.202 23.973 4.193 25.542 4.503 7.795.703 2.316-.351 20.97-25.939 1.359 2.135 16.43 4.812 14.659 3.03 2.282 1.365 5.085-.159 11.16-8.345 10.111-7.784 14.769-11.776 4.833-5.508.537-5.172v-3.122l-2.09-3.658 1.007-2.084 2.56-2.913v-3.959l-.806-6.47-1.217-2.067-1.56-1.532 2.148-1.983-.227-3.29-2.593-2.51-3.557-1.222-.554-.151 1.451-10.203 2.904-24.164 1.98-19.434-1.242-11.216-1.703-6.344-2.56-6.813-9.238-4.721-8.089-3.373-9.767-3.666-12.335-3.457-5.781-8.185-12.075-7.19-11.563-4.486-9.599-4.872-2.979-3.398-2.878-8.872-1.486-11.425 1.553-11.634 5.471-8.177 5.471-5.984 1.871-11.015-8.114-23.402-39.002-12.48-20.893-10.838-3.055 15.09-.898 6.412-.663 11.199-.352 16.178 1.854 13.484.63 2.034 4.934 14.781 1.938 5.365 5.815 6.478 6.377 2.528 9.977-2.009 5.438 14.355 1.158 2.871-3.785.175-17.948 7.265-11.219 8.722-5.169 7.675-2.282 5.691-6.084-2.686-11.898-11.216-2.283-3.448-4.254-12.178-2.979-4.579-7.132-7.968-3.734-7.759-2.492-1.431-15.885-3.005-5.059-5.633-.403 2.143.621 6.319zm27.489 45.942.394-.594 6.302 3.373 6.368 5.692 11.58 10.453-.638 1.373-2.181 5.064 1.468 1.783-2.072 3.783-4.683 8.06-1.074.352-2.786-8.831-4.774-11.676-6.167-13.098-1.729-5.717z"/><path fill="#E4B922" d="m259.081 192.615-.134 10.328-.52 14.413-1.108 17.217-1.208 19.024-1.208 13.091-1.309 12.889 7.971 1.808 13.426 2.193 20.189 3.557 13.526 1.691 11.403.971 1.964.268 2.215.2h.445v-2.569l.084-3.222-1.418-.929.453-.879 1.494-.653 1.644-1.498v-2.403l-.235-3.105-1.284-1.197.101-.929 1.485-.435 1.855-.669.402-1.515-.218-2.511-.47-3.867-1.703-.728-.352-.996 3.289-1.633 13.082-5.398 16.043-7.299 4.229-1.958 1.007-12.195.94-15.585.369-16.019-.335-12.271-.504-7.256-1.04-6.855-1.108-6.654-.285-.444-.663 3.097-1.099 4.126-3.609 8.939-9.54 15.1-13.384 12.906-6.746 5.139-3.18-3.063-3.55 2.318-8.5 5.499-4.942 3.097s-1.083.753-1.444.753c-.36 0-2.559-.536-4.111-1.473-1.553-.937-4.976-3.197-6.923-4.495-1.947-1.297-10.38-7.231-10.38-7.231l-9.372-6.939-7.569-6.729-6.562-6.077-1.577-.962zM242.593 176.327l-1.694 2.921-.781 1.808-.587 1.674 1.535.527 4.968 1.281 3.256 1.59 3.583 1.95.855-.05-2.097-3.632z"/><path fill="#E4B922" d="m302.455 197.126 10.606-11.074 1.066.084 2.735.218 2.971.594 3.205 1.406 2.937 1.975 2.4 2.269 2.131 2.904 1.981 3.591.965 2.561.939 3.272.613 3.399.822 1.113 9.944-8.504s7.174-7.968 9.23-11.843 9.414-18.146 6.847-26.466c-3.08-7.775-7.997-13.35-9.885-14.982s-6.738-5.139-10.229-6.595a346 346 0 0 0-8.038-3.222c-1.234-.478-7.099-3.122-7.099-3.122l-3.608-1.833s-.151 1.741-2.509 5.641-11.806 13.04-15.096 13.3c-3.289.259-9.364 1.138-11.478-1.758-2.115-2.896-6.789-8.931-7.007-16.33-3.558 1.44-10.606 3.675-10.606 3.675l-9.339 4.603-6.252 5.231-2.525 3.507-2.644 3.934-2.324 4.377-1.863 3.8 4.296 3.022 5.622 3.825 5.455 3.289 5.026 2.854 6.805 3.507 5.672 3.34 4.38 2.804 2.971 2.05 3.298 2.587 2.592 2.1 2.484 2.16 2.526 2.728z"/><path fill="#D2D2D1" d="M278.423 55.894s-3.734 6.252-3.491 9.114c.235 2.863 14.819-.401 14.819-.401l-7.418-7.466-3.91-1.256zM262.363 55.701l-8.249 4.428.353 8.278.361 6.076s3.499 26.926 14.13 19.159l-2.215-1.206-1.88-3.272-.335-3.892 1.015-5.625 1.686-4.47 1.209-5.097.243-3.272-.386-3.122-1.737-3.942-2.316-3.281-1.879-.754zM309.059 89.164s2.223 40.175-3.692 47.431c-8.056 9.902-12.419 6.42-12.419 6.42l-.638 1.867 2.392 1.347 5.261 2.863 7.996-1.716 6.201-4.009 4.976-6.78 2.039-4.093-1.107-1.49-2.971-3.155-2.878-8.721-1.645-7.868.395-8.772 1.644-13.927z"/><path fill="#000" d="M354.865 150.916s1.905 29.646-8.466 38.878c-10.38 9.232-12.486 10.571-12.486 10.571l-1.678-4.093-17.496 17.251s-7.073 8.252-21.766-2.093-44.078-32.801-47.888-37.179c-3.809-4.377-21.229-18.438-25.307-20.087s-18.536-6.386-20.172-8.018l4.649 4.235 6.662 2.678 10.069 4.444 4.917 3.574 10.775 9.282 8.617 8.111 14.911 14.011 13.963 13.233 14.306 10.922 8.962 5.834 6.461 3.783h2.669l5.168-3.18 13.846-8.847 11.151-4.043 8.358-8.679s3.574 17.032-6.386 23.042c0 0 11.236 4.461 4.364 21.334-6.873 16.866-51.27 21.034-62.589 17.887-11.32-3.147-22.899-13.618-22.899-13.618l-2.232 28.759 38.179 8.503 31.055 2.21.084-2.21.646-2.954-2.005-.569.654-1.231 2.744-1.464.47-1.934-.47-3.917-1.133-2 .336-.452 2.081-.661 1.082-1.75v-4.009l-1.032-2.703-1.611-.837 1.896-1.231 14.752-6.612 21.598-9.977 5.111-37.982-5.748-39.263-5.278-13.032-3.902-3.925z" opacity=".1"/><path fill="#D2D2D1" d="m190.049 102.555 1.686 2.896 1.217 2.737s-.151 8.236 2.165 15.576l-2.123-3.465s2.366 13.517 4.766 16.104l-2.425-3.281a33.4 33.4 0 0 0 2.425 9.617h-.873l-1.938-5.474-.017-1.473.294-3.39-1.729-3.139-1.544-6.369.143-3.08.378-.913-1.695-5.448-1.125-5.407v-4.269l.411-1.205zM212.151 112.038s-1.276.678-1.242 1.967c.033 1.281 2.458 8.161 2.912 9.742.453 1.591.99 7.659-.764 6.621s-1.51-3.984-1.51-3.984l-3.466-10.579 1.443-4.42 2.627.645zM246.755 181.023l-1.108 3.13 2.308 1.096s-5.345 20.306-8.752 24.825c-3.407 4.512-13.342 11.425-18.469-2.293-5.118-13.718-12.662-54.061-14.466-56.572s-1.577-.912-1.577-.912v1.841l2.358 13.61 1.963 13.5 1.519 11.576 1.233 6.603 2.132 9.182 3.306 8.989 4.783 8.253 5.16 5.265 7.3-3.474 12.528-9.29 11.798-11.877.512-12.095-12.536-11.349zM403.399 280.816l-10.506 9.709-27.48 20.74-13.292-3.867-17.134-4.779-2.266.913-9.893 8.646 4.9 3.155 15.356 3.499 14.961 4.385h4.649l4.581-1.682 24.67-21.042 10.632-7.851 1.585-4.335v-5.424z"/><path fill="#D2D2D1" d="m405.228 269.182-42.165 26.289-21.086-5.825-16.648-5.173-.646 6.052 6.477.745-.193 1.69 6.218 1.833 26.315 6.244 16.454-9.073 20.508-13.701 5.572-4.905v-4.176z"/><path fill="#D2D2D1" d="m402.199 258.669-34.689 15.937-4.438-1.248-23.638-6.72-11.387-2.855 1.032 2.704 12.663 3.39 18.225 5.708s4.028 3.85 11.831 1.147c7.804-2.704 23.193-11.241 23.193-11.241l9.163-4.645-1.963-2.177zM330.959 292.96s-5.639 18.238-30.669 41.523c0 0-45.572-7.75-51.018-8.428-5.445-.67-44.942-5.441-44.942-5.441l.697 2.612 18.611 2.837 56.253 9.023 18.142 3.515h3.65l29.268-34.174 2.215-1.891-1.217-2.034-.637-5.6-.361-1.933z"/><path fill="#D2D2D1" d="M324.599 289.646s-9.818 10.144-17.227 10.847c0 0-15.171 16.69-29.318 16.999-14.148.31-36.686-2.477-41.192-3.406s-32.381-1.992-32.381-1.992l25.349 4.503 17.017 4.009 19.686 3.566 21.917 2.494 11.731 2.327 6.167-8.161 11.11-12.555 10.312-11.199 3.55-4.72v-1.683l-6.721-1.021z"/><path fill="#E4B922" d="m321.175 132.05-1.401 3.106-4.17 6.059-5.043 4.353-3.827 1.9-7.543 1.038-4.624-1.8-1.762-1.833-.218-3.373s-5.781-.41-4.951 5.348c.823 5.767 3.306 7.408 3.306 7.408l6.193 2.059 5.37-.41 5.371-1.649 4.539-2.888 2.643-2.302 4.011-4.31 3.264-4.562 3.298-5.708-4.447-2.461z"/><path fill="#000" d="M319.489 20.958S315.251 12.32 306.55 8.37c-8.693-3.951-15.842-2.503-27.154 0-11.302 2.51-19.131 1.925-26.666.385s-10.825 5.298-10.917 13.006c-.101 7.709 8.022 16.958 15.842 18.305 7.829 1.348 9.474 3.373 20.097 1.925 10.631-1.448 17.68 1.448 20.289 1.54l-1.065 13.3s11.017 1.398 7.342 21.2c0 0 3.096.243 4.254 1.49 0 0 3.482-10.21 12.276-6.746S321.234 87.9 315.344 88h-6.378l.093 1.155h4.539s-2.895 13.877-.679 17.828c0 0 2.895-12.43 8.894-20.138 5.991-7.709 9.079-16.48 11.983-22.548 2.894-6.068 11.21-21.778-3.768-32.668 0 0-1.737-3.758-5.119-5.398 0 0 3.088-.285 6.478 2.887 0 0-1.451-4.143-9.565-5.206 0 0 1.157-2.695 7.635-.485 0 0-3.482-4.629-8.6-1.833 0 0-.487-9.056-8.022-13.685 0 0 5.487 5.231 6.654 13.024"/><path fill="#000" d="M255.884 37.279c-3.574 20.657-3.876 50.336 5.899 69.269 3.298 6.269 9.172 13.099 16.984 12.387a20.1 20.1 0 0 0 5.353-1.448 25.15 25.15 0 0 0 8.358-5.298 18.5 18.5 0 0 0 3.759-5.047.36.36 0 0 0-.168-.477.36.36 0 0 0-.478.167 16 16 0 0 1-2.081 2.679 24.8 24.8 0 0 1-10.833 6.478l-.822.218c-4.229 1.372-8.786.167-12.117-2.654-11.831-10.403-14.466-33.287-14.877-48.294a153 153 0 0 1 1.863-27.82.42.42 0 0 0-.319-.503.41.41 0 0 0-.495.318v.017M321.343 78.752c-.394-2.302-3.256-3.08-5.269-2.243-2.442.82-4.733 3.33-4.171 6.043a10.13 10.13 0 0 1 4.28-3.859c1.779-.904 3.381-1.247 5.169.059"/><path fill="#000" d="M285.899 90.302c-.469 3.113-1.082 6.411-2.936 9.014-1.125 1.515-1.964 2.645-3.827 3.641l.017.209a4.5 4.5 0 0 0 4.221-1.038c1.166-.962 1.661-2.418 2.081-3.783q.593-1.973.721-4.034a23 23 0 0 0-.075-4.018h-.21zM254.467 58.036s3.272-2.72 6.108-3.189c2.702-.443 4.062 1.03 1.645 2.495-2.417 1.464-6.906 2.494-7.753 4.05zM281.687 55.525s-2.576-.837-3.264.368.319 2.101 2.316 2.988c1.997.896 5.37 2.57 7.837 5.508 2.475 2.938 1.477-5.407-6.897-8.872M279.161 76.324c.478 1.49 1.469 2.687 2.207 2.687s.948-1.205.462-2.687c-.487-1.49-1.469-2.686-2.207-2.686-.739 0-.949 1.205-.462 2.686M259.334 75.906c.453 1.397 1.384 2.536 2.072 2.536s.89-1.139.436-2.536c-.453-1.398-1.384-2.536-2.072-2.536s-.89 1.138-.436 2.536"/><path fill="#000" d="M262.841 55.29c2.022 2.771 4.665 5.4 5.194 8.923a16.7 16.7 0 0 1-.487 7.717c-.134.427-.436 1.465-.587 1.875-1.628 4.302-3.625 8.905-3.105 13.701.235 2.871 2.14 5.507 4.984 6.252a.363.363 0 0 0 .437-.242.35.35 0 0 0-.202-.41c-5.496-2.126-4.304-8.797-3.029-13.333.923-3.399 2.484-6.721 2.87-10.27.344-3.616-.294-7.349-2.358-10.37-1.024-1.465-2.081-2.98-3.633-3.934-.034-.017-.067 0-.084.025q-.014.027 0 .067M313.17 91.91c-1.821 11.39-2.047 25.217 3.432 35.646a25 25 0 0 0 2.987 4.319.507.507 0 0 0 .714.042.49.49 0 0 0 .05-.686c-6.411-8.061-7.191-19.017-6.881-28.943.143-3.39.487-6.772 1.041-10.12a.684.684 0 0 0-1.343-.25M285.421 116.642a66 66 0 0 1 6.226 20.891c.361 2.436.495 4.896.671 7.357a.247.247 0 0 0 .269.226.24.24 0 0 0 .226-.226c.059-.619.101-1.239.143-1.866a49.15 49.15 0 0 0-3.063-20.289 36.4 36.4 0 0 0-3.306-6.805.68.68 0 0 0-.948-.192.68.68 0 0 0-.218.904"/><path fill="#000" d="M295.91 106.991s7.711 11.668-6.075 16.397l-3.407-7.115 9.49-9.29zM319.892 134.746c-4.154 6.645-10.749 13.366-19.174 13.023-2.727-.1-5.303-1.122-7.745-2.352a15.2 15.2 0 0 0 3.482 2.419c7.443 3.833 14.206-.142 19.048-5.943a35 35 0 0 0 4.556-7.047.09.09 0 0 0-.05-.126c-.042-.025-.101 0-.126.042"/><path fill="#000" d="M323.231 138.521c-5.471 8.42-13.786 17.124-24.569 16.639-2.937-.076-6.108-.536-8.282-2.654-2.223-2.167-2.718-5.532-2.316-8.52-1.393 4.252-.167 9.307 4.12 11.408 2.988 1.565 6.47 1.549 9.717 1.147 9.365-1.214 17.361-10.061 21.33-18.02"/><path fill="#000" d="M363.869 246.357a331 331 0 0 0 3.6-42.711c.243-15.024-.546-31.387-5.161-45.063-2.601-6.587-7.988-12.078-14.03-15.643a39 39 0 0 0-4.162-2.11c-1.216-.56-3.062-1.18-4.321-1.69a74 74 0 0 1-8.45-3.055 100 100 0 0 1-10.052-4.696 12 12 0 0 1-1.821-1.213.494.494 0 0 0-.646.744s.017.009.025.017q.908.741 1.93 1.331c4.565 2.628 9.339 4.838 14.114 7.047a55 55 0 0 1 6.117 2.737c1.124.536 2.76 1.532 3.843 2.21.638.368 1.25.77 1.837 1.197l1.813 1.23 1.728 1.331a31.1 31.1 0 0 1 7.829 8.805 18 18 0 0 1 1.972 4.838c5.052 16.957 5.035 35.028 4.59 52.587-.394 10.639-1.158 21.302-2.383 31.864a.823.823 0 0 0 .722.921.826.826 0 0 0 .923-.695"/><path fill="#000" d="M334.047 162.55a93.6 93.6 0 0 1-13.291 15.083c-6.57 5.741-12.88 11.809-18.41 18.572a.66.66 0 0 0 .109.913.66.66 0 0 0 .881-.067c5.924-6.328 12.175-12.354 18.553-18.221 4.866-4.763 9.238-10.103 12.477-16.104a.18.18 0 0 0-.084-.243.18.18 0 0 0-.235.067"/><path fill="#000" d="M309.319 212.024a12.5 12.5 0 0 0-.336-3.791 21.4 21.4 0 0 0-1.98-5.365c-3.205-6.269-8.483-11.216-13.98-15.485-.646-.46-3.322-2.368-3.893-2.762-1.468-.945-3.365-2.1-4.85-3.029-4.045-2.319-8.399-4.596-12.478-6.772a227 227 0 0 1-28.269-18.363 66 66 0 0 1-7.048-6.185c-1.712-1.8-3.407-3.65-4.448-5.935-1.015-2.243-1.972-4.611-2.928-6.888a51 51 0 0 1-2.568-7.039c0-.025-.042-.042-.067-.042s-.042.034-.042.059c.101 1.264.302 2.519.613 3.758.461 1.841.889 3.716 1.518 5.516.84 2.251 1.93 4.41 3.248 6.428 4.833 6.084 10.732 11.232 16.866 15.969a194 194 0 0 0 23.897 15.325c3.625 1.925 7.2 3.85 10.775 5.834 1.157.703 2.844 1.724 4.002 2.427 1.15.678 3.508 2.394 4.632 3.147 1.259.904 2.475 1.892 3.709 2.821l.369.285.344.309c.68.611 2.098 1.858 2.786 2.469.629.653 1.947 2.009 2.584 2.67l1.209 1.407a37 37 0 0 1 2.525 3.322l.235.394.47.795a23.7 23.7 0 0 1 2.593 5.942c.227.904.369 1.833.411 2.771 0 .033.017.058.05.058 0 0 .051-.025.059-.05M360.706 175.85s-3.919 11.207-11.622 18.891-13.266 12.596-13.266 12.596l-1.62-1.389-10.958 9.073 3.482 4.536s12.553-8.637 17.428-13.977c10.464-11.467 16.673-24.683 16.547-29.722"/><path fill="#000" d="M335.793 207.563c-.756-2.921-1.293-5.792-2.392-8.604-3.004-7.817-8.148-12.663-16.74-13.35a36 36 0 0 0-4.548-.067.864.864 0 1 0 .302 1.683 10.5 10.5 0 0 1 4.112-.243 15.6 15.6 0 0 1 7.56 3.088c4.422 3.315 10.12 11.994 9.994 17.636a.865.865 0 0 0 .797.937.867.867 0 0 0 .94-.795c0-.1 0-.193-.025-.293M354.462 198.114c-2.257 5.206-6.343 11.299-12.62 11.433a10 10 0 0 1-2.525-.335 1.04 1.04 0 0 0-1.335.645l-.025.092c-.134.552.21 1.113.764 1.247.017 0 .042.008.059.016 6.284 1.306 11.202-2.929 13.962-8.085a27.6 27.6 0 0 0 2.115-4.871.197.197 0 0 0-.126-.26.21.21 0 0 0-.269.126M364.842 157.947c7.527 3.281 15.885 6.051 23.411 9.282q3.212 1.305 6.185 3.063c1.242.795 2.349 1.49 3.18 2.57a26.8 26.8 0 0 1 2.534 4.729c1.703 4.134 2.131 8.821 2.341 13.576.201 4.787.201 9.583.042 14.371a226 226 0 0 1-1.712 21.56c-.512 4.763-1.233 9.508-2.039 14.212-.386 2.377-.797 4.746-1.334 7.089-.034.109.034.218.143.252a.2.2 0 0 0 .251-.143 65 65 0 0 0 1.821-7.014c1.603-7.072 2.358-14.27 2.962-21.477.814-9.6 1.553-19.225 1.528-28.867 0-5.708-.462-11.626-3.088-16.815-.714-1.331-1.393-2.762-2.493-3.825-1.787-1.699-3.952-2.863-6.117-3.942a103 103 0 0 0-13.551-5.173 212 212 0 0 0-13.98-3.867.2.2 0 0 0-.243.151.215.215 0 0 0 .151.251M405.22 254.493c.403 1.807-.218 4.034-1.972 4.921-1.611.904-3.255 1.666-4.9 2.461-5.698 2.745-14.055 6.436-19.879 9.098l-4.992 2.218c-2.509 1.013-5.052 2.536-7.863 2.385-1.661-.117-3.02-1.096-4.497-1.716-7.921-2.829-16.086-4.963-24.2-7.189-1.762-.469-3.524-.929-5.303-1.314-1.552-.494-6.545-.645-5.991-3.089a2.2 2.2 0 0 1 1.032-1.23 28.5 28.5 0 0 1 5.018-2.36c4.321-1.448 8.407-3.365 12.586-5.215 3.474-1.565 11.563-5.264 14.936-6.754 5.06-2.193 10.699-2.695 16.161-2.536 3.667.1 7.234 1.088 10.791 1.849a909 909 0 0 1 10.64 2.511c1.544.41 3.877.779 5.278 1.532a5.68 5.68 0 0 1 3.147 4.411m-1.217.176c-.008-.092 0-.218 0-.318a3.38 3.38 0 0 0-1.678-2.838 6.6 6.6 0 0 0-2.006-.519c-.746-.117-3.188-.653-3.918-.803-5.127-1.164-10.766-2.561-15.918-3.675a52 52 0 0 0-5.169-.954c-2.643-.393-5.404-.736-8.022-.025-5.034 1.214-10.086 4.143-14.734 6.303-5.807 2.711-11.58 5.465-17.546 7.867-1.242.477-2.601.913-3.835 1.39a29 29 0 0 0-3.767 1.59l-.059.033s-.034.017-.008 0c.016-.016.033-.041.05-.058 0 0 .017-.034.008-.025l-.025.025-.042.05-.05.059s-.034.033-.025.008a.5.5 0 0 0-.059-.293c.487.561 1.796.896 2.702 1.088.629.142 1.443.251 2.072.343 1.821.268 3.617.653 5.387 1.147 7.586 1.808 14.928 4.294 22.388 6.554.637.184 1.393.401 2.039.619.394.151 1.032.418 1.426.544.864.192 1.955.586 2.61.577 1.334 0 2.87-.728 4.221-1.297l2.466-1.08c4.842-2.109 10.212-4.385 15.037-6.469a816 816 0 0 0 9.969-4.403 25 25 0 0 0 3.608-1.825c.285-.175.764-.502 1.04-.644.244-.109.487-.251.705-.377a2.85 2.85 0 0 0 1.141-2.594"/><path fill="#000" d="M364.406 163.554s15.431 5.064 18.133 11.835 1.452 23.076 1.125 26.298c-.328 3.223-1.981 19.921-2.509 23.603l-2.837 19.787-4.908-.411-5.421.251-4.061.971-.285-1.54 1.241-8.955 1.058-12.388.864-20.983-.252-15.61-1.938-15.576-1.469-7.6 1.268.31zM369.776 269.718c.277-2.52-2.803-3.926-4.691-4.788a45 45 0 0 0-6.469-2.436 39.1 39.1 0 0 0-13.719-1.263c-.109.016-.193.117-.177.226a.195.195 0 0 0 .168.175c4.565.628 8.953.971 13.384 2.101a49 49 0 0 1 6.427 2.051c1.662.653 4.59 1.749 4.691 3.808v.067c0 .109.092.201.21.193a.2.2 0 0 0 .184-.143M366.294 271.324c-.487-2.536-3.935-3.532-6.193-3.632-.067 0-.125.05-.125.117 0 .059.033.109.084.126.495.192 1.233.41 1.736.594 1.595.603 3.491 1.255 4.381 2.812.008.034.042.05.075.034.025 0 .042-.034.042-.059"/><path fill="#000" d="m328.224 264.001.411 4.754c.092.477.109.962.05 1.44a1.76 1.76 0 0 1-1.418 1.707c-2.157.343-3.642.845-1.67 3.022a5.9 5.9 0 0 0 2.467 1.682 45 45 0 0 0 5.689 1.741c5.765 1.456 11.622 2.569 17.286 4.377 3.801 1.164 7.258 3.164 11.068 4.386a6.3 6.3 0 0 0 3.037.209 14.8 14.8 0 0 0 2.82-1.079 554 554 0 0 0 5.387-2.511 900 900 0 0 0 10.723-5.148c5.337-2.62 10.674-5.256 15.885-8.119 1.737-.996 3.499-1.891 5.059-3.197a.69.69 0 0 0 .059-.979.73.73 0 0 0-1.024-.042l-.016.017c-3.223 2.025-6.847 3.507-10.305 5.139-5.974 2.762-15.506 7.064-21.565 9.851a372 372 0 0 1-5.387 2.444c-.73.368-1.644.594-2.19 1.105a2.44 2.44 0 0 1-2.089.795 20 20 0 0 1-2.828-.502 35 35 0 0 1-5.639-1.867c-2.785-1.13-5.664-1.983-8.525-2.879-4.405-1.339-9.817-2.787-14.231-4.118-1.41-.46-2.87-.778-4.112-1.498a4.9 4.9 0 0 1-1.334-1.431c0-.017-.017-.034-.025-.042v.025c-.017 0 0 .059-.017.075-.017.025-.025.059-.033.084-.076.101-.059.034.109-.017a2.13 2.13 0 0 1 1.275-.083l.395.067h.05c.134 0 .436-.034.57-.051 1.737-.401 2.274-2.527 2.023-3.925a40 40 0 0 0-1.133-4.311 16 16 0 0 0-.453-1.222.2.2 0 0 0-.26-.108.2.2 0 0 0-.126.201"/><path fill="#000" d="M329.625 269.182s31.71 9.675 33.917 11.584c.411.334.662.828.704 1.355 0 0-.134-1.079-6.989-3.297-6.847-2.218-21.507-6.06-28.177-6.437l.545-3.189zM402.653 259.063a6.6 6.6 0 0 1 2.013 4.143c.026 1.004.135 2.109.219 3.063.134 1.942.646 3.85.31 5.767-.503 2.636-2.979 4.084-5.06 5.482-7.51 4.922-15.33 9.391-23.176 13.777-2.425 1.331-4.833 2.762-7.25 4.151-1.737 1.03-3.776 2.059-5.252 3.465a12.3 12.3 0 0 0-1.536 1.775l-.101.142a.69.69 0 0 0 .185.963c.226.15.52.159.755.016 1.15-.711 2.383-1.414 3.575-2.117l3.616-2.093c9.549-5.515 19.509-11.19 28.463-17.585 1.946-1.473 4.044-2.87 5.571-4.796l.319-.435.269-.469c1.804-3.163 1.007-6.938.495-10.328a6.6 6.6 0 0 0-3.239-5.298c-.269-.117-.411.218-.185.368M331.723 290.575c-.907-.578-2.048-.645-3.08-.82-3.063-.369-6.15-.377-9.222-.645a352 352 0 0 1-24.459-2.712c-16.178-2.619-32.432-5.306-48.232-9.692-2.979-.787-6.033-1.557-9.146-1.465-1.058.084-2.199.21-2.996 1.022a.75.75 0 0 0 .059 1.062c.26.235.646.26.931.059.26-.184.562-.31.881-.343a12.8 12.8 0 0 1 3.994.184 82 82 0 0 1 8.719 2.235c3.004.812 6.041 1.506 9.07 2.168 20.164 4.251 40.496 7.708 61.07 9.165 2.778.226 6.378.276 9.13.602.789.075 1.561.243 2.316.486-.067-.051-.135-.101-.193-.168a.82.82 0 0 0 1.158-.025.805.805 0 0 0 .016-1.113"/><path fill="#000" d="M235.755 276.213c-2.04.594-3.281 2.368-4.716 3.791l-4.12 4.378a4724 4724 0 0 0-12.243 13.224c-2.525 3.03-5.034 6.336-7.443 9.45a53 53 0 0 0-3.482 4.938.59.59 0 0 0 .243.803.62.62 0 0 0 .84-.276c0-.008.008-.025.016-.033.722-1.047 1.813-2.352 2.652-3.365 2.467-3.03 5.093-6.244 7.56-9.282.26-.31.63-.787.898-1.063 6.075-6.52 12.268-13.283 18.15-19.954a7.3 7.3 0 0 0 1.728-2.218l.093-.192a.153.153 0 0 0-.076-.201.1.1 0 0 0-.1 0"/><path fill="#000" d="M300.592 329.244a.7.7 0 0 0-.218-.193 12.7 12.7 0 0 0-2.752-.929c-2.954-.728-5.958-1.239-8.962-1.716-12.007-1.757-24.057-3.289-35.997-5.465-6.973-1.139-16.749-3.541-23.688-5.231-4.926-1.105-9.826-2.578-14.861-3.147l-3.021-.344c-2.013-.209-4.027-.426-6.058-.552a.67.67 0 0 0-.68.653.68.68 0 0 0 .596.678c1.964.134 3.994.36 5.991.586 1.779.226 4.204.46 5.933.753 6.654 1.356 16.874 3.9 23.604 5.449 15.876 3.373 32.012 5.147 48.081 7.256 3.826.603 7.77.98 11.437 2.285.083.034.159.084.234.134h.009l-.017-.016c.059.1.176.133.277.083a.206.206 0 0 0 .084-.276"/><path fill="#000" d="m204.079 312.077-.244 6.855c-.025 2.193-.763 5.583 2.417 5.775 9.457 1.256 21.389 2.754 30.711 4.135 14.189 2.394 36.87 5.666 50.9 8.704 2.257.436 4.514.854 6.788 1.214 2.291.327 4.565.737 6.906.586a.91.91 0 0 0 .823-.979.91.91 0 0 0-.982-.821 10 10 0 0 1-1.502.042c-3.936-.192-7.821-.979-11.706-1.69-2.349-.461-7.887-1.557-10.128-2.001-11.235-1.95-33.153-5.7-44.212-7.541-9.054-1.389-18.175-2.829-27.296-3.716l-.403-.05h-.126c-.025 0 0 .025-.017.041-.025.034-.184-.167-.26-.51a6.6 6.6 0 0 1-.134-1.339 70 70 0 0 0-.26-3.474 42 42 0 0 0-.831-5.206l-.017-.058a.2.2 0 0 0-.243-.151.205.205 0 0 0-.151.192"/><path fill="#000" d="M331.371 290.734c-.588 1.281-.512 2.519-.462 3.75.076 1.046.218 2.62.319 3.683.109.962.101 2.159.621 3.046.252.461.487.745.352 1.189-.293.703-1.015 1.205-1.544 1.824-2.576 2.67-5.286 5.24-7.828 7.952-4.204 4.503-9.08 9.859-13.116 14.496-.495.569-1.317 1.632-1.779 2.218l-2.315 2.888c-1.536 1.95-3.105 3.883-4.624 5.85a.817.817 0 0 0 .168 1.155c.352.26.847.21 1.133-.134 9.356-11.86 20.566-23.787 30.426-35.111a2.06 2.06 0 0 0 .394-1.925c-.151-.469-.462-.812-.613-1.239a11.3 11.3 0 0 1-.26-2.243c-.084-2.477-.293-4.946-.453-7.416a.195.195 0 0 0-.21-.175c-.067 0-.125.042-.159.108l-.042.101"/><path fill="#000" d="M330.96 292.96c-5.581 6.194-18.721 20.297-23.94 26.449-1.922 2.268-3.835 4.553-5.589 6.964a25 25 0 0 0-1.644 2.511.403.403 0 0 0 .168.552.405.405 0 0 0 .553-.167c2.09-3.223 4.825-6.202 7.292-9.19 4.884-5.742 10.749-12.111 15.691-17.836 2.618-2.972 5.186-6.002 7.771-9.006a.21.21 0 0 0-.017-.293.21.21 0 0 0-.294.016"/><path fill="#000" d="M300.978 338.049c-.403-2.972-1.015-6.052-.797-9.056a.21.21 0 0 0-.168-.235.21.21 0 0 0-.235.168c-.411 3.08.034 6.168.26 9.24a.48.48 0 0 0 .521.427.48.48 0 0 0 .428-.519v-.034M399.598 282.908c-9.7 7.776-19.392 15.585-29.293 23.109a53 53 0 0 1-4.724 3.323 1.83 1.83 0 0 1-1.041 0 22 22 0 0 1-2.24-.544c-8.928-2.728-18.007-5.139-27.321-6.177a.2.2 0 0 0-.227.176c-.017.117.067.218.185.234a176 176 0 0 1 17.999 4.621c2.962.904 5.856 1.916 8.877 2.854 1.158.418 2.367.678 3.592.753a3.46 3.46 0 0 0 1.653-.611c1.552-.971 2.995-2.042 4.438-3.072 7.586-5.515 14.811-11.399 21.91-17.493 2.374-2.008 4.657-4.143 6.343-6.997l.025-.033c.034-.059.017-.126-.042-.159-.042-.025-.092-.017-.134.008"/><path fill="#000" d="M370.112 296.794c.545-3.39-.495-7.089-3.13-9.366a.04.04 0 0 0-.059 0q-.025.026 0 .05a9.4 9.4 0 0 1 1.443 1.984 10.18 10.18 0 0 1 .84 7.089.468.468 0 0 0 .881.31c0-.025.016-.042.016-.067M326.453 275.417c.076 1.699.369 3.507.034 5.181-.613.653-1.569.954-2.375 1.339l-.755.31a1.25 1.25 0 0 0-.663.695c-.52 1.33 1.124 2.084 2.14 2.377 4.22 1.222 8.449 2.368 12.687 3.532 3.155.87 9.541 2.594 12.712 3.415 4.263 1.038 8.601 2.419 12.847 3.214-3.96-1.875-8.273-3.315-12.41-4.821-4.154-1.432-8.316-2.846-12.562-3.934-.419-.142-13.912-3.248-13.828-3.423-.126-.059-.126-.084-.118-.009.017.076-.008.235-.05.26a.07.07 0 0 1-.042.016q-.025 0-.05.026h-.017s-.034.025-.05.033c-.034.017-.101.034-.042.008a14 14 0 0 0 3.054-1.874c.26-.218.462-.494.579-.812a6.4 6.4 0 0 0-.059-2.269 40 40 0 0 0-.621-3.314.203.203 0 0 0-.243-.159c-.109.017-.176.117-.168.226M363.374 300.987c-9.029-2.753-18.36-5.223-27.54-7.415 0 0-3.985-.896-3.994-.896a.33.33 0 0 0-.386.251.33.33 0 0 0 .227.377l31.449 8.545a.447.447 0 0 0 .235-.862"/><path fill="#000" d="M324.599 284.633a9.75 9.75 0 0 0 0 5.013c.646.862.747-2.193.73-2.502 0-.31-.101-3.39-.73-2.511M364.834 310.621c.26 2.695.327 5.515.646 8.211.403-1.189.151-2.821 0-4.127a84 84 0 0 0-.604-4.084q0-.015-.025-.017-.015 0-.017.025"/><path fill="#000" d="M365.488 316.137c-5.613-1.532-11.831-2.963-17.545-4.143a133 133 0 0 0-13.342-2.294 39 39 0 0 0-4.531-.293.21.21 0 0 0-.227.184.207.207 0 0 0 .185.226c5.941.712 11.84 1.942 17.722 3.072 5.89 1.172 11.772 2.386 17.638 3.641a.207.207 0 0 0 .243-.159.2.2 0 0 0-.159-.243M229.109 140.278c-1.586-2.544-1.578-6.754-3.323-9.399-4.212-4.344-8.584-8.529-11.345-14.02-.772-1.381-1.401-3.063-2.483-4.226-1.351-1.457-2.274 1.163-2.451 2.218-.411 2.452.865 4.051 1.964 6.085a22.2 22.2 0 0 1 2.408 7.942c.034.243.084 1.967-.579 1.616-10.161-5.6-19.173-15.066-22.093-26.365 4.707 8.914 12.099 18.991 22.261 23.862l-.579 1.616c-.076-4.78-3.793-8.312-4.372-12.898-.1-1.858.135-5.039 1.829-6.253 2.442-1.314 4.179 5.098 5.505 6.579a45.3 45.3 0 0 0 4.968 6.855c2.122 2.335 5.009 4.185 6.293 7.148 1.057 3.298 1.049 6.202 2.576 8.16.923 1.181.394 2.645-.596 1.063M190.048 102.555c-1.015 10.329 4.557 19.251 8.618 28.248-4.691-4.846-8.064-13.734-9.129-20.941-.361-.628-.235-8.813.511-7.307"/><path fill="#000" d="M192.188 118.299c.067 7.583 2.375 12.781 6.293 18.958-4.833-3.231-7.971-14.07-6.293-18.958"/><path fill="#000" d="M195.142 132.938c-.461 13.66 13.266 18.372 23.764 22.599 3.037 1.422 6.511 3.121 8.248 6.118-.168.862-3.172-1.716-3.835-1.992-4.271-2.695-9.171-4.068-13.795-6.001-8.248-3.005-17.075-11.534-14.382-20.724M209.717 99.107c.135-2.754-1.124-6.654-4.598-7.181-4.07-1.28-8.198-2.403-12.293-3.616-2.198-1.097-2.307 2.536-2.098 3.808.37 10.847.143 13.3 5.782 22.105 0 0 7.426 12.195 15.783 14.99 3.608 1.256-2.173-7.683-2.643-9.826-1.451-2.569-.948-6.595 1.326-8.211-.772-5.298-1.108-9.198-1.267-12.077"/><path fill="#fff" d="M198.565 103.744c-1.015.017-.746 3.808.261 3.683 1.015-.017.755-3.809-.261-3.683M198.255 99.29c-.722.01-.529 2.704.184 2.612.722-.008.529-2.703-.184-2.611M207.275 97.282c.504 4.202.949 9.006.756 12.965-.286-4.227-.789-8.989-.764-12.973h.008zM203.583 93.85c-3.599-1.405-7.451-2.443-11.009-3.79 3.717.685 7.879 1.958 11.009 3.79"/><path fill="#000" d="M330.867 209.597c-5.949 3.875-11.941 7.96-17.965 11.667-2.216 1.365-4.557 2.863-6.806 4.177-.528.351-.939.268-1.552.059a17 17 0 0 1-3.6-1.767c-9.02-5.724-17.629-12.144-26.029-18.723-4.43-3.54-8.575-7.441-12.72-11.333-9.826-9.298-21.389-20.506-31.425-29.42-2.249-1.916-4.405-4-6.956-5.524l-.587 1.114.436.267c4.422 3.348 8.315 7.341 12.368 11.116 8.291 7.926 16.463 15.986 24.762 23.904 3.122 2.963 6.243 5.934 9.49 8.763 5.48 4.645 11.345 8.813 17.244 12.898 3.549 2.436 7.132 4.829 10.783 7.123 2.139 1.289 4.304 2.82 6.838 3.272 1.133.143 2.132-.72 3.071-1.197l1.863-1.088a115 115 0 0 0 14.24-9.692 586 586 0 0 0 6.788-5.298l-.252-.318zM204.238 150.397c2.156 13.768 4.145 27.554 5.672 41.414 1.494 10.337 4.472 20.623 9.725 29.705 1.787 2.946 4.019 6.034 6.948 7.783.226.118.487.168.747.143 1.51-.109 2.895-.82 4.229-1.465 10.354-5.675 19.148-13.827 27.086-22.481a.905.905 0 0 0-.084-1.289.917.917 0 0 0-1.292.075 121 121 0 0 1-6.864 7.206 102 102 0 0 1-15.397 12.53c-2.4 1.465-4.809 3.13-7.561 3.725a2 2 0 0 1-.235.016h-.017q-.012 0 0 0a.96.96 0 0 1 .412.21c-2.769-1.658-4.834-4.545-6.52-7.341-5.949-10.361-8.937-22.389-10.254-34.199a525 525 0 0 0-4.145-25.846 1357 1357 0 0 0-1.519-7.7l-.545-2.561c-.017-.109-.126-.193-.235-.168-.109.017-.193.126-.168.235"/><path fill="#000" d="M234.261 210.995c2.056-3.884.78-10.379-.101-14.53a84.5 84.5 0 0 0-6.15-17.225c-2.568-5.525-5.605-10.831-8.072-16.397a29 29 0 0 1-2.182-6.897l-.411.059c.084.611.134 1.23.235 1.841a34 34 0 0 0 1.544 5.349c2.509 6.57 6.31 13.5 8.953 20.003a94 94 0 0 1 4.556 13.618c.932 3.708 1.821 7.533 1.72 11.383a8 8 0 0 1-.428 2.561l.336.26z"/><path fill="#000" d="m241.326 182.78-7.443 13.308.37.193 8.147-12.906zM242.216 175.774a40 40 0 0 0-1.704 3.323c-.537 1.105-.805 2.361-1.342 3.44l.361.193c.688-1.072 1.057-2.243 1.728-3.306a42 42 0 0 1 2.023-3.055zM290.229 132.729c-11.739 2.385-26.952 7.616-33.446 18.329-1.805 3.256-4.297 8.161-6.067 11.475l1.141.611a280 280 0 0 0 5.765-9.834c3.65-6.788 10.849-11.04 17.789-14.112 4.908-2.109 9.876-3.892 14.894-6.059l-.067-.41zM258.477 192.012c-1.376 20.423-2.181 40.878-2.811 61.334-.176 6.822-.369 13.643-.268 20.473 0 .109.092.201.21.201a.2.2 0 0 0 .201-.21c.772-6.813 1.46-13.601 1.972-20.397.931-11.768 1.485-23.921 1.829-35.722.21-8.521.336-17.033.118-25.57a.63.63 0 0 0-.596-.653.624.624 0 0 0-.646.561M267.867 164.115a125 125 0 0 0-3.776 7.006l1.141.527a118 118 0 0 1 2.728-7.483zM264.762 162.458a123 123 0 0 0-1.628 7.784l.865.126c.201-2.629.478-5.265.855-7.893l-.1-.025z"/><path fill="#000" d="M257.89 191.033c-3.81-2.821-13.61-10.119-18.309-8.814a.56.56 0 0 0-.336.712c.017.033.034.075.05.109l1.721 2.695c.151.192.386.058.377-.176l.445-3.7-1.334 3.005c2.794-.996 9.985 2.67 12.737 4.06a84 84 0 0 1 4.406 2.444c.209.15.469-.16.243-.327M184.569 90.595a34 34 0 0 0-3.264-2.921 4.1 4.1 0 0 1-1.074-.946c0-.636 4.607 3.256 6.234 5.265 1.133 1.423.286.787-1.896-1.398M183.52 108.155c-.126.393-2.332 3.339-2.433 3.23a4.1 4.1 0 0 1 .621-1.238c.663-1.089 1.98-2.553 1.812-1.992M182.505 97.123c0 .126-.201.168-.478.084-.244-.084-1.611-.368-3.038-.661-1.426-.285-3.381-.578-4.397-.661-.99-.084-1.821-.226-1.854-.352-.059-.31 2.416-.368 4.296-.1 2.543.351 5.471 1.272 5.471 1.69M177.529 103.376c.479-.553 2.048-1.172 3.986-1.582 1.963-.394 4.086-.519 4.086-.226a8.8 8.8 0 0 1-2.232.535c-2.391.394-4.581.988-5.412 1.44-.596.352-.78.268-.436-.167"/><mask id="b" width="134" height="150" x="69" y="179" maskUnits="userSpaceOnUse" style="mask-type:luminance"><path fill="#fff" d="M83.709 192.029 69.2 304.946l4.74.117 30.46 10.044 38.733 12.228s3.524.988 4.439 1.239c.915.26 2.215.77 4.036-.1 1.829-.871 8.827-4.436 8.827-4.436s16.212-7.65 17.403-8.019c1.192-.368 9.407-2.87 12.73-6.771 3.331-3.892 8.282-7.189 8.282-7.189l1.241-9.065 1.972-50.545-11.839-40.226-26.482-22.916H119.53L83.7 192.02z"/></mask><g mask="url(#b)"><path fill="#fff" d="m181.112 210.007-.386-6.353-2.224-5.925-10.933-7.416-13.904-7.859-4.481.987-26.751 4.888-23.041 1.909 4.481 2.954-.328 3.75-.872 2.101-4.683 2.209-.872.862-.63 1.214-.612 4.628-.16 1.775 4.07 1.64-.94 2.637.244 5.959.444 3.407h-1.007l-.369 3.607-.042 4.059-1.703 1.381-.411 5.592.084 1.464 2.156 1.415.931 2.025-.041 4.302-.672 1.172h-1.074l-.21 2.888-.251 2.335-1.209.812-9.364 3.666-2.534 2.712-2.979 4.235-1.074 3.724v7.516l1.896 3.541-1.4 1.054-5.564 6.018-2.157 3.951-1.518 4.068v3.599l.444 4.093 1.142 1.464 4.338.979-2.568 1.8-2.677 1.707-4.162 4.989-3.088 6.445-.511 3.03v7.323l.637 3.097 9.86 2.938-1.074 2.05-6.335 6.345-2.09 3.381-2.215 5.558-1.427 4.988 1.62 11.559 7.728 2.268 14.928 3.164 21.439 6.227 23.226 5.834 21.473 4.921 19.819 5.148 5.673.477 5.37-3.725 11.445-10.663 12.923-13.149 7.426-9.6 1.191-4.52.495-3.942-2.19.544-1.107-2.636-2.325-7.466 4.473-6.06 1.149-4.369-.31-7.307-1.762-2.285-6-3.842-8.785-2.469-7.728-3.231-4.892-1.824 3.415-2.888 4.229-5.691 1.426-5.298-1.342-5.407-2.652-3.474-4.363-.644 2.064-2.185 3.583-2.578 2.417-5.457.293-3.021-1.284-6.228 2.191-.443 1.199-.084.546-2-.546-5.591-1.678-.754.093-5.264-1.133-1.766 1.628-3.482.293-4.068-1.242-3.532h-3.004l-.939-2 .117-3.281-.092-.829-.21-.628h-1.091l-1.896.176-.151-1.322.033-2.771 1.167-.904.579-1.188.486-3.156-1.074-.385-1.879-.125.361-3.599-.311-2.001 2.417-1.397 1.51-1.415.512-1.021-1.888-1.523-.973-.335-3.206-1.699-2.265-1.264-1.427-.351z"/><path fill="#D2D2D1" d="M214.676 323.896s-5.529 6.896-10.337 10.253c-4.808 3.356-23.571 12.42-26.751 19.367l-.638 3.959s-1.493 2.059-3.222 1.883c-1.72-.167-20.516-5.097-20.516-5.097l-70.636-18.422s-15.565-2.862-16.798-5.557a29.6 29.6 0 0 1-1.83-6.386v7.658l2.148 2.595 12.453 2.778 62.798 16.313 31.903 8.069 5.127 1.448 8.995-5.324 11.311-6.637 9.952-6.938 4.934-4.286 3.054-5.75-.579-4.645-1.376-5.273z"/><path fill="#D2D2D1" d="M202.065 318.447s-27.976 10.571-33.061 15.701c-5.085 5.14-24.007 0-24.007 0s-67.145-27.427-70.048-27.009h9.893l44.825 14.639 18.527 6.922 10.044-4.813 17.982-7.072 11.261-5.407 14.584 7.03z"/><path fill="#D2D2D1" d="m187.481 288.148-29.134 11.006-10.732 1.775s2.358 15.978-1.108 17.3c-3.465 1.323-20.096-1.758-27.161-3.524-7.066-1.757-48.694-14.086-48.694-14.086l1.066 2.544 17.093 6.11 46.511 14.614 12.301 3.44h4.976l21.649-10.856 13.241-5.063 4.691-4.771 2.794-4.729.688-5.231-1.007-3.783-1.838-2.52-5.319-2.226z"/><path fill="#D2D2D1" d="m80.26 281.511 12.872 5.047s49.683 14.722 53.35 19.024l1.536 2.152.982.577-.865-6.545-17.436-5.164-21.179-6.495-22.731-8.362-4.951-1.548zM158.238 214.695l-17.143 1.95v4.461l2.417 2.419v4.017l2.576 4.026.21 6.587-1.41.912-.008 7.843 2.022.561-.403 4.762.403 3.8 3.876 2.076-.201 6.361-2.224.619-1.174 5.047-.68 5.591 6.814-1.305-1.511 5.482-3.667 8.847-.52 12.186 15.221-3.482 23.009-9.307 5.336-3.013 3.248-2.863 1.216-5.498v-3.742l-1.619-3.8 1.619-.527 2.308-.678.344-4.838-.545-2.427-.311-.444-1.007-.217-.025-1.339-.269-4.453-1.174-1.055.738-2.862 1.569-2.001-.319-2.962-.763-2.955-.856-.393-2.744-.143-.789-3.23-.168-3.373-.268-.369-2.677.193-.612-.243.075-1.565.218-1.808.856-.904.638-.469.839-3.155-.201-.996-.688-.402-1.956-.159-.058-5.901 3.146-1.607.907-1.489-.764-1.616-2.156-.929-3.441-1.783-2.181-1.247-2.014.101z"/><path fill="#000" d="M60.827 361.878c0 3.214.058 3.975.495 5.658q.746 2.963 2.978 3.682c2.518.804 20.911 6.052 26.365 7.517a714 714 0 0 1 8.358 2.285c4.086 1.13 31.458 8.026 42.425 10.679 3.113.762 9.389 2.302 13.937 3.415 13.216 3.231 18.519 4.512 19.509 4.629 2.065.284 5.371-1.749 10.657-6.629 8.358-7.675 11.722-10.99 17.529-17.25a362 362 0 0 1 3.944-4.219c4.313-4.544 7.535-8.771 8.215-10.788.268-.779.679-4.403.746-6.42.135-.335.344-.628.621-.862.302-.301.521-.678.621-1.088 0-.477-.1-.477-2.475-.059l-.722.126-.268-1.155c-.747-3.231-2.744-7.6-3.239-7.106a9.4 9.4 0 0 0 .596 2.184c.394 1.13 1.015 3.105 1.384 4.386l.68 2.302-.52.393a22 22 0 0 1-3.08 1.398c-2.66 1.046-16.765 7.449-20.231 9.182-2.66 1.339-4.028 2.285-5.513 3.866a16.4 16.4 0 0 0-3.365 4.939c-1.3 2.778-2.148 5.842-3.734 13.626-.99 4.863-1.048 5.264-.973 7.616 0 .963.101 1.917.269 2.863.167.368.1.393-.949.243-1.594-.201-4.606-.904-20.835-4.88-16.018-3.909-48.282-12.086-55.12-13.953-14.45-3.933-17.32-4.737-22.094-6.093-9.373-2.678-13.09-3.766-13.669-3.992-.906-.352-1.09-1.381-1.074-6.194 0-4.16.017-4.26.747-6.997 1.049-3.909 1.049-3.951 1.737-3.683.738.268 10.984 3.047 14.743 3.993 4.229 1.071 23.948 5.499 38.087 8.545 2.601.578 6.192 1.356 7.946 1.775 5.572 1.28 7.284 1.665 18.267 4.076 11.454 2.536 15.507 3.398 18.788 4.059 1.133.226 3.138.678 4.439 1.004 4.17 1.047 10.959 2.202 10.505 1.775a19 19 0 0 0-1.938-.41c-4.791-.821-5.798-1.03-9.188-1.875a4028 4028 0 0 1-22.463-5.683c-6.025-1.565-29.066-6.855-33.379-7.675-.353-.059-3.181-.662-6.294-1.34-3.121-.677-8.324-1.791-11.563-2.494-12.863-2.762-26.566-5.783-27.396-6.034l-.865-.243.37-1.046c1.132-3.399 6.52-9.651 10.035-11.735l.848-.477 3.054.904c1.695.511 3.197.929 3.348.929.58 0 .47.41-.168.745-1.695.862-3.381 2.821-4.296 4.921-.806 1.892-.411 1.733.948-.351 1.611-2.469 4.255-4.696 5.597-4.696.999.143 1.98.352 2.954.62 1.3.351 4.254 1.088 6.545 1.649 2.29.552 4.397 1.113 4.707 1.238l.537.201-1.2.988c-2.232 1.875-3.944 3.976-3.734 4.612.042.125.512-.369 1.05-1.114.99-1.381 3.347-3.665 4.295-4.176.479-.243 1.032-.142 5.782 1.046 2.886.737 7.099 1.833 9.373 2.453s7.702 1.992 12.074 3.071c4.38 1.072 10.078 2.536 12.696 3.214 4.539 1.197 8.257 2.16 18.066 4.671 2.433.619 5.639 1.439 7.124 1.833 1.468.368 4.497 1.155 6.713 1.732 2.911.762 4.564 1.088 5.982 1.172l1.964.1.822-.661a12.5 12.5 0 0 1 1.964-1.239c1.2-.619 5.286-2.904 10.304-5.8 3.919-2.268 9.893-6.051 12.939-8.236 1.359-.962 2.979-2.075 3.616-2.452 1.528-.929 5.471-5.106 6.319-6.713a15.3 15.3 0 0 0 1.779-7.265c0-3.975-1.091-7.926-2.559-9.156-2.207-1.833-11.916-6.135-20.726-9.165-1.922-.662-3.86-1.356-4.297-1.54l-.805-.327.822-.594a20.3 20.3 0 0 0 4.145-4.285c1.88-2.779 2.501-4.813 2.501-8.295 0-3.909-.864-6.503-2.853-8.52-1.385-1.398-2.542-2.017-3.549-1.917-.974.084-.848-.059.411-.511a9.1 9.1 0 0 0 3.902-3.255 30 30 0 0 0 1.468-3.666c.848-2.495.864-2.654.738-4.445a23 23 0 0 0-.637-3.766 8.4 8.4 0 0 1-.411-2.101 3 3 0 0 1 1.258-.31 3.7 3.7 0 0 0 1.527-.494c.596-.468.865-2.368.789-5.39-.059-2.837-.226-3.272-1.2-3.272h-.562l-.101-3.256c-.126-3.482-.268-4.06-1.132-4.386-.579-.201-.705-.201-14.92 1.875-13.954 2.034-20.994 2.779-28.361 2.988-3.818.1-3.919.1-4.464.619a4.45 4.45 0 0 0-.89 1.833c-.638 2.411-.327 2.921.453.762.537-1.507 1.242-2.118 2.274-2.034.663.059.747.126.68.578-.042.284-.126 1.623-.202 2.988l-.142 2.469-2.165-.017c-2.971-.017-4.724-.494-15.381-4.059-19.014-6.387-27.581-9.224-30.35-10.044-1.586-.469-2.929-.904-2.97-.929-.043-.042.041-.226.184-.394.201-.242.243-1.071.143-3.708a27 27 0 0 1-.042-3.398c.042 0 .99.327 2.106.737s4.296 1.398 7.082 2.243c7.493 2.201 13.065 3.934 21.363 6.545 14.391 4.57 17.487 5.374 18.192 4.671.311-.31 2.501-.779 5.245-1.13 1.426-.184 3.549-.477 4.749-.636 1.2-.185 2.769-.411 3.507-.519a386 386 0 0 0 6.294-1.013c2.727-.452 6.444-1.046 8.256-1.339 1.813-.31 4.792-.821 6.604-1.155s4.271-.745 5.454-.904c2.518-.352 4.464-.862 4.766-1.239.395-.452-.016-.477-2.584-.1-1.359.184-3.365.477-4.439.594-3.944.494-15.708 2.343-19.778 3.13-2.315.435-5.798 1.03-7.744 1.314-6.134.904-8.274 1.297-9.969 1.833-1.032.327-1.695.452-1.821.327-.285-.293-.226-3.173.059-4.612.184-.846.201-1.256.042-1.423-.126-.126-.269-.184-.311-.126-.243.226-.537 3.792-.411 5.006.084.887.059 1.355-.084 1.355-.327 0-6.318-1.791-9.02-2.72-1.359-.452-6.377-2.184-11.152-3.808a2091 2091 0 0 0-18.787-6.361c-8.92-2.963-10.137-3.415-10.263-3.833-.058-.268-.125-1.708-.142-3.231-.017-2.536 0-2.737.327-2.595 3.306 1.44 30.552 9.943 42.115 13.158 6.335 1.766 7.971 1.975 12.1 1.506 8.13-.904 24.216-3.909 35.133-6.545 3.549-.862 4.338-1.197 3.86-1.666-.168-.167-.596-.167-1.737 0a276 276 0 0 0-12.964 2.202c-8.089 1.581-7.972 1.565-18.293 3.398-8.819 1.582-12.679 1.875-14.844 1.088-.679-.226-2.643-.862-4.338-1.398-1.712-.511-6.956-2.226-11.663-3.783-4.708-1.565-12.78-4.219-17.898-5.909l-9.356-3.072-.101-.619c-.126-.762-.537-6.73-.478-6.797.058-.042 11.52 3.34 17.092 5.064 17.093 5.231 27.724 8.169 30.653 8.521.847.083 2.643-.042 5.68-.411 2.434-.284 5.597-.661 6.998-.82 9.046-1.071 22.153-3.599 26.239-5.089 1.897-.678 2.048-.678 2.232-.142.16.578.26 1.172.311 1.774.126 1.114.084 1.315-.227 1.482-.327.184-7.451 1.691-12.838 2.72-1.2.226-4.212.862-6.713 1.423-2.5.552-6.956 1.415-9.91 1.95-7.241 1.281-8.584 1.54-9.045 1.791-.554.285-.328.394.394.184.352-.1 1.552-.326 2.685-.493a1900 1900 0 0 1 14.324-2.202c8.525-1.238 19.777-3.498 21.674-4.36a8.2 8.2 0 0 1 2.106-.511l1.2-.125-.017 1.523c0 .678-.05 1.347-.168 2.017a4.2 4.2 0 0 0 .311 1.85c.788 2.385.788 2.427.084 2.327q-1.284.002-2.543.242c-1.032.168-2.643.41-3.549.536-1.695.243-4.112.661-11.353 1.959-2.274.393-5.245.929-6.604 1.155-1.359.242-4.296.786-6.503 1.213-5.278 1.03-8.71 1.649-9.247 1.649-.747 0-.52.368.369.636.822.243 3.348 0 7.435-.762.847-.142 4.522-.744 8.156-1.314 9.7-1.523 11.353-1.791 15.901-2.695 4.111-.82 9.389-2.184 9.599-2.452.352-.184.738-.31 1.133-.368 1.317-.293 1.426-.184 1.963 1.891.663 2.612.479 4.093-.663 5.374l-.621.72h.538c.822 0 1.485-.804 1.98-2.386.638-2.076.763-3.172.352-3.172-.453 0-.679-.477-1.091-2.268-.453-1.992-.746-2.269-2.517-2.269a5 5 0 0 1-1.695-.209c-.243-.142-.327-.778-.411-2.82-.101-2.511-.126-2.637-.596-2.863a3.9 3.9 0 0 0-1.695-.142l-1.217.084v-1.022c0-1.314.496-2.569 1.259-3.172.68-.51 1.074-2.101.973-3.808l-.058-.971-1.074-.184c-.638-.126-1.133-.326-1.217-.511a19 19 0 0 1-.252-2.737l-.084-2.41.747-.31a7.7 7.7 0 0 0 2.727-2.226c.227-.41.269-.41.848.41.159.218.302.452.428.686a42 42 0 0 0-1.1-4.662c-.427-.142-.897-.309-1.426-.493-3.197-1.114-4.942-1.875-6.209-2.779a4.8 4.8 0 0 1-2.719-.218 4.4 4.4 0 0 1-1.326-.854c-.688.109-1.846.318-3.063.544a2073 2073 0 0 1-22.605 4.219c-5.37.946-9.767 1.791-10.942 2.117l-.621.185.059 1.581c.059 1.482-.126 2.185-.579 2.185a5.9 5.9 0 0 1-.285-1.791 7.66 7.66 0 0 0-.932-3.457c-1.485-3.088-4.313-6.177-7.762-8.437-2.164-1.423-7.904-4.344-12.485-6.361-1.754-.778-5.983-2.737-9.39-4.344-5.513-2.594-7.082-3.314-10.094-4.528-.437-.184-.747-.368-.705-.41.251-.268 4.707-.778 9.767-1.13 10.262-.736 16.883-1.54 22.916-2.795 1.921-.411 4.992-1.047 6.813-1.423 1.813-.369 5.245-.963 7.636-1.339 6.646-.988 6.176-.971 7.057-.369.436.285 2.081 1.197 3.675 2.017a150 150 0 0 1 13.216 7.717c2.274 1.482 4.54 2.963 5.06 3.256.52.31 1.158.72 1.443.929l.521.327-.412-.469c-.595-.703-6.377-4.963-9.389-6.939-2.518-1.623-5.018-3.071-11.152-6.377a24 24 0 0 1-3.449-2.101c-.436-.477-.511-.477-1.443-.268-.537.126-3.818.703-7.283 1.255a770 770 0 0 0-11.152 1.959c-8.257 1.565-13.938 2.268-26.096 3.289-4.766.394-11.253 1.256-11.605 1.565-.168.126-.184.411-.1.762.125.469.41.661 1.997 1.239 1.015.368 2.458.904 3.238 1.214l1.402.535-.143 1.565a22 22 0 0 1-.369 2.469l-.227.904-2.618-.041c-2.35-.042-2.643-.017-2.81.326-.202.368-.68 3.808-.554 3.934.016.042 1.241.326 2.66.661 1.443.326 2.701.661 2.785.72.101.058 2.501.761 5.303 1.565 9.105 2.569 14.97 4.302 18.771 5.541 3.449 1.113 11.664 3.666 14.013 4.344 1.015.284 1.527.803.806.803-.562 0-6.109-1.523-9.314-2.553-5.614-1.807-6.898-2.201-16.044-4.862-15.565-4.529-17.713-5.206-18.804-5.91-.37-.226-.479-.226-.68 0-.394.494-.663 2.495-.596 4.487l.059 1.916 1.653.369c.906.201 2.29.51 3.096.703 1.754.41 8.215 2.226 15.591 4.402 3.012.887 7.409 2.185 9.809 2.879 7.225 2.118 15.649 4.671 16.203 4.922.411.184.227.226-1.032.142-1.091-.083-2.769-.477-5.681-1.356a504 504 0 0 0-6.813-1.975 235 235 0 0 1-4.649-1.339c-1.074-.31-5.781-1.708-10.422-3.089-7.988-2.343-10.606-3.172-12.636-3.992-1.242-.494-1.528-.251-2.023 1.691l-.41 1.607-1.612-.042c-1.544-.042-1.611-.017-1.544.41.042.368.285.494 1.3.72.68.167 1.343.309 1.486.351.126.042.285.678.352 1.482.06.761.202 2.101.31 2.946.085.845.144 1.565.127 1.607a9 9 0 0 1-1.242-.368 10 10 0 0 0-1.385-.41c-.1 0-.168.435-.126.97.06.846.143 1.03.722 1.398l.663.41.017 3.541v3.54l-1.091-.042-1.074-.041v4.67c.017 2.569.084 4.737.143 4.821.47.226.948.427 1.443.594 1.132.41 1.3.536 1.242.946q.04 1.304.268 2.595c.437 3.004.495 2.837-.789 3.071l-1.074.184-.1 2.779c-.101 2.57-.126 2.779-.512 2.838a50 50 0 0 0-6.36 1.916 17.61 17.61 0 0 0-9.348 9.467c-1.527 3.892-1.78 9.692-.58 13.4.118.443.345.845.664 1.171.31.185.31.243-.126.553a32.7 32.7 0 0 0-4.834 4.361 26.6 26.6 0 0 0-3.549 5.909c-1.242 2.862-1.426 3.908-1.426 7.616.016 3.44.243 5.089.847 5.725a5.05 5.05 0 0 0 2.727 1.281c1.486.242 1.586.393.596.904a26.5 26.5 0 0 0-4.582 3.297c-2.122 1.976-4.27 5.248-5.571 8.462a16.7 16.7 0 0 0-1.469 7.717c.042 4.244.764 7.491 1.897 8.705.596.636.763.703 5.714 1.992 1.032.251 2.056.561 3.054.929.084.084-.142.268-.511.41-1.032.41-6.067 5.574-7.452 7.642-3.348 5.022-4.791 10.085-4.791 16.756m54.433-158.332c-6.336-1.958-12.427-4.176-12.427-4.553 0-.41.704-.31 2.005.268 2.106.929 8.299 3.314 11.152 4.302 2.685.904 2.274.904-.722-.017m43.197 21.31c-2.274.351-5.983.887-8.257 1.238-2.274.327-4.464.637-4.85.678a2 2 0 0 1-.864-.042 4.4 4.4 0 0 1-.226-1.439 5.8 5.8 0 0 0-.185-1.565c-.101-.143 1.485-.436 4.649-.887 9.867-1.381 32.716-5.416 36.433-6.403a13 13 0 0 1 1.88-.411c.394 0 .638-.51.638-1.381 0-1.129-2.786-1.012-9.809.452-10.347 2.118-17.689 3.499-24.15 4.529-2.5.393-5.471.903-6.604 1.113-2.886.577-4.85.761-4.85.477 0-.594 2.744-1.356 8.836-2.411 16.598-2.904 22.295-3.975 26.633-5.047 1.528-.36 3.03-.795 4.498-1.314.319-.209.512-.569.495-.946v-.619l.822.82c.89.887 1.737 1.356 3.76 2.143 1.711.661 2.433 1.013 2.433 1.214 0 .2.621.778 1.301 1.238l.553.369-.52.678c-.361.426-.797.77-1.3 1.012-4.213 1.75-16.682 4.344-31.316 6.504m-11.974 11.751.059-1.85.059-1.833 2.206.126c2.333.125 4.523-.059 10.263-.862 3.759-.536 12.41-1.992 14.449-2.453a93 93 0 0 1 3.306-.72c1.133-.242 4.254-1.004 6.914-1.69 2.66-.695 5.228-1.298 5.656-1.356l.805-.101-.125 1.733a9.7 9.7 0 0 1-.37 2.302c-.226.493-.352.552-.99.477-.839 0-1.678.1-2.5.284a292 292 0 0 1-29.209 5.022c-1.486.168-3.651.435-4.85.594-1.2.143-2.954.285-3.919.31l-1.754.025zm-46.964-19.309c0-1.047.1-1.072 2.5-.352.948.285 4.112 1.197 6.998 2.034 2.887.845 7.821 2.285 10.942 3.214 3.122.946 6.872 2.076 8.358 2.511 1.468.452 5.37 1.481 8.626 2.327 6.645 1.707 6.813 1.732 11.604 1.213 9.667-1.046 25.459-3.64 32.004-5.247 3.633-.904 4.439-1.214 4.648-1.75a2.85 2.85 0 0 1 1.897-1.314c.327 0 .369.268.369 2.637v2.611l-2.744.578c-4.682.987-16.186 3.172-20.063 3.825-9.784 1.648-13.812 2.142-16.614 2.042l-1.964-.059v2.427c0 1.708-.058 2.411-.243 2.411-1.091 0-9.457-2.201-14.819-3.892-2.164-.678-6.008-1.892-8.567-2.695a947 947 0 0 1-9.809-3.13c-2.844-.904-6.73-2.101-8.626-2.637a31 31 0 0 1-3.65-1.155c-.201-.226-.822-4.386-.822-5.599m-1.41 32.274c-.243 0-.512-.084-.579-.201-.168-.268.31-.268.722 0 .243.167.226.201-.143.201m86.126 19.66c-2.501.285-7.057.804-10.12 1.156-3.08.326-5.865.661-6.193.703-.352.058-2.475.284-4.749.51-5.303.536-11.806 1.381-13.526 1.775a8 8 0 0 0-1.997.703c-.848.493-.932.267-.705-1.607.184-1.398.579-2.453 1.091-2.863.621-.51 5.722-1.172 16.891-2.226 15.708-1.465 27.439-2.946 29.251-3.708.722-.31.931-.929.31-.929-.579 0-10.614 1.172-17.587 2.059a843 843 0 0 1-12.696 1.439c-9.389.971-15.54 1.792-16.387 2.202-.42.209-.772.527-1.016.929-.369.787-.663 2.678-.663 4.344 0 .971-.084 1.381-.268 1.381-.638 0-4.766-1.256-13.585-4.118-9.767-3.189-32.39-10.663-34-11.241l-.865-.326.042-4.035c.084-4.812-.202-4.528 3.306-3.473 1.284.41 3.348 1.013 4.607 1.381 5.84 1.691 18.561 5.599 25.08 7.7 3.718 1.214 8.383 2.553 12.906 3.75a21.2 21.2 0 0 0 9.415.619c1.401-.167 3.859-.477 5.454-.636 3.574-.393 22.463-3.072 25.702-3.624 3.817-.678 7.056-1.44 7.904-1.875.453-.226.763-.435.705-.494-.47 0-.948.076-1.402.21a70 70 0 0 1-8.298 1.255c-3.608.368-12.964 1.44-16.103 1.833-1.258.167-4.724.552-7.678.845-4.875.494-6.754.779-7.803 1.231-.327.142-.353-.059-.353-2.494v-2.662l4.909-.017c10.757-.042 26.365-1.732 36.87-4.017 2.274-.494 2.895-.578 3.038-.369.109 1.03.117 2.076.042 3.106l-.126 2.837h.764c.595 0 .78.1.931.469.227.594.495 6.11.327 6.587-.1.243-.369.351-1.015.351-.806 0-2.207.143-12.41 1.339m.394 18.916c-2.047 1.013-7.183 3.089-13.317 5.374a92.3 92.3 0 0 1-15.976 4.737c-2.274.519-4.54 1.046-5.06 1.214-2.291.719-3.776.41-16.555-3.482-9.91-3.005-38.952-12.806-49.508-16.673a17 17 0 0 0-2.29-.72c-.596 0-1.175-.803-1.444-1.992a25.6 25.6 0 0 1-.125-6.302c.142-.988.243-1.197.511-1.113.21.042 1.737.51 3.45 1.029 3.263 1.013 9.64 2.904 13.828 4.135 1.359.393 5.529 1.649 9.288 2.779 3.734 1.113 9.742 2.879 13.317 3.933 3.575 1.047 7.409 2.16 8.509 2.495 1.116.326 2.97.887 4.128 1.213 1.175.352 3.096.946 4.296 1.314 2.601.846 8.442 2.285 8.584 2.118.126-.126.168-.101-2.702-.862a259 259 0 0 1-5.471-1.582 2497 2497 0 0 1-5.16-1.549c-.974-.267-4.129-1.255-7.023-2.159-2.887-.904-7.636-2.385-10.531-3.273a652 652 0 0 1-10.732-3.481c-10.095-3.357-15.54-5.047-20.441-6.278l-3.407-.845.042-.678c.042-.971 1.78-4.319 2.912-5.616 2.148-2.494 5.261-4.428 9.6-5.968a17.4 17.4 0 0 0 2.558-1.029c.454-.369.496-.084.27 1.297-.27 1.649-.27 3.499 0 4.176.217.402.553.72.972.904.949.494 8.056 3.005 11.723 4.177 1.468.452 6.587 2.118 11.353 3.683 17.587 5.783 23.948 7.658 25.802 7.675a17.7 17.7 0 0 0 3.306-.536c2.518-.636 3.617-.803 3.617-.536a17 17 0 0 1-.906 1.993c-2.006 3.992-3.348 7.616-3.902 10.663-.596 3.088-.705 8.729-.168 8.729.159-.862.218-1.741.185-2.611a40 40 0 0 1 .268-3.976 46.6 46.6 0 0 1 2.769-9.366c.596-1.355 1.343-3.13 1.628-3.933.747-1.959.596-1.917 7.762-2.762 11.663-1.381 22.009-2.779 29.007-3.934 1.469-.243 3.013-.452 3.407-.477.705-.017.747.016 1.074 1.012a23 23 0 0 1 .579 3.189c.369 3.315.395 3.131-.31 3.34-1.485.435-7.72 1.691-13.627 2.737-18.226 3.256-27.951 5.432-28.924 6.503-.353.369-.327.394.243.184 2.207-.761 20.743-4.511 26.919-5.457 2.559-.393 5.571-.887 6.712-1.113 3.424-.678 7.745-1.649 7.989-1.791.579-.368-.579 3.808-1.301 4.737a1.36 1.36 0 0 1-.906.536c-.269 0-.512.084-.554.184-.126.326-4.422 3.072-6.276 4.018m1.787 22.088c-6.26 2.385-14.97 6.319-25.803 11.65-3.465 1.708-7.14 3.457-8.156 3.892a10.3 10.3 0 0 1-2.584.787c-1.133.017-3.096-.452-7.325-1.791-2.165-.678-5.782-1.808-8.056-2.511-4.086-1.255-15.75-5.022-28.387-9.157-7.25-2.368-17.319-5.54-23.117-7.248a325 325 0 0 1-7.434-2.31l-3.609-1.155-.167-.929c-.185-1.088-.101-6.093.125-6.303.143-.167 2.895.511 8.09 1.959 1.594.452 4.933 1.381 7.434 2.076 2.475.678 6.629 1.891 9.188 2.678 5.454 1.666 14.013 4.177 23.847 6.997 8.282 2.369 10.036 2.905 12.797 3.834 3.465 1.155 14.743 4.402 15.255 4.402.436 0-.227-.368-1.016-.552-1.258-.327-9.389-2.796-14.348-4.386-2.434-.762-5.883-1.833-7.636-2.369a353 353 0 0 1-5.681-1.749c-4.993-1.607-12.452-3.892-14.76-4.528-1.3-.368-4.623-1.339-7.392-2.185-2.744-.82-6.94-2.042-9.29-2.678a550 550 0 0 1-6.754-1.875c-1.36-.393-3.843-1.004-5.513-1.398-3.835-.887-3.96-.945-3.776-1.916.201-1.113 2.022-4.821 3.054-6.278a28.6 28.6 0 0 1 5.698-5.457l1.284-.862 1.174.594c.638.327 2.333 1.013 3.76 1.524 6.092 2.243 41.351 13.91 47.376 15.685 2.148.636 5.638 1.691 7.744 2.327 4.834 1.464 5.925 1.523 10.12.41 1.527-.41 4.212-1.072 5.966-1.507 4.523-1.071 8.878-2.553 17.504-5.993 7.367-2.921 9.121-3.682 10.178-4.402.436-.31.747-.327 1.896-.184a6.72 6.72 0 0 1 4.565 2.226c1.284 1.398 1.712 2.494 2.048 5.064.352 2.904.436 2.795-2.769 3.783-2.744.862-4.808 1.624-12.344 4.486-3.985 1.524-9.909 3.524-16.513 5.6-3.65 1.155-8.442 3.071-9.616 3.85-1.469.987-1.427.636.285-2.779 1.443-2.879 1.384-2.72.99-2.57-1.2.452-3.944 6.504-4.565 10.069-.285 1.691-.411 3.792-.226 3.583a22 22 0 0 0 .621-2.386c.26-1.18.596-2.335.99-3.482.436-1.088.537-1.196 1.401-1.422a31 31 0 0 0 3.097-1.239c1.963-.862 6.175-2.344 15.791-5.558 7.368-2.469 20.357-7.323 21.742-8.152a5 5 0 0 1 .788-.393c.227 0 .042.929-.436 2.159a15.3 15.3 0 0 1-3.482 5.189c-1.569 1.666-2.358 2.227-4.045 2.863m-9.247 46.662c.084-2.612.126-2.779.579-3.131l.495-.368-.906-.243c-.52-.142-2.005-.577-3.306-.971-3.423-1.029-11.605-3.356-16.95-4.796-2.542-.694-7.04-1.933-9.994-2.778-2.953-.846-7.325-2.034-9.7-2.679-2.391-.636-5.554-1.523-7.014-1.975-1.486-.435-8.073-2.226-14.66-3.976a3956 3956 0 0 1-16.513-4.427c-7.393-1.992-20.894-5.474-26.222-6.713-8.962-2.117-8.458-1.958-8.4-2.678.185-1.808 2.023-5.968 3.634-8.194 2.6-3.641 5.47-5.909 8.525-6.713.78-.201 1.2-.142 4.338.72 1.897.511 3.633 1.029 3.843 1.155.353.184.244.326-.89 1.339-1.4 1.281-3.305 3.808-3.305 4.428 0 .619.268.435.931-.62 1.36-2.184 3.843-4.36 4.934-4.36.705 0 4.254.971 4.54 1.239.084.1-.101.309-.437.477-1.485.778-4.397 3.908-4.397 4.737 0 .31.52-.126 1.98-1.691.907-.987 1.889-1.9 2.93-2.737l.93-.636 2.66.904c2.585.862 2.66.904 2.207 1.214-2.248 1.464-4.682 4.034-4.229 4.469.084.084.948-.661 1.939-1.624 2.744-2.678 3.155-3.046 3.381-3.046.227 0 4.993 1.481 10.699 3.339 1.754.578 4.648 1.482 6.402 2.018s5.639 1.791 8.626 2.762c2.971.97 7.284 2.326 9.599 3.029 2.291.678 5.555 1.691 7.267 2.244 4.154 1.339 6.788 2.059 8.156 2.268 1.485.201 2.476-.101 5.824-1.791l2.66-1.356 1.569.142c2.827.226 9.02 1.808 12.679 3.214 1.653.636 2.811.762 1.426.167-.394-.184-1.51-.694-2.475-1.155-1.88-.904-5.924-2.184-9.189-2.921l-1.997-.452.638-.393a43 43 0 0 1 4.649-2.268c1.074-.394 1.175-.394 2.433-.084 1.67.435 6.008 1.691 7.082 2.059.453.167 2.392.762 4.338 1.339 1.922.578 3.634 1.088 3.76 1.13.142.059.268 0 .268-.084 0-.368-4.028-1.849-10.699-3.933-4.992-1.566-4.682-1.381-3.306-1.934q.944-.402 1.838-.904c1.284-.82 2.87-1.481 3.575-1.481 1.3 0 11.99 3.373 13.518 4.26 1.09.636.931.243-.185-.452-.906-.577-3.281-1.59-7.946-3.398-1.821-.703-3.382-1.339-3.466-1.423-.21-.209 3.197-1.624 9.415-3.951l.973-.351 2.434.762c8.441 2.695 18.93 6.913 23.201 9.324 2.601 1.464 2.828 1.807 3.491 4.938a12.9 12.9 0 0 1-.017 6.219c-.579 2.301-1.301 3.473-3.508 5.683-1.544 1.565-2.928 2.636-6.503 5.047-7.367 5.005-10.094 6.729-14.449 9.156-2.274 1.281-5.345 3.005-6.814 3.867-1.485.862-3.381 1.975-4.229 2.452a8.2 8.2 0 0 1-1.879.888c-.638 0-.865-1.281-.764-4.286m-111.81-24.532a5 5 0 0 1-.496-1.397c-.352-1.398-.62-7.056-.352-7.056.1 0 1.485.326 3.08.745 1.585.393 8.357 2.101 15.07 3.783 6.688 1.666 14.819 3.75 18.066 4.587 3.239.862 9.498 2.494 13.937 3.64 4.422 1.156 10.137 2.679 12.696 3.399 4.481 1.255 9.994 2.762 16.346 4.427 2.584.678 10.035 2.695 17.092 4.629.974.268 4.171 1.172 7.124 2.017 2.954.845 6.235 1.749 7.284 2.017l1.938.494-.126.619c-.059.352-.21 1.03-.31 1.54a9.5 9.5 0 0 0 .084 4.219q.2.516.31 1.046c0 .284-2.232-.226-8.341-1.875-7.124-1.917-14.08-3.75-19.224-5.047-2.727-.703-6.998-1.808-9.498-2.469a1302 1302 0 0 0-13.216-3.398c-4.766-1.197-10.573-2.695-12.906-3.331-6.645-1.792-11.621-3.089-27.354-7.039-17.504-4.403-20.995-5.332-21.221-5.558m111.945 53.918c1.837-8.52 3.239-12.119 6.024-15.542 2.518-3.106 6.789-5.642 19.82-11.793 9.398-4.445 12.469-5.642 12.058-4.612a31 31 0 0 0-.621 3.046 19.5 19.5 0 0 1-.906 3.641c-1.427 2.905-13.174 15.484-23.453 25.093-8.895 8.295-9.641 8.931-11.907 10.169-1.854.988-1.938.971-2.089-.636-.185-2.034.167-5.164 1.074-9.366"/><path fill="#000" d="M154.143 294.233c3.365-.268 10.942-2.386 18.998-5.332a269 269 0 0 1 5.471-1.958 102 102 0 0 0 4.229-1.524c1.711-.661 5.84-1.774 6.008-1.607a29 29 0 0 1-3.155 1.381c-1.796.703-4.196 1.649-5.329 2.101s-3.465 1.314-5.16 1.917a118 118 0 0 0-3.902 1.423c-1.259.519-10.984 3.398-12.922 3.833-2.022.435-4.666.511-5.513.168-.52-.226-.411-.243 1.284-.394M168.073 287.42a81 81 0 0 1-8.047 1.891c-1.754.369-3.239.678-3.281.745-.579.059-1.167.084-1.754.059l-1.67-.042 1.343-.184a115 115 0 0 0 15.976-3.708c3.181-1.029 6.319-1.892 6.445-1.766.1.1-6.419 2.285-9.004 3.005M154.471 319.635c.327-.368 3.365-1.833 5.345-2.553.394-.142 1.879-.72 3.306-1.314a125 125 0 0 1 4.54-1.732c1.074-.394 2.542-.904 3.264-1.197a351 351 0 0 1 5.059-1.808c3.693-1.297 6.277-2.226 9.122-3.298 4.908-1.85 5.982-1.975 2.374-.268a54 54 0 0 1-7.015 2.779c-3.902 1.381-13.501 4.896-16.413 6.035-1.711.678-3.985 1.54-5.059 1.933-1.074.394-2.56.946-3.306 1.214-.747.284-1.385.535-1.427.535-.042.017.059-.142.21-.326M140.617 206.007c-.394-.511-.411-.553-.058-.946.864-.971 2.911-1.281 3.817-.578a5.6 5.6 0 0 0 1.712.72c2.048.536 2.786 1.808 1.385 2.344a6.48 6.48 0 0 1-5.144-.394 5.8 5.8 0 0 1-1.712-1.155M172.427 198.239a19.7 19.7 0 0 1 4.481 2.101c.453.351.47.41.143.72-.52.535-1.469.435-4.254-.494-2.828-.929-3.307-1.214-2.87-1.708.352-.452 1.67-.761 2.5-.619M171.479 200.591c1.981.552 2.786.946 2.786 1.339 0 .168-.017.31-.059.31-.016 0-.411.142-.864.31a6 6 0 0 1-2.274.242c-1.242-.058-1.754-.226-3.616-1.13-2.023-.987-3.718-2.117-3.718-2.494 0-.284 1.922-.41 3.097-.184a8.5 8.5 0 0 1 2.064.678c.839.368 1.695.678 2.576.929M144.855 245.855c-.126-.126-.202-1.54-.202-3.373 0-2.201.084-3.256.244-3.415.184-.184.243.552.201 3.373-.017 2.411-.101 3.557-.243 3.415M145.366 203.864c0-.436 3.449-.536 5.488-.168 1.385.243 3.096.929 3.239 1.281.185.477-.269 1.197-.931 1.506-1.158.519-2.434.226-5.245-1.171a19 19 0 0 1-2.559-1.44M177.16 205.036c0 .326-8.382 2.326-13.316 3.172-2.249.393-9.658 1.891-12.595 2.527a14.3 14.3 0 0 1-3.097.519c-.453.017-.352-.058.412-.267 1.736-.452 8.525-1.875 15.28-3.189a413 413 0 0 0 9.842-2.034c1.922-.435 3.466-.762 3.466-.72M159.422 200.633a4.03 4.03 0 0 1 2.248-.042c1.712.285 5.161 1.833 5.161 2.285 0 1.155-2.702 1.507-5.488.703-1.67-.477-2.391-.845-2.853-1.481-.512-.703-.268-1.114.932-1.465M154.798 202.24c1.401.352 4.002 1.381 4.581 1.833.311.226.437.477.328.636-.252.394-3.08.142-4.481-.393-1.158-.452-2.434-1.423-2.434-1.85 0-.368.991-.494 1.998-.226M136.782 199.026c-5.882-3.231-12.368-6.445-13.333-6.587-.68-.126-1.317-.494-.847-.494.822-.017 9.347-1.339 11.21-1.733 1.301-.284 3.306-.719 4.439-.945 1.133-.243 3.222-.704 4.649-1.03 1.426-.326 3.037-.661 3.616-.72 1.771-.226 3.306-.552 3.575-.787.184-.142.512-.125 1.132.059.974.285 4.876 2.226 7.057 3.524.781.468 2.065 1.197 2.811 1.607.739.41 1.964 1.155 2.685 1.649a15 15 0 0 0 1.779 1.071c.865.326 2.148 1.239 2.023 1.423-.059.125-.454.201-.865.201-.721 0-1.317-.31-6.108-3.072a121 121 0 0 0-3.508-1.959c-.931-.493-2.66-1.422-3.86-2.059-2.458-1.314-3.306-1.623-4.338-1.523l-.722.059.932.594c.512.352 2.643 1.498 4.749 2.595a334 334 0 0 1 6.713 3.599c1.695.971 3.197 1.69 3.692 1.749l.848.126-1.444.477c-.914.284-1.854.477-2.811.577-1.586.126-1.795.042-6.872-2.862-1.611-.929-4.498-2.495-6.419-3.499-1.938-1.013-3.65-1.975-3.843-2.143-.47-.435-2.039-.326-2.039.126 0 .368 5.597 3.457 14.617 8.027 1.594.82 1.611.945.269 1.422-.823.268-3.055.31-3.156.042a7.7 7.7 0 0 0-1.51-.904c-.805-.393-2.349-1.23-3.491-1.874-1.116-.637-2.081-1.156-2.122-1.156-.042 0-1.242-.636-2.627-1.422-1.401-.779-3.482-1.892-4.649-2.453-1.921-.971-2.122-1.029-2.743-.82l-.68.243.68.268c.78.368 1.544.786 2.274 1.255 3.197 1.992 12.057 6.529 13.853 7.081.395.125-2.123.929-3.407 1.088-.931.126-1.116.084-2.349-.661a58 58 0 0 0-3.096-1.708 51 51 0 0 1-3.097-1.732c-.746-.435-2.928-1.624-4.892-2.637-2.743-1.423-3.717-1.833-4.229-1.766l-.679.059 1.032.745c.973.703 4.212 2.553 8.458 4.821 1.015.552 2.333 1.297 2.912 1.665.746.436 1.527.812 2.332 1.13.907.31 1.2.511.99.62a26.3 26.3 0 0 1-4.606.987c-.437.017-1.897-.678-4.951-2.368"/></g><path fill="#5A471C" d="M276.87 304.344c-2.869 4.11-9.633 6.177-15.12 4.62-5.488-1.565-7.611-6.168-4.741-10.278s9.633-6.177 15.12-4.62c5.488 1.557 7.611 6.168 4.741 10.278"/><path fill="#fff" d="M262.832 302.821c-1.888-.93-2.341-2.922-1.007-4.453s3.961-2.017 5.849-1.088 2.341 2.921 1.007 4.452a.47.47 0 0 1-.537.101c-.176-.084-.218-.268-.092-.41 1.09-1.247.721-2.879-.823-3.633-1.544-.753-3.683-.36-4.774.887-1.091 1.248-.722 2.88.822 3.633.176.084.218.268.092.41a.475.475 0 0 1-.537.101"/><path fill="#fff" d="M266.608 304.67c-1.594-.778-1.972-2.46-.847-3.749a.47.47 0 0 1 .537-.101c.176.084.218.268.092.41-.881 1.005-.579 2.319.663 2.93s2.971.284 3.852-.72.579-2.319-.663-2.93c-.177-.083-.218-.267-.093-.41a.47.47 0 0 1 .537-.1c1.595.778 1.972 2.461.848 3.75s-3.331 1.699-4.926.92"/><path fill="#E4B922" d="M79.488 41.456c-4.145-12.739 3.483-26.616 17.034-31.002 13.552-4.386 27.892 2.385 32.029 15.124 4.145 12.74-3.483 26.616-17.034 31.002-13.552 4.386-27.892-2.385-32.037-15.124M24.913 176.093c-2.408-12.27 6.218-24.281 19.266-26.834 13.048-2.552 25.584 5.332 27.992 17.594 2.409 12.27-6.217 24.281-19.266 26.833-13.048 2.553-25.584-5.331-27.992-17.593M33.564 77.814c14.693-5.515 30.829 1.197 36.04 15.007 5.21 13.811-2.468 29.479-17.152 35.003-14.693 5.524-30.829-1.197-36.04-15.007-5.219-13.81 2.468-29.479 17.152-35.003"/><path fill="#E4B922" d="M125.865 150.607a113 113 0 0 0-35.318-29.889 111.3 111.3 0 0 0-23.797-9.441q-1.143 2.674-2.299 5.348a109.4 109.4 0 0 1 25.4 7.876 110.75 110.75 0 0 1 36.014 26.097M132.301 138.328a263.3 263.3 0 0 1-20.415-83.439c-2.089.728-4.17 1.456-6.251 2.176a296 296 0 0 0 6.31 28.081 298 298 0 0 0 20.365 53.174zM158.221 45.783c-12.41 4.662-18.905 17.911-14.5 29.579a21.4 21.4 0 0 0 6.881 9.332 105 105 0 0 0-4.271 12.111 107 107 0 0 0-3.004 43.448 91.4 91.4 0 0 1 5.572-39.489 88 88 0 0 1 6.36-13.257 24.76 24.76 0 0 0 18.939.527c12.41-4.662 18.905-17.912 14.499-29.58-4.405-11.667-18.049-17.35-30.459-12.688zM125.714 157.336a78.1 78.1 0 0 0-35.242 1.138 76.8 76.8 0 0 0-19.66 8.395l-2.215-4.704a93.5 93.5 0 0 1 20.23-5.875 94.8 94.8 0 0 1 36.887 1.046"/><path fill="#fff" d="M27.086 151.937a63 63 0 0 1 2.274 3.29c6.285 9.742 8.987 19.878 10.044 28.465 7.233-1.514 14.458-3.029 21.69-4.544a164 164 0 0 1-1.803-6.897 4.44 4.44 0 0 0 2.29-5.859 4.45 4.45 0 0 0-4.17-2.662c-1.208-4.595-2.416-9.198-3.625-13.793-.545-1.113-1.77-3.172-3.969-3.817a5 5 0 0 0-.696-.15 6.73 6.73 0 0 0-3.373.502c-1.57.644-8.643 2.661-18.662 5.465"/><path fill="#D2D2D1" d="M54.424 159.454a8.56 8.56 0 0 0-4.883-.486 6.33 6.33 0 0 0-4.028 2.695 5.03 5.03 0 0 0-.37 4.746c-.72-.343-1.988-.795-2.894-.259-1.578.945-1.578 4.645.386 6.336a4.68 4.68 0 0 0 3.558.92c6.947-1.105 12.016-2.343 13.459-3.172.537-.31.998-.737 1.35-1.239a3.9 3.9 0 0 0 .563-2.327c.092.277.881 2.654-.554 4.671a4.95 4.95 0 0 1-2.215 1.707c-4.137 1.08-8.274 2.16-12.41 3.231-.168.05-3.306.837-5.64-1.364-1.795-1.708-2.24-4.353-1.484-6.085a8.3 8.3 0 0 1 1.535-2.226 3.17 3.17 0 0 1 1.276-.971 6.88 6.88 0 0 1 1.837-5.215 9 9 0 0 1 1.712-1.372 8.5 8.5 0 0 1 4.028-1.381 6.12 6.12 0 0 1 3.96 1.364"/><path fill="#D2D2D1" d="M29.587 152.214a8.5 8.5 0 0 1 2.24 2.167c3.466 4.554 4.783 10.354 7.552 15.351a14.2 14.2 0 0 0 3.264 4.185 7 7 0 0 0 4.926 1.707 10.7 10.7 0 0 0 2.693-.703 166 166 0 0 0 9.012-3.524c.059 1.097.185 2.193.361 3.281a76 76 0 0 1-12.175 3.34 20.5 20.5 0 0 0 7.048 3.172l-16.572 4.603a469 469 0 0 0-8.718-29.035 21 21 0 0 0-1.729-4.118c-.344-.569-.856-1.121.151-1.062a4.2 4.2 0 0 1 1.938.636z"/><path fill="#000" d="M37.776 186.187a7.6 7.6 0 0 0 2.366-.452c.747-.201 1.494-.393 2.24-.594 1.545-.419 3.089-.837 4.641-1.272 3.03-.837 6.075-1.641 9.113-2.453a693 693 0 0 0 5.244-1.431c.168-.05-.05-.879-.218-.837-6.1 1.674-12.192 3.373-18.284 5.03-.856.235-1.712.477-2.576.712-.856.234-1.871.418-2.618.912-.084.05 0 .36.1.368zM26.431 172.067q1.02-.136 2.014-.385c.663-.143 1.36-.31 2.04-.461.679-.15 1.333-.309 1.996-.46l.974-.234c.109-.025.251-.025.285-.151a.57.57 0 0 0-.059-.352c0-.016-.126-.267-.142-.125a5.4 5.4 0 0 1-.823.192l-.872.201c-.621.143-1.242.293-1.863.436-.621.15-1.217.284-1.821.435-.621.134-1.242.301-1.846.51-.092.034 0 .402.1.394z"/><path fill="#000" d="M23.109 155.57c.294-1.481 1.57-3.507 3.457-3.365 1.477.101 2.836 1.499 3.004 3.357l4.154 14.505-7.066 1.674c-1.074-4.503-2.148-9.006-3.213-13.501a4.43 4.43 0 0 1-.344-2.67zM51.084 175.231l-1.686-7.089-2.97.703 2.592-6.922 5.781 4.846-2.97.703 1.712 7.181-2.459.586z"/><path fill="#000" d="M42.005 165.823c.151-.636.21-1.289.37-1.933a8 8 0 0 1 .763-1.917c1.964-3.641 6.512-4.997 10.162-3.038.41.226.805.485 1.175.778 1.493 1.138 2.29 2.837 3.062 4.495.034.092.11.159.21.167 1.368 0 2.66.653 3.482 1.749a3.76 3.76 0 0 1 .361 3.499 4.8 4.8 0 0 1-1.628 2.277 6.16 6.16 0 0 1-2.475.962c-3.449.77-6.872 1.674-10.313 2.486-1.393.326-2.668.686-4.103.293a6.02 6.02 0 0 1-3.054-1.975c-2.023-2.52-.554-6.085 2.097-7.458.219-.117-.033-.862-.2-.778A5.974 5.974 0 0 0 39 172.711a6.19 6.19 0 0 0 6.99 4.102c.814-.159 1.62-.427 2.417-.653.998-.276 2.014-.536 3.02-.795 1.956-.511 3.894-1.088 5.84-1.607a8.7 8.7 0 0 0 2.854-1.139 4.96 4.96 0 0 0 1.88-2.494 5.15 5.15 0 0 0-.487-4.361 4.78 4.78 0 0 0-3.986-2.218l.252.26c-.722-1.574-1.477-3.206-2.786-4.394a8.3 8.3 0 0 0-3.96-1.967 7.64 7.64 0 0 0-8.014 3.557 6.93 6.93 0 0 0-1.024 4.821s.017.025.017 0zM34.009 159.613c.721-.904 1.317-2.068 2.492-2.453a2.12 2.12 0 0 1 1.57.059c.377.192.704.669 1.174.577.478-.092.89-.703 1.2-1.046.36-.469.83-.845 1.376-1.071.646-.21 1.3.109 1.955.067a12 12 0 0 0 2.123-.461c1.661-.41 3.314-.828 4.942-1.356.017 0 0-.075-.017-.067-1.518.277-3.003.628-4.497 1.005-.73.217-1.477.393-2.224.536-.747.117-1.35-.151-2.056-.151-1.25 0-1.694 1.389-2.567 2.017-.621.435-1.074-.285-1.57-.561a1.9 1.9 0 0 0-1.384-.159c-1.443.343-2.123 1.758-2.526 3.038 0 0 .009.059.017.042h-.008z"/><path fill="#000" d="M36.03 165.003c-.125-.201.202-.418.311-.527.151-.151.302-.31.453-.461.31-.318.638-.611.982-.887.176-.134.353-.276.529-.402.075-.058.16-.108.243-.142.034-.008.269-.008.202-.1.033.042-.05.376-.05.435 0 .117.008.234.041.351.218.637.881.176 1.267-.025.37-.184.772-.309 1.183-.36a8 8 0 0 1 .646-.075q.34.025.68-.05c.034-.008 0-.084-.025-.092a2.25 2.25 0 0 0-1.443-.101 4.9 4.9 0 0 0-1.376.595c-.151.083-.428.242-.613.167-.218-.084-.109-.301-.067-.469a.88.88 0 0 0-.193-.828c-.294-.276-.671.033-.931.217-.42.31-.823.653-1.184 1.038-.36.318-.646.712-.83 1.164-.042.159-.084.535.117.611h.017l.042-.034v-.025M26.6 171.757c-.689-3.976-1.595-7.918-2.468-11.86-.226-1.013-.478-2.017-.671-3.038a3.7 3.7 0 0 1 .227-2.126 2.47 2.47 0 0 1 2.701-1.607 3.96 3.96 0 0 1 2.879 2.067c.36.837.62 1.708.797 2.603l.78 2.913a2649 2649 0 0 0 3.122 11.734c1.174 4.395 2.257 8.814 3.499 13.191.05.184.226.72.511.645.286-.076.177-.636.135-.812-1.058-4.185-2.25-8.328-3.365-12.496a6879 6879 0 0 0-3.357-12.496c-.276-1.022-.545-2.059-.822-3.08q-.302-1.446-.856-2.804a5.1 5.1 0 0 0-3.046-2.779 2.805 2.805 0 0 0-3.172.946c-1.032 1.414-.897 3.18-.537 4.796 1.05 4.737 2.04 9.508 3.315 14.195.084.301.411.443.336.008"/><path fill="#000" d="M24.342 152.339a6.8 6.8 0 0 0 2.501-.318c.83-.201 1.67-.393 2.509-.602 1.695-.427 3.39-.837 5.076-1.281l10.137-2.645c.83-.217 1.661-.435 2.484-.661a7.3 7.3 0 0 1 1.392-.285 4.95 4.95 0 0 1 3.793 1.323c.697.661 1.2 1.49 1.485 2.402.034.1.068.226.101.351l.017.084.025.134c.017.092 0-.008 0-.059.034.159.059.31.092.461.11.427.227.854.336 1.28.495 1.875 1.007 3.75 1.477 5.625.47 1.883.973 3.858 1.56 5.75.043.126.194.603.395.519s0-.753-.025-.854c-.411-1.799-.932-3.59-1.452-5.365-.503-1.716-.965-3.448-1.451-5.181-.487-1.732-.814-3.708-1.93-5.248a5.1 5.1 0 0 0-2.946-2.017 7.57 7.57 0 0 0-3.742.235c-3.474.862-6.931 1.791-10.397 2.695-1.946.51-3.893 1.029-5.831 1.556-.974.26-1.939.536-2.904.804-.965.276-1.963.469-2.76 1.063-.042.033.008.218.058.234M59.425 172.368a1.2 1.2 0 0 0 .034.687c.058.318.125.636.184.954.118.594.243 1.197.378 1.791.268 1.247.553 2.486.839 3.725.033.15.184.56.411.51.218-.058.134-.502.1-.644a593 593 0 0 0-.864-3.717c-.142-.594-.293-1.188-.444-1.782l-.252-.954a1.2 1.2 0 0 0-.277-.595c-.042-.042-.092-.016-.109.025"/><path fill="#fff" d="M166.092 40.795c9.977-2.369 20.03 3.95 22.446 14.103 2.425 10.152-3.7 20.305-13.677 22.674s-20.03-3.942-22.446-14.103c-2.425-10.153 3.7-20.306 13.677-22.674"/><path fill="#D2D2D1" d="M154.429 58.69c.251 1.707.78 6.034 4.531 9.022 1.997 1.582 4.506 2.335 6.973 2.93-6.629-2.754-9.767-10.346-7.007-16.958.369-.895.848-1.74 1.41-2.536a12.89 12.89 0 0 0 3.524 13.802 10.87 10.87 0 0 0 5.152 2.888c4.322.895 7.703-1.557 8.19-1.917a11.05 11.05 0 0 0 4.011-6.436c1.468-6.044-2.324-11.049-2.92-11.81a16.34 16.34 0 0 1 5.127 14.413 14.34 14.34 0 0 0 2.492-8.99 14.63 14.63 0 0 0-4.775-9.675c2.669 1.74 5.11 3.992 6.478 6.871 1.15 2.411 1.494 5.123 1.586 7.793.126 2.26-.126 4.52-.747 6.696-1.242 3.867-4.229 6.963-7.526 9.349a25 25 0 0 1-8.475 4.134c-3.08.837-6.336.72-9.348-.334a15.4 15.4 0 0 1-5.479-3.608 19.56 19.56 0 0 1-5.345-10.353c-.361-2.009-1.217-6.721 1.191-11.617.73-1.474 1.67-2.821 2.803-4.01a17.04 17.04 0 0 0-1.83 10.312l-.016.017z"/><path fill="#E4B922" d="M163.818 56.999c.445.351.722.284 1.242.084.411-.143.805-.327 1.2-.503.898-.401 1.795-.795 2.702-1.18 1.787-.745 3.608-1.347 5.412-2.05.151-.06.176-.268.193-.402a2.1 2.1 0 0 0-.42-1.599c-.067-.092-.21-.293-.361-.26a45 45 0 0 0-5.429 1.984 55 55 0 0 0-2.601 1.155c-.864.41-1.972.829-2.181 1.783-.068.352.025.712.26.98h-.017z"/><path fill="#E4B922" d="M168.484 54.58c.57.377.998.167 1.644.125a3.06 3.06 0 0 1 1.821.402q.216.126.394.301c.042.034.445.47.286.235-.034-.201-.034-.142-.025.184l-.017.167c-.025.151-.059.293-.109.436a4.4 4.4 0 0 1-.865 1.514c-1.401 1.691-3.599 2.93-5.848 2.603-.495-.075-.059 1.172.059 1.34 1.434 1.95 3.079 3.674 5.454 4.452 2.064.67 5.471.963 6.36-1.607.084-.242-.042-1.02-.386-1.02a8.5 8.5 0 0 0-1.443.309c-.554.092-1.108.226-1.67.276a8.9 8.9 0 0 1-3.214-.41c-1.82-.57-3.851-1.557-4.984-3.164l.059 1.34c2.928.585 6.201-.528 7.317-3.49.579-1.524.293-3.7-.999-4.83-1.023-.887-3.474-1.113-3.969.435-.033.15 0 .301.101.419z"/><path fill="#E4B922" d="M166.663 58.597c.36.193.721.017 1.107-.075.411-.1.814-.218 1.217-.327.772-.217 1.561-.443 2.333-.653 1.602-.418 3.205-.811 4.816-1.188a.15.15 0 0 0 .092-.117 1.01 1.01 0 0 0-.285-1.113.2.2 0 0 0-.134-.067c-1.603.393-3.214.786-4.8 1.247-.772.234-1.552.46-2.316.728-.369.126-.738.268-1.099.427-.386.176-.848.31-1.041.703a.4.4 0 0 0 .101.427h.009z"/><path fill="#000" d="M156.786 72.24c2.09 2.946 5.606 4.77 9.071 5.608 3.44.803 7.04.711 10.439-.26a18.5 18.5 0 0 0 8.835-5.357 19.1 19.1 0 0 0 4.674-11.483c.529-8.068-3.969-16.187-11.303-19.736a17.8 17.8 0 0 0-12.771-1.03 19.68 19.68 0 0 0-10.396 7.558c-4.582 6.546-4.984 16.096-.411 22.766a14 14 0 0 0 1.896 2.227c.252.242.126-.636.017-.77-2.492-3.038-4.171-6.646-4.355-10.597a19.1 19.1 0 0 1 2.71-10.914c4.28-7.14 13.182-10.964 21.238-8.386 7.065 2.251 12.31 8.997 12.477 16.421a17.96 17.96 0 0 1-3.532 11.157 18.7 18.7 0 0 1-7.98 5.935c-6.025 2.435-13.409 1.924-18.704-2.01-.638-.468-1.242-.945-1.888-1.405-.126-.093-.05.25-.017.293z"/><path fill="#000" d="M150.325 57.518c-.344 1.573-2.391 11.793 4.808 18.765 5.79 5.607 13.426 5.097 14.945 4.971 9.683-.853 14.768-8.554 15.372-9.5-1.561.896-11.521 6.554-17.974 5.265a19 19 0 0 1-1.711-.435 19.05 19.05 0 0 1-8.559-5.256c-5.496-5.91-5.06-13.484-4.976-14.572A19.8 19.8 0 0 1 155.091 48a22 22 0 0 0-4.774 9.491z"/><path fill="#000" d="M183.697 60.095a15.02 15.02 0 0 0-4.389-12.01 11.92 11.92 0 0 0-12.914-2.595 14.36 14.36 0 0 0-8.617 10.596 13.26 13.26 0 0 0 3.96 12.354 12.7 12.7 0 0 0 6.117 3.24c1.158.175 2.325.217 3.491.141 1.343-.016 2.677-.2 3.977-.535.059-.017.017-.193-.042-.184a16.3 16.3 0 0 1-3.046.468 10.1 10.1 0 0 1-3.197-.385 18.1 18.1 0 0 1-5.462-2.234 11.52 11.52 0 0 1-5.295-10.563 13.81 13.81 0 0 1 6.839-10.755c3.868-2.269 8.55-2.445 12.343 0 4.263 2.753 6.167 7.507 6.218 12.437 0 .008.025.067.033.034l-.016.016z"/><path fill="#D2D2D1" d="M106.848 6.536 86.431 11.38l8.513 35.698 20.416-4.844z"/><path fill="#000" d="M116.711 40.703c-.462-1.834-3.659-15.217-8.115-33.63a3.54 3.54 0 0 0-1.661-2.21 3.3 3.3 0 0 0-2.316-.067c-2.165.603-8.836 2.276-17.906 4.595a3.59 3.59 0 0 0-2.358 1.959 3.58 3.58 0 0 0-.1 2.234c.51 2.135 3.632 14.463 8.013 31.379a4.5 4.5 0 0 0 2.005 3.071c.84.503 1.83.712 2.811.595 8.794-1.934 15.272-3.482 17.437-4.068a3.32 3.32 0 0 0 2.072-1.348c.571-.979.227-2.142.134-2.51h-.016m-2.778.083c0 .15 0 .301-.017.444-.117.686-1.829.987-1.955 1.013l-13.879 3.289a3.6 3.6 0 0 1-1.065.192 1.95 1.95 0 0 1-1.091-.184 2.37 2.37 0 0 1-.89-1.272 5 5 0 0 1-.26-.837 36112 36112 0 0 1-7.468-28.533 3.27 3.27 0 0 1-.176-1.699c.042-.393.193-.77.436-1.096.328-.36.764-.603 1.242-.687 2.014-.493 4.456-.954 4.75-1.012.822.82 2.03 1.138 3.155.82a3.37 3.37 0 0 0 2.148-2.05l4.732-1.306a2.08 2.08 0 0 1 1.645-.025c.78.401.973 1.456 1.041 1.79.377 1.884 3.364 13.752 7.535 30.316.075.268.109.544.117.82h.009z"/><path fill="#fff" d="M91.143 18.907c-.15-.745-.461-2.385.437-3.574a3.5 3.5 0 0 1 1.904-1.18c10.019-2.737 17.529-4.603 19.921-5.055a3.68 3.68 0 0 1 2.71.326 3.54 3.54 0 0 1 1.41 2.218c2.702 10.756 4.632 18.64 5.244 21.009.151.585.546 2.1-.235 3.08-.31.36-.73.619-1.2.745l-20.767 5.398a3.99 3.99 0 0 1-3.231-.929 3.8 3.8 0 0 1-1.175-2.352c-2.66-9.667-4.455-16.924-5.018-19.694z"/><path fill="#000" d="M91.504 18.94a4.45 4.45 0 0 1 0-2.05 3.04 3.04 0 0 1 1.855-1.816c.89-.335 1.846-.527 2.76-.779 1.074-.293 2.165-.585 3.24-.87 3.389-.912 6.788-1.808 10.194-2.636 1.049-.26 2.098-.511 3.147-.745 1.049-.235 2.173-.544 3.214-.134.923.36 1.292 1.138 1.51 2.042.26 1.096.529 2.184.789 3.273.487 2.042.973 4.076 1.477 6.118.73 2.93 1.443 5.859 2.181 8.788l.605 2.41c.142.436.209.896.193 1.357-.093.962-.865 1.414-1.721 1.64-4.615 1.239-9.221 2.545-13.862 3.716-1.124.285-2.248.586-3.373.87-1.124.294-2.181.654-3.272.846-1.343.234-2.962-.385-3.55-1.657a13.4 13.4 0 0 1-.553-2.126c-.294-1.105-.596-2.201-.89-3.306-.52-1.917-1.024-3.842-1.527-5.767-.697-2.703-1.376-5.424-2.056-8.135-.05-.201-.109-.41-.168-.611-.042-.16-.226-.896-.117-.369-.034-.175-.16-.812-.42-.82s-.235.402-.201.586c.184.912.344 1.95.554 2.98.319 1.573.746 3.121 1.14 4.678a534 534 0 0 0 1.57 6.052c.57 2.142 1.259 4.285 1.72 6.453.395 1.8 1.586 3.39 3.466 3.758.486.1.998.117 1.493.042 1.183-.21 2.375-.62 3.541-.92 5.018-1.307 10.019-2.696 15.071-3.851.99-.226 2.206-.343 3.054-.937a2.75 2.75 0 0 0 1.032-2.352 13 13 0 0 0-.587-3.248l-2.065-8.286a388 388 0 0 0-1.577-6.185c-.311-1.172-.621-2.336-.923-3.507a20 20 0 0 0-.856-2.972 3.55 3.55 0 0 0-4.061-2.2c-.898.141-1.788.36-2.677.568-3.382.779-6.755 1.65-10.12 2.536a535 535 0 0 0-6.947 1.858c-.848.151-1.628.57-2.224 1.197a3.93 3.93 0 0 0-.755 2.444c0 .695.084 1.39.268 2.068.084.368.495.51.42 0z"/><path fill="#fff" d="M95.616 9.734c.1.385.486.611.872.52a.72.72 0 0 0 .529-.83.72.72 0 0 0-.881-.502.725.725 0 0 0-.52.82z"/><path fill="#000" d="m108.454 14.614 1.645 6.905 6.922-1.64-1.644-6.906zm7.141 4.385-4.607 1.097-1.099-4.595 4.607-1.097zM111.542 27.587l1.645 6.905 6.922-1.64-1.644-6.906zm7.141 4.386-4.607 1.096-1.099-4.595 4.607-1.096zM94.365 17.954l1.645 6.905 6.922-1.64-1.644-6.906zm7.141 4.385-4.607 1.097L95.8 18.84l4.607-1.097 1.091 4.595zM110.815 32.109l-1.2.284.637 2.671 1.2-.285zM114.491 21.93l-1.2.285.617 2.59 1.2-.285zM101.109 28.267l-1.2.284.617 2.59 1.2-.285zM106.59 26.963l-1.2.285.617 2.589 1.2-.285zM99.379 33.67l-1.2.284.896 3.762 1.2-.284zM107.629 31.711l-1.2.285.897 3.762 1.2-.285zM108.714 23.299l-1.2.284 1.818 7.63 1.2-.285zM97.526 26.145l-1.2.285 1.51 6.335 1.2-.285zM106.735 15.02l-1.2.285 1.69 7.092 1.2-.284zM104.418 18.262l-1.2.285 1.696 7.117 1.2-.285z"/><path fill="#000" d="m117.675 22.632-8.914 2.117.286 1.197 8.914-2.117zM107.143 29.229l-6.694 1.589.286 1.197 6.693-1.59zM105.525 34.918l-5.82 1.382.286 1.197 5.82-1.382zM104.175 27.503l-1.714.407.285 1.197 1.715-.407zM107.641 31.706l-9.461 2.247.285 1.197 9.461-2.247zM105.84 24.175l-9.461 2.247.286 1.197 9.46-2.247zM106.743 15.018l-4.122.979.285 1.197 4.123-.98zM113.608 15.842l-2.278.54.542 2.273 2.277-.54zM116.703 28.826l-2.277.54.541 2.272 2.278-.54zM99.534 19.285l-2.278.54.542 2.272 2.277-.54z"/><path fill="#fff" d="m22.339 96.857-7.633 1.808 4.961 20.839 7.633-1.808zM44.128 92.115l-7.633 1.808 4.962 20.839 7.633-1.808z"/><path fill="#000" d="M5.378 92.478a.98.98 0 0 0-.033.62c.067.594.184 1.196.302 1.79.227 1.256.512 2.495.797 3.75.587 2.562 1.2 5.139 1.804 7.692 1.209 5.131 2.341 10.287 3.936 15.309.15.46.503.376.352-.084-.126-.393-.26-.778-.352-1.18-.067-.285-.269-.218-.219.05.084.36.135.737.193 1.122l.395.117c-.823-5.139-2.123-10.17-3.348-15.225-.613-2.561-1.225-5.131-1.863-7.683a71 71 0 0 0-.973-3.658 34 34 0 0 0-.613-1.975 1.4 1.4 0 0 0-.344-.662H5.37z"/><path fill="#000" d="M5.505 93.232c.218.376.318.435.746.334l.907-.217c.67-.16 1.342-.36 2.022-.553 1.326-.36 2.643-.694 3.952-1.113.067-.017.067-.142.067-.184a1.05 1.05 0 0 0-.193-.753c-.008-.042-.092-.134-.16-.117-1.501.284-2.978.66-4.438 1.054-.722.201-1.443.402-2.157.636-.277.092-.637.126-.755.435a.6.6 0 0 0 .009.452v.025"/><path fill="#D2D2D1" d="m30.566 101.226-7.519 1.781 3.54 14.87 7.52-1.781z"/><path fill="#000" d="M13.023 90.855c.134.92.193 1.816.386 2.753.268 1.23.528 2.453.822 3.675.579 2.435 1.141 4.896 1.72 7.332 1.166 4.888 2.257 9.776 3.44 14.664.059.242.302.912.663.82.361-.084.218-.82.168-1.038-1.133-4.821-2.341-9.642-3.508-14.463-.57-2.386-1.15-4.763-1.728-7.14a111 111 0 0 0-.931-3.649c-.269-1.013-.638-1.958-.974-2.938-.008-.05-.05-.041-.05.017v-.025z"/><path fill="#000" d="M12.04 121.714c.848.494 1.771.117 2.678-.067.914-.184 1.921-.385 2.87-.586 1.963-.427 3.935-.837 5.898-1.289l5.706-1.297c.948-.226 1.905-.435 2.853-.644.445-.109.898-.201 1.334-.319.57-.133.697-.292.89-.862a.58.58 0 0 0-.1-.435 1.08 1.08 0 0 0-1.058-.418c-.445.05-.906.217-1.343.301-.948.226-1.913.427-2.853.644l-5.882 1.34c-1.905.435-3.81.904-5.697 1.347-.948.226-1.897.477-2.836.72-.94.234-2.031.268-2.585 1.138a.38.38 0 0 0 .1.419h.018zM15.003 99.45c.646.444 1.468.11 2.173-.041a46 46 0 0 0 2.04-.486c.73-.176 1.46-.343 2.181-.535a2.6 2.6 0 0 0 .923-.252.92.92 0 0 0 .143-.644.83.83 0 0 0-.445-.502 2.7 2.7 0 0 0-.931.209l-2.19.519c-.672.159-1.36.326-2.031.51-.671.193-1.56.26-1.922.955a.3.3 0 0 0 .059.26z"/><path fill="#000" d="M22.06 97.232c.31 3.524 1.435 7.031 2.249 10.462.813 3.432 1.518 6.864 2.693 10.203.185.527.378.042.269-.293l-.168-.519c-.067-.226-.294-.343-.244-.016q.062.3.084.602l.386.117c-.461-3.498-1.384-6.896-2.223-10.328-.831-3.432-1.41-6.98-2.685-10.228-.101-.26-.395-.477-.361-.025v.025"/><path fill="#000" d="M23.646 103.694a4.2 4.2 0 0 0 1.653-.176c.57-.117 1.124-.226 1.703-.343a125 125 0 0 0 3.39-.745c.352-.084-.008-1.532-.386-1.448-1.124.268-2.257.536-3.365.845-.57.134-1.116.293-1.678.444a4.2 4.2 0 0 0-1.552.569c-.151.126.041.829.234.871"/><path fill="#000" d="M30.258 101.233a5.4 5.4 0 0 0 .134 1.473c.118.653.227 1.314.352 1.95.269 1.306.546 2.603.831 3.9.285 1.298.58 2.595.856 3.892.218 1.381.554 2.746.99 4.077.176.426.714.694.663.016a26 26 0 0 0-.822-4c-.294-1.306-.604-2.587-.898-3.884s-.613-2.586-.923-3.875c-.268-1.147-.478-2.561-1.108-3.566-.008-.042-.058-.058-.067 0v.017zM13.076 91.4l-7.519 1.784 6.705 28.117 7.518-1.784z"/><path fill="#000" d="M28.37 92.846c.201 1.9.554 3.783 1.04 5.625.462 2.067.957 4.143 1.452 6.202.957 4.009 1.83 8.018 3.13 11.919.185.527.395.05.285-.293-.1-.293-.193-.57-.276-.862-.05-.201-.286-.285-.219 0 .059.309.11.644.16.962l.394.117c-.579-4.034-1.594-7.943-2.55-11.902-.462-1.95-.932-3.908-1.427-5.85-.437-2-.999-3.96-1.704-5.884-.075-.193-.31-.352-.293-.017v-.017z"/><path fill="#000" d="M28.546 93.257c.218.376.319.435.755.351.294-.067.613-.134.906-.2.672-.16 1.351-.36 2.023-.536 1.334-.343 2.643-.686 3.96-1.097.067-.016.067-.142.067-.184a1.05 1.05 0 0 0-.193-.753c-.008-.042-.092-.134-.16-.117-1.501.268-2.978.661-4.438 1.054-.722.184-1.452.385-2.165.628-.277.092-.646.109-.755.419a.6.6 0 0 0 .008.452h-.016z"/><path fill="#D2D2D1" d="m52.366 96.057-7.52 1.781 3.541 14.87 7.52-1.781z"/><path fill="#000" d="M36.081 90.947c.143 1.79.453 3.565.94 5.298q.691 3.012 1.41 6.026c.948 3.959 1.846 7.909 2.777 11.877.059.242.31.92.671.82s.218-.82.168-1.038c-.948-3.959-1.921-7.893-2.886-11.852-.462-1.95-.949-3.9-1.419-5.833a29 29 0 0 0-1.585-5.299c-.009-.041-.05-.033-.042.009h-.017z"/><path fill="#000" d="M33.84 116.541c.848.494 1.771.117 2.677-.067.915-.184 1.922-.385 2.87-.586 1.964-.426 3.936-.837 5.9-1.289l5.705-1.297c.948-.226 1.905-.435 2.853-.644.445-.109.898-.201 1.334-.318.57-.134.697-.293.89-.862a.58.58 0 0 0-.101-.436 1.08 1.08 0 0 0-1.057-.418c-.445.05-.907.217-1.343.301-.948.226-1.913.427-2.853.653l-5.882 1.339c-1.905.435-3.81.904-5.698 1.348-.948.226-1.896.477-2.836.72-.94.234-2.03.267-2.584 1.138a.38.38 0 0 0 .1.418h.026000000000000002M36.803 94.27c.646.443 1.468.108 2.173-.042a46 46 0 0 0 2.04-.486c.73-.176 1.46-.343 2.18-.536q.482-.038.924-.25a.92.92 0 0 0 .143-.645.83.83 0 0 0-.445-.502 2.7 2.7 0 0 0-.932.209l-2.19.519c-.671.159-1.36.326-2.03.51-.672.193-1.561.26-1.922.954a.3.3 0 0 0 .059.26z"/><path fill="#000" d="M43.86 92.06c.31 3.523 1.435 7.03 2.248 10.462s1.52 6.863 2.694 10.203c.184.527.377.042.268-.293l-.167-.519c-.067-.226-.294-.343-.244-.017.042.201.067.402.084.603l.386.117c-.461-3.499-1.384-6.897-2.223-10.328-.831-3.432-1.41-6.98-2.686-10.228-.1-.26-.394-.477-.36-.025v.025"/><path fill="#000" d="M45.446 98.522c.562.05 1.124 0 1.653-.176.57-.118 1.124-.226 1.703-.344a123 123 0 0 0 3.39-.744c.353-.084-.008-1.532-.386-1.448-1.116.267-2.257.535-3.365.845-.57.134-1.116.293-1.678.444a4.1 4.1 0 0 0-1.544.569c-.15.125.042.828.235.87"/><path fill="#000" d="M52.058 96.06c-.026.494.025.996.134 1.474.117.652.227 1.314.352 1.95q.403 1.956.831 3.9c.285 1.297.579 2.595.856 3.892.218 1.381.554 2.745.99 4.076.176.427.713.695.663.017a26 26 0 0 0-.822-4.001c-.294-1.306-.604-2.586-.898-3.883s-.613-2.587-.923-3.876c-.269-1.146-.478-2.56-1.108-3.565-.008-.042-.059-.059-.067 0v.017zM36.119 91.428l-7.518 1.784 5.477 22.97 7.519-1.784z"/></g><defs><clipPath id="a"><path fill="#fff" d="M0 0h412v344H0z"/></clipPath></defs></svg>