<svg xmlns="http://www.w3.org/2000/svg" width="79" height="91" fill="none" viewBox="0 0 79 91"><g clip-path="url(#a)"><path fill="#FEFEFE" d="M.787 1.16h76.816v69.848l-2.59 1.25q-.967.473-1.933.947l-1.472.723-.297.145q-1.358.667-2.718 1.329l-.89.433-.223.11q-1.347.656-2.694 1.316l-3.83 1.87q-1.971.96-3.941 1.926l-3.942 1.926q-1.904.929-3.807 1.859l-.253.124-1.27.62-1.269.621-.505.247-1.252.611q-1.162.566-2.317 1.143l-1.068.531-.507.255q-.349.177-.7.35l-.208.107c-.396.194-.638.27-1.08.136a8 8 0 0 1-.518-.218l-.259-.117c-.205-.112-.205-.112-.294-.29l-.536-.179c-.326-.147-.645-.307-.965-.466l-.288-.141-.93-.46-.648-.319-.327-.16-.653-.322q-1.348-.663-2.698-1.32l-.836-.406-.211-.103q-1.364-.665-2.727-1.333l-.267-.13-3.92-1.919-.253-.123q-1.827-.894-3.654-1.783-1.95-.95-3.898-1.904-1.836-.9-3.673-1.794a2573 2573 0 0 1-4.458-2.18q-1.31-.64-2.622-1.28l-.507-.246-.945-.459-.427-.207-.19-.092c-.46-.224-.897-.468-1.346-.717z"/><path fill="#FEC700" d="M.787 1.16h76.816v69.848l-2.59 1.25q-.967.473-1.933.947l-1.472.723-.297.145q-1.358.667-2.718 1.329l-.89.433-.223.11q-1.347.656-2.694 1.316l-3.83 1.87q-1.971.96-3.941 1.926l-3.942 1.926q-1.904.929-3.807 1.859l-.253.124-1.27.62-1.269.621-.505.247-1.252.611q-1.162.566-2.317 1.143l-1.068.531-.507.255q-.349.177-.7.35l-.208.107c-.396.194-.638.27-1.08.136a8 8 0 0 1-.518-.218l-.259-.117c-.205-.112-.205-.112-.294-.29l-.536-.179c-.326-.147-.645-.307-.965-.466l-.288-.141-.93-.46-.648-.319-.327-.16-.653-.322q-1.348-.663-2.698-1.32l-.836-.406-.211-.103q-1.364-.665-2.727-1.333l-.267-.13-3.92-1.919-.253-.123q-1.827-.894-3.654-1.783-1.95-.95-3.898-1.904-1.836-.9-3.673-1.794a2573 2573 0 0 1-4.458-2.18q-1.31-.64-2.622-1.28l-.507-.246-.945-.459-.427-.207-.19-.092c-.46-.224-.897-.468-1.346-.717zm.983 17.595v42.696c.782.417 1.555.828 2.355 1.206l.266.126q.691.327 1.385.652.867.404 1.723.837c.632.317 1.27.623 1.908.93.724.35 1.448.699 2.165 1.062.672.338 1.35.661 2.028.987.67.323 1.34.648 2.004.984.686.345 1.38.674 2.073 1.007q.884.424 1.759.864c.583.294 1.172.575 1.76.858.697.334 1.392.67 2.08 1.018.584.293 1.173.575 1.762.857.696.334 1.39.67 2.08 1.019.583.293 1.172.575 1.76.857 1.284.616 1.284.616 1.91.932.775.392 1.559.767 2.342 1.143.95.456 1.892.927 2.832 1.402q.566.286 1.133.567l.465.234q.34.173.684.342l.207.107c.436.212.708.282 1.19.141.33-.139.648-.299.967-.463l.283-.142.894-.456 1.167-.59.294-.15a98 98 0 0 1 2.145-1.047c.92-.437 1.835-.887 2.75-1.337l1.87-.919a834 834 0 0 1 3.507-1.711l.21-.102q1.326-.646 2.65-1.295l3.852-1.881a5169 5169 0 0 0 6.857-3.35l.251-.123 1.252-.612 2.3-1.125 1.056-.517.49-.24q2.134-1.042 4.274-2.072V18.755z"/><path fill="#FDFDFD" d="M1.68 2.053h58.416v15.81H1.68z"/><path fill="#030100" d="M.787 1.16h76.816v69.848l-2.59 1.25q-.967.473-1.933.947l-1.472.723-.297.145q-1.358.667-2.718 1.329l-.89.433-.223.11q-1.347.656-2.694 1.316l-3.83 1.87q-1.971.96-3.941 1.926l-3.942 1.926q-1.904.929-3.807 1.859l-.253.124-1.27.62-1.269.621-.505.247-1.252.611q-1.162.566-2.317 1.143l-1.068.531-.507.255q-.349.177-.7.35l-.208.107c-.396.194-.638.27-1.08.136a8 8 0 0 1-.518-.218l-.259-.117c-.205-.112-.205-.112-.294-.29l-.536-.179c-.326-.147-.645-.307-.965-.466l-.288-.141-.93-.46-.648-.319-.327-.16-.653-.322q-1.348-.663-2.698-1.32l-.836-.406-.211-.103q-1.364-.665-2.727-1.333l-.267-.13-3.92-1.919-.253-.123q-1.827-.894-3.654-1.783-1.95-.95-3.898-1.904-1.836-.9-3.673-1.794a2573 2573 0 0 1-4.458-2.18q-1.31-.64-2.622-1.28l-.507-.246-.945-.459-.427-.207-.19-.092c-.46-.224-.897-.468-1.346-.717zm.893.892v15.81h58.416V2.052zm0 16.703v51.45c1.227.613 2.45 1.22 3.688 1.808.947.454 1.884.93 2.822 1.402q1.535.775 3.087 1.514c.999.476 1.986.974 2.973 1.472.91.458 1.823.91 2.743 1.348 1.123.534 2.234 1.092 3.344 1.65 1.049.528 2.1 1.048 3.162 1.552q.717.34 1.427.698.86.432 1.733.837c.62.29 1.23.598 1.842.905l2.42 1.213.919.46c1.264.634 2.529 1.264 3.807 1.87a47 47 0 0 1 1.63.812q.334.172.667.347l.506.262.292.152c.438.155.701.057 1.117-.128q.17-.086.338-.175l.582-.3q.505-.256 1.012-.51l.418-.21c1.129-.565 2.257-1.13 3.4-1.668.905-.43 1.8-.883 2.697-1.333 2-1.004 2-1.004 2.892-1.424 1.01-.475 2.005-.978 3.003-1.479 1.07-.537 2.141-1.073 3.225-1.584.897-.425 1.783-.873 2.67-1.319 2-1.004 2-1.004 2.892-1.423 1.01-.476 2.006-.98 3.004-1.48 1.07-.537 2.14-1.073 3.224-1.583.982-.465 1.95-.958 2.92-1.445a149 149 0 0 1 3.276-1.602c.435-.208.867-.424 1.298-.64V18.755z"/><path fill="#FC492C" d="M1.68 18.755h.09v47.697q.263.089.535.179.238.105.472.217l.27.13.286.139.3.144q1.067.518 2.126 1.053.84.42 1.69.823 1.548.741 3.088 1.5l1.558.766.313.154q1.328.651 2.66 1.299 1.898.924 3.795 1.853 1.976.968 3.953 1.931l3.807 1.86.253.123 2.292 1.12q2.668 1.306 5.338 2.609l.216.105q1.108.541 2.22 1.076l.185.089 1.151.552.258.124c.212.108.212.108.48.287.487-.022.874-.236 1.298-.455l.221-.112.468-.237q.607-.308 1.215-.615l.24-.122a79 79 0 0 1 1.828-.894 75 75 0 0 0 1.737-.847c.624-.313 1.252-.614 1.88-.917.73-.35 1.457-.702 2.18-1.067.685-.346 1.38-.675 2.072-1.007a88 88 0 0 0 1.6-.784c.741-.375 1.491-.732 2.24-1.092a89 89 0 0 0 1.6-.784c.636-.321 1.278-.63 1.92-.937.958-.46.958-.46 1.91-.933.726-.367 1.46-.718 2.194-1.071q1.007-.483 2.005-.984c.686-.346 1.38-.675 2.073-1.007q.804-.384 1.6-.784c.635-.322 1.277-.63 1.92-.938.686-.33 1.371-.661 2.051-1.004.617-.31 1.238-.611 1.858-.912l.93-.451.169-.082c.385-.186.385-.186.485-.186v3.84c-2.624 1.319-2.624 1.319-3.64 1.798-.998.472-1.983.968-2.97 1.463-2 1.004-2 1.004-2.892 1.424-1.01.475-2.005.978-3.003 1.479-1.07.537-2.141 1.073-3.225 1.584-.897.425-1.783.874-2.67 1.319-2 1.004-2 1.004-2.892 1.424-1.01.475-2.006.978-3.003 1.479-1.071.537-2.142 1.073-3.225 1.584-.982.465-1.95.957-2.92 1.444-1 .502-2.002.999-3.014 1.478q-.804.382-1.599.78l-.22.11q-.526.263-1.044.538l-.196.103q-.18.095-.36.193c-.385.201-.583.22-1 .112a14 14 0 0 1-.917-.444l-1.131-.572-1.402-.71c-.705-.355-1.416-.698-2.13-1.037-1.032-.49-2.051-1.006-3.072-1.52a166 166 0 0 0-3.408-1.668 79 79 0 0 1-1.657-.818l-1.72-.865q-.983-.492-1.977-.962a172 172 0 0 1-3.386-1.672 153 153 0 0 0-3.087-1.514c-.999-.476-1.986-.974-2.974-1.471q-1.363-.69-2.743-1.349a164 164 0 0 1-3.344-1.65q-1.816-.915-3.655-1.786-.279-.135-.554-.273z"/><path fill="#FD492C" d="M60.9 2.053h15.81v15.81H60.9z"/><path fill="#030303" d="M59.114 36.799h1.965v8.753h-1.965l-.09-.536-.114.111c-.615.565-1.188.648-2.01.631-.74-.07-1.315-.466-1.806-1.01a3 3 0 0 1-.357-.714l-.08-.217c-.34-1.057-.311-2.187.172-3.19a3.23 3.23 0 0 1 1.605-1.416c.25-.04.495-.043.748-.04l.204.002c.734.02 1.108.222 1.638.752z"/><path fill="#040404" d="m10.378 36.681.239-.004c1.033-.001 2.074.34 2.826 1.07q.292.321.564.66c-.133.424-.486.573-.849.78l-.187.112c-.457.268-.457.268-.662.268l-.184-.245c-.285-.361-.647-.487-1.066-.648l-.179-.09c-.796-.093-1.416.12-2.082.548-.617.66-.812 1.43-.8 2.314.073.792.412 1.439 1.007 1.962.516.427 1.15.427 1.792.397.547-.062 1.014-.21 1.375-.642.162-.268.24-.524.316-.827h-1.965v-1.608h3.93c0 2.86 0 2.86-1.072 4.02-.523.46-1.13.683-1.786.893l-.268.09c-1.524.08-2.815-.105-4.042-1.09-.846-.788-1.355-1.938-1.428-3.086-.037-1.415.301-2.597 1.277-3.657.927-.882 1.995-1.221 3.244-1.217"/><path fill="#020202" d="M28.03 36.799h1.965v8.753H28.12l-.089-.625-.179.201c-.467.456-.902.625-1.557.642-.802-.03-1.358-.2-1.945-.759-.78-.847-.93-1.847-.893-2.966.05-.868.284-1.602.931-2.22.787-.632 1.487-.707 2.472-.642.457.067.766.337 1.082.653z"/><path fill="#FFFCFB" d="m69.101 4.9.303-.001c.25.012.25.012.428.101-.086.712-.352 1.488-.804 2.054-.303.153-.54.192-.876.229-.628.087-1.129.544-1.51 1.032-.483.71-.568 1.368-.472 2.223.194.771.572 1.3 1.25 1.72.696.404 1.25.502 2.055.424.315-.09.599-.216.893-.358q.223-.09.447-.178c.982 1.428.982 1.428.982 1.965-1.34.723-2.646 1.042-4.166.739-.26-.082-.5-.177-.746-.293l-.212-.094c-1.343-.67-2.16-1.846-2.624-3.232-.354-1.303-.103-2.742.527-3.916.788-1.243 1.894-1.922 3.291-2.315a7 7 0 0 1 1.234-.1"/><path fill="#030303" d="M45.716 39.567c.857.596 1.225 1.312 1.475 2.305.054.36.043.726.043 1.089h-4.466c.291.677.291.677.625.983.388.129.756.136 1.161.089.345-.178.5-.303.715-.625.395.066.767.189 1.144.318l.188.063.454.155c-.301.828-.84 1.224-1.62 1.596-.838.33-1.882.33-2.717-.005q-.247-.12-.486-.252l-.186-.1c-.66-.413-1.03-1.143-1.27-1.863a3.57 3.57 0 0 1 .413-2.703c.307-.445.676-.763 1.132-1.05l.168-.112c.905-.507 2.35-.396 3.227.112"/><path fill="#020202" d="M67.023 39.59c.829.595 1.299 1.38 1.47 2.39v.982h-4.467c.318.711.318.711.894 1.072.525.06 1.049-.007 1.518-.268l.179-.357 1.697.536c-.335.837-.821 1.216-1.629 1.596-.777.317-1.775.313-2.57.045-.84-.36-1.535-.953-1.909-1.798-.304-.941-.326-2.052.123-2.947.449-.77.987-1.233 1.822-1.55.974-.241 1.997-.225 2.872.298"/><path fill="#040404" d="M52.415 39.568c.72.51 1.098 1.087 1.25 1.965.022.317.021.632.017.949v.267q-.002.42-.006.838l-.002.571q-.003.698-.009 1.394H51.79v-.536h-.178l-.069.166c-.165.287-.356.359-.655.48-.72.19-1.562.191-2.23-.163-.353-.256-.707-.587-.857-1.006-.093-.593-.153-1.23.165-1.76.357-.475.734-.743 1.323-.843.416-.021.83-.017 1.245-.011l.34.003.827.008c-.148-.484-.148-.484-.436-.89-.351-.171-.703-.16-1.082-.092-.158.098-.158.098-.285.229-.251.217-.251.217-.53.223-.483-.111-.953-.288-1.418-.452.073-.526.33-.81.714-1.162 1.023-.7 2.676-.867 3.752-.178"/><path fill="#000" d="M34.461 36.799h1.965v6.967h3.752v1.786H34.46z"/><path fill="#070707" d="M69.296 39.3h2.055v.982h.178l.07-.164c.236-.417.717-.602 1.153-.757.296-.061.296-.061.742-.061v1.876l-.63.111c-.816.144-.816.144-1.437.655-.115.326-.108.652-.113.993l-.005.227q-.009.358-.014.715l-.01.486q-.014.595-.024 1.19h-1.965z"/><path fill="#030202" d="M15.346 39.3h1.965l.09.982.324-.295c.626-.543.94-.6 1.82-.687v1.876l-.447.072c-.678.126-1.252.253-1.697.82-.065.27-.065.53-.063.806l-.005.233q-.004.366-.005.731l-.007.498q-.008.607-.01 1.216h-1.965z"/><path fill="#020201" d="M20.438 39.3h1.965v6.252h-1.965z"/><path fill="#080808" d="M43.483 8.037c.51.556.672 1.188.653 1.933-.086.642-.379 1.186-.832 1.64-.436.276-.933.232-1.43.179-.542-.262-.89-.69-1.113-1.25-.188-.708-.056-1.53.288-2.167.272-.333.535-.618.949-.77.607-.03 1.014.037 1.485.435"/><path fill="#FFFBFA" d="M72.512 9.198c.13.236.178.348.178.625h.18q.209.339.412.681l.121.193c.28.478.28.478.236.815-.205.39-.414.777-.636 1.158l-.135.238-.13.225-.118.205-.108.147h-.179c-.13-.236-.178-.348-.178-.625h-.18l-.356-.608-.104-.174c-.254-.438-.254-.438-.254-.736h-2.5l.178-.447.07-.207c.621-1.8 1.83-1.693 3.503-1.49"/><path fill="#080808" d="M18.383 7.68c1.965 0 1.965 0 2.68.446.288.324.314.632.3 1.052-.05.311-.184.5-.39.734a6 6 0 0 1-.357.179l.105.19q.411.744.789 1.507c-.327.092-.57.114-.894 0-.218-.255-.366-.553-.508-.855l-.09-.183-.075-.169c-.174-.204-.174-.204-.756-.222v1.429h-.804z"/><path fill="#4D4846" d="M.787 1.16h.09v69.67l.803.268q.32.146.634.308l.374.19.204.105q.61.31 1.223.615l.544.273.83.416q1.59.8 3.198 1.567c1.033.492 2.054 1.008 3.075 1.523.933.47 1.868.934 2.812 1.382 1.112.529 2.212 1.08 3.313 1.632l.591.296 1.424.714c-.268.09-.268.09-.429.035l-.614-.313-.236-.12q-.378-.19-.753-.384l-.976-.495-.25-.127a91 91 0 0 0-2.028-.99c-.923-.438-1.84-.888-2.757-1.34l-1.556-.764-.314-.154q-1.384-.679-2.77-1.355l-.436-.212a3354 3354 0 0 0-4.78-2.33l-.209-.101-.179-.087c-.28-.146-.553-.306-.828-.463z"/><path fill="#080808" d="M24.993 7.68c.893 0 .893 0 1.141.226q.102.155.193.315l.22.341.113.182c.207.322.438.627.667.934l.435.591.09-2.59h.803v4.109h-.893a3.2 3.2 0 0 1-.541-.692l-.27-.417-.132-.21a13 13 0 0 0-.598-.83l-.335-.441-.09 2.59h-.803z"/><path fill="#070707" d="M14.275 7.68c1.965 0 1.965 0 2.68.446.307.337.312.683.3 1.122-.063.424-.335.752-.658 1.022-.32.204-.587.197-.96.19l-.559-.012v1.34h-.803z"/><path fill="#090909" d="M33.3 8.037c.16.132.16.132.268.268v.268c-.196.162-.196.162-.447.268-.286-.075-.467-.193-.714-.357-.447-.066-.801-.047-1.206.156-.277.249-.386.419-.429.79-.003.682-.003.682.295 1.287.34.309.688.308 1.127.293.287-.034.448-.095.66-.293.12-.275.12-.275.178-.536h-.893v-.625h1.697c.032.647.054 1.169-.358 1.697-.576.525-1.133.583-1.898.566-.584-.053-.915-.313-1.3-.734-.389-.555-.558-1.038-.464-1.708.171-.734.551-1.179 1.162-1.608.796-.406 1.606-.198 2.322.268"/><path fill="#080707" d="M12.248 7.696c.267.18.478.363.687.608v.268a3.6 3.6 0 0 1-.804.179c-.19-.168-.19-.168-.357-.357-.32-.045-.32-.045-.626 0-.215.174-.215.174-.19.502l.012.301.19.024c.665.098 1.195.26 1.658.767.207.34.162.7.117 1.085-.122.317-.215.415-.505.59-.343.143-.598.163-.97.164l-.342.005c-.488-.066-.758-.28-1.075-.647l-.145-.201c.09-.179.09-.179.238-.251a2 2 0 0 1 .566-.106c.229.212.229.212.446.446.322.045.521.062.804-.106.106-.163.106-.163.094-.379-.078-.264-.078-.264-.4-.371a15 15 0 0 0-.386-.12c-.554-.166-.865-.312-1.184-.81-.098-.442-.07-.85.14-1.25.603-.495 1.297-.605 2.032-.341"/><path fill="#0A0A0A" d="M47.075 7.652c.423.19.674.4.874.832.072.502.009.824-.277 1.243-.293.32-.642.558-.997.804-.273.19-.273.19-.513.543h1.876v.715H45.18c0-1.021 0-1.021.277-1.36.305-.287.645-.526.987-.765.252-.197.433-.38.611-.644-.016-.299-.016-.299-.178-.536-.36-.03-.36-.03-.715 0l-.128.184-.14.173a3.8 3.8 0 0 1-.804-.09c.018-.38.062-.509.34-.78.54-.381.995-.52 1.645-.32"/><path fill="#090909" d="M38.96 7.741c.305.175.474.312.592.653.046.398.051.756-.089 1.134-.27.311-.577.57-.893.832l-.505.423c-.132.11-.132.11-.21.291h1.787v.715h-2.77c0-1.038 0-1.038.358-1.43.344-.295.698-.578 1.07-.837.167-.114.167-.114.36-.324.051-.327.051-.327 0-.625-.11-.128-.11-.128-.43-.117-.195-.004-.195-.004-.375.028l-.173.184c-.184.173-.184.173-.384.177a8 8 0 0 1-.604-.093c.044-.382.141-.538.435-.782l.19-.16c.482-.35 1.119-.308 1.642-.069"/><path fill="#060606" d="M49.467 7.68h2.322v.714h-1.607l-.09.893.268-.09c.422-.048.724-.041 1.106.157.285.244.48.412.538.792-.005.615-.069.93-.483 1.396-.38.333-.843.275-1.324.271-.366-.032-.556-.127-.82-.382-.167-.246-.167-.246-.267-.447.335-.163.535-.205.893-.09l.179.18c.171.008.171.008.357-.023l.19-.024c.188-.033.188-.033.346-.222.04-.414.04-.414-.095-.798-.27-.148-.498-.122-.798-.095l-.179.179c-.263-.027-.477-.06-.715-.179-.028-.763.06-1.479.179-2.233"/><path fill="#050505" d="m36.515 57.968.821-.028.256-.012c.394-.007.57.002.896.242.255.364.22.523.171.959-.09.223-.09.223-.179.357l.132.107c.22.26.178.512.169.842-.033.212-.033.212-.2.441-.277.188-.426.229-.757.227h-.208l-.263-.003-.838-.006z"/><path fill="#F9F9F9" d="M58.22 40.996c.39.184.634.412.832.8.167.493.127.992-.078 1.467-.216.376-.442.518-.843.68-.393.056-.567.033-.915-.161-.42-.333-.647-.56-.719-1.112-.032-.583.09-.963.473-1.406.368-.327.779-.341 1.25-.268"/><path fill="#060606" d="M20.974 57.877c.714 0 .714 0 .87.115l.09.159c.05.085.05.085.103.171l.098.18.106.181q.128.221.251.445c.43-.143.55-.547.766-.93l.217-.231h.714v3.126h-.625l-.09-1.965-.512.764a10 10 0 0 1-.291.397h-.179c-.146-.206-.28-.41-.413-.625l-.39-.625-.09 2.143h-.625z"/><path fill="#FAFAFA" d="M27.137 40.997c.43.211.69.457.893.893.07.575.083 1.123-.268 1.608-.328.303-.561.432-1.01.474-.4-.034-.563-.123-.866-.385-.369-.466-.413-.856-.392-1.446.048-.344.158-.534.392-.787l.196-.212c.356-.206.653-.215 1.055-.145"/><path fill="#060606" d="M48.485 57.877c.714 0 .714 0 .888.133l.118.184.135.201.131.214.27.411.116.186c.15.221.319.428.485.636l.09-1.875h.625v3.126c-.715 0-.715 0-.889-.13l-.117-.183-.135-.2-.132-.213-.136-.206a26 26 0 0 1-.25-.386q-.239-.371-.485-.736l-.09 2.143h-.624z"/><path fill="#100F0F" d="m26.651 57.872.307.006c.344.65.622 1.314.877 2.004l.11.29c.264.708.264.708.264 1.01h-.625c-.113-.259-.18-.428-.18-.714l-1.428.09-.268.624h-.625c.062-.383.188-.732.329-1.092l.07-.184.15-.382.372-.958.068-.178c.2-.51.2-.51.58-.516"/><path fill="#0B0B0B" d="M39.731 57.877h.625l.006.2q.013.447.028.895l.008.313.01.302.01.278c.027.243.082.395.206.603q.195.007.391.01l.22.007c.212.002.212.002.372-.196.033-.251.033-.251.037-.545l.01-.328.009-.344.01-.346q.013-.425.023-.849h.625q.011.612.017 1.223l.007.35.003.338.004.31c-.046.425-.213.648-.522.934-.438.21-.817.22-1.295.15-.455-.21-.614-.438-.804-.893-.03-.282-.03-.282-.026-.58l.003-.324.006-.335.004-.341q.005-.417.013-.832"/><path fill="#0D0D0D" d="M52.504 57.877h2.054v.626H53.13v.714h1.162v.536h-1.162v.804h1.43v.625h-2.055z"/><path fill="#FFF8F6" d="M72.473 5.586c.199.338.202.64.128 1.022-.281.478-.671.692-1.151.956-.2.1-.2.1-.278.294h1.43v.625h-2.234c.085-.764.116-1.035.653-1.53.28-.194.566-.36.866-.524l-.09-.447c-.265-.031-.46-.048-.69.1-.132.11-.257.229-.382.347l-.357-.357c.113-.349.212-.535.536-.715.542-.164 1.09-.063 1.569.23"/><path fill="#0B0A0A" d="M45.09 57.878c.25.121.35.23.536.447l.09.268c-.29.106-.29.106-.626.178a11 11 0 0 1-.357-.268c-.33.02-.33.02-.625.09l.09.446.218.06c.879.26.879.26 1.149.538.175.344.191.54.126.916-.1.282-.257.395-.511.54a1.98 1.98 0 0 1-1.374-.022c-.23-.154-.363-.274-.502-.513v-.179c.296-.061.296-.061.625-.09.14.13.14.13.268.269.277.022.465.035.715-.09v-.446l-.157-.046c-.556-.173-1.027-.346-1.362-.847-.03-.27-.05-.456 0-.715.483-.598.96-.623 1.697-.536"/><path fill="#0A0A0A" d="M60.671 57.983c.251.178.364.334.497.609-.29.106-.29.106-.625.178-.184-.122-.184-.122-.357-.268-.283-.022-.283-.022-.536 0l-.09.447.18.069c1.22.476 1.22.476 1.428.914.018.282-.006.533-.09.803-.325.335-.584.462-1.043.475-.547-.004-.888-.174-1.279-.564v-.268c.296-.061.296-.061.626-.09.14.13.14.13.268.269.276.022.464.035.714-.09v-.446q-.12-.044-.244-.088l-.32-.119-.317-.116c-.394-.174-.394-.174-.548-.392-.11-.375-.13-.703.017-1.066.445-.506 1.123-.463 1.72-.257"/><path fill="#090909" d="M19.187 57.878c.351.121.491.204.704.508l.1.206c-.29.107-.29.107-.625.18-.184-.124-.184-.124-.357-.269-.283-.022-.283-.022-.536 0l-.09.447.274.117.172.075q.252.104.509.199c.326.16.47.278.653.591.06.357.016.507-.156.827-.236.288-.398.4-.767.454-.546.008-.873-.05-1.31-.387-.128-.246-.128-.246-.179-.447.296-.061.296-.061.626-.09.14.129.14.129.268.269.276.022.464.035.714-.09v-.446l-.241-.082-.317-.114-.314-.11c-.32-.156-.459-.288-.646-.587a1.35 1.35 0 0 1 0-.715c.454-.562.83-.594 1.518-.536"/><path fill="#090808" d="M57.456 57.984c.259.183.325.306.407.609-.236.13-.348.178-.625.178l-.117-.134c-.153-.163-.153-.163-.436-.15l-.251.016-.09.447c.242.16.389.22.66.296.386.128.625.25.86.597.061.282.064.523 0 .804-.227.293-.365.42-.715.536-.598.04-1.025-.024-1.513-.402-.095-.134-.095-.134-.095-.402.296-.061.296-.061.625-.09.14.13.14.13.268.269.277.022.465.035.715-.09v-.536c-.109-.02-.109-.02-.22-.043-.424-.092-.776-.175-1.143-.414-.218-.358-.237-.652-.156-1.061.149-.255.239-.408.524-.501.454-.083.864-.08 1.302.071"/><path fill="#FBFBFA" d="M42.768 8.394c.277.214.425.473.536.804.043.578.083 1.118-.268 1.608-.22.235-.343.266-.664.318-.319-.05-.319-.05-.575-.296-.348-.532-.34-1.096-.28-1.72.222-.619.592-.85 1.251-.714"/><path fill="#050404" d="M21.867 36.352c.303.183.429.33.625.625.068.416.035.733-.15 1.111-.305.338-.515.393-.96.441-.383-.04-.562-.146-.855-.39-.228-.373-.253-.736-.179-1.162.359-.642.836-.705 1.519-.625"/><path fill="#1B1B1B" d="M22.67 7.68h.894v4.108h-.893z"/><path fill="#030100" d="M77.603 70.92a3.7 3.7 0 0 1-.762.47l-.241.114-.262.122-.56.265-.294.14a133 133 0 0 0-1.683.819l-.578.284-1.556.764-.314.155q-1.385.679-2.771 1.355l-.885.43-.221.109q-1.471.717-2.943 1.438l-2.775 1.355-.25.122-1.17.57-.215.105-.414.2q-.507.246-1.007.506l-.2.102-.37.195c-.146.075-.297.14-.447.204l-.268-.089 3.426-1.716c2.778-1.393 2.778-1.393 4.16-2.048.992-.471 1.972-.967 2.954-1.461 1.08-.544 2.16-1.086 3.254-1.605a165 165 0 0 0 3.367-1.66q.591-.3 1.184-.596l.27-.136.25-.126.219-.11c.383-.182.672-.302 1.102-.278M.787 70.74c.238.104.477.119.715.223.064.028.156.105.223.134.653.288 1.262.65 1.898.97q.861.434 1.722.865l.449.225q1.301.655 2.616 1.282c1.126.536 2.239 1.095 3.352 1.655.933.47 1.868.935 2.812 1.383 1.112.528 2.212 1.079 3.313 1.631l.591.296 1.424.715c-.268.089-.268.089-.429.035l-.181-.093-.208-.104-.225-.116-.236-.12q-.378-.19-.753-.384l-.976-.496-.25-.127a91 91 0 0 0-2.028-.989c-.923-.438-1.84-.889-2.757-1.34l-1.556-.764-.314-.154q-1.384-.68-2.77-1.355l-.436-.213-4.56-2.221-.22-.108a18 18 0 0 1-1.216-.652z"/><path fill="#0B0B0A" d="M29.102 57.877h.625v2.68h1.43v.625h-2.055z"/><path fill="#020202" d="M32.05 57.968h.625v2.59h1.34v.536H32.05z"/><path fill="#0B0B0B" d="M46.698 57.877h.625v3.305h-.625z"/><path fill="#F9F9F9" d="M65.634 40.639c.346.182.606.373.804.714v.268h-2.322c.11-.55.197-.579.625-.893.287-.144.582-.132.893-.09M44.376 40.639c.346.182.606.373.804.714v.268h-2.323c.11-.55.197-.579.626-.893.287-.144.581-.132.893-.09"/><path fill="#FAFAFA" d="m50.919 43.117.227.005q.278.006.554.017c-.06.479-.16.67-.536.983a2.1 2.1 0 0 1-.714.112l-.235.007c-.212-.03-.212-.03-.371-.151-.109-.147-.109-.147-.148-.364.116-.68.664-.632 1.223-.609"/><path fill="#F9F9F9" d="M15.079 8.395c.858-.039.858-.039 1.25.268.09.09.09.09.112.34-.026.322-.062.42-.29.642-.261.035-.261.035-.553.023l-.52-.023z"/><path fill="#F6F6F6" d="M19.187 8.394c.806-.043.806-.043 1.178.14.162.217.162.217.162.541-.09.302-.09.302-.357.48-.33.024-.652.008-.983 0z"/><path fill="#FDFDFD" d="M37.14 59.753c.611-.017.611-.017.804 0 .18.179.18.179.201.402-.022.224-.022.224-.2.402-.27.024-.533.008-.804 0z"/><path fill="#F8F8F8" d="M37.14 58.414c.541-.017.541-.017.715 0 .179.179.179.179.201.402-.022.223-.022.223-.2.402-.24.024-.473.008-.715 0z"/><path fill="#EFEFEF" d="M26.6 58.772c.23.114.239.199.325.435l.07.189c.052.18.052.18.052.447h-.803l.128-.435.072-.245c.068-.213.068-.213.157-.391"/><path fill="#030100" d="M7.397 74.046c.434.054.78.243 1.161.447-.228.083-.334.097-.568.02l-.43-.207-.163-.081zM1.68 71.187c.514.156.514.156.715.357-.268.09-.268.09-.508-.028l-.207-.15z"/></g><defs><clipPath id="a"><path fill="#fff" d="M.787.712h77.62v89.321H.787z"/></clipPath></defs></svg>