<?xml version="1.0" encoding="UTF-8"?>
<svg id="uuid-3a874cc7-2388-412c-b9d0-eec3dde47215" data-name="Layer 1" xmlns="http://www.w3.org/2000/svg" viewBox="0 0 531.24 96.73">
  <defs>
    <style>
      .uuid-5d33da67-ed10-4db6-b7d3-f3b8f188ebdd {
        fill: #c52031;
      }

      .uuid-46483404-f94f-42ae-8439-fd52f0dfa02d {
        fill: #fff;
      }
    </style>
  </defs>
  <g>
    <path class="uuid-46483404-f94f-42ae-8439-fd52f0dfa02d" d="M0,20.86c0-2.61,2.09-4.7,4.44-4.7h26.51c14.5,0,26.26,11.89,26.26,26.26s-11.76,25.99-26.26,25.99H9.01v23.77c0,2.35-2.09,4.44-4.57,4.44s-4.44-2.09-4.44-4.44V20.86ZM9.01,25.3v34.22h21.94c9.53,0,17.11-7.83,17.11-17.11s-7.58-17.11-17.11-17.11H9.01Z"/>
    <path class="uuid-46483404-f94f-42ae-8439-fd52f0dfa02d" d="M119.6,16.16c2.35,0,4.44,2.09,4.44,4.7,0,2.35-2.09,4.44-4.44,4.44h-42.19v26.65h36.96c2.48,0,4.44,2.09,4.44,4.44,0,2.48-1.96,4.44-4.44,4.44h-36.96v26.64h42.19c2.35,0,4.44,2.22,4.44,4.71,0,2.35-2.09,4.44-4.44,4.44h-46.63c-2.48,0-4.57-2.09-4.57-4.44V20.86c0-2.74,2.09-4.7,4.57-4.7h46.63Z"/>
    <path class="uuid-46483404-f94f-42ae-8439-fd52f0dfa02d" d="M162.66,25.3v66.87c0,2.35-2.09,4.44-4.57,4.44-2.35,0-4.44-2.09-4.44-4.44V25.3h-20.9c-2.35,0-4.44-2.09-4.44-4.44,0-2.61,2.09-4.7,4.44-4.7h50.81c2.35,0,4.31,2.09,4.31,4.7,0,2.35-1.96,4.44-4.31,4.44h-20.9Z"/>
    <path class="uuid-46483404-f94f-42ae-8439-fd52f0dfa02d" d="M196.7,20.86c0-2.61,2.09-4.7,4.44-4.7h26.51c14.5,0,26.26,11.89,26.26,26.26s-11.76,25.99-26.26,25.99h-21.94v23.77c0,2.35-2.09,4.44-4.57,4.44s-4.44-2.09-4.44-4.44V20.86ZM205.71,25.3v34.22h21.94c9.53,0,17.11-7.83,17.11-17.11s-7.58-17.11-17.11-17.11h-21.94Z"/>
    <path class="uuid-46483404-f94f-42ae-8439-fd52f0dfa02d" d="M450.33,16.16c2.61,0,4.7,2.09,4.7,4.7v46.11c0,16.33-13.19,29.52-29.52,29.65-2.48,0-4.57-1.96-4.57-4.44s1.96-4.71,4.57-4.71c11.23,0,20.51-9.14,20.51-20.5V20.86c0-2.61,1.96-4.7,4.31-4.7Z"/>
    <path class="uuid-46483404-f94f-42ae-8439-fd52f0dfa02d" d="M491.91,18.9c.65-1.82,2.61-2.74,4.44-2.74s3.53.92,4.44,2.74l30.04,71.45c1.05,2.35,0,4.83-2.35,5.88-.53.26-1.05.39-1.7.39-1.7,0-3.27-1.04-4.05-2.74l-6.66-15.68h-39.58l-6.53,15.68c-.65,1.7-2.48,2.74-4.18,2.74-.53,0-1.18-.13-1.7-.39-2.35-1.04-3.4-3.53-2.35-5.88l30.17-71.45ZM496.35,31.32l-16.06,38.01h31.87l-15.81-38.01Z"/>
  </g>
  <g>
    <path class="uuid-5d33da67-ed10-4db6-b7d3-f3b8f188ebdd" d="M317.87,96.73c-26.67,0-48.37-21.7-48.37-48.37S291.2,0,317.87,0s48.37,21.7,48.37,48.37c0,2.45-1.99,4.44-4.44,4.44s-4.44-1.99-4.44-4.44c0-21.77-17.71-39.48-39.48-39.48s-39.48,17.71-39.48,39.48,17.71,39.48,39.48,39.48c2.45,0,4.44,1.99,4.44,4.44s-1.99,4.44-4.44,4.44Z"/>
    <path class="uuid-5d33da67-ed10-4db6-b7d3-f3b8f188ebdd" d="M371.1,96.73c-22.45,0-40.71-18.26-40.71-40.71,0-2.45,1.99-4.44,4.44-4.44s4.44,1.99,4.44,4.44c0,17.55,14.28,31.82,31.82,31.82s31.82-14.28,31.82-31.82-14.28-31.82-31.82-31.82c-2.45,0-4.44-1.99-4.44-4.44s1.99-4.44,4.44-4.44c22.45,0,40.71,18.26,40.71,40.71s-18.26,40.71-40.71,40.71Z"/>
  </g>
</svg>