<svg xmlns="http://www.w3.org/2000/svg" width="79" height="101" fill="none" viewBox="0 0 79 101"><g clip-path="url(#a)"><path fill="#fff" d="m7.268 74.237 32.619 16.599 31.38-16.599V9.33H7.268z"/><path fill="#F2F3F2" d="M71.928 9.578 6.608 75.394l33.857 16.763 31.463-16.103z"/><path fill="#DCDEDC" d="M5.12 30.965v44.676l1.156.578 32.619 16.598.99.495.992-.495 31.462-16.598 1.156-.578V7.183H5.12zm2.147 43.437V9.33h64.081v65.072L39.886 91z"/><path fill="#FF492C" d="M39.307 10.403c.33 0 .66 0 .991.083l-.99 1.9c-1.487-.083-2.809 1.073-2.891 2.559-.083 1.486 1.073 2.808 2.56 2.89h.33c.66 0 1.321-.247 1.817-.66l1.073 1.816a5 5 0 0 1-2.89.909c-2.642.082-4.872-1.9-4.955-4.542-.082-2.643 1.9-4.872 4.542-4.955zm3.386 4.047 1.239 2.064-1.24 1.982-1.155-1.982h-2.395l1.239-2.064zm-1.982-.744c0-.33.083-.66.248-.908s.495-.495.743-.66l.165-.083c.33-.165.413-.248.413-.413s-.248-.33-.413-.33q-.495 0-.743.495l-.413-.413c.083-.165.248-.33.413-.495.248-.165.495-.165.743-.165s.578.082.743.247.33.413.33.66c0 .414-.247.744-.743.91l-.247.164c-.248.166-.413.248-.496.496h1.487v.578zM39.307 24.03l7.845-4.46V7.184H31.38v12.304z"/><path fill="#23CCA2" d="M75.06 53.263H3.548l-2.642 5.78 2.642 5.78h71.514l2.56-5.78z"/><path fill="#252530" d="M14.972 46.234q-.059.025 0 .05.859.446.859 1.478 0 .884-.603 1.338-.595.446-1.57.446h-2.353a.1.1 0 0 1-.074-.033.1.1 0 0 1-.033-.075v-6.143q0-.042.033-.075a.1.1 0 0 1 .074-.033h2.28q2.155 0 2.155 1.743 0 .908-.768 1.304m-2.444-1.949q-.05 0-.05.05v1.412q0 .05.05.05h1.056q.43 0 .67-.207a.67.67 0 0 0 .23-.537q0-.354-.23-.561-.24-.206-.67-.206zm1.13 4.154q.423 0 .653-.214.24-.215.24-.587 0-.371-.24-.586-.231-.215-.66-.215h-1.123q-.05 0-.05.05v1.503q0 .05.05.05zm5.765-3.452q0-.05.025-.082a.13.13 0 0 1 .082-.025h1.057q.049 0 .083.025.033.033.033.082v4.451a.1.1 0 0 1-.033.075.11.11 0 0 1-.083.033H19.53a.11.11 0 0 1-.082-.033.12.12 0 0 1-.025-.075v-.313q0-.025-.025-.025-.016-.008-.033.016-.364.495-1.123.496-.694 0-1.14-.421-.446-.413-.446-1.173v-3.03q0-.05.033-.083a.12.12 0 0 1 .075-.025h1.057a.12.12 0 0 1 .074.025q.033.033.033.082v2.717q0 .363.198.587.19.23.537.23a.7.7 0 0 0 .512-.19.8.8 0 0 0 .248-.486zm4.087 4.625a3 3 0 0 1-1.065-.174q-.454-.173-.702-.479a1.08 1.08 0 0 1-.256-.701v-.091q0-.049.033-.083a.13.13 0 0 1 .083-.025h1.007q.042 0 .075.025.033.033.033.083v.008q0 .198.223.339.222.14.553.14.314 0 .504-.124.19-.125.19-.297 0-.165-.166-.248a2.8 2.8 0 0 0-.536-.173 6 6 0 0 1-.67-.207q-.578-.206-.924-.495t-.347-.834q0-.669.52-1.066.52-.396 1.388-.396.578 0 1.015.182.438.189.677.528.24.33.24.76 0 .05-.033.074-.025.033-.074.033h-.975a.1.1 0 0 1-.074-.033q-.033-.024-.033-.074 0-.198-.207-.339-.198-.132-.536-.132a1 1 0 0 0-.488.108q-.198.106-.198.297 0 .182.19.272t.62.199l.23.057.273.075q.644.19 1.016.487.372.306.372.875 0 .67-.529 1.049-.537.38-1.429.38m3.386-5.26a.68.68 0 0 1-.512-.207.7.7 0 0 1-.206-.512q0-.322.198-.52a.7.7 0 0 1 .52-.198q.315 0 .52.198a.7.7 0 0 1 .199.52.7.7 0 0 1-.207.512.7.7 0 0 1-.512.207m-.545 5.194q-.05 0-.074-.033a.1.1 0 0 1-.033-.075V44.98q0-.05.033-.082.024-.033.074-.033h1.065q.042 0 .075.033t.033.082v4.46a.1.1 0 0 1-.033.074.1.1 0 0 1-.075.033zm4.608-4.74q.728 0 1.164.446.446.446.446 1.205v2.981a.12.12 0 0 1-.024.075.11.11 0 0 1-.083.033h-1.065a.1.1 0 0 1-.075-.033.1.1 0 0 1-.033-.075v-2.716a.88.88 0 0 0-.198-.595.7.7 0 0 0-.545-.223.68.68 0 0 0-.537.223.86.86 0 0 0-.206.595v2.716a.1.1 0 0 1-.033.075.1.1 0 0 1-.074.033H28.63q-.049 0-.074-.033a.1.1 0 0 1-.033-.075v-4.45q0-.05.033-.083.025-.025.074-.025h1.066a.12.12 0 0 1 .074.025q.033.033.033.082v.314q0 .033.017.042.016.008.024-.009.372-.528 1.115-.528m6.64 1.924q.048.347.032.776-.008.108-.115.108h-2.808q-.057 0-.041.04.033.183.107.364.231.512.958.512.587-.008.917-.47.041-.059.082-.058.026 0 .066.033l.653.652q.05.041.05.074 0 .026-.042.075-.297.37-.768.578a2.6 2.6 0 0 1-1.04.206q-.776 0-1.322-.355a2 2 0 0 1-.776-.99q-.19-.456-.19-1.19 0-.503.14-.884.207-.643.727-1.024.52-.38 1.239-.38.908 0 1.461.529.546.52.67 1.404m-2.123-.826q-.57 0-.751.537a3 3 0 0 0-.066.289q0 .05.05.05h1.568q.058 0 .041-.05a8 8 0 0 0-.05-.256.78.78 0 0 0-.288-.421.8.8 0 0 0-.504-.149m4.748 3.708a3 3 0 0 1-1.065-.174q-.454-.173-.702-.479a1.08 1.08 0 0 1-.256-.701v-.091q0-.049.033-.083a.13.13 0 0 1 .083-.025h1.007a.12.12 0 0 1 .075.025q.033.033.033.083v.008q0 .198.223.339.222.14.553.14.314 0 .504-.124.19-.125.19-.297 0-.165-.166-.248a2.8 2.8 0 0 0-.536-.173 6 6 0 0 1-.67-.207q-.577-.206-.924-.495t-.347-.834q0-.669.52-1.066.52-.396 1.388-.396.578 0 1.015.182.438.189.677.528.24.33.24.76 0 .05-.033.074-.025.033-.074.033h-.975a.1.1 0 0 1-.074-.033q-.033-.024-.033-.074 0-.198-.207-.339-.198-.132-.536-.132a1 1 0 0 0-.488.108q-.198.106-.198.297 0 .182.19.272t.62.199l.23.057.273.075q.645.19 1.016.487.371.306.371.875 0 .67-.528 1.049-.537.38-1.429.38m4.493 0a3 3 0 0 1-1.066-.174q-.453-.173-.702-.479a1.1 1.1 0 0 1-.247-.701v-.091q0-.049.033-.083a.12.12 0 0 1 .074-.025h1.008q.05 0 .082.025.025.033.025.083v.008q0 .198.223.339.223.14.561.14a.9.9 0 0 0 .496-.124q.198-.125.198-.297 0-.165-.165-.248a2.8 2.8 0 0 0-.537-.173 6 6 0 0 1-.677-.207q-.578-.206-.925-.495t-.347-.834q0-.669.529-1.066.521-.396 1.387-.396.578 0 1.016.182.43.189.677.528.24.33.24.76 0 .05-.034.074a.1.1 0 0 1-.074.033h-.974q-.05 0-.075-.033-.033-.024-.033-.074 0-.198-.206-.339-.207-.132-.537-.132-.305 0-.495.108-.19.106-.19.297 0 .182.19.272.18.091.619.199a15 15 0 0 1 .495.132q.645.19 1.024.487.372.306.372.875 0 .67-.537 1.049-.528.38-1.428.38m6.003-.066q-.099 0-.124-.091l-1.61-6.152-.008-.033q0-.083.099-.083h1.131q.091 0 .116.091l.859 3.7q.008.033.033.033.016 0 .024-.033l.834-3.692q.026-.099.116-.099h1.098q.108 0 .133.091l.908 3.7q.008.024.025.033.016 0 .024-.033l.843-3.692q.025-.099.115-.099h1.074q.124 0 .099.116l-1.495 6.152q-.024.09-.124.09H53.81q-.091 0-.116-.09l-.925-3.93q-.008-.042-.033-.042-.016 0-.025.041l-.858 3.923q-.025.099-.124.099zm7.168-5.194a.7.7 0 0 1-.512-.207.7.7 0 0 1-.206-.512q0-.322.198-.52a.72.72 0 0 1 .52-.198q.322 0 .52.198a.7.7 0 0 1 .198.52.7.7 0 0 1-.206.512.7.7 0 0 1-.512.207m-.545 5.194a.1.1 0 0 1-.074-.033.1.1 0 0 1-.033-.075V44.98q0-.05.033-.082a.1.1 0 0 1 .074-.033h1.065q.042 0 .075.033t.033.082v4.46a.1.1 0 0 1-.033.074.1.1 0 0 1-.075.033zm4.847-3.75a.12.12 0 0 1-.024.075.11.11 0 0 1-.083.033h-.867q-.05 0-.05.041v1.933q0 .297.124.446.124.14.397.14h.297q.05 0 .082.033a.12.12 0 0 1 .025.074v.867q0 .1-.107.116-.38.017-.545.017-.751 0-1.123-.248t-.38-.941v-2.437q0-.04-.05-.04h-.52a.1.1 0 0 1-.074-.034.1.1 0 0 1-.033-.074v-.81q0-.05.033-.082a.12.12 0 0 1 .074-.025h.52q.05 0 .05-.05V43.75a.12.12 0 0 1 .025-.075.11.11 0 0 1 .082-.033h1.016q.041 0 .074.034a.1.1 0 0 1 .033.074v1.082q0 .05.05.05h.867q.049 0 .083.024.024.033.024.082zm3.213-.99q.726 0 1.172.446.447.446.446 1.205v2.981a.1.1 0 0 1-.033.075.11.11 0 0 1-.082.033h-1.057a.11.11 0 0 1-.083-.033.12.12 0 0 1-.025-.075v-2.716a.86.86 0 0 0-.206-.595.7.7 0 0 0-.545-.223q-.33 0-.537.223a.86.86 0 0 0-.206.595v2.716a.1.1 0 0 1-.033.075.1.1 0 0 1-.075.033h-1.065a.1.1 0 0 1-.074-.033.1.1 0 0 1-.033-.075v-6.143q0-.042.033-.075a.1.1 0 0 1 .074-.033h1.065q.042 0 .075.033a.1.1 0 0 1 .033.075V45.3q0 .033.016.042.016.008.033-.009.372-.528 1.107-.528m-48.325-9.711a.1.1 0 0 1-.034.074.11.11 0 0 1-.082.033h-2.973q-.05 0-.05.05v1.403q0 .05.05.05h1.949q.05 0 .082.025.025.033.025.082v.884a.12.12 0 0 1-.025.074.11.11 0 0 1-.082.033h-1.949q-.05 0-.05.041v1.47q0 .05.05.05h2.973q.05 0 .082.033a.1.1 0 0 1 .034.074v.884a.1.1 0 0 1-.034.074.11.11 0 0 1-.082.033h-4.195a.1.1 0 0 1-.074-.033.1.1 0 0 1-.033-.074V34.21q0-.041.033-.074a.1.1 0 0 1 .074-.033h4.195q.05 0 .082.033a.1.1 0 0 1 .034.074zm2.667.627q.595 0 1.057.207.463.198.718.553.256.355.256.793v3.08a.12.12 0 0 1-.024.074.11.11 0 0 1-.083.033h-1.057a.11.11 0 0 1-.083-.033.1.1 0 0 1-.033-.074v-.297q0-.034-.016-.042t-.033.017q-.38.503-1.23.503-.711 0-1.14-.346-.438-.347-.438-1.016 0-.702.487-1.09.496-.38 1.404-.38h.925q.041 0 .041-.05v-.198a.62.62 0 0 0-.181-.47q-.183-.166-.545-.166a.96.96 0 0 0-.463.1.44.44 0 0 0-.24.28q-.032.1-.123.091l-1.098-.14q-.108-.025-.1-.083a1.17 1.17 0 0 1 .306-.694 1.76 1.76 0 0 1 .71-.479q.438-.173.983-.173m-.182 3.856q.39 0 .66-.206a.64.64 0 0 0 .273-.537v-.322q0-.05-.041-.05h-.652q-.413 0-.645.158a.49.49 0 0 0-.23.437q0 .24.173.38t.462.14m4.98.95a3 3 0 0 1-1.066-.173q-.453-.173-.701-.48a1.1 1.1 0 0 1-.248-.701v-.09q0-.051.033-.084.024-.024.074-.024h1.008a.12.12 0 0 1 .074.025q.033.033.033.082v.008q0 .199.223.339.224.14.561.14a.9.9 0 0 0 .496-.124q.19-.123.19-.297 0-.165-.157-.248a2.8 2.8 0 0 0-.537-.173 6 6 0 0 1-.677-.206q-.578-.207-.925-.496t-.347-.834q0-.669.529-1.065.52-.397 1.379-.397.586 0 1.016.182.437.19.677.529.247.33.247.76 0 .048-.033.074a.11.11 0 0 1-.082.033h-.966a.11.11 0 0 1-.083-.033q-.033-.026-.033-.075 0-.198-.198-.338-.207-.132-.545-.132a1 1 0 0 0-.487.107q-.19.106-.19.297 0 .182.181.273.19.09.628.198a15 15 0 0 1 .495.132q.645.191 1.016.487.372.306.372.876 0 .668-.529 1.048-.528.38-1.428.38m3.385-5.26a.7.7 0 0 1-.512-.206.7.7 0 0 1-.206-.512q0-.323.198-.52a.72.72 0 0 1 .52-.199q.323 0 .52.198a.7.7 0 0 1 .199.52.7.7 0 0 1-.207.513.68.68 0 0 1-.512.206m-.545 5.194a.1.1 0 0 1-.074-.033.1.1 0 0 1-.033-.074v-4.46q0-.05.033-.082a.1.1 0 0 1 .074-.033h1.066q.04 0 .074.033t.033.082v4.46a.1.1 0 0 1-.033.074.1.1 0 0 1-.074.033zm6.31-2.816q.049.347.032.776-.008.108-.115.108h-2.808q-.057 0-.041.041.033.181.099.363.24.513.966.512.579-.008.917-.47.041-.058.082-.058.026 0 .066.033l.653.652q.04.042.041.075 0 .023-.033.074-.297.371-.768.578-.48.207-1.04.206-.776 0-1.322-.355a2 2 0 0 1-.776-.99q-.19-.455-.19-1.19 0-.503.132-.883.215-.645.735-1.024.52-.38 1.239-.38.908 0 1.461.528.546.52.67 1.404m-2.123-.826q-.57 0-.751.537a3 3 0 0 0-.066.29q0 .048.05.049h1.568q.058 0 .033-.05l-.041-.256a.78.78 0 0 0-.29-.42.8.8 0 0 0-.503-.15m4.74 3.708q-.603 0-1.057-.173t-.702-.48a1.08 1.08 0 0 1-.256-.701v-.09q0-.051.033-.084a.12.12 0 0 1 .075-.024h1.015a.12.12 0 0 1 .075.025q.033.033.033.082v.008q0 .199.223.339.222.14.553.14.314 0 .504-.124.19-.123.19-.297 0-.165-.166-.248a2.8 2.8 0 0 0-.536-.173 6 6 0 0 1-.67-.206q-.585-.207-.924-.496-.347-.289-.347-.834 0-.669.52-1.065.52-.397 1.388-.397.578 0 1.015.182.438.19.677.529.24.33.24.76 0 .048-.033.074a.1.1 0 0 1-.074.033h-.975a.1.1 0 0 1-.074-.033q-.033-.026-.033-.075 0-.198-.207-.338-.198-.132-.536-.132-.298 0-.496.107-.19.106-.19.297 0 .182.19.273.182.09.62.198l.23.058.273.074q.645.191 1.016.487.371.306.371.876 0 .668-.528 1.048-.537.38-1.437.38m5.376-3.815a.1.1 0 0 1-.033.074.11.11 0 0 1-.083.033h-.867q-.05 0-.05.042v1.932q0 .297.125.446.123.14.396.14h.297q.049 0 .083.033a.1.1 0 0 1 .033.075v.867q0 .099-.116.115-.38.017-.545.017-.75 0-1.123-.248-.37-.248-.38-.941v-2.436q0-.042-.05-.042h-.52a.1.1 0 0 1-.074-.033.1.1 0 0 1-.033-.074v-.81q0-.048.033-.082a.12.12 0 0 1 .075-.025h.52q.05 0 .05-.05v-1.08q0-.042.032-.075.026-.033.075-.033h1.016q.049 0 .074.033a.1.1 0 0 1 .033.074v1.082q0 .05.05.05h.866q.05 0 .083.024.033.033.033.083zm7.052-2.61q.049 0 .083.034a.1.1 0 0 1 .033.074v.892q0 .05-.033.074a.11.11 0 0 1-.083.033h-1.626q-.042 0-.042.05v5.095a.1.1 0 0 1-.033.074.1.1 0 0 1-.074.033h-1.065a.1.1 0 0 1-.075-.033.1.1 0 0 1-.033-.074V35.26q0-.05-.05-.05h-1.577q-.049 0-.074-.033-.033-.024-.033-.074v-.892q0-.041.033-.074.025-.033.074-.033zm2.147 6.433q-.76 0-1.304-.404a2 2 0 0 1-.752-1.09 3.3 3.3 0 0 1-.124-.925q0-.537.124-.958.214-.677.76-1.057.545-.38 1.305-.38.743 0 1.271.372.529.38.743 1.057.15.454.15.95a3.1 3.1 0 0 1-.133.916q-.198.71-.735 1.115-.544.405-1.305.404m0-1.098q.299 0 .512-.181.207-.183.298-.504a2.6 2.6 0 0 0 .074-.636q0-.38-.074-.644a1 1 0 0 0-.314-.48.76.76 0 0 0-.504-.173.75.75 0 0 0-.512.174.97.97 0 0 0-.297.479q-.075.222-.075.644 0 .412.067.636.09.322.305.504a.78.78 0 0 0 .52.181m5.005 1.024a.1.1 0 0 1-.075-.033.1.1 0 0 1-.033-.074V34.21q0-.041.033-.074a.1.1 0 0 1 .075-.033h2.27q.687 0 1.198.239.512.24.793.677.28.438.28 1.008v2.51q0 .57-.28 1.008a1.84 1.84 0 0 1-.793.677q-.511.24-1.197.24zm1.172-1.148q0 .05.041.05h1.107a.86.86 0 0 0 .669-.28q.264-.282.273-.752v-2.09q0-.478-.257-.76-.264-.28-.701-.28h-1.09q-.042 0-.042.05zm6.31 1.222q-.76 0-1.306-.404a1.97 1.97 0 0 1-.743-1.09 3 3 0 0 1-.132-.925q0-.537.132-.958.207-.677.752-1.057.544-.38 1.313-.38.744 0 1.271.372.52.38.744 1.057.14.454.14.95 0 .486-.124.916-.198.71-.743 1.115-.537.405-1.305.404m0-1.098q.305 0 .511-.181a1 1 0 0 0 .297-.504q.075-.29.075-.636 0-.38-.075-.644a1 1 0 0 0-.305-.48.77.77 0 0 0-.512-.173.77.77 0 0 0-.512.174.97.97 0 0 0-.297.479q-.066.222-.066.644 0 .412.057.636.092.322.306.504a.78.78 0 0 0 .52.181"/><path fill="#242530" d="M27.945 62.329q-.645 0-1.123-.207a1.7 1.7 0 0 1-.743-.578 1.5 1.5 0 0 1-.256-.875v-.207q0-.04.033-.074a.1.1 0 0 1 .066-.025h.735a.12.12 0 0 1 .074.025.12.12 0 0 1 .025.074v.157q0 .38.339.628.338.255.925.256.503 0 .76-.215a.69.69 0 0 0 .255-.553.6.6 0 0 0-.14-.396 1.4 1.4 0 0 0-.396-.29 9 9 0 0 0-.785-.33 8 8 0 0 1-.95-.404 1.7 1.7 0 0 1-.602-.52q-.248-.322-.248-.81 0-.726.528-1.148.529-.42 1.412-.421.62 0 1.099.215.471.215.735.602.264.38.264.884v.14a.1.1 0 0 1-.033.075.1.1 0 0 1-.066.025h-.743a.1.1 0 0 1-.066-.025.1.1 0 0 1-.034-.075v-.09a.82.82 0 0 0-.313-.653q-.323-.272-.884-.272-.454 0-.702.19a.63.63 0 0 0-.256.536q0 .248.132.405t.397.28q.264.134.817.331.587.224.942.405.346.181.602.504.248.33.248.817 0 .744-.553 1.181-.546.438-1.495.438m5.335-5.855q.52 0 .916.215.397.215.611.602.224.397.224.909 0 .503-.224.892a1.5 1.5 0 0 1-.627.594 2 2 0 0 1-.95.215H31.91q-.04 0-.041.041v2.221a.1.1 0 0 1-.025.067.1.1 0 0 1-.074.033h-.76a.08.08 0 0 1-.066-.033.08.08 0 0 1-.033-.066v-5.591q0-.041.033-.074a.1.1 0 0 1 .066-.025zm-.14 2.65q.42 0 .677-.247.256-.248.256-.653 0-.413-.256-.668t-.678-.256h-1.23q-.04 0-.041.04v1.743q0 .042.041.042zm5.978 3.139a.12.12 0 0 1-.116-.075l-1.09-2.378q-.015-.033-.05-.033h-.99q-.041 0-.041.041v2.346q0 .041-.033.066a.08.08 0 0 1-.066.033h-.76a.08.08 0 0 1-.066-.033.08.08 0 0 1-.033-.066V56.58q0-.041.033-.066a.08.08 0 0 1 .066-.033h2.27q.505 0 .893.206.388.216.602.595.216.388.215.884 0 .57-.289.966a1.53 1.53 0 0 1-.817.561q-.017 0-.025.017a.04.04 0 0 0 0 .033l1.164 2.403a.1.1 0 0 1 .017.05q0 .066-.091.066zm-2.246-4.955q-.041 0-.041.041v1.644q0 .04.041.04h1.239q.396 0 .636-.239.247-.23.247-.62a.83.83 0 0 0-.248-.627q-.24-.24-.635-.24zm4.162 4.955a.1.1 0 0 1-.074-.033.1.1 0 0 1-.025-.066V56.58a.1.1 0 0 1 .025-.066.1.1 0 0 1 .074-.033h.76q.041 0 .066.033a.08.08 0 0 1 .033.066v5.582q0 .042-.033.067a.08.08 0 0 1-.066.033zm5.425-5.682q0-.041.033-.066a.08.08 0 0 1 .067-.033h.76q.04 0 .073.033a.1.1 0 0 1 .025.066v5.582a.1.1 0 0 1-.025.067.1.1 0 0 1-.074.033h-.735q-.082 0-.115-.066l-2.379-3.898q-.016-.025-.033-.025-.015.009-.016.041l.016 3.849q0 .041-.033.066a.08.08 0 0 1-.066.033h-.76a.08.08 0 0 1-.066-.033.08.08 0 0 1-.033-.066V56.58q0-.041.034-.066a.08.08 0 0 1 .066-.033h.734q.083 0 .116.066l2.37 3.898q.017.024.033.016.017 0 .017-.033zm4.096 5.748q-.62 0-1.09-.24a1.77 1.77 0 0 1-.726-.694 2 2 0 0 1-.256-1.024v-1.998q0-.586.256-1.032.256-.438.726-.685.47-.24 1.09-.24.611 0 1.082.24.462.24.718.652.257.413.257.933v.066q0 .042-.025.066a.1.1 0 0 1-.075.033h-.751a.08.08 0 0 1-.066-.033.08.08 0 0 1-.033-.066v-.041a.97.97 0 0 0-.306-.735q-.297-.29-.8-.29-.505 0-.81.306-.306.298-.306.793v2.065q0 .495.323.8.321.298.834.298.495 0 .784-.264.28-.257.28-.71v-.513q0-.04-.04-.04h-1.016a.1.1 0 0 1-.074-.034.1.1 0 0 1-.025-.066v-.611a.1.1 0 0 1 .025-.066.1.1 0 0 1 .074-.033h1.907q.042 0 .075.033a.1.1 0 0 1 .024.066v1.057q0 .95-.553 1.478-.561.53-1.503.529"/><path fill="#252530" d="M28.236 77.175q-.025.025-.016.05a.06.06 0 0 0 .05.025h3.245q.057 0 .099.04.05.042.05.1v1.164a.13.13 0 0 1-.05.1.14.14 0 0 1-.1.04h-5.383a.14.14 0 0 1-.108-.04.14.14 0 0 1-.041-.1v-1.106q0-.108.074-.182.586-.57 1.198-1.247.61-.677.768-.842.33-.397.677-.76 1.09-1.206 1.09-1.792a.9.9 0 0 0-.298-.694q-.296-.264-.776-.264t-.776.264a.92.92 0 0 0-.306.719v.297a.14.14 0 0 1-.04.1.14.14 0 0 1-.1.04h-1.412a.14.14 0 0 1-.1-.04.13.13 0 0 1-.049-.1v-.561q.042-.644.413-1.148.372-.496.983-.76a3.5 3.5 0 0 1 1.387-.264q.85 0 1.478.322.627.315.967.85.346.546.346 1.198 0 .504-.256 1.032-.247.529-.751 1.14-.372.462-.801.925-.43.453-1.28 1.313zm7.317 1.652q-1.322 0-2.081-.735-.768-.735-.768-2.007v-3.162q0-1.248.768-1.974.76-.735 2.08-.735 1.314 0 2.09.735.768.726.768 1.974v3.162q0 1.272-.768 2.007-.776.735-2.09.735m0-1.445q.537 0 .85-.33.322-.33.322-.884v-3.295q0-.545-.322-.875-.313-.33-.85-.33-.529 0-.843.33-.321.33-.322.875v3.295q0 .553.322.883.314.33.843.33m6.21-.207q-.026.025-.009.05.008.025.05.025h3.245q.058 0 .1.04.04.042.04.1v1.164a.14.14 0 0 1-.04.1.14.14 0 0 1-.1.04h-5.392a.14.14 0 0 1-.1-.04.14.14 0 0 1-.04-.1v-1.106q0-.108.066-.182.594-.57 1.197-1.247.61-.677.768-.842.339-.397.685-.76 1.09-1.206 1.09-1.792a.9.9 0 0 0-.297-.694q-.306-.264-.784-.264-.48 0-.777.264-.297.273-.297.719v.297a.14.14 0 0 1-.041.1.14.14 0 0 1-.108.04h-1.412a.14.14 0 0 1-.099-.04.14.14 0 0 1-.041-.1v-.561a2.07 2.07 0 0 1 .405-1.148q.371-.496.99-.76a3.5 3.5 0 0 1 1.38-.264q.85 0 1.478.322.636.315.974.85.339.546.339 1.198 0 .504-.248 1.032-.255.529-.76 1.14-.37.462-.8.925-.43.453-1.28 1.313zm10.454-2.13q.059 0 .108.041.04.041.04.1v1.213a.14.14 0 0 1-.04.1.16.16 0 0 1-.108.04h-.512q-.057 0-.058.058v1.957a.14.14 0 0 1-.04.1.16.16 0 0 1-.108.04h-1.396a.14.14 0 0 1-.107-.04.14.14 0 0 1-.041-.1v-1.957q0-.058-.058-.058h-3.675a.16.16 0 0 1-.107-.04.14.14 0 0 1-.042-.1v-.958q0-.074.042-.182l2.155-4.839a.17.17 0 0 1 .165-.107h1.495q.082 0 .115.041.034.043-.008.124L48.04 74.97a.1.1 0 0 0 0 .05q.015.025.041.025h1.817q.057 0 .058-.066V73.5q0-.066.04-.108a.14.14 0 0 1 .108-.041H51.5q.057 0 .107.041a.14.14 0 0 1 .041.108v1.478q0 .066.058.066z"/></g><defs><clipPath id="a"><path fill="#fff" d="M.577 0H78.2v100.746H.577z"/></clipPath></defs></svg>