<svg xmlns="http://www.w3.org/2000/svg" width="78" height="101" fill="none" viewBox="0 0 78 101"><g clip-path="url(#a)"><path fill="#fff" d="m6.904 74.358 32.672 16.626 31.432-16.626V9.345H6.904z"/><path fill="#F2F3F2" d="M71.67 9.593 6.241 75.516l33.913 16.791 31.514-16.13z"/><path fill="#DCDEDC" d="M4.754 31.018v44.749l1.158.579L38.584 92.97l.992.496.993-.496 31.514-16.625 1.158-.58V7.197H4.754zm2.15 43.508V9.346h64.187v65.18L39.577 91.152z"/><path fill="#FF492C" d="M38.997 10.422c.33 0 .662 0 .993.083l-.993 1.902c-1.489-.082-2.812 1.076-2.895 2.565s1.075 2.812 2.564 2.894h.331a2.9 2.9 0 0 0 1.82-.661l1.075 1.82c-.827.579-1.82.91-2.895.91-2.647.082-4.88-1.903-4.963-4.55-.082-2.647 1.903-4.88 4.55-4.963zm3.391 4.053 1.241 2.068-1.24 1.985-1.159-1.985h-2.398l1.24-2.068zm-1.985-.744c0-.331.083-.662.248-.91.166-.248.497-.496.745-.662l.165-.083c.331-.165.414-.248.414-.413 0-.166-.248-.331-.414-.331q-.496 0-.744.496l-.414-.413c.083-.166.248-.331.414-.497.248-.165.496-.165.744-.165s.58.083.745.248c.165.166.33.414.33.662 0 .413-.248.744-.744.91l-.248.165c-.248.166-.414.248-.496.496h1.488v.58zM38.997 24.07l7.858-4.466V7.196H31.057v12.325z"/><path fill="#252530" d="M19.487 40.607v-7.279c0-.082.083-.165.165-.165h1.903c.083 0 .165.083.165.166v7.278c0 1.076.745 1.903 1.903 1.903s1.902-.745 1.902-1.903v-7.279c0-.082.083-.165.166-.165h1.902c.083 0 .165.083.165.166v7.278c0 2.316-1.654 3.805-4.135 3.805-2.482 0-4.136-1.571-4.136-3.805m9.678 1.407v-.166c0-.083.082-.165.165-.165h1.737c.083 0 .165.082.165.165 0 .496.58.827 1.407.827.744 0 1.24-.33 1.24-.744 0-.662-1.24-.662-2.398-1.075-1.076-.331-2.234-.91-2.234-2.317 0-1.571 1.324-2.564 3.392-2.564s3.39 1.076 3.39 2.564a.18.18 0 0 1-.165.166h-1.736a.18.18 0 0 1-.166-.166c0-.496-.496-.827-1.323-.827-.662 0-1.158.248-1.158.745 0 .661 1.075.661 2.316 1.075 1.24.331 2.481.91 2.481 2.399 0 1.571-1.406 2.481-3.474 2.481-2.233 0-3.64-.992-3.64-2.398m15.633-1.324c0 .166-.083.166-.248.166h-4.963c-.083 0-.083 0-.083.082 0 .248.083.414.165.662.248.579.745.91 1.655.91.744 0 1.24-.331 1.654-.827.083-.083.165-.166.248 0l1.158 1.158q.125.123 0 .248c-.744.91-1.902 1.406-3.226 1.406-1.82 0-3.06-.91-3.64-2.399-.247-.579-.33-1.158-.33-1.985 0-.579.083-1.158.248-1.654.496-1.489 1.737-2.482 3.474-2.482 2.15 0 3.474 1.407 3.722 3.392.166.413.166.827.166 1.323m-5.129-1.902c-.082.165-.082.33-.082.496 0 .083 0 .083.082.083h2.73c.083 0 .083 0 .083-.083 0-.166-.083-.33-.083-.414-.166-.661-.662-.992-1.406-.992-.662 0-1.076.33-1.324.91m11.58-2.564c.083.082.083.165.083.248l-.33 1.82c0 .165-.084.165-.249.082-.248-.083-.579-.083-.91-.083-.744.083-1.406.58-1.406 1.407v4.383a.18.18 0 0 1-.165.166h-1.903a.18.18 0 0 1-.165-.166v-7.775c0-.082.082-.165.165-.165h1.903c.082 0 .165.083.165.165v.58c0 .082.083.082.083.082.413-.579.992-.993 1.737-.993.496 0 .744.083.992.248m.662 5.79v-.166c0-.083.083-.165.166-.165h1.736c.083 0 .166.082.166.165 0 .496.579.827 1.406.827.745 0 1.24-.33 1.24-.744 0-.662-1.24-.662-2.398-1.075-1.075-.331-2.233-.91-2.233-2.317 0-1.571 1.323-2.564 3.391-2.564s3.391 1.076 3.391 2.564a.18.18 0 0 1-.165.166h-1.737a.18.18 0 0 1-.166-.166c0-.496-.496-.827-1.323-.827-.662 0-1.158.248-1.158.745 0 .661 1.075.661 2.316 1.075 1.24.331 2.482.91 2.482 2.399 0 1.571-1.407 2.481-3.474 2.481-2.234 0-3.64-.992-3.64-2.398M12.291 57.48V46.728c0-.083.082-.165.165-.165h1.903c.082 0 .165.082.165.165v8.933c0 .083 0 .083.083.083h5.21c.084 0 .166.083.166.166v1.571a.18.18 0 0 1-.165.166h-7.362a.18.18 0 0 1-.165-.166m9.016-2.316a5.3 5.3 0 0 1-.248-1.654c0-.58.082-1.24.248-1.654.496-1.572 1.82-2.482 3.64-2.482 1.736 0 3.06.993 3.556 2.482.165.496.248 1.075.248 1.654s-.083 1.158-.248 1.571c-.496 1.655-1.82 2.647-3.557 2.647-1.82.083-3.226-.91-3.64-2.564m5.045-.496c.083-.331.166-.745.166-1.075 0-.414-.083-.828-.166-1.158-.248-.745-.744-1.158-1.406-1.158-.744 0-1.24.413-1.406 1.158-.165.248-.165.661-.165 1.158 0 .413 0 .827.082 1.075.248.744.745 1.158 1.49 1.158.66.083 1.157-.414 1.405-1.158m5.46 2.812-2.565-7.858c-.082-.165 0-.248.166-.248h2.068c.082 0 .165.083.248.166l1.323 4.797c0 .083.083.083.083 0l1.323-4.797c0-.083.083-.166.248-.166h2.068c.166 0 .248.083.166.248l-2.564 7.775c0 .083-.083.166-.248.166H32.06c-.166.083-.249.083-.249-.083M44.88 54.09c0 .165-.082.165-.248.165H39.67c-.082 0-.082 0-.082.083 0 .248.082.414.165.662.248.579.744.91 1.654.91.745 0 1.241-.331 1.655-.828.082-.082.165-.165.248 0l1.158 1.158q.124.125 0 .249c-.745.91-1.903 1.406-3.226 1.406-1.82 0-3.06-.91-3.64-2.399-.248-.579-.33-1.158-.33-1.985 0-.58.082-1.158.248-1.654.496-1.49 1.737-2.482 3.474-2.482 2.15 0 3.474 1.406 3.722 3.391.165.414.165.828.165 1.324m-5.128-1.903c-.083.166-.083.331-.083.497 0 .082 0 .082.083.082h2.73c.082 0 .082 0 .082-.082 0-.166-.082-.331-.082-.414-.166-.662-.662-.992-1.407-.992-.744 0-1.158.33-1.323.91m9.76 1.82v-7.279c0-.083.083-.165.166-.165h1.902c.083 0 .166.082.166.165v7.28c0 1.074.744 1.902 1.902 1.902s1.902-.745 1.902-1.903v-7.279c0-.083.083-.165.166-.165h1.902c.083 0 .166.082.166.165v7.28c0 2.315-1.654 3.804-4.136 3.804-2.481 0-4.136-1.572-4.136-3.805m9.678 1.406v-.165c0-.083.083-.166.165-.166h1.737c.083 0 .166.083.166.166 0 .496.579.827 1.406.827.744 0 1.24-.33 1.24-.744 0-.662-1.24-.662-2.398-1.076-1.075-.33-2.233-.91-2.233-2.316 0-1.571 1.323-2.564 3.391-2.564s3.391 1.075 3.391 2.564a.18.18 0 0 1-.165.166h-1.737a.18.18 0 0 1-.166-.166c0-.496-.496-.827-1.323-.827-.662 0-1.158.248-1.158.745 0 .661 1.075.661 2.316 1.075 1.24.33 2.481.91 2.481 2.399 0 1.571-1.406 2.481-3.474 2.481-2.233 0-3.64-.993-3.64-2.399"/><path fill="#DCDEDC" d="M16.178 67.16H32.72v.662H16.178zm29.611 0h16.543v.662H45.79zM35.281 66.415l2.564-.413 1.324-2.564 1.24 2.48 2.73.497-1.903 1.903.414 2.73-2.481-1.159-2.482 1.158.331-2.73z"/></g><defs><clipPath id="a"><path fill="#fff" d="M.201 0h77.586v100.746H.201z"/></clipPath></defs></svg>