<svg xmlns="http://www.w3.org/2000/svg" width="79" height="101" fill="none" viewBox="0 0 79 101"><path fill="#fff" d="m7.642 74.238 32.619 16.598 31.38-16.598V9.331H7.642z"/><path fill="#F2F3F2" d="M72.3 9.58 6.98 75.394l33.857 16.763L72.3 76.055z"/><path fill="#DCDEDC" d="M5.496 30.965v44.676l1.156.578L39.27 92.817l.991.495.991-.495 31.463-16.598 1.156-.578V7.183H5.496zm2.147 43.437V9.33h64.08v65.072L40.262 91z"/><path fill="#FF492C" d="M39.684 10.403c.33 0 .66 0 .99.083l-.99 1.9c-1.486-.083-2.808 1.073-2.89 2.559s1.073 2.808 2.56 2.89h.33c.66 0 1.321-.247 1.817-.66l1.073 1.816a5 5 0 0 1-2.89.909c-2.643.082-4.872-1.9-4.955-4.542-.082-2.643 1.9-4.872 4.542-4.955zm3.386 4.047 1.238 2.064-1.238 1.982-1.157-1.982H39.52l1.238-2.064zm-1.982-.744c0-.33.082-.66.248-.908s.495-.495.743-.66l.165-.083c.33-.165.413-.248.413-.413s-.248-.33-.413-.33q-.495 0-.743.495l-.413-.413c.082-.165.248-.33.413-.495.247-.165.495-.165.743-.165s.578.082.743.247.33.413.33.66c0 .414-.247.744-.743.91l-.248.164c-.247.166-.413.248-.495.496h1.486v.578zM39.684 24.03l7.845-4.46V7.184H31.756v12.304zM75.44 53.262H3.927l-2.642 5.78 2.642 5.78h71.514l2.56-5.78z"/><path fill="#252530" d="M16.718 49.546a.17.17 0 0 1-.124-.05.2.2 0 0 1-.05-.132V39.322q0-.074.05-.132a.17.17 0 0 1 .124-.05h1.742q.075 0 .124.05a.18.18 0 0 1 .058.132v8.349q0 .074.074.074h4.856q.075 0 .132.05.05.057.05.132v1.437q0 .075-.05.132a.2.2 0 0 1-.132.05zm14.955-4.608q.09.561.058 1.263-.01.182-.19.182h-4.592q-.09 0-.057.074.041.297.157.595.387.825 1.577.825.95-.008 1.503-.768.057-.09.132-.09.05 0 .107.058l1.066 1.056q.074.075.074.133 0 .033-.058.123a3.3 3.3 0 0 1-1.264.942 4.2 4.2 0 0 1-1.692.33q-1.28 0-2.164-.578-.883-.578-1.272-1.618-.313-.744-.313-1.95 0-.816.223-1.436a3.32 3.32 0 0 1 1.197-1.685q.86-.62 2.031-.62 1.487 0 2.387.86.9.858 1.09 2.304m-3.46-1.355q-.941 0-1.239.876a4 4 0 0 0-.099.479q0 .075.074.074h2.569q.09 0 .057-.074-.074-.43-.074-.413a1.3 1.3 0 0 0-.462-.694 1.36 1.36 0 0 0-.826-.248m7.787-1.8q.966 0 1.726.339.76.33 1.18.916.422.578.422 1.289v5.037q0 .075-.05.132a.17.17 0 0 1-.123.05h-1.743a.17.17 0 0 1-.124-.05.18.18 0 0 1-.057-.132v-.487q0-.042-.025-.058-.033-.017-.058.025-.628.817-2.007.817-1.163 0-1.874-.561-.72-.562-.719-1.669 0-1.14.81-1.775.8-.627 2.287-.627h1.511q.075 0 .075-.075v-.33q0-.487-.298-.768-.297-.273-.892-.273-.453 0-.76.166a.78.78 0 0 0-.396.462q-.04.165-.19.149l-1.8-.24q-.181-.033-.165-.132.059-.627.495-1.131.438-.504 1.165-.785a4.3 4.3 0 0 1 1.61-.289m-.297 6.317q.636 0 1.082-.338.446-.339.446-.876v-.536q0-.075-.075-.075h-1.065q-.67 0-1.049.256a.8.8 0 0 0-.38.71q0 .406.281.628.28.231.76.231m9.843-8.778q0-.074.05-.132a.17.17 0 0 1 .124-.05h1.742q.074 0 .124.05.05.059.05.132v10.042q0 .075-.05.132a.17.17 0 0 1-.124.05H45.72a.17.17 0 0 1-.124-.05.2.2 0 0 1-.05-.132v-.487q0-.041-.033-.05a.06.06 0 0 0-.058.017q-.627.817-1.709.817-1.04 0-1.792-.578t-1.082-1.585q-.248-.777-.248-1.8 0-1.058.265-1.842.347-.958 1.081-1.511.735-.562 1.817-.562 1.074 0 1.668.743.025.05.058.033.033-.016.033-.057zm-.314 7.903q.298-.544.298-1.503 0-.99-.33-1.56-.34-.579-.992-.579-.702 0-1.057.578-.37.587-.371 1.578 0 .892.314 1.486.37.644 1.098.644.67 0 1.04-.644m10.744-2.287q.09.561.058 1.263-.01.182-.19.182h-4.592q-.09 0-.057.074.041.297.157.595.387.825 1.577.825.95-.008 1.503-.768.057-.09.132-.09.05 0 .107.058l1.065 1.056q.075.075.075.133 0 .033-.058.123a3.3 3.3 0 0 1-1.264.942 4.2 4.2 0 0 1-1.692.33q-1.28 0-2.164-.578-.883-.578-1.272-1.618-.313-.744-.313-1.95 0-.816.222-1.436a3.32 3.32 0 0 1 1.198-1.685q.859-.62 2.031-.62 1.487 0 2.387.86.9.858 1.09 2.304m-3.46-1.355q-.941 0-1.239.876a4 4 0 0 0-.099.479q0 .075.074.074h2.569q.09 0 .057-.074-.074-.43-.074-.413a1.3 1.3 0 0 0-.462-.694 1.36 1.36 0 0 0-.826-.248m8.621-1.783q.537 0 .842.206.124.066.091.223l-.314 1.701q-.008.174-.206.1a1.7 1.7 0 0 0-.52-.075 2 2 0 0 0-.322.033q-.536.042-.909.388-.37.355-.371.933v4.055q0 .075-.05.132a.2.2 0 0 1-.132.05h-1.734a.2.2 0 0 1-.132-.05.2.2 0 0 1-.05-.132V42.08q0-.074.05-.123a.2.2 0 0 1 .132-.05h1.734q.075 0 .132.05.05.05.05.123v.57q0 .042.025.058.032.017.049-.017.61-.891 1.635-.891"/><path fill="#fff" d="M28.32 62.33q-.645 0-1.124-.206a1.7 1.7 0 0 1-.743-.578 1.5 1.5 0 0 1-.256-.875v-.207q0-.04.033-.074a.1.1 0 0 1 .066-.025h.735a.12.12 0 0 1 .074.025.12.12 0 0 1 .025.074v.157q0 .38.339.628.338.256.924.256.504 0 .76-.215a.69.69 0 0 0 .256-.553.6.6 0 0 0-.14-.397 1.4 1.4 0 0 0-.397-.289 9 9 0 0 0-.784-.33 8 8 0 0 1-.95-.404 1.7 1.7 0 0 1-.603-.52q-.247-.322-.247-.81 0-.727.528-1.148.529-.42 1.412-.421.62 0 1.099.215.47.215.734.602.265.38.265.884v.14a.1.1 0 0 1-.033.075.1.1 0 0 1-.066.025h-.744a.1.1 0 0 1-.066-.025.1.1 0 0 1-.033-.075v-.09a.82.82 0 0 0-.313-.653q-.323-.272-.884-.272-.454 0-.702.19a.63.63 0 0 0-.256.536q0 .248.132.405t.397.28q.264.133.817.331.586.224.942.405.346.18.602.504.248.33.248.817 0 .744-.553 1.18-.546.44-1.495.439m5.334-5.854q.52 0 .916.215.397.215.611.602.224.397.223.909 0 .504-.223.892a1.5 1.5 0 0 1-.627.594 2 2 0 0 1-.95.215h-1.321q-.041 0-.041.041v2.221q0 .042-.025.066a.1.1 0 0 1-.075.034h-.76a.08.08 0 0 1-.065-.034.08.08 0 0 1-.033-.066v-5.59q0-.041.033-.075a.1.1 0 0 1 .066-.024zm-.14 2.65q.42 0 .676-.247.257-.248.257-.653 0-.413-.257-.668-.255-.256-.677-.256h-1.23q-.041 0-.041.04v1.743q0 .042.04.042zm5.978 3.139a.12.12 0 0 1-.116-.075l-1.09-2.378q-.015-.033-.05-.033h-.99q-.041 0-.041.041v2.346q0 .04-.033.066a.08.08 0 0 1-.066.033h-.76a.08.08 0 0 1-.066-.034.08.08 0 0 1-.033-.066v-5.582q0-.041.033-.066a.08.08 0 0 1 .066-.033h2.27q.505 0 .892.206.39.216.603.595.215.388.215.884 0 .57-.289.966-.297.405-.818.561-.016 0-.024.017a.04.04 0 0 0 0 .033l1.164 2.403a.1.1 0 0 1 .017.05q0 .066-.091.066zm-2.246-4.955q-.041 0-.041.041v1.643q0 .042.04.042h1.24q.396 0 .635-.24.248-.23.248-.62a.83.83 0 0 0-.248-.627q-.24-.24-.635-.24zm4.162 4.955a.1.1 0 0 1-.075-.034.1.1 0 0 1-.024-.066v-5.582a.1.1 0 0 1 .025-.066.1.1 0 0 1 .074-.033h.76q.041 0 .066.033a.08.08 0 0 1 .033.066v5.583q0 .04-.033.066a.08.08 0 0 1-.066.033zm5.425-5.682q0-.041.033-.066a.08.08 0 0 1 .066-.033h.76q.041 0 .074.033a.1.1 0 0 1 .025.066v5.583a.1.1 0 0 1-.025.066.1.1 0 0 1-.074.033h-.735q-.082 0-.115-.066L44.463 58.3q-.016-.025-.033-.025-.015.009-.016.041l.016 3.849q0 .04-.033.066a.08.08 0 0 1-.066.033h-.76a.08.08 0 0 1-.066-.034.08.08 0 0 1-.033-.066v-5.582q0-.041.033-.066a.08.08 0 0 1 .066-.033h.735q.083 0 .116.066l2.37 3.898q.017.025.033.016.017 0 .017-.033zm4.096 5.748q-.62 0-1.09-.24a1.77 1.77 0 0 1-.727-.694 2 2 0 0 1-.256-1.023v-1.999q0-.586.256-1.032.256-.438.727-.686.47-.24 1.09-.239.611 0 1.082.24.462.24.718.652t.256.933v.066q0 .042-.024.066a.1.1 0 0 1-.075.033h-.751a.08.08 0 0 1-.066-.033.08.08 0 0 1-.033-.066v-.041a.97.97 0 0 0-.306-.735q-.297-.29-.8-.29-.505 0-.81.306-.306.298-.306.793v2.065q0 .495.322.8.322.298.834.298.495 0 .785-.264.28-.257.28-.71v-.513q0-.04-.04-.04h-1.016a.1.1 0 0 1-.075-.034.1.1 0 0 1-.024-.066v-.611a.1.1 0 0 1 .024-.066.1.1 0 0 1 .075-.033h1.907q.042 0 .075.033a.1.1 0 0 1 .024.066v1.057q0 .95-.553 1.478-.561.529-1.503.529"/><path fill="#252530" d="M28.608 77.175q-.024.025-.016.05a.06.06 0 0 0 .05.025h3.245q.057 0 .099.04.05.042.05.1v1.164a.13.13 0 0 1-.05.1.14.14 0 0 1-.1.04h-5.384a.14.14 0 0 1-.107-.04.14.14 0 0 1-.041-.1v-1.106q0-.108.074-.182.587-.57 1.197-1.247.612-.677.768-.842.33-.397.678-.76 1.09-1.206 1.09-1.792a.9.9 0 0 0-.298-.694q-.297-.264-.776-.264t-.776.264a.92.92 0 0 0-.306.719v.297a.14.14 0 0 1-.04.1.14.14 0 0 1-.1.04h-1.412a.14.14 0 0 1-.1-.04.13.13 0 0 1-.049-.1v-.561a2.1 2.1 0 0 1 .413-1.148q.372-.496.983-.76a3.5 3.5 0 0 1 1.387-.264q.85 0 1.478.322.628.315.966.85.348.546.347 1.198 0 .504-.256 1.032-.247.529-.751 1.14-.372.462-.801.925-.43.453-1.28 1.313zm7.317 1.652q-1.322 0-2.081-.735-.768-.735-.768-2.007v-3.162q0-1.248.768-1.974.76-.735 2.08-.735 1.313 0 2.09.735.768.726.768 1.974v3.162q0 1.272-.768 2.007-.777.735-2.09.735m0-1.445q.537 0 .85-.33.322-.33.322-.884v-3.295q0-.545-.322-.875-.313-.33-.85-.33-.529 0-.843.33-.322.33-.322.875v3.295q0 .553.322.883.314.33.843.33m6.21-.207q-.026.025-.009.05.009.025.05.025h3.245q.058 0 .1.04.04.042.04.1v1.164a.14.14 0 0 1-.04.1.14.14 0 0 1-.1.04H40.03a.14.14 0 0 1-.1-.04.14.14 0 0 1-.04-.1v-1.106q0-.108.066-.182.594-.57 1.197-1.247.61-.677.768-.842.339-.397.685-.76 1.09-1.206 1.09-1.792a.9.9 0 0 0-.297-.694q-.306-.264-.784-.264-.48 0-.777.264-.297.273-.297.719v.297a.14.14 0 0 1-.041.1.14.14 0 0 1-.108.04H39.98a.14.14 0 0 1-.099-.04.14.14 0 0 1-.041-.1v-.561a2.07 2.07 0 0 1 .405-1.148q.371-.496.99-.76a3.5 3.5 0 0 1 1.38-.264q.85 0 1.478.322.636.315.974.85.339.546.339 1.198 0 .504-.248 1.032-.255.529-.76 1.14-.37.462-.8.925-.43.453-1.28 1.313zm10.454-2.13q.058 0 .108.041.04.041.04.1v1.213a.14.14 0 0 1-.04.1.17.17 0 0 1-.108.04h-.512q-.058 0-.058.058v1.957a.14.14 0 0 1-.041.1.16.16 0 0 1-.107.04h-1.396a.14.14 0 0 1-.107-.04.14.14 0 0 1-.042-.1v-1.957q0-.058-.057-.058h-3.675a.17.17 0 0 1-.108-.04.14.14 0 0 1-.04-.1v-.958q0-.074.04-.182l2.156-4.839a.17.17 0 0 1 .165-.107h1.495q.082 0 .115.041.034.043-.008.124l-1.998 4.492a.1.1 0 0 0 0 .05q.016.025.04.025h1.818q.057 0 .057-.066V73.5q0-.066.042-.108a.14.14 0 0 1 .107-.041h1.396q.057 0 .107.041a.14.14 0 0 1 .041.108v1.478q0 .066.058.066z"/></svg>