<svg xmlns="http://www.w3.org/2000/svg" width="84" height="101" fill="none" viewBox="0 0 84 101"><g clip-path="url(#a)"><path fill="#fff" d="m7.377 74.238 34.926 16.598 33.6-16.598V9.331H7.377z"/><path fill="#F2F3F2" d="M76.613 9.58 6.672 75.394l36.252 16.763 33.689-16.103z"/><path fill="#DCDEDC" d="M5.08 30.965v44.676l1.238.578 34.926 16.598 1.061.495 1.061-.495 33.689-16.598 1.238-.578V7.183H5.08zM7.38 74.402V9.33h68.615v65.072L42.305 91z"/><path fill="#FF492C" d="M41.686 10.403c.354 0 .707 0 1.061.083l-1.061 1.9c-1.592-.083-3.006 1.073-3.095 2.559-.088 1.486 1.15 2.808 2.741 2.89h.354c.707 0 1.415-.247 1.945-.66l1.15 1.816a5.63 5.63 0 0 1-3.095.909c-2.83.082-5.217-1.9-5.305-4.542s2.033-4.872 4.863-4.955zm3.625 4.047 1.327 2.064-1.327 1.982-1.238-1.982H41.51l1.327-2.064zm-2.122-.744c0-.33.089-.66.265-.908s.531-.495.796-.66l.177-.083c.354-.165.442-.248.442-.413s-.265-.33-.442-.33q-.53 0-.796.495l-.442-.413c.089-.165.265-.33.442-.495.266-.165.53-.165.796-.165.265 0 .619.082.796.247s.354.413.354.66c0 .414-.266.744-.796.91l-.265.164c-.266.166-.443.248-.531.496h1.592v.578zM41.686 24.03l8.4-4.46V7.184H33.198v12.304zm38.286 29.233H3.4l-2.83 5.78 2.83 5.78h76.572l2.741-5.78z"/><path fill="#252530" d="M15.515 40.867q.875 0 1.538.33t1.026.95q.363.612.363 1.404 0 .785-.372 1.38-.38.585-1.06.916-.683.33-1.575.33h-1.883q-.062 0-.062.066v3.155a.13.13 0 0 1-.053.107.16.16 0 0 1-.115.041h-1.547a.16.16 0 0 1-.115-.04.14.14 0 0 1-.045-.108v-8.382a.14.14 0 0 1 .045-.107.16.16 0 0 1 .115-.042zm-.283 3.915q.62 0 .981-.33.372-.33.372-.86 0-.553-.372-.883-.362-.339-.981-.339h-1.68q-.062 0-.062.066v2.28q0 .066.062.066zm9.903.925q.07.47.044 1.048-.009.157-.168.157h-4.094q-.079 0-.062.058.045.247.15.495.346.694 1.407.694.848-.008 1.335-.644.061-.075.124-.074.035 0 .088.05l.955.874q.07.067.07.116 0 .025-.052.1a2.86 2.86 0 0 1-1.123.784 4 4 0 0 1-1.521.28q-1.132 0-1.928-.479a2.75 2.75 0 0 1-1.131-1.354q-.285-.62-.284-1.618 0-.686.204-1.206a2.77 2.77 0 0 1 1.07-1.395q.76-.52 1.804-.52 1.326 0 2.13.718.805.718.982 1.916m-3.095-1.124q-.84 0-1.105.727-.053.165-.088.396 0 .058.07.058h2.29q.08 0 .053-.058-.07-.355-.07-.346a1.06 1.06 0 0 0-.416-.578q-.291-.198-.734-.199m7.693-1.486q.477 0 .76.173.098.05.071.182l-.274 1.412q-.009.15-.186.091a1.5 1.5 0 0 0-.46-.066q-.105 0-.3.025-.468.04-.805.33-.327.29-.327.776v3.378a.13.13 0 0 1-.053.107.15.15 0 0 1-.106.041h-1.556a.2.2 0 0 1-.115-.04.14.14 0 0 1-.045-.108v-6.07q0-.057.045-.107a.2.2 0 0 1 .115-.041h1.556a.15.15 0 0 1 .106.04q.053.051.053.108v.47q0 .035.026.05.018.017.036-.016.548-.735 1.459-.735m5.65.074q.07 0 .115.042a.14.14 0 0 1 .044.107v1.173a.14.14 0 0 1-.044.107.16.16 0 0 1-.115.041h-1.282q-.07 0-.07.058v4.699a.14.14 0 0 1-.045.107.16.16 0 0 1-.115.041h-1.547a.16.16 0 0 1-.115-.04.14.14 0 0 1-.045-.108v-4.699q0-.057-.07-.058h-.778a.16.16 0 0 1-.115-.041.14.14 0 0 1-.045-.107V43.32a.14.14 0 0 1 .045-.107.16.16 0 0 1 .115-.042h.778q.07 0 .07-.066v-.272q0-.768.248-1.198.256-.42.813-.602.567-.183 1.566-.157h.504a.15.15 0 0 1 .106.04q.053.051.053.108v1a.13.13 0 0 1-.053.107.14.14 0 0 1-.107.05h-.442q-.459.008-.645.173-.177.173-.177.62v.131q0 .066.07.066zm3.846 6.474q-1.114 0-1.91-.545a2.73 2.73 0 0 1-1.087-1.486 4.1 4.1 0 0 1-.186-1.263q0-.727.186-1.313a2.7 2.7 0 0 1 1.105-1.437q.795-.52 1.91-.52 1.08 0 1.857.511.76.52 1.078 1.437.222.62.222 1.297 0 .669-.186 1.255a2.73 2.73 0 0 1-1.088 1.511q-.787.554-1.9.553m0-1.494q.434 0 .743-.248.31-.247.442-.685.097-.398.097-.867 0-.52-.097-.876-.15-.42-.45-.66a1.22 1.22 0 0 0-.752-.232q-.443 0-.743.232-.3.24-.433.66-.107.29-.107.876 0 .561.098.867.133.437.442.685.31.248.76.248m7.773-5.054q.477 0 .76.173.106.05.07.182l-.273 1.412q-.009.15-.186.091a1.5 1.5 0 0 0-.46-.066q-.105 0-.292.025-.478.04-.813.33-.327.29-.327.776v3.378a.13.13 0 0 1-.053.107.16.16 0 0 1-.115.041h-1.548a.2.2 0 0 1-.115-.04.14.14 0 0 1-.044-.108v-6.07q0-.057.044-.107a.2.2 0 0 1 .115-.041h1.548q.07 0 .115.04.053.051.053.108v.47q0 .035.017.05.036.017.044-.016.548-.735 1.46-.735m9.24-.017q1.035 0 1.618.578.583.587.583 1.644v4.096a.14.14 0 0 1-.044.107.15.15 0 0 1-.106.041h-1.556a.2.2 0 0 1-.115-.04.14.14 0 0 1-.045-.108v-3.716q.001-.504-.274-.801-.283-.298-.751-.298-.46 0-.752.298-.291.297-.292.792v3.725a.14.14 0 0 1-.044.107.2.2 0 0 1-.115.041h-1.538a.16.16 0 0 1-.115-.04.14.14 0 0 1-.044-.108v-3.716q0-.496-.292-.801-.292-.298-.76-.298-.417 0-.708.232-.283.24-.336.66v3.923a.14.14 0 0 1-.044.107.2.2 0 0 1-.115.041H48.85a.16.16 0 0 1-.116-.04.14.14 0 0 1-.044-.108v-6.07q0-.057.044-.107a.16.16 0 0 1 .115-.041h1.548q.062 0 .115.04.044.051.044.108v.487q0 .034.027.05.026.008.053-.033.548-.751 1.688-.751.664 0 1.159.264.495.255.76.743.036.075.097 0 .283-.512.787-.76.495-.248 1.114-.248m9.514 2.627q.079.47.053 1.048-.018.157-.177.157h-4.094q-.079 0-.053.058.035.247.141.495.345.694 1.406.694.849-.008 1.344-.644.053-.075.115-.074.045 0 .097.05l.955.874q.063.067.062.116 0 .025-.053.1a2.8 2.8 0 0 1-1.123.784q-.69.28-1.512.28-1.14 0-1.927-.479a2.73 2.73 0 0 1-1.141-1.354q-.274-.62-.274-1.618 0-.686.194-1.206a2.77 2.77 0 0 1 1.07-1.395q.76-.52 1.813-.52 1.326 0 2.13.718.806.718.974 1.916m-3.095-1.124q-.831 0-1.097.727-.052.165-.097.396 0 .058.07.058h2.291q.079 0 .053-.058l-.062-.346a1.1 1.1 0 0 0-.416-.578q-.3-.198-.742-.199m7.692-1.486q.478 0 .76.173.108.05.08.182l-.274 1.412q-.017.15-.194.091a1.4 1.4 0 0 0-.46-.066q-.105 0-.292.025-.478.04-.813.33-.327.29-.327.776v3.378a.14.14 0 0 1-.045.107.2.2 0 0 1-.115.041h-1.556a.15.15 0 0 1-.106-.04.13.13 0 0 1-.053-.108v-6.07q0-.057.053-.107a.15.15 0 0 1 .106-.041h1.556q.063 0 .115.04.045.051.045.108v.47q0 .035.026.05.026.017.044-.016.54-.735 1.45-.735m-36.482-14.46q0-.057.044-.107a.15.15 0 0 1 .106-.041h1.556q.063 0 .115.041.045.05.045.107v8.374a.14.14 0 0 1-.045.107.2.2 0 0 1-.114.042H34.02a.15.15 0 0 1-.106-.042.14.14 0 0 1-.044-.107v-3.419q0-.057-.07-.058h-2.936q-.062 0-.062.058v3.419a.14.14 0 0 1-.044.107.2.2 0 0 1-.115.042h-1.557a.15.15 0 0 1-.106-.042.13.13 0 0 1-.053-.107v-8.374q0-.057.053-.107a.15.15 0 0 1 .106-.041h1.557q.061 0 .115.041.044.05.044.107v3.328q0 .066.062.066H33.8q.07 0 .071-.066zm4.28 1.437q-.452 0-.752-.28a.9.9 0 0 1-.3-.694q0-.438.291-.71.292-.273.76-.273.47 0 .76.273a.93.93 0 0 1 .293.71q0 .42-.3.694-.302.28-.752.28m-.796 7.086a.2.2 0 0 1-.115-.042.14.14 0 0 1-.044-.107v-6.078a.14.14 0 0 1 .044-.107.2.2 0 0 1 .115-.041h1.556a.15.15 0 0 1 .106.04.13.13 0 0 1 .053.108v6.078a.13.13 0 0 1-.053.107.15.15 0 0 1-.106.042zm7.33-6.219q0-.057.053-.107a.15.15 0 0 1 .106-.041H46.4q.062 0 .115.041.044.05.044.107v5.649q0 1.619-.999 2.312-1 .702-2.582.702-.468 0-1.034-.066-.133-.016-.133-.157l.053-1.28q0-.165.186-.14.477.075.875.074.849 0 1.309-.339.45-.354.45-1.114 0-.041-.026-.05-.026-.008-.053.025-.504.504-1.467.503-.867 0-1.583-.388-.725-.388-1.035-1.255-.195-.57-.194-1.478 0-.966.238-1.569a2.44 2.44 0 0 1 .938-1.214q.663-.462 1.547-.462 1.017 0 1.556.57.027.024.053.016.027-.01.027-.041zm-.106 3.997q.106-.362.106-1.016a5 5 0 0 0-.027-.586 2 2 0 0 0-.088-.404q-.124-.33-.398-.537-.275-.198-.69-.198-.398 0-.672.198a1.2 1.2 0 0 0-.415.536q-.186.372-.186 1.008 0 .694.16.99.114.34.415.538.3.206.707.206.425 0 .708-.206.273-.198.38-.529m6.879-4.244q1.06 0 1.706.61.645.604.646 1.644v4.063a.14.14 0 0 1-.044.107.15.15 0 0 1-.106.042h-1.557a.2.2 0 0 1-.115-.042.14.14 0 0 1-.044-.107v-3.708q0-.488-.3-.8-.292-.307-.787-.306-.487 0-.787.305-.3.314-.301.801v3.708a.14.14 0 0 1-.044.107.16.16 0 0 1-.115.042h-1.547a.16.16 0 0 1-.115-.042.14.14 0 0 1-.045-.107v-8.374q0-.057.045-.107a.16.16 0 0 1 .114-.041h1.548q.07 0 .115.041.044.05.044.107v2.742q0 .033.027.05.026.008.035-.017.548-.718 1.627-.718"/><path fill="#fff" d="M24.115 56.549a.14.14 0 0 1 .123-.066h.814q.045 0 .07.033a.08.08 0 0 1 .036.066v5.582q0 .042-.035.066a.09.09 0 0 1-.071.033h-.814a.11.11 0 0 1-.08-.033.09.09 0 0 1-.026-.066v-3.939q0-.024-.017-.033-.027-.008-.036.017l-1.105 1.585a.14.14 0 0 1-.124.066h-.406a.14.14 0 0 1-.124-.066l-1.114-1.577q-.009-.025-.027-.017-.026.009-.026.034v3.93q0 .042-.036.066a.09.09 0 0 1-.07.033h-.814a.09.09 0 0 1-.07-.033.08.08 0 0 1-.036-.066v-5.582q0-.042.035-.066a.09.09 0 0 1 .071-.033h.814a.14.14 0 0 1 .123.066l1.442 2.04q.017.015.035.016.017 0 .027-.016zm2.82.917a.64.64 0 0 1-.45-.166.55.55 0 0 1-.177-.42.55.55 0 0 1 .176-.422.63.63 0 0 1 .451-.165q.274 0 .451.165t.177.421a.55.55 0 0 1-.177.421.63.63 0 0 1-.45.166m-.424 4.797a.09.09 0 0 1-.07-.033.08.08 0 0 1-.036-.066v-4.03q0-.041.035-.066a.09.09 0 0 1 .07-.033h.814q.045 0 .08.033a.09.09 0 0 1 .026.067v4.03q0 .04-.026.065a.11.11 0 0 1-.08.033zm4.899-5.681q0-.042.035-.066a.09.09 0 0 1 .07-.033h.814q.044 0 .08.033a.09.09 0 0 1 .026.066v5.582q0 .042-.026.066a.11.11 0 0 1-.08.033h-.813a.09.09 0 0 1-.071-.033.08.08 0 0 1-.035-.066v-.247q0-.025-.018-.033t-.036.016q-.389.43-1.016.43-.629 0-1.061-.306a1.7 1.7 0 0 1-.628-.85 3.2 3.2 0 0 1-.16-1.033q0-.586.15-1.007.195-.546.629-.85.433-.307 1.087-.306.61 0 1 .413.017.016.035.016.018-.007.018-.033zm-.213 4.525q.204-.338.204-.958 0-.644-.221-.982a.76.76 0 0 0-.672-.364q-.451 0-.708.347-.265.363-.265 1.008 0 .578.212.95.248.396.752.396a.78.78 0 0 0 .698-.397m2.193-.916a.1.1 0 0 1-.07-.025.1.1 0 0 1-.036-.074v-.628a.1.1 0 0 1 .035-.074.1.1 0 0 1 .071-.025h2.785a.1.1 0 0 1 .071.025.1.1 0 0 1 .035.074v.628a.1.1 0 0 1-.035.074.1.1 0 0 1-.07.025zm7.816-3.642a.14.14 0 0 1 .124-.066h.814q.044 0 .08.033a.09.09 0 0 1 .026.066v5.582q0 .042-.027.066a.11.11 0 0 1-.08.033h-.813a.09.09 0 0 1-.07-.033.08.08 0 0 1-.036-.066v-3.939q0-.024-.017-.033-.027-.008-.036.017l-1.105 1.585a.14.14 0 0 1-.124.066h-.407a.14.14 0 0 1-.123-.066l-1.115-1.577q-.008-.025-.026-.017-.027.009-.027.034v3.93q0 .042-.026.066a.11.11 0 0 1-.08.033h-.813a.09.09 0 0 1-.07-.033.08.08 0 0 1-.036-.066v-5.582q0-.042.035-.066a.09.09 0 0 1 .07-.033h.814a.14.14 0 0 1 .124.066l1.441 2.04q.018.015.036.016.018 0 .026-.016zm3.962 1.429q.556 0 .981.181.425.182.654.496.23.322.23.726v2.783q0 .042-.026.066a.11.11 0 0 1-.08.033h-.813a.09.09 0 0 1-.07-.033.08.08 0 0 1-.036-.066V61.9q0-.024-.018-.033-.017 0-.035.017-.434.446-1.256.446-.663 0-1.087-.314-.435-.314-.434-.933 0-.645.487-1.008.477-.355 1.352-.355h.947q.044 0 .044-.041v-.199q0-.321-.204-.503-.203-.174-.61-.174-.336 0-.54.116a.48.48 0 0 0-.264.306q-.028.099-.124.082l-.858-.099a.2.2 0 0 1-.07-.025q-.036-.025-.027-.058.07-.502.584-.825.503-.322 1.273-.322m-.212 3.592q.433 0 .742-.215.31-.215.31-.545v-.388q0-.041-.044-.041h-.743q-.469 0-.734.165a.52.52 0 0 0-.274.47q0 .265.212.405.203.15.53.149m5.207-3.576q.284 0 .496.107.07.034.053.124l-.15.743q-.01.1-.124.058a1 1 0 0 0-.31-.041 1.4 1.4 0 0 0-.177.008.96.96 0 0 0-.619.24.78.78 0 0 0-.247.594v2.337q0 .042-.027.066a.11.11 0 0 1-.08.033h-.813a.09.09 0 0 1-.07-.033.08.08 0 0 1-.036-.066v-4.021a.1.1 0 0 1 .035-.075.1.1 0 0 1 .071-.024h.814q.044 0 .08.024a.12.12 0 0 1 .026.075v.371q0 .033.017.033.009.008.027-.016a1.19 1.19 0 0 1 1.035-.537m1.327 4.27a.09.09 0 0 1-.07-.034.08.08 0 0 1-.036-.066v-5.582q0-.042.035-.066a.09.09 0 0 1 .07-.033h.814q.044 0 .071.033a.08.08 0 0 1 .035.066v2.981q0 .026.018.033t.035-.016l1.433-1.479a.2.2 0 0 1 .133-.057h.937q.088 0 .088.057a.14.14 0 0 1-.026.066l-1.123 1.256q-.026.024-.01.057l1.327 2.668a.1.1 0 0 1 .018.05q0 .065-.097.065h-.858q-.088 0-.124-.074l-.964-2.097q-.008-.017-.035-.025a.03.03 0 0 0-.026.016l-.708.76a.13.13 0 0 0-.018.058v1.263q0 .042-.035.066a.09.09 0 0 1-.07.033zm8.002-2.585q.035.206.035.462l-.008.256q0 .1-.107.1h-2.767q-.044 0-.044.04.026.273.08.372.211.595 1.034.603.6 0 .955-.462.035-.05.088-.05.035 0 .062.025l.548.42q.08.06.027.133a1.8 1.8 0 0 1-.734.562 2.5 2.5 0 0 1-1.008.198q-.69 0-1.176-.29a1.7 1.7 0 0 1-.699-.809q-.203-.446-.203-1.238 0-.48.106-.776.177-.579.672-.917.486-.33 1.176-.33 1.742 0 1.963 1.7m-1.963-.876q-.327 0-.548.157a.8.8 0 0 0-.3.421 1.4 1.4 0 0 0-.072.364q-.017.04.036.041h1.795q.044 0 .044-.041a1.5 1.5 0 0 0-.053-.314.8.8 0 0 0-.31-.462 1 1 0 0 0-.592-.166m5.243-.082q0 .041-.026.066a.11.11 0 0 1-.08.033h-.902q-.044 0-.044.041v1.99q0 .314.15.455.142.14.46.14h.266a.1.1 0 0 1 .07.025.1.1 0 0 1 .036.074v.62q0 .09-.106.107l-.46.008q-.699 0-1.044-.223-.344-.224-.353-.842V58.86q0-.04-.044-.041h-.505a.09.09 0 0 1-.07-.033.08.08 0 0 1-.036-.066v-.578a.1.1 0 0 1 .036-.075.1.1 0 0 1 .07-.024h.505q.044 0 .044-.042v-.966a.1.1 0 0 1 .035-.074.1.1 0 0 1 .07-.025h.77a.1.1 0 0 1 .07.025.1.1 0 0 1 .036.074v.966q0 .042.044.042h.902q.044 0 .08.024a.12.12 0 0 1 .026.075z"/><path fill="#252530" d="M29.527 73.973q-.708 0-1.238-.215-.53-.206-.814-.602a1.47 1.47 0 0 1-.291-.909v-.181q0-.042.035-.066a.09.09 0 0 1 .07-.034h1.009q.045 0 .08.034a.09.09 0 0 1 .026.066v.123q0 .33.327.554.327.231.884.231.469 0 .699-.182a.58.58 0 0 0 .23-.462.43.43 0 0 0-.142-.33 1.2 1.2 0 0 0-.389-.24 10 10 0 0 0-.77-.289 8 8 0 0 1-1.007-.388 1.9 1.9 0 0 1-.681-.545q-.283-.34-.283-.842 0-.496.274-.867a1.73 1.73 0 0 1 .76-.57 3 3 0 0 1 1.124-.198q.671 0 1.193.222.53.224.831.628.292.397.292.925v.124q0 .041-.026.066a.11.11 0 0 1-.08.033h-1.017a.09.09 0 0 1-.07-.033.08.08 0 0 1-.036-.066v-.066q0-.347-.3-.595-.31-.24-.84-.24-.417 0-.655.166a.53.53 0 0 0-.23.454.47.47 0 0 0 .142.347q.133.14.406.248.265.116.832.305.627.215.981.38.363.166.654.487.283.33.283.85 0 .777-.61 1.223-.61.454-1.653.454m5.694-5.855q.584 0 1.026.223.441.223.69.628.238.413.238.941 0 .52-.247.917a1.73 1.73 0 0 1-.717.62q-.45.213-1.043.214h-1.256q-.044 0-.044.041v2.106q0 .042-.035.066a.09.09 0 0 1-.07.033h-1.035a.11.11 0 0 1-.08-.033.09.09 0 0 1-.027-.066v-5.59q0-.042.027-.075a.14.14 0 0 1 .08-.025zm-.186 2.61q.408 0 .655-.223a.72.72 0 0 0 .247-.57.75.75 0 0 0-.247-.586q-.247-.223-.655-.223h-1.123q-.044 0-.044.041v1.52q0 .04.044.04zm6.305 3.18q-.089 0-.124-.075l-1.105-2.288q-.018-.033-.053-.033h-.823q-.044 0-.044.042v2.254q0 .042-.035.066a.09.09 0 0 1-.071.033H38.05a.11.11 0 0 1-.08-.033.09.09 0 0 1-.026-.066v-5.582q0-.042.027-.066a.11.11 0 0 1 .08-.033h2.528q.567 0 .99.214.434.216.664.611.239.397.239.917 0 .561-.301.958-.3.405-.84.57-.044.016-.027.057l1.203 2.338a.1.1 0 0 1 .018.05q0 .065-.098.065zm-2.105-4.782q-.044 0-.044.041v1.412q0 .042.044.042h1.159q.371 0 .6-.207a.68.68 0 0 0 .24-.537.7.7 0 0 0-.24-.545q-.229-.206-.6-.206zm4.245 4.781a.09.09 0 0 1-.071-.033.08.08 0 0 1-.035-.066v-5.582q0-.042.035-.066a.09.09 0 0 1 .07-.033h1.035q.044 0 .08.033a.09.09 0 0 1 .026.066v5.582q0 .042-.026.066a.11.11 0 0 1-.08.033zm5.774-5.681q0-.042.035-.066a.09.09 0 0 1 .07-.033h1.035q.044 0 .08.033a.09.09 0 0 1 .026.066v5.582q0 .042-.026.066a.11.11 0 0 1-.08.033h-1q-.088 0-.123-.066l-2.29-3.534q-.017-.025-.035-.017-.018 0-.018.033l.018 3.485q0 .042-.027.066a.11.11 0 0 1-.08.033h-1.034a.09.09 0 0 1-.07-.033.08.08 0 0 1-.036-.066v-5.582q0-.042.035-.066a.09.09 0 0 1 .071-.033h1q.088 0 .123.066l2.281 3.517q.018.026.036.017.017 0 .017-.033zm4.5 5.747q-.681 0-1.203-.256a1.9 1.9 0 0 1-.804-.71 1.95 1.95 0 0 1-.292-1.065v-1.85q0-.603.292-1.065.283-.463.804-.719a2.8 2.8 0 0 1 1.203-.248q.672 0 1.194.248a2 2 0 0 1 .804.677q.283.422.283.942v.058q0 .041-.026.066a.11.11 0 0 1-.08.033h-1.034a.09.09 0 0 1-.071-.033.08.08 0 0 1-.035-.066v-.025a.82.82 0 0 0-.283-.636q-.284-.264-.752-.264-.477 0-.76.272a.96.96 0 0 0-.292.727v1.916a.91.91 0 0 0 .31.718q.309.28.786.281.46 0 .734-.231.274-.223.274-.628v-.371q0-.042-.044-.042h-.99a.09.09 0 0 1-.071-.033.08.08 0 0 1-.035-.066v-.76q0-.041.035-.066a.09.09 0 0 1 .07-.033h2.158q.044 0 .08.033a.09.09 0 0 1 .026.067v1.09q0 .627-.283 1.09a1.85 1.85 0 0 1-.795.71q-.522.24-1.203.24m-20.222 6.648q-.017.016-.009.033.009.016.036.016h2.396q.044 0 .08.025a.12.12 0 0 1 .026.074v.801q0 .042-.026.067a.11.11 0 0 1-.08.032h-3.979a.11.11 0 0 1-.08-.032.09.09 0 0 1-.026-.067v-.76q0-.073.053-.123.434-.396.884-.859.451-.471.566-.586.247-.273.504-.52.805-.835.805-1.24a.6.6 0 0 0-.221-.478q-.222-.182-.575-.182-.354 0-.575.182a.62.62 0 0 0-.22.495v.207a.1.1 0 0 1-.036.074.1.1 0 0 1-.071.025h-1.043a.1.1 0 0 1-.071-.025.1.1 0 0 1-.036-.074v-.388q.027-.447.301-.793.275-.34.725-.52a2.8 2.8 0 0 1 1.026-.182q.628 0 1.096.215.46.223.717.594.247.372.247.826 0 .347-.186.71a4 4 0 0 1-.557.785 10 10 0 0 1-.592.636q-.319.313-.946.908zm5.403 1.14q-.973 0-1.539-.513-.566-.503-.566-1.379v-2.18q0-.858.566-1.362t1.539-.504 1.547.504q.566.503.566 1.362v2.18q0 .876-.566 1.38-.575.51-1.547.511m0-1q.398 0 .636-.231.23-.224.23-.603v-2.27q0-.38-.23-.604-.239-.23-.636-.23-.39 0-.62.23-.237.223-.238.603v2.271q0 .38.239.603.23.231.619.231m4.589-.14q-.018.016-.01.033.01.016.036.016h2.397q.043 0 .08.025a.12.12 0 0 1 .026.074v.801q0 .042-.027.067a.11.11 0 0 1-.08.032h-3.978a.09.09 0 0 1-.071-.032.08.08 0 0 1-.035-.067v-.76q0-.073.052-.123.434-.396.885-.859.45-.471.566-.586.247-.273.504-.52.804-.835.804-1.24a.6.6 0 0 0-.22-.478q-.222-.182-.576-.182-.353 0-.574.182a.62.62 0 0 0-.221.495v.207a.12.12 0 0 1-.027.074.14.14 0 0 1-.08.025h-1.043a.1.1 0 0 1-.07-.025.1.1 0 0 1-.036-.074v-.388q.027-.447.3-.793.275-.34.735-.52.45-.182 1.017-.182.627 0 1.096.215.46.223.716.594.248.372.248.826 0 .347-.186.71t-.557.785a10 10 0 0 1-.593.636q-.318.313-.946.908zm7.719-1.47q.044 0 .08.025a.12.12 0 0 1 .026.074v.834a.12.12 0 0 1-.026.074.14.14 0 0 1-.08.025h-.38q-.044 0-.044.041v1.346q0 .042-.027.067a.11.11 0 0 1-.08.032h-1.034a.09.09 0 0 1-.07-.032.08.08 0 0 1-.036-.067v-1.346q0-.04-.044-.04h-2.715a.1.1 0 0 1-.07-.026.1.1 0 0 1-.036-.074v-.66q0-.05.026-.125l1.592-3.336q.036-.074.124-.074h1.105q.061 0 .088.033.019.025-.008.083L48.157 79.1a.03.03 0 0 0 0 .033.03.03 0 0 0 .027.017h1.344q.044 0 .044-.041v-1.024q0-.042.035-.066a.09.09 0 0 1 .07-.033h1.035q.044 0 .08.033a.09.09 0 0 1 .026.066v1.024q0 .04.045.04z"/></g><defs><clipPath id="a"><path fill="#fff" d="M.213 0h83.116v100.746H.213z"/></clipPath></defs></svg>