<svg xmlns="http://www.w3.org/2000/svg" width="78" height="101" fill="none" viewBox="0 0 78 101"><g clip-path="url(#a)"><path fill="#fff" d="M7.022 74.238 39.64 90.836l31.38-16.598V9.331h-64z"/><path fill="#F2F3F2" d="M71.676 9.58 6.356 75.394l33.857 16.763 31.463-16.103z"/><path fill="#DCDEDC" d="M4.87 30.965v44.676l1.156.578 32.618 16.598.991.495.991-.495L72.09 76.219l1.156-.578V7.183H4.87zm2.147 43.437V9.33h64.08v65.072L39.636 91z"/><path fill="#FF492C" d="M39.06 10.403c.331 0 .661 0 .992.083l-.991 1.9c-1.487-.083-2.808 1.073-2.89 2.559s1.073 2.808 2.56 2.89h.33c.66 0 1.321-.247 1.816-.66l1.074 1.816a5 5 0 0 1-2.89.909c-2.643.082-4.872-1.9-4.955-4.542s1.9-4.872 4.542-4.955zm3.386 4.047 1.24 2.064-1.24 1.982-1.156-1.982h-2.394l1.238-2.064zm-1.981-.744c0-.33.082-.66.247-.908.166-.248.496-.495.744-.66l.165-.083c.33-.165.413-.248.413-.413s-.248-.33-.413-.33q-.495 0-.744.495l-.412-.413c.082-.165.247-.33.412-.495.248-.165.496-.165.744-.165.247 0 .578.082.743.247s.33.413.33.66c0 .414-.247.744-.743.91l-.248.164c-.247.166-.413.248-.495.496h1.486v.578zM39.06 24.03l7.845-4.46V7.184H31.133v12.304z"/><path fill="#23CCA2" d="M74.813 53.263H3.299l-2.642 5.78 2.642 5.78h71.514l2.56-5.78z"/><path fill="#252530" d="M20.33 49.645q-.991 0-1.726-.314-.752-.322-1.148-.908a2.34 2.34 0 0 1-.405-1.363v-.272q0-.066.042-.108a.17.17 0 0 1 .107-.04h1.412q.058 0 .107.04a.14.14 0 0 1 .042.108v.181q0 .496.462.834.455.347 1.239.347.653 0 .974-.28a.88.88 0 0 0 .322-.686.68.68 0 0 0-.198-.504 1.8 1.8 0 0 0-.537-.363q-.347-.149-1.081-.421a11 11 0 0 1-1.413-.586 2.9 2.9 0 0 1-.966-.81q-.387-.512-.388-1.271 0-.744.388-1.297a2.4 2.4 0 0 1 1.057-.859q.686-.297 1.578-.297.94 0 1.676.339.735.33 1.156.933.413.594.413 1.395v.182q0 .066-.042.107a.16.16 0 0 1-.107.042h-1.42a.14.14 0 0 1-.107-.042.13.13 0 0 1-.05-.107v-.1q0-.519-.421-.883-.43-.363-1.173-.363-.586 0-.908.248-.33.24-.33.677 0 .313.19.52.197.215.57.38.378.165 1.172.454.884.323 1.379.57.503.248.908.735.405.488.405 1.272 0 1.164-.859 1.833-.85.677-2.32.677m8.002-6.317a.15.15 0 0 1 .049-.108.14.14 0 0 1 .1-.04h1.452q.059 0 .108.04a.17.17 0 0 1 .041.108v6.07q0 .066-.041.107a.17.17 0 0 1-.108.04H28.48a.14.14 0 0 1-.099-.04.13.13 0 0 1-.05-.108v-.42q0-.035-.024-.042-.025-.009-.05.033-.495.66-1.536.66-.94 0-1.544-.561-.61-.57-.611-1.602v-4.137a.15.15 0 0 1 .05-.108.14.14 0 0 1 .099-.04h1.436q.066 0 .108.04a.17.17 0 0 1 .041.108v3.707q0 .495.273.802.263.313.735.313.42 0 .693-.256.273-.255.33-.66zm8.72 1.56q.222.628.223 1.487a4.9 4.9 0 0 1-.231 1.552q-.29.793-.9 1.255-.612.463-1.52.463-.892 0-1.387-.62-.025-.032-.05-.024t-.025.05v2.65q0 .066-.04.108a.15.15 0 0 1-.108.04h-1.445a.14.14 0 0 1-.108-.04.15.15 0 0 1-.041-.108v-8.373q0-.059.041-.108a.14.14 0 0 1 .108-.04h1.445q.066 0 .107.04a.17.17 0 0 1 .041.108v.404q0 .041.025.05.025.008.05-.017.52-.685 1.436-.685.86 0 1.487.479.62.479.892 1.33m-1.891 2.775q.305-.48.305-1.313 0-.776-.256-1.239-.288-.528-.916-.528-.57 0-.86.528-.255.447-.255 1.256 0 .825.272 1.288.281.495.843.495.553 0 .867-.487m8.926-2.775q.224.628.223 1.487 0 .859-.23 1.552-.29.793-.9 1.255-.612.463-1.52.463-.892 0-1.388-.62-.024-.032-.05-.024-.024.008-.024.05v2.65q0 .066-.041.108a.14.14 0 0 1-.108.04h-1.445a.14.14 0 0 1-.107-.04.15.15 0 0 1-.041-.108v-8.373q0-.059.04-.108a.14.14 0 0 1 .108-.04h1.445q.066 0 .108.04a.17.17 0 0 1 .041.108v.404q0 .041.025.05.024.008.05-.017.52-.685 1.436-.685.859 0 1.487.479.62.479.892 1.33m-1.89 2.775q.305-.48.305-1.313 0-.776-.256-1.239-.289-.528-.917-.528-.57 0-.858.528-.256.447-.256 1.256 0 .825.272 1.288.28.495.842.495.554 0 .867-.487m6.02 1.982q-1.041 0-1.784-.545t-1.016-1.486a4.4 4.4 0 0 1-.173-1.264q0-.726.173-1.313.281-.917 1.024-1.437t1.792-.52q1.008 0 1.726.512.727.52 1.024 1.437.19.62.19 1.296 0 .67-.165 1.255-.28.967-1.016 1.512-.735.553-1.775.553m0-1.495q.404 0 .693-.247.28-.248.405-.686.099-.396.099-.867 0-.52-.1-.875a1.36 1.36 0 0 0-.42-.66 1.04 1.04 0 0 0-.686-.232q-.429 0-.702.231-.28.24-.404.66-.1.29-.1.876 0 .561.083.867.124.438.421.686.29.247.71.247m7.258-5.053q.446 0 .71.173.099.049.075.182l-.265 1.412q-.008.148-.173.09a1.3 1.3 0 0 0-.43-.066q-.107 0-.272.025a1.26 1.26 0 0 0-.76.33q-.305.29-.305.777v3.377q0 .066-.05.108a.14.14 0 0 1-.099.04h-1.453a.17.17 0 0 1-.108-.04.14.14 0 0 1-.04-.108v-6.07q0-.057.04-.107a.16.16 0 0 1 .108-.04h1.453q.058 0 .1.04a.15.15 0 0 1 .049.108v.47q0 .033.025.05.024.016.033-.017.51-.735 1.362-.735m5.302 1.337a.14.14 0 0 1-.042.1.13.13 0 0 1-.107.049h-1.19q-.057 0-.057.058v2.626q0 .405.165.61.166.2.537.199h.413q.058 0 .099.041.05.042.05.108v1.172q0 .14-.15.157-.52.025-.742.025-1.032 0-1.536-.339-.513-.338-.52-1.28v-3.32q0-.057-.067-.057h-.702a.13.13 0 0 1-.107-.05.14.14 0 0 1-.041-.099v-1.106q0-.059.041-.108a.14.14 0 0 1 .108-.04h.701q.066 0 .066-.067v-1.47q0-.057.042-.107a.14.14 0 0 1 .107-.041h1.388q.057 0 .099.04a.15.15 0 0 1 .05.108v1.47q0 .066.057.066h1.19q.065 0 .106.041a.16.16 0 0 1 .042.108zM31.849 32.642q-.075.033 0 .074 1.173.603 1.173 2.015 0 1.206-.818 1.817-.818.61-2.138.611h-3.213a.14.14 0 0 1-.099-.041.13.13 0 0 1-.05-.108v-8.373a.15.15 0 0 1 .05-.107.14.14 0 0 1 .1-.042h3.113q2.931 0 2.931 2.379 0 1.238-1.049 1.775m-3.336-2.659q-.058 0-.058.066v1.932q0 .066.058.066h1.453q.579 0 .909-.272.314-.273.314-.743 0-.487-.314-.768-.33-.28-.909-.281zm1.553 5.665q.57 0 .892-.29.322-.288.322-.8 0-.504-.323-.801-.321-.29-.908-.29h-1.536q-.058 0-.058.067v2.048q0 .066.058.066zm9.843-2.329q.075.47.05 1.049-.009.156-.157.157H35.97q-.075 0-.05.058.042.248.14.495.323.694 1.314.694.792-.009 1.247-.644.05-.075.115-.075.033 0 .083.05l.892.875q.066.066.066.116 0 .025-.05.099a2.67 2.67 0 0 1-1.057.784q-.635.282-1.412.281-1.065 0-1.8-.479a2.7 2.7 0 0 1-1.057-1.354q-.264-.62-.264-1.619 0-.685.19-1.205a2.7 2.7 0 0 1 .999-1.396q.71-.52 1.685-.52 1.238 0 1.99.718.75.72.908 1.916m-2.882-1.123q-.784 0-1.032.727-.049.165-.083.396 0 .058.058.058h2.147q.075 0 .05-.058a15 15 0 0 0-.066-.347 1.06 1.06 0 0 0-.389-.578 1.16 1.16 0 0 0-.685-.198m6.466 5.046q-.834 0-1.453-.232-.62-.23-.958-.652-.339-.42-.339-.958v-.124q0-.057.041-.107a.14.14 0 0 1 .108-.041h1.37q.067 0 .108.04a.17.17 0 0 1 .041.108v.008q0 .282.306.471.305.19.76.19.42 0 .685-.165.256-.174.256-.413 0-.222-.223-.338a4 4 0 0 0-.727-.232 6.6 6.6 0 0 1-.916-.289q-.793-.272-1.264-.669-.47-.396-.47-1.14 0-.916.71-1.453.71-.536 1.89-.536.794 0 1.388.247.594.256.925.719.322.455.322 1.04a.14.14 0 0 1-.041.1.14.14 0 0 1-.108.04h-1.321a.15.15 0 0 1-.107-.04.14.14 0 0 1-.042-.1q0-.272-.28-.462-.282-.19-.735-.19-.414 0-.67.157-.263.148-.264.405 0 .247.257.371.256.124.85.264l.306.075q.174.04.371.107.885.265 1.388.669.511.412.512 1.189 0 .916-.727 1.429-.727.512-1.949.512m7.316-5.195a.14.14 0 0 1-.04.1.13.13 0 0 1-.108.05h-1.19q-.057 0-.057.057v2.626q0 .405.165.611.165.198.545.198h.405q.057 0 .107.041a.14.14 0 0 1 .041.108v1.172q0 .14-.148.157-.52.025-.744.025-1.032 0-1.535-.339-.513-.338-.52-1.28v-3.32q0-.057-.067-.057h-.702a.13.13 0 0 1-.107-.05.14.14 0 0 1-.041-.099v-1.106q0-.058.04-.107a.14.14 0 0 1 .108-.042h.702q.066 0 .066-.066v-1.47q0-.057.041-.107a.15.15 0 0 1 .108-.041h1.387q.059 0 .108.04a.17.17 0 0 1 .04.108v1.47q0 .066.059.066h1.189q.066 0 .107.041a.17.17 0 0 1 .041.108z"/><path fill="#242530" d="M22.649 56.549a.13.13 0 0 1 .115-.066h.76q.041 0 .066.033a.08.08 0 0 1 .033.066v5.582q0 .042-.033.066a.08.08 0 0 1-.066.033h-.76a.1.1 0 0 1-.074-.033.1.1 0 0 1-.025-.066v-3.939q0-.024-.016-.033-.025-.008-.033.017l-1.033 1.585a.13.13 0 0 1-.115.066h-.38a.13.13 0 0 1-.116-.066l-1.04-1.577q-.009-.025-.025-.017-.025.009-.025.034v3.93q0 .042-.033.066a.08.08 0 0 1-.066.033h-.76a.08.08 0 0 1-.066-.033.08.08 0 0 1-.033-.066v-5.582q0-.042.033-.066a.08.08 0 0 1 .066-.033h.76a.13.13 0 0 1 .116.066l1.346 2.04q.016.015.033.016.016 0 .025-.016zm2.634.917a.57.57 0 0 1-.421-.166.57.57 0 0 1-.165-.42.57.57 0 0 1 .165-.422.57.57 0 0 1 .42-.165.57.57 0 0 1 .422.165q.165.165.165.421a.57.57 0 0 1-.165.421.57.57 0 0 1-.421.166m-.396 4.797a.08.08 0 0 1-.067-.033.08.08 0 0 1-.033-.066v-4.03q0-.041.034-.066a.08.08 0 0 1 .066-.033h.76q.04 0 .074.033a.1.1 0 0 1 .024.067v4.03a.1.1 0 0 1-.024.065.1.1 0 0 1-.075.033zm4.574-5.681q0-.042.033-.066a.08.08 0 0 1 .067-.033h.76q.04 0 .074.033a.1.1 0 0 1 .024.066v5.582a.1.1 0 0 1-.024.066.1.1 0 0 1-.075.033h-.76a.08.08 0 0 1-.066-.033.08.08 0 0 1-.033-.066v-.247q0-.025-.016-.033t-.033.016q-.363.43-.95.43-.586 0-.99-.306a1.7 1.7 0 0 1-.587-.85 3.4 3.4 0 0 1-.149-1.033q0-.586.14-1.007.182-.546.587-.85.404-.307 1.016-.306.57 0 .933.413.016.016.033.016.015-.007.016-.033zm-.198 4.525q.19-.338.19-.958 0-.644-.206-.982-.223-.363-.628-.364a.76.76 0 0 0-.66.347q-.248.363-.248 1.008 0 .578.198.95a.76.76 0 0 0 .702.396q.42 0 .652-.397m2.048-.916a.1.1 0 0 1-.066-.025.1.1 0 0 1-.033-.074v-.628q0-.04.033-.074a.1.1 0 0 1 .066-.025h2.601a.1.1 0 0 1 .066.025.1.1 0 0 1 .033.074v.628a.1.1 0 0 1-.033.074.1.1 0 0 1-.066.025zm7.3-3.642a.13.13 0 0 1 .116-.066h.76q.04 0 .074.033a.1.1 0 0 1 .025.066v5.582a.1.1 0 0 1-.025.066.1.1 0 0 1-.075.033h-.76a.08.08 0 0 1-.065-.033.08.08 0 0 1-.033-.066v-3.939q0-.024-.017-.033-.024-.008-.033.017l-1.032 1.585a.13.13 0 0 1-.116.066h-.38a.13.13 0 0 1-.115-.066l-1.04-1.577q-.01-.025-.026-.017-.024.009-.024.034v3.93a.1.1 0 0 1-.025.066.1.1 0 0 1-.074.033h-.76a.08.08 0 0 1-.066-.033.08.08 0 0 1-.033-.066v-5.582q0-.042.033-.066a.08.08 0 0 1 .066-.033h.76a.13.13 0 0 1 .115.066l1.346 2.04q.017.015.033.016.017 0 .025-.016zm3.7 1.429q.52 0 .916.181.397.182.611.496.215.322.215.726v2.783a.1.1 0 0 1-.025.066.1.1 0 0 1-.074.033h-.76a.08.08 0 0 1-.066-.033.08.08 0 0 1-.033-.066V61.9q0-.024-.016-.033-.017 0-.033.017-.405.446-1.173.446-.619 0-1.016-.314-.405-.314-.404-.933 0-.645.454-1.008.445-.355 1.263-.355h.884q.04 0 .041-.041v-.199q0-.321-.19-.503-.189-.174-.57-.174-.314 0-.503.116a.47.47 0 0 0-.248.306q-.025.099-.116.082l-.8-.099a.2.2 0 0 1-.067-.025q-.033-.025-.024-.058.066-.502.544-.825.47-.322 1.19-.322m-.199 3.592q.406 0 .694-.215a.65.65 0 0 0 .29-.545v-.388q0-.041-.042-.041h-.694q-.437 0-.685.165a.53.53 0 0 0-.256.47q0 .265.198.405a.78.78 0 0 0 .495.149m4.864-3.576q.264 0 .463.107.066.034.05.124l-.141.743q-.008.1-.116.058a.862.862 0 0 0-1.032.206.8.8 0 0 0-.231.595v2.337a.1.1 0 0 1-.025.066.1.1 0 0 1-.074.033h-.76a.08.08 0 0 1-.066-.033.08.08 0 0 1-.033-.066v-4.021q0-.042.033-.075a.1.1 0 0 1 .066-.024h.76q.04 0 .074.024a.12.12 0 0 1 .025.075v.371q0 .033.016.033.009.008.025-.016.346-.537.966-.537m1.24 4.27a.08.08 0 0 1-.067-.034.08.08 0 0 1-.033-.066v-5.582q0-.042.033-.066a.08.08 0 0 1 .066-.033h.76q.041 0 .066.033a.08.08 0 0 1 .033.066v2.981q0 .026.016.033t.033-.016l1.338-1.479a.17.17 0 0 1 .124-.057h.875q.084 0 .083.057a.14.14 0 0 1-.025.066l-1.049 1.256q-.024.024-.008.057l1.239 2.668a.1.1 0 0 1 .016.05q0 .065-.09.065h-.801a.12.12 0 0 1-.116-.074l-.9-2.097q-.009-.017-.033-.025-.017 0-.025.016l-.66.76a.13.13 0 0 0-.017.058v1.263q0 .042-.033.066a.08.08 0 0 1-.066.033zm7.472-2.585q.034.206.033.462l-.008.256q0 .1-.099.1H53.03q-.04 0-.04.04.023.273.074.372.198.595.966.603.561 0 .891-.462.034-.05.083-.05a.08.08 0 0 1 .058.025l.512.42q.075.06.025.133-.257.364-.686.562-.42.198-.941.198-.645 0-1.098-.29a1.67 1.67 0 0 1-.653-.809q-.19-.446-.19-1.238 0-.48.1-.776.165-.579.627-.917.454-.33 1.098-.33 1.627 0 1.834 1.7m-1.833-.876a.82.82 0 0 0-.512.157.8.8 0 0 0-.28.421 1.4 1.4 0 0 0-.067.364q-.016.04.033.041h1.677q.04 0 .041-.041a1.6 1.6 0 0 0-.05-.314.8.8 0 0 0-.289-.462.9.9 0 0 0-.553-.166m4.897-.082a.1.1 0 0 1-.025.066.1.1 0 0 1-.074.033h-.842q-.042 0-.042.041v1.99q0 .314.14.455.133.14.43.14h.248a.1.1 0 0 1 .066.025.1.1 0 0 1 .033.074v.62q0 .09-.099.107l-.43.008q-.652 0-.974-.223-.323-.224-.33-.842V58.86q0-.04-.041-.041h-.471a.08.08 0 0 1-.066-.033.08.08 0 0 1-.033-.066v-.578q0-.042.033-.075a.1.1 0 0 1 .066-.024h.47q.042 0 .042-.042v-.966q0-.04.033-.074a.1.1 0 0 1 .066-.025h.718q.042 0 .066.025a.1.1 0 0 1 .033.074v.966q0 .042.042.042h.842q.042 0 .074.024a.12.12 0 0 1 .025.075z"/><path fill="#252530" d="M27.702 73.973a2.9 2.9 0 0 1-1.156-.215 1.64 1.64 0 0 1-.76-.602 1.54 1.54 0 0 1-.272-.909v-.181q0-.042.033-.066a.08.08 0 0 1 .066-.034h.942q.04 0 .074.034a.1.1 0 0 1 .025.066v.123q0 .33.305.554.306.231.826.231.439 0 .652-.182a.6.6 0 0 0 .215-.462.45.45 0 0 0-.132-.33 1.1 1.1 0 0 0-.363-.24 9 9 0 0 0-.719-.289 7 7 0 0 1-.941-.388 1.84 1.84 0 0 1-.636-.545q-.264-.34-.264-.842 0-.496.256-.867a1.63 1.63 0 0 1 .71-.57 2.6 2.6 0 0 1 1.049-.198q.627 0 1.114.222.496.224.777.628.272.397.272.925v.124a.1.1 0 0 1-.025.066.1.1 0 0 1-.074.033h-.95a.08.08 0 0 1-.066-.033.08.08 0 0 1-.033-.066v-.066a.77.77 0 0 0-.28-.595q-.29-.24-.785-.24-.388 0-.611.166a.54.54 0 0 0-.215.454q0 .207.132.347.125.14.38.248.248.116.776.305.587.215.917.38.34.166.611.487.264.33.265.85 0 .777-.57 1.223-.57.454-1.545.454m5.318-5.855q.546 0 .958.223.413.223.645.628.223.413.223.941 0 .52-.232.917-.24.395-.669.62-.42.213-.974.214h-1.173q-.04 0-.04.041v2.106q0 .042-.034.066a.08.08 0 0 1-.066.033h-.966a.1.1 0 0 1-.075-.033.1.1 0 0 1-.024-.066v-5.59a.12.12 0 0 1 .024-.075.12.12 0 0 1 .075-.025zm-.173 2.61q.38 0 .611-.223a.74.74 0 0 0 .231-.57.78.78 0 0 0-.23-.586q-.233-.223-.612-.223h-1.049q-.04 0-.04.041v1.52q0 .04.04.04zm5.888 3.18a.12.12 0 0 1-.116-.075l-1.032-2.288q-.015-.033-.05-.033h-.767q-.042 0-.042.042v2.254q0 .042-.033.066a.08.08 0 0 1-.066.033h-.966a.1.1 0 0 1-.074-.033.1.1 0 0 1-.025-.066v-5.582a.1.1 0 0 1 .025-.066.1.1 0 0 1 .074-.033h2.362q.528 0 .925.214.405.216.619.611.223.397.223.917 0 .561-.28.958-.282.405-.785.57-.042.016-.025.057l1.123 2.338a.1.1 0 0 1 .017.05q0 .065-.091.065zm-1.965-4.782q-.042 0-.042.041v1.412q0 .042.042.042h1.081a.78.78 0 0 0 .562-.207.7.7 0 0 0 .223-.537.72.72 0 0 0-.223-.545.78.78 0 0 0-.562-.206zm3.963 4.781a.08.08 0 0 1-.066-.033.08.08 0 0 1-.033-.066v-5.582q0-.042.033-.066a.08.08 0 0 1 .066-.033h.967q.04 0 .074.033a.1.1 0 0 1 .025.066v5.582a.1.1 0 0 1-.025.066.1.1 0 0 1-.074.033zm5.393-5.681q0-.042.033-.066a.08.08 0 0 1 .066-.033h.966q.041 0 .074.033a.1.1 0 0 1 .025.066v5.582a.1.1 0 0 1-.025.066.1.1 0 0 1-.074.033h-.933q-.083 0-.116-.066l-2.139-3.534q-.016-.025-.032-.017-.017 0-.017.033l.017 3.485a.1.1 0 0 1-.025.066.1.1 0 0 1-.075.033h-.966a.08.08 0 0 1-.066-.033.08.08 0 0 1-.033-.066v-5.582q0-.042.033-.066a.08.08 0 0 1 .066-.033h.933q.083 0 .116.066l2.13 3.517q.017.026.033.017.017 0 .017-.033zm4.203 5.747q-.636 0-1.123-.256a1.84 1.84 0 0 1-.751-.71 2.06 2.06 0 0 1-.273-1.065v-1.85q0-.603.273-1.065a1.8 1.8 0 0 1 .751-.719q.488-.248 1.123-.248.627 0 1.115.248.48.248.751.677.264.422.265.942v.058a.1.1 0 0 1-.025.066.1.1 0 0 1-.075.033h-.966a.08.08 0 0 1-.066-.033.08.08 0 0 1-.033-.066v-.025a.85.85 0 0 0-.264-.636q-.264-.264-.702-.264-.446 0-.71.272-.273.281-.273.727v1.916q0 .446.29.718.288.28.734.281.43 0 .686-.231.255-.223.256-.628v-.371q0-.042-.042-.042h-.924a.08.08 0 0 1-.066-.033.08.08 0 0 1-.034-.066v-.76q0-.041.033-.066a.08.08 0 0 1 .067-.033h2.015q.04 0 .074.033a.1.1 0 0 1 .025.067v1.09q0 .627-.265 1.09a1.8 1.8 0 0 1-.743.71q-.488.24-1.123.24m-18.886 6.648q-.016.016-.008.033.009.016.033.016h2.238a.12.12 0 0 1 .074.025.12.12 0 0 1 .025.074v.801q0 .042-.025.067a.1.1 0 0 1-.074.032H29.99a.1.1 0 0 1-.074-.032.1.1 0 0 1-.025-.067v-.76q0-.073.05-.123.404-.396.825-.859.42-.471.529-.586.23-.273.47-.52.752-.835.752-1.24a.62.62 0 0 0-.207-.478.78.78 0 0 0-.536-.182q-.33 0-.537.182a.64.64 0 0 0-.207.495v.207a.1.1 0 0 1-.033.074.1.1 0 0 1-.066.025h-.974a.1.1 0 0 1-.066-.025.1.1 0 0 1-.033-.074v-.388q.024-.447.28-.793.256-.34.678-.52.429-.182.958-.182.585 0 1.024.215.43.223.668.594.232.372.232.826 0 .347-.174.71a4 4 0 0 1-.52.785q-.255.321-.553.636-.298.313-.884.908zm5.046 1.14q-.909 0-1.437-.513-.529-.503-.529-1.379v-2.18q0-.858.529-1.362.528-.504 1.437-.504.908 0 1.445.504.529.503.529 1.362v2.18q0 .876-.529 1.38-.537.51-1.445.511m0-1q.372 0 .594-.231.216-.224.215-.603v-2.27q0-.38-.215-.604-.222-.23-.594-.23-.363 0-.578.23-.223.223-.223.603v2.271q0 .38.223.603.215.231.578.231m4.286-.14q-.017.016-.009.033.009.016.033.016h2.238q.042 0 .075.025a.12.12 0 0 1 .024.074v.801a.1.1 0 0 1-.024.067.1.1 0 0 1-.075.032h-3.716a.08.08 0 0 1-.066-.032.08.08 0 0 1-.033-.067v-.76q0-.073.05-.123.405-.396.825-.859.421-.471.529-.586.231-.273.47-.52.752-.835.752-1.24a.62.62 0 0 0-.206-.478.78.78 0 0 0-.537-.182q-.33 0-.537.182a.64.64 0 0 0-.206.495v.207a.12.12 0 0 1-.025.074.12.12 0 0 1-.074.025h-.975a.1.1 0 0 1-.066-.025.1.1 0 0 1-.033-.074v-.388a1.44 1.44 0 0 1 .28-.793q.258-.34.686-.52.422-.182.95-.182.586 0 1.024.215.43.223.669.594.231.372.231.826 0 .347-.173.71-.174.363-.52.785-.257.321-.554.636-.297.313-.883.908zm7.209-1.47a.12.12 0 0 1 .074.025.12.12 0 0 1 .025.074v.834a.12.12 0 0 1-.025.074.12.12 0 0 1-.074.025h-.355q-.042 0-.042.041v1.346a.1.1 0 0 1-.024.067.1.1 0 0 1-.075.032h-.966a.08.08 0 0 1-.066-.032.08.08 0 0 1-.033-.067v-1.346q0-.04-.041-.04h-2.535a.1.1 0 0 1-.066-.026.1.1 0 0 1-.033-.074v-.66q0-.05.024-.125l1.487-3.336a.12.12 0 0 1 .115-.074h1.032q.06 0 .083.033.016.025-.008.083L45.1 79.1a.04.04 0 0 0 0 .033q.01.017.026.017h1.255q.04 0 .041-.041v-1.024q0-.042.033-.066a.08.08 0 0 1 .066-.033h.966q.042 0 .075.033a.1.1 0 0 1 .024.066v1.024q0 .04.042.04z"/></g><defs><clipPath id="a"><path fill="#fff" d="M.329 0h77.624v100.746H.329z"/></clipPath></defs></svg>