<svg xmlns="http://www.w3.org/2000/svg" width="78" height="91" fill="none" viewBox="0 0 78 91"><g clip-path="url(#a)"><path fill="#fff" d="M.196 70.726 38.59 89.644l38.393-18.918V1.174H.196z"/><path fill="#fff" d="M.196 70.726 38.59 89.644l38.393-18.918V1.174H.196z"/><path fill="#000" d="M10.875 11.846q-.31 0-.575-.075a1.7 1.7 0 0 1-.485-.209 1.6 1.6 0 0 1-.342-.309.8.8 0 0 1-.183-.359l.784-.233a.75.75 0 0 0 .267.342q.192.142.484.15a.82.82 0 0 0 .51-.133.43.43 0 0 0 .041-.685 1.05 1.05 0 0 0-.425-.2l-.535-.142a1.7 1.7 0 0 1-.525-.234q-.226-.15-.351-.384a1 1 0 0 1-.134-.525q0-.585.384-.91.384-.317 1.085-.317.393 0 .685.108.3.117.492.326.201.209.309.5l-.776.234a.7.7 0 0 0-.259-.334.78.78 0 0 0-.476-.142q-.291 0-.459.134a.46.46 0 0 0-.167.384q0 .192.134.3a.9.9 0 0 0 .359.167l.534.134q.525.134.818.467.292.334.292.743a1.11 1.11 0 0 1-.676 1.052q-.334.15-.81.15m2.755-.067v-4.09h1.519q.434 0 .768.176.334.166.517.475.192.31.192.71t-.184.71a1.3 1.3 0 0 1-.492.483 1.44 1.44 0 0 1-.735.184h-.784v1.352zm.8-2.095h.769a.6.6 0 0 0 .442-.175.64.64 0 0 0 .167-.46.62.62 0 0 0-.184-.458.72.72 0 0 0-.492-.167h-.701zm3.306 2.095v-4.09h1.519q.434 0 .768.167.334.176.517.468.192.292.192.684 0 .384-.2.684-.192.3-.534.468a1.7 1.7 0 0 1-.768.167h-.693v1.452zm2.253 0-.943-1.644.61-.434 1.235 2.078zm-1.452-2.178h.726a.7.7 0 0 0 .326-.075q.142-.075.225-.21a.57.57 0 0 0 .084-.308.55.55 0 0 0-.184-.426.75.75 0 0 0-.492-.158h-.685zm3.556 2.178v-4.09h.801v4.09zm2.27 0v-4.09h.835l2.003 2.746V7.69h.793v4.09H27.2l-2.037-2.796v2.796zm7.002.067a2.26 2.26 0 0 1-1.11-.267 1.95 1.95 0 0 1-.75-.751 2.14 2.14 0 0 1-.276-1.094q0-.618.275-1.093.268-.476.751-.751a2.26 2.26 0 0 1 1.11-.267q.375 0 .685.108.317.108.559.309.242.192.409.442l-.651.41a1 1 0 0 0-.267-.276 1.2 1.2 0 0 0-.35-.192 1 1 0 0 0-.385-.075q-.384 0-.684.175-.3.184-.467.492a1.5 1.5 0 0 0-.167.718q0 .401.167.718.166.317.467.492.3.184.701.184.31 0 .55-.125a1 1 0 0 0 .385-.342.95.95 0 0 0 .142-.518l.76-.117q0 .577-.243.985a1.57 1.57 0 0 1-.65.626q-.419.21-.96.209m.134-1.636v-.618h1.72v.493l-.435.125zm4.724 1.569v-.593q0-.165.1-.367.109-.208.292-.409.193-.208.442-.384l.618-.442q.126-.092.242-.2a.9.9 0 0 0 .184-.242.498.498 0 0 0 0-.526.44.44 0 0 0-.209-.192.74.74 0 0 0-.35-.075.6.6 0 0 0-.31.075.7.7 0 0 0-.225.183.9.9 0 0 0-.125.25l-.818-.141q.06-.293.25-.543.193-.25.502-.409.316-.15.709-.15.46 0 .785.167.324.158.509.443.174.284.175.659 0 .375-.209.676-.209.292-.567.55l-.56.401a1.7 1.7 0 0 0-.292.26q-.117.141-.183.308h1.86v.701zm5.559.067q-.5 0-.877-.267a1.8 1.8 0 0 1-.592-.751 2.6 2.6 0 0 1-.217-1.094q0-.618.217-1.093.208-.476.592-.751.375-.267.868-.267.501 0 .885.267.376.275.592.75.217.477.217 1.094t-.217 1.094a1.87 1.87 0 0 1-.592.75 1.5 1.5 0 0 1-.876.268m0-.718a.7.7 0 0 0 .467-.184 1.14 1.14 0 0 0 .325-.492q.117-.309.117-.718 0-.408-.117-.726a1.14 1.14 0 0 0-.325-.492.72.72 0 0 0-.943 0 1.2 1.2 0 0 0-.317.492 2.1 2.1 0 0 0-.117.726q0 .41.117.718.117.317.325.492a.67.67 0 0 0 .468.184m2.77.651v-.593q0-.165.109-.367.109-.208.292-.409.184-.208.442-.384l.618-.442q.126-.092.242-.2.109-.109.184-.242a.498.498 0 0 0 0-.526.5.5 0 0 0-.209-.192.74.74 0 0 0-.35-.075.6.6 0 0 0-.31.075.57.57 0 0 0-.225.183.7.7 0 0 0-.125.25l-.818-.141q.06-.293.25-.543.193-.25.501-.409.318-.15.71-.15.459 0 .784.167.325.158.51.443.174.284.175.659 0 .375-.209.676-.209.292-.567.55l-.56.401a1.7 1.7 0 0 0-.292.26q-.117.141-.183.308h1.86v.701zm5.384.067a2 2 0 0 1-.576-.092 1.6 1.6 0 0 1-.526-.275 1.1 1.1 0 0 1-.35-.468l.726-.217a.8.8 0 0 0 .309.276.8.8 0 0 0 .375.091q.3 0 .492-.183a.67.67 0 0 0 .184-.493.67.67 0 0 0-.184-.484.64.64 0 0 0-.484-.192.748.748 0 0 0-.568.275l-.717-.158.242-2.237h2.32v.726h-1.636l-.116.977q.158-.084.35-.142a1.7 1.7 0 0 1 .417-.05q.334 0 .61.167.275.159.434.434.158.276.158.643 0 .417-.183.734-.191.317-.518.492-.325.176-.76.176M6.485 39.322V30.56h2.212l2.329 3.455 2.345-3.455h2.212v8.763H13.57v-5.634l-2.529 3.706-2.545-3.706v5.634zm13.621.15q-.993 0-1.744-.417a3.1 3.1 0 0 1-1.185-1.16q-.426-.735-.426-1.703 0-.96.418-1.702.417-.735 1.176-1.16.76-.418 1.72-.418.993 0 1.752.418.751.425 1.177 1.16.417.742.417 1.702 0 .968-.417 1.703a3 3 0 0 1-1.177 1.16q-.75.417-1.71.417m0-1.802q.375 0 .668-.184.292-.192.46-.526.174-.325.174-.768 0-.434-.175-.767a1.24 1.24 0 0 0-.467-.518 1.24 1.24 0 0 0-.685-.192q-.392 0-.692.192a1.24 1.24 0 0 0-.468.518 1.7 1.7 0 0 0-.167.767q0 .443.167.768.167.334.476.526.309.184.71.184m4.257 1.652v-6.26h1.836l.075.793q.3-.467.743-.71.45-.233.985-.233.776 0 1.285.317.51.326.743.977.293-.626.793-.96.501-.334 1.127-.334 1.126 0 1.694.685.567.691.56 2.145v3.58H32.25v-3.205q0-.5-.108-.793a.9.9 0 0 0-.31-.434.94.94 0 0 0-.475-.15q-.534-.017-.818.309-.284.317-.284.968v3.305h-1.953v-3.205q0-.5-.108-.793a.85.85 0 0 0-.3-.434.94.94 0 0 0-.476-.15q-.542-.017-.827.309-.275.317-.275.968v3.305zm14.03.15q-.976 0-1.728-.417a3 3 0 0 1-1.177-1.16q-.425-.735-.425-1.703 0-.976.434-1.71.434-.744 1.185-1.152.751-.418 1.736-.418.893 0 1.602.426.718.425 1.136 1.268.417.835.417 2.087h-4.707l.217-.234q0 .425.175.752.175.325.484.492.317.167.701.167.468 0 .785-.209.316-.2.442-.517l1.728.592q-.25.585-.702.977a3.1 3.1 0 0 1-1.051.576q-.585.183-1.252.183m-1.26-3.83-.2-.25h2.804l-.176.25q0-.46-.192-.735a1.1 1.1 0 0 0-.459-.4 1.4 1.4 0 0 0-.55-.117q-.275 0-.56.116-.283.126-.475.401t-.192.735m5.266 3.68v-6.26h1.845l.108 1.152v5.108zm4.031 0v-3.205h1.953v3.205zm0-3.205q0-.5-.108-.793a.94.94 0 0 0-.317-.434 1.03 1.03 0 0 0-.51-.15q-.567-.017-.85.309-.294.317-.293.968h-.584q0-.986.3-1.686.3-.693.818-1.06.518-.36 1.21-.359.752 0 1.26.309.519.31.777.935.25.626.25 1.602v.36zm5.834 3.355q-1.11 0-1.652-.534-.55-.526-.551-1.519v-6.31h1.953v5.826q0 .375.142.551.133.175.425.175.11 0 .26-.058t.275-.142l.676 1.427q-.3.25-.718.417a2.2 2.2 0 0 1-.81.167m-3.18-4.765v-1.645h4.357v1.636zm9.732 4.615L58.7 38.17v-5.108h1.953v6.26zm-4.148-3.055v-3.205h1.953v3.205zm1.953 0q0 .493.117.793.108.3.325.434.21.142.501.15.56 0 .852-.317.283-.317.283-.96h.593q0 .994-.3 1.687-.3.692-.819 1.06-.525.358-1.21.358-.75 0-1.268-.308-.51-.3-.768-.927-.26-.626-.259-1.602v-.368zm5.308 3.055v-6.26h1.845l.075.793q.3-.467.743-.71.442-.233.985-.233.775 0 1.285.317.5.326.743.977.283-.626.784-.96t1.127-.334q1.127 0 1.703.685.567.691.55 2.145v3.58h-1.953v-3.205q0-.5-.1-.793a.9.9 0 0 0-.308-.434.94.94 0 0 0-.476-.15q-.543-.017-.818.309-.285.317-.284.968v3.305h-1.953v-3.205q0-.5-.108-.793a.9.9 0 0 0-.31-.434.94.94 0 0 0-.475-.15q-.534-.017-.818.309-.285.317-.284.968v3.305zm-42.148 12.52v-8.764h2.011v6.91h3.731v1.854zm9.615.15q-.976 0-1.728-.418a3 3 0 0 1-1.177-1.16q-.425-.735-.425-1.702 0-.977.425-1.711.435-.743 1.185-1.152.752-.417 1.745-.417.885 0 1.602.425.71.426 1.127 1.269.426.835.426 2.086h-4.708l.209-.233q0 .426.175.75.175.327.493.493.31.168.7.167.46 0 .777-.208a1.06 1.06 0 0 0 .45-.518l1.728.593a2.6 2.6 0 0 1-.71.976 3.1 3.1 0 0 1-1.042.576 4.2 4.2 0 0 1-1.252.184m-1.269-3.831-.2-.25h2.804l-.175.25q0-.459-.184-.735a1.15 1.15 0 0 0-.467-.4 1.4 1.4 0 0 0-.551-.117q-.276 0-.56.117-.275.125-.467.4-.2.276-.2.735m8.989 3.68-.05-1.352v-1.76q0-.502-.084-.877a1.2 1.2 0 0 0-.317-.593q-.225-.208-.676-.208-.35 0-.61.158a1.45 1.45 0 0 0-.45.451l-1.702-.56q.208-.466.576-.842.375-.375.91-.601.54-.225 1.251-.225.977 0 1.653.367.675.36 1.018 1.01.334.65.334 1.544l-.025 3.489zm-1.703.15q-1.11 0-1.727-.5-.61-.501-.61-1.41 0-.994.635-1.478.642-.492 1.794-.492h1.711v1.252h-.976q-.626 0-.902.175a.55.55 0 0 0-.275.492q0 .225.208.35.21.135.568.134.367 0 .643-.158.275-.15.425-.417a1.1 1.1 0 0 0 .159-.576h.492q0 1.252-.526 1.944-.525.685-1.619.685m9.114-.15-.083-1.16v-7.603h1.953v8.764zm-1.86.15q-.878 0-1.511-.392-.635-.392-.977-1.135-.342-.734-.342-1.752 0-1.028.342-1.761.342-.726.977-1.127.633-.393 1.51-.392.777 0 1.302.392.534.4.801 1.127.26.734.26 1.76 0 1.02-.26 1.753-.267.743-.792 1.136-.534.392-1.31.392m.508-1.802q.367 0 .651-.184.292-.192.451-.526.167-.324.167-.767 0-.435-.167-.768a1.2 1.2 0 0 0-.45-.518 1.15 1.15 0 0 0-.66-.192q-.375 0-.668.192-.284.184-.45.518a1.7 1.7 0 0 0 0 1.535q.166.334.459.526.292.184.667.184m7.504 1.803q-.977 0-1.728-.418a3 3 0 0 1-1.177-1.16q-.426-.735-.426-1.702 0-.977.426-1.711.434-.743 1.185-1.152.751-.417 1.745-.417.885 0 1.602.425.71.426 1.135 1.269.417.835.417 2.086h-4.707l.209-.233q0 .426.175.75.175.327.493.493.31.168.7.167.46 0 .777-.208a1.06 1.06 0 0 0 .45-.518l1.728.593a2.6 2.6 0 0 1-.71.976 3.1 3.1 0 0 1-1.042.576 4.2 4.2 0 0 1-1.252.184M49.41 48.16l-.2-.25h2.804l-.175.25q0-.459-.184-.735a1.15 1.15 0 0 0-.467-.4 1.4 1.4 0 0 0-.551-.117q-.275 0-.56.117-.275.125-.467.4-.2.276-.2.735m6.71.442q0-1.018.41-1.694.408-.676 1.026-1.01a2.63 2.63 0 0 1 1.294-.342v1.903q-.576 0-1.077.125-.51.124-.826.384a.82.82 0 0 0-.31.66zm-1.435 3.239v-6.26h1.953v6.26z"/><path fill="#FF492C" d="M59.455 1.174h17.527V18.7H59.455z"/><mask id="b" width="18" height="18" x="59" y="1" maskUnits="userSpaceOnUse" style="mask-type:luminance"><path fill="#fff" d="M59.455 1.174h17.527V18.7H59.455z"/></mask><g mask="url(#b)"><path fill="#fff" fill-rule="evenodd" d="M72.017 7.886h-1.498c.041-.235.185-.366.48-.514l.276-.14c.493-.253.756-.538.756-1.002a.81.81 0 0 0-.34-.691 1.3 1.3 0 0 0-.805-.249 1.25 1.25 0 0 0-.684.195 1.15 1.15 0 0 0-.452.492l.434.433q.252-.507.733-.506c.272 0 .44.14.44.334 0 .163-.082.298-.395.456l-.176.086q-.575.29-.805.668c-.154.248-.231.569-.231.953v.103h2.267zm-.205 1.335h-2.475l-1.238 2.145h2.475l1.238 2.145 1.239-2.145z" clip-rule="evenodd"/><path fill="#fff" fill-rule="evenodd" d="M68.31 12.8a2.865 2.865 0 0 1-2.864-2.862 2.865 2.865 0 0 1 2.863-2.86l.98-2.05a5.008 5.008 0 1 0 1.97 8.958l-1.084-1.88a2.85 2.85 0 0 1-1.866.694" clip-rule="evenodd"/><path stroke="#000" stroke-width=".906" d="M59.863 1.73v16.583"/></g><path fill="#FF492C" d="M.196 70.882v-5.425L38.59 84.688l38.393-19.231v5.425L38.589 89.644z"/><path fill="#FFC800" d="M.196 65.913v-5.425L38.59 79.719l38.393-19.231v5.425L38.589 84.675z"/><path fill="#fff" d="M.196 60.959v-5.425L38.59 74.766l38.393-19.232v5.425L38.589 79.72z"/><path stroke="#000" stroke-width=".906" d="M76.627 18.313H.718m75.81 52.3L38.59 89.139.19 70.5.65 1.627h75.879z"/></g><defs><clipPath id="a"><path fill="#fff" d="M.167.72h77.62v89.306H.167z"/></clipPath></defs></svg>