<svg xmlns="http://www.w3.org/2000/svg" width="371" height="356" fill="none" viewBox="0 0 371 356"><path fill="#fff" d="m145.887 88.15 3.798 14.148-7.41-4.2c-.434.676-4.429 7.16-1.55 14.781 2.913 7.698 10.315 9.853 11.064 10.05l4.216-2.763c4.088 6.381 8.168 12.753 12.256 19.125.179 1.993.358 3.978.546 5.971a29.7 29.7 0 0 0-6.218 4.499 30.4 30.4 0 0 0-6.643 9.101c-16.524 6.876-33.039 13.753-49.554 20.63-8.934-2.951-17.877-5.902-26.812-8.852-1.312-6.013-3.288-10.401-4.761-12.369-1.303-1.736-2.768-2.925-2.768-2.925a14.5 14.5 0 0 0-2.198-1.471 71 71 0 0 1-.92-12.163 71.6 71.6 0 0 1 1.056-11.427c.273-.094 6.644-2.31 8.05-8.896 1.243-5.833-2.488-10.127-2.88-10.555a18.4 18.4 0 0 0-4.914 1.6c-3.066 1.514-5.034 3.584-6.107 4.909l-7.027-38.73c-12.707.882-25.415 1.754-38.123 2.627-2.81 16.414-2.342 29.851-1.44 38.9 1.943 19.237 7.351 32.811 13.74 35.642 3.431 1.523 6.736 1.189 6.736 1.189 3.722-.376 6.354-2.386 7.53-3.421.655 4.396 1.32 8.776 1.975 13.172a4.8 4.8 0 0 0-1.584.539c-1.073.59-2.087 1.728-3.943 7.339-.264.787-.639 1.95-1.04 3.378a79 79 0 0 0-8.27 2.926c-3.475 1.445-10.382 4.336-15.535 8.621-8.492 7.083-11.03 17.056-13.185 25.378-1.712 6.578-1.993 11.941-2.487 21.503-.417 7.964-.545 14.413-.068 19.382 1.704 17.714 3.415 35.42 5.119 53.134 13.823 10.521 35.704 24.736 65.234 34.188 18.482 5.919 33.958 8.049 48.786 9.494 55.03 5.363 111.099 2.241 148.712-1.172 6.123-3.019 12.256-6.047 18.388-9.066 19.181-17.167 38.353-34.316 57.534-51.483 6.269.599 11.328.257 14.812-.18 4.531-.564 5.698-1.206 6.422-1.745 4.633-3.447 3.85-11.846 3.551-15.113-1.124-12.471-2.955-37.798-5.689-71.447-.017-3.011-.494-9.443-4.736-15.652a26.5 26.5 0 0 0-5.331-5.74c-8.773-2.985-17.555-5.979-26.327-8.964a9870 9870 0 0 0-12.563-7.005c.869-3.806 1.729-7.604 2.598-11.41 1.788 1.309 5.97 3.977 10.297 2.848 1.243-.325 4.684-1.531 7.785-7.843 21.216-43.263 10.501-101.554 10.501-101.554-1.712-9.29-4.71-22.778-10.237-38.73-3.808-2.506-11.235-6.578-21.183-7.023-20.526-.915-33.949 14.43-35.815 16.62 5.289 15.08 6.78 27.482 7.172 35.932 1.209 25.772-1.388 41.527-1.388 41.527-1.21 7.39-3.186 15.892.962 24.848 2.095 4.524 5.051 7.646 7.223 9.588 1.243 2.814 3.551 9.084 2.546 17.072a32 32 0 0 1-4.182 12.24 72.6 72.6 0 0 1-15.68 10.957 71.7 71.7 0 0 1-17.034 6.236c-14.071-6.27-28.141-12.531-42.22-18.801-.844-2.378-3.177-7.852-8.841-11.855a23.9 23.9 0 0 0-7.385-3.472l-.741-5.534 7.138-18.98c2.861 2.241 4.795 2.112 5.647 1.95 5.118-1.009 7.214-10.889 6.115-17.8-.332-2.078-.852-5.38-2.939-6.073-2.027-.684-5.033 1.266-7.248 4.987 0 0 2.538-30.287 2.24-30.236-.306.051-15.518-11.804-15.518-11.804s-37.127 4.106-37.578 4.405-12.708 15.49-12.708 15.49l1.065 9.512h.017z"/><path fill="#D5D4D4" d="M266.908 276.197c-5.885 9.965-7.257 22.512-3.662 33.521a64.8 64.8 0 0 0-11.601 7.757c-1.158-15.079 1.516-30.176 2.181-45.29.264-6.15.213-12.325.809-18.458.451-4.584 1.746-9.135 2.069-13.694-.749 6.082.639 13.036 2.292 18.886a63 63 0 0 0 3.321 9.024c.426.924 4.821 7.869 4.591 8.262zM243.733 192.108c-2.428 2.977-4.846 5.962-7.274 8.939a176 176 0 0 1 13.738 21.665c-1.379-5.756-.025-11.761.554-17.645.392-3.961.426-7.955 1.073-11.889.648-3.918 1.985-7.852 4.608-10.829-1.346 10.375-2.691 20.973-.801 31.263 1.065 5.773 3.118 11.333 5.579 16.653q-3.843.181-7.699.351a1989 1989 0 0 1-41.573 1.351c9.693-3.781 16.558-11.47 17.511-20.271.469-4.371-.613-8.109-1.695-10.658a32.5 32.5 0 0 1 7.206-8.023c.4-.316.826-.659.971-1.155.162-.539-.077-1.112-.307-1.616-3.994-8.656-9.931-16.175-14.743-24.352a92 92 0 0 1-1.806-3.207c-.332-.625-1.115-1.437-.221-1.591 1.431-.24 3.773 3.763 4.531 4.687a579.993 579.993 0 0 1 20.339 26.327h.026zM130.019 232.429a696 696 0 0 1 14.019-26.216c-4.471-3.575-8.943-7.142-13.406-10.709a218 218 0 0 1 6.797-13.848c3.347-6.244 5.493-9.331 8.304-13.54 2.419-3.626 5.127-7.339 9.071-9.178-5.962 10.247-10.05 21.512-13.125 32.974-.298 1.086-.579 2.224-.358 3.336.307 1.539 1.499 2.72 2.7 3.729a42 42 0 0 0 5.179 3.712 21.66 21.66 0 0 0-2.803 9.383s-.281 4.627 1.287 8.724c2.699 7.057 12.384 12.3 24.24 12.514-14.148 1.309-28.303 2.635-42.45 3.943.178-1.608.366-3.216.545-4.832v.017z"/><path fill="#D5D4D4" d="M120.233 214.946c.468 8.485-.324 16.987-1.142 25.446-1.337 13.891-2.802 28.03-8.398 40.791a77.1 77.1 0 0 1 17.588 30.476c2.36-2.361 6.704-1.069 8.62 1.677s2.078 6.303 2.172 9.656c1.61-1.026 3.228-2.061 4.838-3.087.485-.308 1.005-.659 1.175-1.215.17-.547-.051-1.129-.247-1.668-1.976-5.388-1.669-11.307-2.393-17.004-.878-6.885-3.288-13.463-5.102-20.16-3.007-11.171-4.344-22.718-5.673-34.205-.477-4.157-.962-8.306-1.439-12.462-.46-4.012-.92-8.015-1.525-12.009-1.575-10.461-4.803-24.608-14.607-30.553 1.048 3.669 3.152 7.151 4.14 10.957 1.132 4.362 1.746 8.861 1.993 13.36"/><path fill="#fff" d="M181.097 333.402c-.988 2.113-2.095 4.183-2.989 6.338-.043.103-.086.718.127.693 1.397-.163 2.896.077 4.293.162 1.397.077 2.862.146 4.301.197 2.93.103 5.86.111 8.79.086s5.724-.069 8.585-.12a52.6 52.6 0 0 0 8.245-.787c.213-.034.153-.565.085-.693-1.328-2.746-2.819-5.389-4.94-7.595-.025-.026-.025.119-.017.128 1.525 2.746 3.169 5.406 4.795 8.1l.06-.753c-2.555.83-5.417.813-8.074.873-2.913.06-5.843.12-8.756.137-2.913.025-5.749.025-8.611-.026a237 237 0 0 1-4.301-.12c-1.44-.06-3.066-.025-4.48-.402l.093.753c1.065-2.207 1.9-4.499 2.854-6.749.025-.06-.026-.308-.068-.222h.017z"/><path fill="#000" d="m125.198 230.573 133.44-1.796c.741 0 1.337.633 1.26 1.377l-8.27 86.586c-.034.35.077.693.315.958l23.534 26.233c.332.368.417.915.212 1.368l-3.44 7.485a1.29 1.29 0 0 1-1.116.735L132.353 356c-.239 0-.477-.06-.682-.188l-15.229-9.495a1.257 1.257 0 0 1-.459-1.625l15.228-30.766c.103-.214.145-.445.12-.676l-7.359-81.3a1.25 1.25 0 0 1 1.226-1.368z"/><path fill="#C42031" d="M243.81 304.936c-34.81-.068-69.62-.145-104.422-.214-.605 0-1.116-.47-1.158-1.078-1.542-20.93-3.1-41.868-4.642-62.807a1.167 1.167 0 0 1 1.15-1.257c37.808-.274 75.616-.548 113.424-.83.681 0 1.209.565 1.167 1.249-1.448 21.281-2.905 42.561-4.353 63.842a1.164 1.164 0 0 1-1.158 1.086z"/><path fill="#fff" d="M139.115 316.86c13.568.017 27.136.179 40.704.136 13.56-.042 27.128-.171 40.687-.53 7.683-.197 15.348-.59 23.022-.932.034 0 .034-.137 0-.137-13.568 0-27.127.026-40.687.231-13.559.214-27.127.547-40.687.778q-11.523.193-23.047.283c-.043 0-.043.179 0 .179zM179.972 334.685c-.97 2.147-1.865 4.336-2.776 6.509-.247.59-.682 1.48-.17 2.061.247.291.638.308.996.334.656.034 1.312.06 1.968.068 4.778.129 9.556.12 14.326.069 2.751-.026 5.493-.086 8.236-.163.127 0 .119-.333.102-.402-.469-3.378-1.678-6.911-3.952-9.494-.051-.06-.06.137-.034.18 1.84 2.925 3.288 6.021 3.764 9.485l.103-.402c-4.421.12-8.833.188-13.253.197-2.181 0-4.361-.026-6.541-.026-1.108 0-2.206-.025-3.314-.025-.519 0-1.047.025-1.567 0-.204 0-.443-.017-.613-.12-.417-.248-.239-.71-.111-1.052.946-2.387 1.959-4.739 2.854-7.151 0-.025-.018-.119-.026-.085h.017zM144.558 322.206c-.094.265-.162.538-.239.804-.059.213-.128.444-.145.675-.017.385.162.693.529.83.4.145.826.103 1.252.06a17 17 0 0 0 1.729-.265v-.026c-.46.068-.929.094-1.397.111-.409 0-.835.017-1.252-.043-.341-.051-.758-.213-.75-.624 0-.231.094-.47.145-.693.068-.256.119-.496.162-.752 0-.018-.017-.112-.026-.06v-.017zM149.796 322.188c-.162.488-.306.975-.383 1.497-.026.163-.051.359.017.522.068.197.247.222.434.248.503.06 1.031.085 1.533.017.503-.068.988-.265 1.474-.487.017 0 0-.06 0-.06-.4.085-.818.119-1.227.162-.408.043-.834.094-1.252.086-.213 0-.417 0-.63-.035-.119-.017-.247-.025-.264-.179-.017-.094.026-.214.034-.308.068-.471.162-.941.298-1.403 0-.025 0-.111-.025-.068z"/><path fill="#fff" d="M190.483 339.518c-.119.231-.094.547-.119.804-.026.342-.026.684-.026 1.017 0 .36-.025.736-.017 1.095 0 .308.034.599.162.89 0 .017.034.085.068.077.026 0 .068.025.094.025s.025-.094.025-.102c-.025-.094 0-.171-.025-.265-.034-.206-.06.214 0-.035.025-.153.025-.316.025-.479.017-.359 0-.735 0-1.094s0-.693-.025-1.044c-.017-.282 0-.624-.111-.881 0-.017-.026-.034-.034-.017z"/><path fill="#fff" d="M184.401 339.791c.503-.128 1.091-.077 1.61-.103.571-.025 1.133-.025 1.704-.025 1.107-.017 2.206-.017 3.321-.026 2.206 0 4.421-.051 6.635-.12.017 0 .017-.068 0-.068a71 71 0 0 0-6.635-.068 134 134 0 0 0-3.228.162c-.57.034-1.133.077-1.703.12-.571.034-1.159.145-1.704.068-.025 0-.017.077 0 .077zM155.085 322.206c-.077.179-.119.376-.17.573-.06.213-.12.427-.154.65-.034.222-.102.453-.119.675-.017.171 0 .428.213.454.213.025.443.025.656.025s.451 0 .673-.025c.451-.052.86-.265 1.26-.454.017 0 .017-.068 0-.068-.451.026-.902-.026-1.345.017a6 6 0 0 1-.673.034h-.332c-.094 0-.239.017-.307-.042l.043.068c.034.06 0 .145.025.017 0-.034.017-.068.017-.111a2 2 0 0 0 .034-.24q.04-.256.068-.513c.043-.342.103-.684.12-1.018v-.034zM159.548 322.111c-.068.189-.153.368-.213.556-.068.206-.128.402-.196.616-.059.197-.136.394-.17.59-.026.146-.017.351.119.437.136.085.358.042.52.051.213 0 .426.026.639.017.212-.008.434-.034.63-.111s.392-.154.579-.248c.017 0 0-.051 0-.051-.179.017-.358.017-.537.017-.178 0-.357.025-.545.034-.357.034-.707.085-1.064.043-.06 0-.154 0-.196-.052-.06-.051 0-.128.025-.205.051-.18.102-.359.162-.547.111-.377.17-.753.264-1.129 0 0 0-.035-.017-.026zM203.054 326.225c-.145.343-.306.659-.426 1.01-.119.35-.213.692-.306 1.035-.017.042-.017.222.059.222.46.026.92.051 1.389.043s.919-.026 1.388-.034v-.043c-.46-.052-.92-.12-1.397-.171s-.92-.069-1.388-.094l.051.256.307-1.077c.119-.377.212-.762.34-1.13v-.017zM206.478 326.26c-.051.333-.085.658-.17.983a5 5 0 0 1-.366 1.001c-.018.026-.043.248.025.231.443-.077.877-.162 1.312-.197.434-.034.877-.119 1.328-.162.017 0 0-.043 0-.043-.451-.06-.885-.111-1.337-.06s-.886.111-1.311.214l.034.214c.298-.676.502-1.437.485-2.173zM210.098 326.123c-.162.624-.324 1.24-.468 1.865 0 .025-.017.154.034.162.383 0 .758.017 1.141.026s.758-.026 1.133-.043v-.034c-.375-.034-.758-.094-1.141-.111-.384-.017-.758-.026-1.142-.043l.034.162c.162-.633.307-1.265.452-1.898 0-.043-.026-.163-.051-.069zM210.03 322.787c-.145.342-.306.659-.426 1.009a17 17 0 0 0-.306 1.035c-.017.043-.017.223.059.223.46.025.92.051 1.389.042.46 0 .92-.025 1.388-.034v-.043c-.46-.051-.92-.119-1.397-.171-.477-.051-.92-.068-1.388-.094l.051.257.307-1.078c.119-.376.213-.761.34-1.129v-.017zM213.454 322.821c-.051.334-.085.659-.17.984a5 5 0 0 1-.366 1.001c-.017.025-.043.248.025.231.443-.077.877-.163 1.312-.197.434-.034.877-.12 1.329-.163.017 0 0-.042 0-.042-.452-.06-.886-.112-1.338-.06-.451.051-.886.111-1.311.213l.034.214c.298-.675.502-1.437.485-2.172zM217.065 322.685c-.161.624-.323 1.24-.468 1.864 0 .026-.017.154.034.163.383 0 .758.017 1.141.025.384.009.758-.025 1.133-.042v-.035c-.375-.034-.758-.094-1.141-.111s-.758-.025-1.141-.043l.034.163c.161-.633.306-1.266.451-1.899 0-.043-.026-.162-.051-.068zM199.562 323.275c-.144.342-.306.658-.425 1.009-.12.351-.213.693-.307 1.035-.017.043-.017.222.06.222.46.026.919.052 1.388.043.468-.008.92-.026 1.388-.034v-.043c-.46-.051-.92-.12-1.397-.171s-.919-.068-1.388-.094l.051.257.307-1.078c.119-.377.213-.761.34-1.129v-.017zM202.986 323.309c-.051.334-.085.659-.17.984-.085.35-.213.684-.366 1-.017.026-.043.248.025.231.443-.077.878-.162 1.312-.196.434-.035.877-.12 1.329-.163.017 0 0-.043 0-.043-.452-.06-.886-.111-1.337-.06-.452.052-.886.112-1.312.214l.034.214c.298-.676.502-1.437.485-2.172zM206.598 323.172c-.162.624-.324 1.24-.469 1.864 0 .026-.017.154.034.163.384 0 .758.017 1.142.026s.758-.026 1.132-.043v-.034c-.374-.035-.758-.094-1.141-.112-.383-.017-.758-.025-1.141-.042l.034.162c.162-.633.306-1.266.451-1.899 0-.042-.025-.162-.051-.068zM178.209 327.2c-.144.343-.306.659-.425 1.01-.12.35-.213.693-.307 1.035-.017.043-.017.222.06.222.459.026.919.051 1.388.043s.92-.026 1.388-.034v-.043c-.46-.051-.92-.12-1.397-.171s-.919-.069-1.388-.094l.051.256.307-1.077c.119-.377.213-.762.34-1.129v-.018zM181.625 327.243c-.051.334-.085.659-.17.984-.085.35-.213.684-.366 1-.018.026-.043.249.025.231.443-.077.877-.162 1.312-.196.434-.035.877-.12 1.328-.163.017 0 0-.043 0-.043-.451-.059-.885-.111-1.337-.059-.451.051-.886.111-1.311.213l.034.214c.298-.676.502-1.437.485-2.172zM185.245 327.106c-.162.625-.324 1.241-.469 1.865 0 .026-.017.154.034.163.384 0 .758.017 1.142.025.383 0 .758-.025 1.132-.043v-.034c-.374-.034-.758-.094-1.141-.111s-.758-.026-1.141-.043l.034.163c.162-.633.306-1.266.451-1.899 0-.043-.025-.163-.051-.068zM167.699 327.679c-.145.343-.306.659-.426 1.01-.119.35-.213.693-.306 1.035-.017.042-.017.222.059.222.46.026.92.051 1.389.043s.919-.026 1.388-.034v-.043c-.46-.051-.92-.12-1.397-.171s-.92-.069-1.388-.094l.051.256.307-1.077c.119-.377.212-.762.34-1.129v-.018zM171.123 327.714c-.051.333-.085.658-.17.983a5 5 0 0 1-.366 1.001c-.017.026-.043.248.025.231.443-.077.877-.162 1.312-.197.443-.034.877-.119 1.328-.162.017 0 0-.043 0-.043-.451-.06-.885-.111-1.337-.06s-.886.111-1.311.214l.034.214c.298-.676.502-1.437.485-2.173zM174.734 327.577c-.161.625-.323 1.24-.468 1.865 0 .025-.017.154.034.162.383 0 .758.017 1.141.026.384.009.758-.026 1.133-.043v-.034c-.375-.034-.758-.094-1.141-.111-.384-.017-.758-.026-1.142-.043l.035.163c.161-.633.306-1.266.451-1.899 0-.043-.026-.163-.051-.069zM227.993 322.342c-.188.428-.392.856-.545 1.3-.094.274-.103.642.255.693.23.034.469.026.699.034.247 0 .494.026.732.026.494 0 .971-.051 1.465-.06v-.026c-.4 0-.801-.025-1.192-.059-.392-.035-.793-.06-1.193-.086-.17-.017-.366 0-.536-.051-.137-.026-.205-.129-.162-.265.025-.077.059-.154.085-.231.153-.402.272-.804.409-1.206 0-.018 0-.103-.026-.06h-.017zM231.783 322.137c-.238.65-.426 1.326-.596 2.01 0 .025-.026.256.042.239.426-.094.852-.162 1.287-.214a8 8 0 0 1 1.294-.059v-.026c-.434-.043-.86-.103-1.303-.094s-.86.043-1.286.102l.042.24a24 24 0 0 0 .546-2.164s0-.06-.017-.026zM224.586 322.205c-.239.65-.426 1.326-.596 2.01 0 .026-.026.257.042.24q.637-.14 1.286-.214a8 8 0 0 1 1.295-.06v-.026c-.435-.042-.86-.102-1.303-.094-.443.009-.861.043-1.286.103l.042.239c.213-.718.401-1.437.545-2.164 0 0 0-.06-.017-.025zM221.409 322.359a20 20 0 0 0-.596 2.01c0 .026-.026.257.042.24q.637-.14 1.286-.214a9.4 9.4 0 0 1 1.295-.06v-.025c-.434-.043-.86-.103-1.303-.094s-.86.042-1.286.102l.042.24c.213-.719.401-1.437.546-2.164 0 0 0-.06-.017-.026zM244.891 322.556c-.111.556-.128 1.138-.187 1.702 0 .035 0 .163.051.163.392.06.783.06 1.175.034.205-.017.392-.043.588-.085.085-.026.179-.035.264-.06.111-.026.204-.069.306-.111.026 0 .026-.077 0-.077-.11 0-.212 0-.306.017-.085 0-.179.025-.264.025-.196 0-.392.017-.588.026-.392.026-.783 0-1.175-.026l.051.163c.051-.582.119-1.163.119-1.745 0-.026-.026-.069-.026-.026zM186.556 324.429c-.119.325-.196.685-.281 1.018-.093.359-.179.727-.272 1.086 0 .026-.017.189.042.189a84 84 0 0 0 1.499-.146c.494-.051 1.014-.102 1.499-.248v-.034c-.502-.051-1.005 0-1.507.034q-.756.063-1.499.137l.042.188c.086-.359.171-.71.264-1.069.094-.359.188-.727.247-1.095 0-.025-.017-.128-.034-.068zM189.929 324.156c-.042.154-.102.307-.136.453-.043.18-.077.368-.119.547-.077.377-.171.762-.247 1.146 0 .026-.017.214.051.206.196-.026.383-.069.579-.103s.375-.034.554-.051c.383-.034.758-.077 1.141-.128v-.026c-.383 0-.758.017-1.141.026-.188 0-.375.025-.554.025s-.392-.017-.588-.017l.051.205c.094-.376.162-.761.239-1.146.034-.197.077-.385.119-.581.026-.171.043-.36.068-.531 0 0 0-.06-.017-.025M169.888 325.114c-.289.504-.451 1.043-.57 1.625 0 .043-.026.231.059.239.452.026.912 0 1.354-.051s.895-.214 1.338-.368c.017 0 0-.051 0-.051-.443.077-.895.085-1.338.12-.442.034-.902.042-1.354.025l.06.24c.093-.59.264-1.189.468-1.754v-.025zM172.869 324.994c-.136.539-.272 1.069-.494 1.591-.017.034-.025.171.034.179.375.06.758.094 1.142.12.187 0 .374.026.562.017.196-.017.392-.068.588-.111.017 0 .017-.043 0-.051-.196-.026-.392-.069-.588-.069h-.562a12 12 0 0 1-1.142-.103l.034.18c.222-.547.401-1.12.452-1.711 0 0 0-.042-.017-.025h-.017zM178.976 324.78c-.136.539-.272 1.069-.494 1.591-.017.034-.025.171.034.179.375.06.758.094 1.142.12.187 0 .374.026.562.017.196-.017.392-.068.587-.111.018 0 .018-.043 0-.051-.195-.026-.391-.069-.587-.069h-.562a13 13 0 0 1-1.142-.102l.034.179c.222-.547.401-1.12.452-1.71 0 0 0-.043-.017-.026h-.017zM182.051 324.797c-.136.539-.273 1.069-.494 1.591-.017.034-.026.171.034.179.375.06.758.095 1.141.12.188 0 .375.026.563.017.195-.017.391-.068.587-.111.017 0 .017-.043 0-.051-.196-.026-.392-.069-.587-.069h-.563a13 13 0 0 1-1.141-.102l.034.179c.222-.547.4-1.12.452-1.71 0 0 0-.043-.018-.026h-.017zM175.978 325.054c-.043.034-.094.068-.119.111-.026.043-.069.094-.103.145-.076.12-.136.231-.178.36-.094.265-.171.573-.162.864 0 .034.017.188.076.162.103-.043.205-.017.307 0 .094 0 .187.026.281.026.179.017.366.025.545.017.375 0 .75-.034 1.116-.111v-.035c-.375.026-.75.035-1.116 0-.179-.017-.366-.025-.545-.059-.085-.018-.17-.026-.264-.043-.043 0-.085-.017-.128-.026a.47.47 0 0 1-.204-.103l.042.249c.034-.257.06-.497.137-.736.093-.265.204-.522.323-.778v-.052h-.017zM160.613 325.481c-.29.505-.452 1.044-.571 1.625 0 .043-.025.231.06.24.451.026.911 0 1.354-.051.451-.052.894-.214 1.337-.368.017 0 0-.051 0-.051-.443.077-.894.085-1.337.119-.443.035-.903.043-1.354.026l.059.239c.094-.59.264-1.188.469-1.753v-.026zM163.594 325.353c-.136.539-.273 1.069-.494 1.591-.017.034-.026.171.034.18.375.059.758.094 1.141.119.188 0 .375.026.562.017.196-.017.392-.068.588-.111.017 0 .017-.043 0-.051-.196-.026-.392-.069-.588-.069h-.562a13 13 0 0 1-1.141-.102l.034.179c.222-.547.4-1.12.451-1.71 0 0 .001-.043-.017-.026h-.017zM166.694 325.413c-.042.034-.094.068-.119.111-.026.043-.068.094-.102.145a1.5 1.5 0 0 0-.179.36c-.094.265-.171.573-.162.863 0 .035.017.189.077.163.102-.043.204-.017.306 0 .094 0 .188.026.281.026.179.017.367.025.545.017.375 0 .75-.035 1.116-.111v-.035a7 7 0 0 1-1.116 0c-.178-.017-.366-.025-.545-.06-.085-.017-.17-.025-.264-.042-.042 0-.085-.017-.127-.026a.46.46 0 0 1-.205-.103l.043.248c.034-.256.059-.496.136-.735.094-.265.204-.522.324-.779v-.051h-.017zM162.989 322.359c-.289.505-.451 1.044-.57 1.625 0 .043-.026.231.059.24.452.026.912 0 1.354-.051.443-.052.895-.214 1.338-.368.017 0 0-.052 0-.052-.443.077-.895.086-1.338.12-.442.034-.902.043-1.354.026l.06.239c.094-.59.264-1.189.468-1.753v-.026zM166.524 322.257c-.136.539-.272 1.069-.494 1.591-.017.034-.025.171.034.179.375.06.758.094 1.141.12.188 0 .375.026.563.017.196-.017.391-.068.587-.111.017 0 .017-.043 0-.051-.196-.026-.391-.069-.587-.069h-.563a13 13 0 0 1-1.141-.102l.034.179c.222-.547.401-1.12.452-1.71 0 0 0-.043-.017-.026h-.017zM169.769 322.325c-.043.035-.094.069-.119.112-.026.042-.069.094-.103.145a1.6 1.6 0 0 0-.178.359c-.094.265-.171.573-.162.864 0 .034.017.188.076.163.103-.043.205-.018.307 0 .094 0 .187.025.281.025.179.017.366.026.545.017.375 0 .75-.034 1.116-.111v-.034a7 7 0 0 1-1.116 0c-.179-.017-.366-.026-.545-.06-.085-.017-.17-.026-.264-.043-.043 0-.085-.017-.128-.025a.47.47 0 0 1-.204-.103l.042.248c.034-.257.06-.496.137-.736a9 9 0 0 1 .323-.778v-.051h-.017zM190.423 326.85c-.119.376-.221.752-.341 1.137-.068.223-.23.702.111.787.153.043.332 0 .494 0 .213-.017.435-.034.647-.068.418-.052.827-.129 1.252-.188v-.026c-.715 0-1.413-.06-2.129-.017-.102 0-.281.034-.358-.069v.026l.026-.068c0-.043.026-.077.026-.12q.036-.143.059-.274c.077-.359.162-.727.23-1.095 0-.017 0-.068-.025-.034zM193.524 326.593a9.7 9.7 0 0 1-.528 1.728c-.026.06-.034.257.051.274.4.085.817.119 1.226.128.213 0 .418.017.622-.026s.409-.102.613-.154c.017 0 .017-.051 0-.051a5 5 0 0 1-.622-.043c-.212-.025-.408-.017-.621-.025a8.5 8.5 0 0 1-1.235-.163l.051.274c.238-.599.392-1.24.485-1.882 0-.034-.025-.162-.042-.068zM196.666 326.508c-.119.402-.213.795-.298 1.197-.068.291-.264.787.119.924.384.137.818.154 1.21.12.426-.034.826-.214 1.218-.368v-.051a4 4 0 0 1-.528.034c-.179 0-.358-.026-.537 0-.366.017-.732 0-1.09 0-.102 0-.383.043-.4-.103 0-.077.034-.205.059-.282.026-.094.034-.188.051-.282.069-.394.145-.787.196-1.181v-.017.017zM199.69 326.576c-.119.402-.213.796-.298 1.198-.068.291-.264.787.119.923.384.137.818.154 1.21.12.426-.034.826-.214 1.218-.368v-.051a3.5 3.5 0 0 1-.528.034c-.179 0-.358-.025-.537 0-.366.017-.732 0-1.09 0-.102 0-.383.043-.4-.102 0-.077.034-.206.059-.283.026-.094.034-.188.051-.282.068-.393.145-.787.196-1.18v-.017.017zM147.232 348.139c9.667.018 19.326-.042 28.985-.282 9.658-.248 19.317-.547 28.975-1.001 5.46-.265 10.902-.59 16.362-.923v-.035c-9.65.402-19.309.727-28.967 1.053-9.659.333-19.317.547-28.976.804a1516 1516 0 0 1-16.379.359z"/><path fill="#D5D4D4" d="M328.105 262.759c4.037 7.151 11.379 12.317 19.436 13.694 1.014.171 2.087.282 3.066-.025.494-.163.971-.454 1.159-.924.153-.377.093-.796 0-1.189a8.13 8.13 0 0 0-1.917-3.678c1.797 2.172 4.651 3.421 7.453 3.25.324-.025.656-.06.928-.231.435-.273.613-.829.588-1.351s-.247-.992-.451-1.463c.136.736 1.294.813 1.771.24.486-.573.46-1.403.341-2.147a12.7 12.7 0 0 0-2.479-5.722c.588.829 1.227 1.65 2.087 2.181.86.53 2.01.701 2.879.171.238-.146.468-.402.392-.676-.034-.12-.12-.205-.196-.291-4.974-5.32-10.042-10.709-16.319-14.378-.579-.342-1.176-.667-1.84-.778-.664-.112-1.397.025-1.865.504 4.531 2.293 8.304 5.842 11.796 9.546 1.295 1.368 2.615 2.874 2.964 4.73.043.231.068.479-.017.693-.162.402-.69.564-1.107.453-.426-.111-.775-.402-1.099-.693-4.557-4.028-8.73-8.485-13.406-12.377-.4-.325-.809-.658-1.303-.804-1.039-.307-2.257.42-2.487 1.48.749.291 1.439.719 2.112 1.163 5.366 3.576 9.948 8.203 14.488 12.805.622.633 1.252 1.283 1.593 2.095-1.057.24-2.13-.205-3.101-.684-4.761-2.326-9.036-5.542-13.108-8.947-1.729-1.445-3.458-2.933-5.476-3.917-.205-.103-.46-.188-.639-.06-.119.086-.162.24-.205.385a7 7 0 0 0-.178 2.309c.025.248.059.505.178.727.154.266.426.445.69.616a123 123 0 0 1 11.558 8.459c.792.651 1.602 1.352 1.976 2.318-1.03.437-2.231.343-3.287-.034-1.057-.376-2.002-1.018-2.913-1.659a71 71 0 0 1-5.196-4.097c-1.805-1.574-3.551-3.268-4.727-5.355-.119-.213-.247-.453-.468-.547a.95.95 0 0 0-.486-.051c-.911.119-1.652.923-1.805 1.83s.255 1.856.945 2.463a12 12 0 0 0-2.547.018c.367.051.733.094 1.108.145"/><path fill="#E62D41" d="M283.857 100.374c3.859-4.02 11.55-10.897 23.287-14.413 4.318-1.3 12.188-3.558 22.178-1.574 9.761 1.933 16.379 6.903 19.471 9.563l.409-19.245a46 46 0 0 0-6.84-3.447c-1.439-.582-7.81-3.045-17.128-3.267-15.646-.377-27.562 5.841-32.8 8.664a75 75 0 0 0-7.912 4.91z"/><path fill="#C42031" d="M313.71 77.673a13.75 13.75 0 0 0 2.3 6.295 44.9 44.9 0 0 0-17.043 4.798 45.1 45.1 0 0 0-14.658 11.949c.221-2.634.383-5.414.442-8.34.077-3.84-.025-7.45-.229-10.802a64.7 64.7 0 0 1 14.692-8.553 65.3 65.3 0 0 1 16.847-4.482c-.69 1.017-2.828 4.473-2.359 9.143z"/><path fill="#D5D4D4" d="M317.995 181.348c.494 3.644 1.277 7.245 1.873 10.889 3.288 19.878 1.116 40.637-6.192 59.394.733-1.873.162-5.294.213-7.33.068-2.446.128-4.884.188-7.33.119-5.064.204-10.145.213-15.217.025-10.007-.222-20.023-1.022-29.996-.137-1.737-1.304-5.723-.333-7.219.878-1.352 3.782-2.053 5.06-3.191"/><path fill="#E62D41" d="M284.505 165.439c2.231 5.611 5.962 10.683 10.936 14.087 4.974 3.396 11.217 5.038 17.145 4.054l.315.89c5.767-2.446 10.051-8.109 10.86-14.353-2.266-1.573-4.523-3.147-6.788-4.721-.298 4.405-2.044 8.707-4.906 12.052 0-2.207-.222-4.431-.699-6.586l-5.689-1.129c-1.755-.351-3.526-.702-5.17-1.403-4.361-1.865-7.478-6.176-8.305-10.854a41 41 0 0 1-7.699 8.134l.92-.702"/><path fill="#C42031" d="M299.793 179.244c.537 1.283 1.312 2.532 2.513 3.233a43 43 0 0 1-6.627-2.48c-.741-.351-1.49-.727-2.154-1.215-.81-.599-1.491-1.36-2.13-2.147-2.759-3.387-4.889-7.244-6.771-11.188 1.593-1.496 3.194-2.993 4.787-4.49.954-.89 1.916-1.796 2.717-2.823.673 3.054 2.58 5.68 4.957 7.647.826.676 3.006 1.497 2.717 2.694-.426 1.702-1.014 3.191-1.065 4.987a13.8 13.8 0 0 0 1.065 5.765v.026z"/><path fill="#D5D4D4" d="M276.643 337.448c.401-1.309.682-3.37-1.345-8.836a54.7 54.7 0 0 0-4.855-9.896c1.703-6.535 3.858-11.47 5.511-14.798 2.393-4.781 3.909-6.466 4.803-10.007 1.448-5.774-.102-11.154-1.635-14.789 15.058 1.223 26.565 2.746 34.367 3.935 3.995.607 7.827 1.231 8.79 1.411 7.904 1.497 15.799 3.002 23.703 4.499l.281 21.341a175.44 175.44 0 0 1-70.786 33.597c-.597-.684-1.21-1.36-1.806-2.052.971-.856 2.334-2.31 2.972-4.44v.035M190.202 221.891c.809.402 3.347 1.257 9.037-3.071.971 3.619 1.959 7.237 2.93 10.846-7.411.06-14.821.12-22.231.171.418-2.361.827-4.747 1.218-7.142a692 692 0 0 0 3.467-23.487c1.746-.334 3.492-.676 5.238-1.01-3.577 12.411-3.458 21.777.341 23.676zM24.984 227.99c-.06-.189-.307.154-.128.231.18.077.358-.103.46-.266 2.487-3.635 3.194-8.194 3.544-12.599.408-5.209.408-10.452.45-15.687.027-2.831.052-5.679.367-8.485.332-2.933 1.014-5.918 2.743-8.313s4.667-4.072 7.572-3.584c-2.215 14.549.451 29.415 4.446 43.571-5.835 4.396-12.98 7.022-20.272 7.433l.827-.052M74.248 165.73c-.12 9.383-5.366 18.167-12.427 24.317a45.2 45.2 0 0 1 6.15 8.477c.868-1.147 8.16-10.897 10.442-19.177 1.03-3.755 1.124-7.099 1.124-7.099.034-1.446.085-3.798-.605-6.484-1.635-6.338-6.362-10.7-6.898-10.392-.784.453 1.209 3.823 1.388 4.379.621 1.925.868 3.969.835 5.996z"/><path fill="#D5D4D4" d="M44.182 172.949c-.57 3.216-.817 6.526-.323 9.751s1.754 6.389 3.935 8.81c-1.005 1.582-2.01 3.156-3.007 4.747-.23.359-.468.736-.826.958-.656.41-1.559.214-2.155-.291-.588-.496-.937-1.232-1.21-1.959-1.822-4.867-1.209-10.272-.553-15.43.34-2.703.69-5.44 1.627-7.997.357-.984.834-1.951 1.482-2.78.357-.471 1.797-2.173 2.53-1.967.766.213-.265 1.702-.47 2.223-.485 1.258-.783 2.592-1.013 3.926zM82.016 253.034c7.785-12.043 10.553-26.917 9.48-41.253-1.074-14.318-5.784-28.166-11.942-41.124a279 279 0 0 0 25.569 9.785c-4.054 3.156-4.182 9.135-4.046 14.275a414 414 0 0 1-2.98 61.722c.306-2.464-21.183 1.069-22.989 1.702 2.99-.958 5.179-2.429 6.908-5.107M58.977 237.698a432 432 0 0 0 1.345-32.375c2.053 2.618 5.255 4.294 8.569 4.482-.69 2.087-1.32 4.2-1.908 6.313a181 181 0 0 0-3.203 13.548c-1.533 7.741-2.555 15.576-3.586 23.402-.315 2.404-.357 5.124-1.047 7.433-.971-.881-.784-3.823-.869-5.132a69 69 0 0 1-.068-6.064c.11-3.875.477-7.741.775-11.607zM71.718 117.429c1.78-.513 3.441.453 3.918.753.026.145.426 3.361-2.103 5.388-2.326 1.873-5.085 1.078-5.324 1.009-.562-3.489 1.159-6.483 3.5-7.15zM48.44 166.209c2.147 2.078 5.784 2.001 8.262.351 2.487-1.651 3.927-4.542 4.54-7.476.622-2.925.52-5.953.554-8.947a96.5 96.5 0 0 1 1.303-14.703c.426-2.583 1.005-5.243 2.58-7.33a10.4 10.4 0 0 0 3.603 1.129c-1.66 9.075-.74 18.449 1.014 27.507.187.975.383 1.942.375 2.934-.017 1.035-.264 2.053-.545 3.054-2.42 8.519-7.683 16.191-14.77 21.486-1.916-2.087-3.832-4.183-5.748-6.27-.699-.77-1.414-1.54-1.866-2.489-.562-1.172-.69-2.498-.792-3.798-.264-3.087-.758-6.252-.766-9.34.783 1.326 1.115 2.763 2.248 3.9zM49.931 226.288a97.7 97.7 0 0 0 6.908 22.427l-2.657-44.238c-1.883-.317-3.765-.642-5.656-.967a98 98 0 0 0 1.397 22.778z"/><path fill="#D5D4D4" d="M46.575 193.178c-.255.564-1.908 4.43-.093 7.193 2.29 3.49 8.79 3.25 12.46.231 3.867-3.191 3.475-8.528 3.424-9.11a18.28 18.28 0 0 0-6.847-7.74c-.75-.462-1.431.787-2.198 1.685a422 422 0 0 1-6.754 7.732zM16.092 195.068a212 212 0 0 0-1.456 66.485c-1.141-1.702-4.097-1.651-5.136.12-1.04 1.771.417 4.431 2.461 4.439-1.814 3.293-3.236 8.237 0 10.127-1.124 1.925 1.014 4.166 3.092 4.961 7.368 2.84 15.416-.829 23.014-3.002 8.696-2.497 17.835-3.019 26.88-2.985 6.456.017 13.032.291 19.232-1.505 6.2-1.797 12.103-6.133 13.84-12.377-2.376 11.479-8.678 23.393-4.207 34.222 1.286 3.113 3.373 5.808 5.434 8.459 6.218 7.972 12.418 15.944 18.636 23.924-.733 7.621-1.993 10.315-3.168 11.136-.162.112-.673.437-.895 1.061-.409 1.104.426 2.207 1.363 4.012 1.065 2.035.673 1.924 1.678 3.917.766 1.531 2.053 3.687 4.182 6.047-13.057-.889-23.695-2.874-31.199-4.601-8.585-1.976-37.672-9.315-69.373-30.476a208 208 0 0 1-7.955-5.585 343 343 0 0 1-4.267-34.086c-.281-3.823-1.073-14.737-.937-25.822.162-13.207 1.729-33.316 8.815-58.471h-.034"/><path fill="#E62D41" d="m41.116 285.28 4.693-.564a35 35 0 0 1 2.3-.231c1.728-.103 3.474.026 5.203.162-1.158-7.219-.86-14.66-2.572-21.776.034.154-5.757.992-6.294 1.043-1.15.111-4.915-.359-5.255.855-.222.796.255 2.122.366 2.926.153 1.103.298 2.206.426 3.318.264 2.207.494 4.44.673 6.655.213 2.532.357 5.064.451 7.604z"/><path fill="#D5D4D4" d="M305.653 260.424c-3.867.026-7.742.043-11.609.069-4.327 1.591-5.792 3.139-5.877 4.524-.519 8.828 53.804 29.193 74.875 8.768 3.143-3.054 4.898-6.381 5.852-8.554 2.01 8.34 1.218 14.319.545 17.441-.588 2.694-1.389 4.627-3.049 5.996-2.539 2.078-5.886 1.83-7.231 1.727-42.246-3.173-46.982-1.933-71.818-9.092a363 363 0 0 1-8.236-2.472 441 441 0 0 1-1.661-11.23 417 417 0 0 1-2.674-26.644c-2.624-18.39-4.438-32.666-5.119-43.092-.213-3.216-.554-9.905-5.187-15.661-2.504-3.114-5.443-4.936-7.564-5.996 6.601-2.233 13.194-4.457 19.794-6.689a110 110 0 0 0-.536 23.547c2.811 32.871 19.964 56.316 29.47 67.393l.025-.018zM35.733 105.412c-.043.923.025 2.052.826 2.514.903.531 1.993-.162 3.007-.427 1.584-.411 3.21.248 4.829.479.562.077 1.21.077 1.601-.308.46-.454.4-1.215.213-1.848-.647-2.181-2.248-3.943-3.952-5.457-1.184-1.07-3.364-2.523-4.855-1.172-1.49 1.352-1.593 4.345-1.678 6.219zM22.83 99.989c3.628 3.763 6.549 8.698 5.876 13.779-.588 4.396-3.79 8.245-3.969 12.668-.162 3.831 2.223 7.655 5.826 9.331.843.402-6.84-1.71-10.23-7.031-2.256-3.549-2.299-6.911-2.435-11.435a603 603 0 0 0-1.048-21.47c2.12.035 4.625 2.73 5.988 4.149z"/><path fill="#000" d="M288.09 120.209c.068 1.12.827 2.207 1.491 3.07.707.933 1.559 1.771 2.529 2.421a8.2 8.2 0 0 0 3.263 1.275c.613.094 1.209.119 1.822-.018.648-.136 1.21-.427 1.763-.812.026-.017.026-.103 0-.094-1.064.128-2.231.102-3.287-.026a8 8 0 0 1-3.262-1.163c-1.866-1.155-3.152-2.866-4.268-4.713-.017-.026-.025.034-.025.043h-.017zM199.238 136.571c-.349 2.019-.289 4.072-.281 6.116.009 2.044.043 4.302.103 6.441.059 2.147.127 4.174.212 6.261.094 2.198.069 4.448.367 6.629.051.359.238 1.078.724.983.485-.094.502-1.06.519-1.394.06-2.07-.179-4.182-.264-6.252a492 492 0 0 1-.221-6.261c-.06-2.087-.119-4.055-.162-6.082s0-4.208-.358-6.278c-.068-.428-.519-.83-.639-.163"/><path fill="#D5D4D4" d="M180.756 165.097c2.478 7.245 7.308 11.316 9.199 12.753-.861 1.12-2.275 2.54-4.182 2.763-2.496.282-4.429-1.668-7.496-4.482a215 215 0 0 0-9.735-8.425c.494-6.031.588-12.959-.128-20.563a116 116 0 0 0-1.226-9.101 35 35 0 0 0 4.071 4.559 35.3 35.3 0 0 0 9.097 6.21c-.656 2.267-2.198 8.725.391 16.277h.017z"/><path fill="#000" d="M166.958 138.376c-.179.941-.017 1.882.068 2.823.103 1.197.23 2.395.341 3.592.213 2.507.468 5.013.647 7.527s.324 5.149.401 7.715c.042 1.292.025 2.592.11 3.875.06.856-.025 2.113.52 2.831.043.06.094.043.136 0 .579-.641.469-2.07.494-2.865.051-1.351 0-2.703-.051-4.063q-.115-3.949-.434-7.886c-.213-2.626-.426-5.004-.801-7.484a93 93 0 0 0-.562-3.447c-.162-.873-.213-1.993-.767-2.72-.051-.069-.102.025-.11.068zM186.088 158.699c4.676-.12 9.582-6.697 10.936-16.294-.817 1.001-4.565 5.388-11.021 6.158-8.287.984-13.858-4.841-14.445-5.482.732 2.164 2.172 5.593 5.059 8.998 2.206 2.6 5.698 6.714 9.471 6.62M184.121 131.722c.374 0 .749.042 1.132.042.554 0 1.014-.059 1.533-.239 1.252-.428 2.377-1.163 3.314-2.104 1.584-1.583 2.325-3.798 2.58-5.979.06-.47.069-.941-.017-1.411 0-.043-.034-.146-.025-.043-.017-.069 0-.137-.026-.205-.017-.077-.042-.12-.068-.189 0-.025-.025-.042-.034 0-.026.06-.051.103-.077.171 0 .026-.051.214-.017.12.051-.137-.102.188-.068.12-.153.368-.17.804-.264 1.197a10.8 10.8 0 0 1-1.277 3.191c-.844 1.403-1.942 2.617-3.322 3.49-.613.393-1.295.658-1.917 1.035-.451.265-.953.547-1.456.675-.043 0-.043.129 0 .129zM191.727 104.864c.11.231.281.488.519.471.162 0 .29-.146.383-.291.307-.471.426-1.061.426-1.634s-.119-1.155-.238-1.719c-.119-.539-.29-1.497-.784-1.83-.451-.309-.92.085-1.116.513-.545 1.214.265 3.352.793 4.473z"/><path fill="#000" d="M155.273 86.773q-1.855-6.643-3.697-13.249c1.746-1.72 4.659-4.106 8.85-5.628 8.21-2.994 15.595-.607 17.997.282a18.3 18.3 0 0 1 6.226-3.028c7.427-1.967 13.883 1.454 15.663 2.48l-.179 12.686a66.4 66.4 0 0 1 4.097 9.614 66.2 66.2 0 0 1 3.117 14.523 239 239 0 0 0 4.94-25.344 243 243 0 0 0 1.712-16.268 1513 1513 0 0 0-30.083-18.886c-1.507-.924-4.386-2.6-7.963-2.31-.92.07-2.3.309-8.237 3.32-2.487 1.257-3.739 1.89-5.885 3.138-5.357 3.097-14.437 9.76-14.437 9.76a637 637 0 0 0-8.347 6.227 110.5 110.5 0 0 0 2.521 17.414 113.3 113.3 0 0 0 9.369 26.003c0-3.251.162-5.962.333-7.972.477-5.568 1.175-7.501 1.533-8.39a18.7 18.7 0 0 1 2.461-4.355z"/><path fill="#D5D4D4" d="M167.614 96.584c4.48 8.827-.587 16.808 3.765 22.419 1.712 2.206 5.229 4.49 13.304 4.148-5.562-4.165-7.402-8.185-8.075-10.965-1.916-7.844 3.935-11.539 1.704-20.854-.434-1.813-1.823-7.253-6.541-10.417a13.4 13.4 0 0 0-4.676-1.95c-2.53 3.07-5.051 6.15-7.589 9.237 2.547 1.54 5.97 4.148 8.117 8.382h-.017z"/><path fill="#000" d="M167.58 78.956c1.422.684 2.913 1.257 4.165 2.249a19 19 0 0 1 3.492 3.61c2.231 2.976 2.904 6.415 2.777 10.075-.137 4.149-.988 8.075-1.772 12.129-.707 3.678-.997 7.972.903 11.368.834 1.488 2.223 2.583 3.713 3.37.784.41 1.584.786 2.419 1.086.4.145.852.342 1.278.41.392.069.783-.042 1.201 0 .051 0 .034-.136 0-.162-.401-.265-.707-.633-1.099-.881-.358-.223-.758-.394-1.124-.599-.733-.41-1.482-.855-2.155-1.36-1.465-1.086-2.598-2.497-3.39-4.148-1.712-3.567-.477-7.579.145-11.256.673-3.944 1.116-8.118.741-12.112-.281-3.105-1.38-5.962-3.194-8.477a13.7 13.7 0 0 0-3.56-3.412c-1.389-.924-2.879-1.814-4.532-2.019-.042 0-.034.12 0 .129v.017z"/><path fill="#000" d="M164.463 83.549c2.044-1.805 3.884-2.686 3.713-4.097-.076-.65-.579-1.36-1.252-1.626-2.376-.915-7.282 3.636-8.261 8.802-.222 1.172-.392 3.165.221 3.404.826.325 1.746-3.113 5.579-6.483M167.273 106.591c.111.231.281.496.528.479.162 0 .298-.154.392-.29.307-.471.443-1.07.443-1.643s-.111-1.154-.23-1.727c-.119-.548-.281-1.497-.775-1.831-.451-.308-.92.086-1.116.513-.553 1.215.247 3.362.775 4.491z"/><path fill="#D5D4D4" d="M186.071 78.708c-.639.735-.852 1.779-.971 2.77a22.7 22.7 0 0 0-.068 4.817c.051.513.136 1.069.477 1.445.417.47 1.115.556 1.703.445.588-.12 1.141-.394 1.729-.54 1.176-.29 2.428-.033 3.646.052 1.217.086 2.563-.068 3.381-.975.17-.197.324-.427.366-.693.034-.265-.025-.521-.111-.778-.681-2.079-2.47-3.558-4.165-4.91-1.524-1.214-4.258-3.66-5.996-1.642z"/><path fill="#000" d="M189.41 80.29c-1.431-1.044-2.802-1.985-2.632-2.848.119-.642 1.065-1.01 1.686-1.12 2.743-.471 5.673 2.873 7.027 5.131.733 1.223 2.019 3.79 1.423 4.294-.554.462-2.01-1.454-7.504-5.457M208.301 104.958c.315-.359.367-.881.503-1.317.213-.684.477-1.351.809-1.976a10.2 10.2 0 0 1 2.402-3.02c.877-.752 2.581-2.146 3.781-1.445 1.108.642 1.534 2.498 1.857 3.635 1.482 5.329.222 11.376-3.279 15.662-1.073 1.308-2.487 2.429-4.233 2.523-1.576.077-2.981-.873-3.288-2.463-.017-.077-.076-.291-.187-.163-.894 1.035 0 3.054.775 3.883 1.209 1.309 3.041 1.523 4.625.847 1.729-.727 3.015-2.369 3.995-3.909a19.2 19.2 0 0 0 2.222-4.833c1.065-3.515 1.227-7.313.529-10.922-.333-1.72-.818-3.516-1.661-5.055-.358-.642-.826-1.326-1.559-1.565-.877-.283-1.772.213-2.513.65-1.567.923-2.878 2.3-3.79 3.874-.911 1.566-1.686 3.584-1.328 5.406.034.171.17.393.332.205zM150.826 106.711c-.136-1.728-1.022-3.37-1.916-4.824-.835-1.369-1.857-2.634-3.177-3.558s-3.39-1.651-4.71-.214c-1.209 1.317-1.695 3.404-1.95 5.123-1.082 7.339 1.942 16.508 9.079 19.733 1.669.753 3.935 1.471 5.698.693a2.67 2.67 0 0 0 1.533-1.959c.085-.453.179-1.454-.375-1.676-.059-.026-.076.068-.076.111-.162 1.728-2.104 2.113-3.475 1.899-1.44-.223-2.828-.83-4.089-1.565-2.58-1.497-4.573-3.841-5.834-6.535-1.337-2.874-1.933-6.244-1.661-9.392.128-1.531.469-3.353 1.465-4.567 1.133-1.386 3.007-.6 4.216.239 1.295.898 2.266 2.19 3.049 3.541.358.625.69 1.258 1.014 1.908.247.496.494 1.146 1.022 1.394.162.068.196-.257.187-.334h-.017z"/><path fill="#D5D4D4" d="M143.8 110.757a8 8 0 0 1 .017-2.455c.034-.213.077-.436.187-.624.213-.376.639-.582 1.065-.607s.852.102 1.252.273c2.146.924 3.637 2.943 4.94 4.927.221.342.451.693.63 1.061.222.462.375.966.443 1.479.043.334.043.693-.136.967-.162.248-.451.368-.733.462-.511.179-1.047.333-1.592.333-.869 0-1.704-.367-2.445-.838-2.078-1.343-3.594-3.678-3.73-6.175"/><path fill="#000" d="M143.86 110.671c0-.658.068-1.36.212-2.01.145-.65.375-1.419 1.167-1.342.571.059 1.133.547 1.585.88.511.385 1.013.796 1.473 1.241.877.829 1.661 1.77 2.342 2.771.622.915 1.014 2.061 1.823 2.823.094.085.102-.129.102-.18-.179-1.497-.92-2.754-1.771-3.969a15.6 15.6 0 0 0-2.871-3.096c-.783-.65-2.351-2.027-3.415-1.146-.494.41-.639 1.223-.75 1.822a7.2 7.2 0 0 0-.034 2.258c.026.188.145.102.145-.043z"/><path fill="#D5D4D4" d="M213.267 104.949c.826.154 1.49.907 1.788 1.583 1.244 2.754-1.652 8.04-5.025 8.049-.554 0-1.49-.137-2.623-1.018.426-3.259 1.695-5.286 2.504-6.313.766-.983 1.967-2.54 3.356-2.292z"/><path fill="#000" d="M207.909 113.144c.026-.189.12-.385.154-.574q.075-.346.161-.692c.128-.514.256-1.018.443-1.523a10 10 0 0 1 1.516-2.728c.648-.83 1.491-1.668 2.564-1.822.46-.069.911 0 1.312.231.323.179.928.479.962.898 0 .068.051.034.051-.017 0-1.138-.494-2.104-1.678-2.344-1.252-.265-2.401.727-3.177 1.591a9.96 9.96 0 0 0-2.359 5.226 7 7 0 0 0-.051.975c0 .265.068.513.094.787 0 .026.017.034.025 0v-.017z"/><path fill="#000" d="M138.621 64.081c.188 10.136 2.198 20.067 5.758 29.552a87 87 0 0 0 3.007 7.1c.86 1.787 2.061 3.541 2.589 5.439 1.295 4.577 2.862 9.076 4.531 13.523 1.678 4.448 3.56 8.793 6.133 12.762 2.427 3.738 5.238 7.031 8.457 10.102 5.323 5.072 13.083 10.726 20.706 7.202 3.832-1.78 6.643-5.517 8.883-8.982 2.564-3.968 4.523-8.288 5.988-12.787 2.538-7.826 3.628-16.037 3.824-24.249.017-.735.025-1.462.025-2.206 0-.548-.255.735.077-.112.119-.282.162-.633.239-.923.187-.736.366-1.463.545-2.199.622-2.626 1.184-5.26 1.703-7.912 1.116-5.679 2.01-11.393 2.623-17.149.282-2.634.563-5.269.75-7.912.068-1.06.451-2.651-.043-3.635-.247-.479-.758-.753-1.166-1.07-.537-.401-1.065-.812-1.602-1.214-4.096-3.07-8.406-5.876-12.801-8.485a157 157 0 0 0-14.914-7.809c-2.342-1.07-4.71-2.13-7.12-3.036-.835-.308-1.908.35-2.717.65a105 105 0 0 0-3.552 1.394 105.8 105.8 0 0 0-26.974 16.251c-.826.693-1.669 1.377-2.47 2.104s-1.448 1.54-2.223 2.259c-.417.393-.426 1.146-.358 1.676.026.197.307 1.309.716.924.8-.745 1.754-1.352 2.58-2.07a109 109 0 0 1 9.148-7.134 103.7 103.7 0 0 1 15.655-8.972 101 101 0 0 1 7.631-3.156c.639-.24 1.405-.685 2.095-.702.631-.017 1.397.48 1.976.719 1.295.538 2.581 1.086 3.859 1.659a159 159 0 0 1 16.225 8.348 170 170 0 0 1 15.459 10.281l-.486-1.907c-.434 7.484-1.439 14.917-2.759 22.281a199 199 0 0 1-2.402 11.334c-.417 1.727-1.158 3.592-1.176 5.371-.017 1.052-.025 2.113-.051 3.156-.383 11.505-2.836 23.787-9.258 33.666-2.972 4.568-6.941 9.315-12.818 9.375s-10.792-3.798-14.761-7.527c-2.086-1.967-4.071-4.037-5.817-6.321-2.061-2.694-3.756-5.628-5.264-8.673-2.904-5.859-5.042-12.154-6.95-18.407-.417-1.377-.656-3.002-1.345-4.268a90 90 0 0 1-2.07-4.037c-1.482-3.071-2.828-6.219-3.969-9.435-2.385-6.723-3.927-13.702-4.829-20.784a93 93 0 0 1-.426-4.123c-.026-.257-.068-.967-.46-.95s-.418.736-.409.976v.025zM319.715 130.644c-.119.496-.315.975-.392 1.488-.077.59-.043 1.215.026 1.805a10.7 10.7 0 0 0 1.098 3.601c.571 1.12 1.261 2.129 2.189 2.908 1.073.898 2.215 1.06 3.56.693.043 0 .043-.129 0-.129-1.115-.102-2.154-.812-3.023-1.496-.869-.693-1.584-1.591-2.121-2.541a10 10 0 0 1-1.09-2.865 11 11 0 0 1-.205-1.514c-.025-.625-.119-1.283 0-1.899 0-.026-.025-.086-.025-.034zM326.886 120.636a.7.7 0 0 0 .171.18c.255.137.545-.111.69-.359.34-.548.468-1.215.485-1.856.017-.548-.409-4.337-1.448-2.661-.715 1.147-.639 3.61.094 4.688zM59.352 260.972c.264-1.548.613-3.079.817-4.653q.321-2.582.656-5.149c.468-3.524.988-7.04 1.567-10.538a279 279 0 0 1 4.242-20.648c.97-3.969 1.865-7.938 2.708-11.941.017-.068-.05-.376-.119-.205-1.27 3.148-2.342 6.313-3.194 9.614a259 259 0 0 0-2.419 10.333 230 230 0 0 0-3.509 21.118c-.23 1.967-.451 3.952-.605 5.927-.162 1.976-.153 4.072-.162 6.133 0 .017.017.034.026.017zM44.114 154.208c-.11 1.164.23 2.353.452 3.49.272 1.386.553 2.771.783 4.166.486 2.916.869 5.842 1.124 8.784.12 1.3-.034 2.703.196 3.977.213 1.155 1.329 2.378 2.01 3.293.852 1.138 1.772 2.156 2.777 3.157.784.786 1.584 1.582 2.564 2.121.06.025.042-.129.025-.154-1.601-2.293-3.44-4.397-4.982-6.749-.435-.658-.844-1.334-1.252-2.01a6 6 0 0 0-.247-.402c-.017.265-.026.214-.026-.128-.025-.3-.025-.599-.034-.898a153 153 0 0 0-.238-3.952 69 69 0 0 0-1.159-8.442c-.255-1.266-.52-2.54-.86-3.798-.205-.744-.383-2.07-1.065-2.557-.05-.035-.076.085-.076.111h-.026zM36.457 140.6c.28-.017.51.069.783.12.298.06.622.034.92 0 .622-.094 1.218-.453 1.72-.83a7.6 7.6 0 0 0 2.096-2.343c.937-1.643 1.38-3.439 1.371-5.321a8.4 8.4 0 0 0-.12-1.385c-.025-.111-.101-.111-.11 0-.136 1.325-.536 2.685-1.022 3.917a8.2 8.2 0 0 1-1.865 2.84c-.545.53-1.193.949-1.84 1.351-.324.197-.647.411-.97.633-.342.231-.589.539-.989.667-.085.026-.076.36.026.36z"/><path fill="#000" d="M48.091 201.124c-.025-2.019.12-4.055.452-6.047.068-.42.153-.856.417-1.189.307-.385.81-.548 1.278-.693 2.504-.761 5.28-1.335 7.682-.291a48.6 48.6 0 0 1-.153 7.715c1.346-2.19 1.908-4.85 1.542-7.39 2.154-1.711 4.48-3.293 7.137-3.994.877-.231 1.823-.368 2.7-.137 1.124.299 2.036 1.172 2.598 2.198.562 1.018.809 2.19.962 3.353.477 3.592.12 7.27-.792 10.777-.4 1.54-1.005 3.182-2.36 4.003-.962.582-2.163.642-3.244.368-1.082-.265-2.07-.847-2.998-1.48a25 25 0 0 1-5.017-4.533 6.65 6.65 0 0 1-4.778 1.822c-1.746-.06-3.458-.873-4.625-2.173-2.675 2.207-5.639 4.516-9.097 4.585-.357 0-.749-.017-1.047-.223-.247-.171-.4-.453-.528-.735-1.337-2.823-1.601-6.013-1.84-9.118-.12-1.488-.221-3.002.102-4.456.188-.83.537-1.668 1.193-2.216 1.107-.923 2.734-.787 4.122-.393a14.9 14.9 0 0 1 3.237 1.343c.528.291 1.064.607 1.533.975.587.462.417.573.28 1.283-.416 2.266.026 4.696 1.253 6.663h-.017zM18.051 81.222c-.826 3.678-1.107 7.527-1.345 11.282a204 204 0 0 0-.41 11.787c-.042 7.629.282 15.293 1.133 22.872.767 6.859 2.138 13.753 4.992 20.066 1.337 2.968 2.972 6.056 5.306 8.365 2.334 2.301 5.093 3.319 8.236 3.036 3.483-.307 6.678-2.266 9.156-4.67 1.337-1.3 2.513-2.737 3.577-4.259 1.227-1.745 2.019-3.678 3.05-5.526.033-.06 0-.342-.069-.239-.877 1.206-1.942 2.309-2.896 3.472-.953 1.164-1.916 2.43-3.015 3.533-2.154 2.173-4.77 3.892-7.818 4.473-3.05.582-5.937.291-8.441-1.556-2.504-1.848-4.131-4.773-5.468-7.502-2.862-5.782-4.242-12.154-5.034-18.526-.877-7.04-1.192-14.182-1.26-21.264-.035-4.14.025-8.288.212-12.428.188-4.14.58-8.425.605-12.633 0-.36-.358-.89-.494-.283z"/><path fill="#000" d="M45.647 161.316c.818-.29 4.71-1.77 6.711-5.961 2.65-5.551-.408-10.855-.664-11.282a32 32 0 0 1-3.177 5.038 32 32 0 0 1-4.344 4.644c.494 2.515.971 5.038 1.465 7.553zM65.135 127.231c.885 1.087 1.84 1.95 3.236 2.327 1.27.342 2.683.239 3.927-.171 2.717-.898 4.608-3.353 5.553-5.979 1.116-3.114 1.226-7.04-.34-10.025-1.568-2.985-4.762-2.968-7.326-1.522-2.725 1.539-4.94 4.738-4.829 7.954 0 .043.051.206.094.095.869-2.31 1.797-4.431 3.867-5.911 1.882-1.351 4.82-2.164 6.788-.479 1.124.967 1.567 2.652 1.72 4.072.162 1.531-.068 3.104-.562 4.559-.792 2.352-2.385 4.576-4.659 5.662-2.129 1.018-5.647.992-7.393-.83-.085-.094-.11.205-.06.265v-.017z"/><path fill="#000" d="M69.291 128.967c-.502 2.66-.639 5.449-.784 8.152a108 108 0 0 0-.161 8.331c.068 2.78.238 5.534.638 8.262.196 1.283.452 2.549.81 3.806.17.616.357 1.232.553 1.839.12.36.213.89.605 1.044.034.017.051-.051.06-.068.161-1.172-.273-2.421-.435-3.584-.17-1.249-.34-2.498-.494-3.747a75 75 0 0 1-.579-7.92c-.051-2.652 0-5.226.077-7.826.076-2.601.306-5.338.196-7.989-.017-.342-.358-.975-.494-.308z"/><path fill="#000" d="M55.655 183.76c4.318-2.027 7.384-6.406 9.811-10.401 2.581-4.251 5.383-9.169 4.983-14.301 0-.094-.085-.163-.102-.026-.57 4.961-3.134 9.58-5.74 13.754-2.607 4.166-5.656 7.501-8.97 10.88-.016.017-.016.12.026.103zM45.724 195.299c.119-.214.366-.402.519-.599.187-.231.358-.462.511-.71.34-.53.69-1.06 1.04-1.582a33 33 0 0 1 2.324-3.045 33 33 0 0 1 2.658-2.788c.468-.437.92-.83 1.32-1.326.451-.565.996-1.087 1.482-1.625 0 0 0-.069-.017-.06-.264.111-.554.196-.8.333-.265.146-.495.36-.767.488-.596.299-1.04.727-1.533 1.189a35 35 0 0 0-2.632 2.797 32 32 0 0 0-2.308 3.113 26 26 0 0 0-1.065 1.771c-.34.641-.494 1.325-.784 1.976 0 .025 0 .111.026.068z"/><path fill="#000" d="M55.093 183.547c1.856 1.787 3.773 3.541 5.306 5.628a36 36 0 0 1 2.044 3.156c.58 1.009 1.133 2.001 1.95 2.823.026.025.026-.052.026-.069-.775-2.506-2.163-4.798-3.713-6.911-.733-1.001-1.534-1.942-2.462-2.78-.46-.41-.937-.829-1.456-1.163-.52-.334-1.09-.53-1.695-.727v.043M39.804 191.245c.324-.924.273-1.908.298-2.874.026-1.241.068-2.472.162-3.704.17-2.412.434-4.824.852-7.193.392-2.207.826-4.405 1.678-6.484a9.2 9.2 0 0 1 1.695-2.677c.357-.402.715-.813 1.167-1.12.451-.308.809-.385 1.081-.847.077-.137.102-.454-.042-.556-.588-.428-1.908.453-2.436.829-.724.539-1.312 1.292-1.815 2.028-1.354 2.035-1.856 4.567-2.308 6.936-.502 2.652-.877 5.338-1.022 8.032a65 65 0 0 0-.102 4.063c.017 1.163-.068 2.48.443 3.55.085.179.273.205.35 0zM69.81 154.089c1.065.949 2.266 1.582 3.16 2.737.895 1.163 1.653 2.395 2.394 3.644 1.516 2.549 3.415 5.508 3.662 8.527.247 3.02-.324 6.159-.988 9.05-.664 2.882-1.678 5.885-2.921 8.69-.733 1.651-1.576 3.225-2.479 4.79-.784 1.351-1.541 2.711-1.737 4.294 0 .068.042.436.17.282.954-1.12 1.601-2.592 2.376-3.849.826-1.343 1.627-2.703 2.334-4.114 1.482-2.977 2.555-6.193 3.262-9.434.707-3.251 1.227-6.621.98-9.888-.247-3.268-1.917-6.338-3.612-9.152-.852-1.429-1.737-2.968-2.93-4.157-.902-.898-2.3-2.241-3.67-1.805-.128.043-.094.316-.018.393zM23.247 100.331c1.584 2.215 3.185 4.644 4.233 7.168 1.132 2.728 1.235 5.576.366 8.399-1.465 4.79-5.375 10.247-2.632 15.345 1.124 2.087 3.194 3.755 5.391 4.533.069.026.069-.163.035-.188-1.883-1.642-3.722-3.481-4.583-5.876-.434-1.215-.656-2.301-.417-3.593.264-1.445.817-2.839 1.26-4.242.827-2.592 1.789-5.158 2.104-7.869.281-2.404-.068-4.79-.97-7.031a18 18 0 0 0-1.96-3.558c-.834-1.189-1.805-2.156-2.81-3.191-.034-.034-.043.077-.026.103zM40.281 205.725c-.102 1.377.17 2.84.358 4.2.204 1.497.451 2.985.724 4.473.485 2.729.945 5.474 2.095 8.006.043.094.085-.034.085-.077-.213-2.925-.826-5.756-1.354-8.639-.264-1.419-.494-2.848-.75-4.268-.221-1.266-.332-2.703-.809-3.909-.128-.333-.332.043-.349.214M54.096 203.228c-.451 1.659-.34 3.566-.383 5.277a140 140 0 0 0-.026 5.363c.051 3.584.23 7.151.469 10.717s.656 7.031 1.013 10.547c.358 3.515.81 7.245 1.414 10.854 0 .051.043.026.043-.017-.162-3.524-.452-7.022-.758-10.538-.307-3.515-.503-7.245-.733-10.871s-.392-7.151-.468-10.718c-.043-1.779-.06-3.575-.06-5.363 0-1.693.17-3.464-.085-5.14-.051-.325-.307-.548-.417-.12h-.017zM39.779 264.077s.017-.052 0-.052-.018.052 0 .052M11.101 265.231c-.213.565-.29 1.198-.451 1.779-.162.633-.358 1.258-.528 1.89-.4 1.412-.733 2.84-.699 4.32.017.667.085 1.386.426 1.976.298.53.784.795 1.337 1.018.605.239 1.252.504 1.9.598.724.112 1.49.043 2.197-.068.026 0 .026-.069 0-.069a32 32 0 0 1-3.5-1.71c-.486-.274-1.133-.625-1.397-1.146-.222-.454-.111-1.07-.051-1.54.144-1.18.52-2.335.775-3.49.238-1.086.528-2.395.213-3.498-.034-.137-.154-.265-.23-.069z"/><path fill="#000" d="M11.186 275.769c.034 1.539.17 3.148.366 4.679.162 1.265.562 2.394 1.67 3.113.545.359 1.115.599 1.584 1.069.494.505.843 1.121 1.192 1.736.614 1.078 1.21 2.113 2.232 2.857.502.377 1.073.659 1.558 1.069.605.514.929 1.258 1.491 1.814.928.941 2.24 1.001 3.458.71 2.956-.693 5.707-2.404 8.458-3.635 1.72-.77 3.458-1.514 5.246-2.105.8-.265 1.61-.487 2.436-.675s1.814-.188 2.53-.659c.162-.111.187-.735-.026-.812-1.158-.454-2.921.265-4.071.581a40 40 0 0 0-3.96 1.352c-2.769 1.069-5.46 2.318-8.254 3.344-1.269.47-2.632 1.095-4.028.932-1.525-.171-1.9-1.556-2.905-2.472s-2.13-1.351-2.896-2.48c-.672-.992-1.107-2.138-1.89-3.062-.954-1.112-2.683-1.343-3.007-2.925-.324-1.591-.264-3.174-.775-4.705-.17-.513-.409-.043-.4.265v.017z"/><path fill="#000" d="M19.508 288.924c-.316 1.266-.111 2.66-.017 3.943.102 1.377.22 2.746.332 4.123.23 2.806.494 5.62.74 8.425.256 2.806.554 5.329 1.116 7.955.52 2.446.92 5.012 1.976 7.296.026.043.026-.026.026-.043-.264-2.754-.869-5.44-1.158-8.194a418 418 0 0 1-.767-7.972c-.238-2.66-.46-5.363-.715-8.049-.12-1.308-.239-2.617-.375-3.926-.12-1.197-.12-2.625-.69-3.703-.187-.351-.409-.137-.485.154zM6.851 308.905c-.57-5.252-1.337-10.478-1.985-15.713a437 437 0 0 1-1.6-15.293c-.92-10.281-1.347-20.631-1.423-30.946-.136-18.125-.35-39.543 13.168-53.493 3.474-3.584 7.767-6.158 12.103-8.562 2.154-1.189 4.377-2.344 6.652-3.25 2.282-.907 4.897-1.651 7.111-2.968.188-.111.205-.933-.068-.907-2.223.222-4.326 1.103-6.413 1.848-2.096.744-4.19 1.402-6.252 2.206-4.207 1.625-8.108 3.849-11.54 6.8-6.687 5.74-10.903 13.78-13.22 22.196C.6 220.933.394 231.565.335 241.983c-.06 10.598.281 21.204 1.073 31.767a432 432 0 0 0 1.704 17.851c.698 5.936 1.49 11.984 2.794 17.877.068.316.212.855.638.71.4-.137.358-.984.324-1.283h-.026z"/><path fill="#000" d="M18.988 188.063c-.826 1.403-1.26 2.891-1.729 4.439a107 107 0 0 0-1.346 4.987c-.843 3.404-1.507 6.859-2.06 10.332-.554 3.464-.989 6.98-1.287 10.495a132 132 0 0 0-.34 5.192q-.064 1.384-.103 2.78c-.025.872-.119 1.762.154 2.6.127.402.502.77.732.197.315-.787.255-1.642.273-2.481.025-.829.05-1.616.093-2.42.077-1.737.196-3.464.34-5.192.29-3.396.7-6.783 1.236-10.144.537-3.362 1.218-6.732 1.976-10.076s1.857-6.758 2.35-10.213c.018-.111-.119-.787-.297-.496zM81.275 171.144c1.081.556 2.001 1.411 3.1 1.942 1.013.496 2.103.872 3.16 1.291 2.154.881 4.326 1.745 6.481 2.618s4.182 1.642 6.329 2.343c1.039.342 2.086.642 3.125.958.793.231 2.062.898 2.794.436.545-.342.426-1.779.068-2.206-.622-.736-1.686-.787-2.606-1.001a77 77 0 0 1-3.126-.778c-2.257-.625-4.471-1.395-6.694-2.13-2.223-.736-4.242-1.42-6.363-2.13-.98-.325-1.959-.693-2.947-.984-1.09-.308-2.231-.162-3.322-.41-.017 0-.017.06 0 .068zM68.26 124.631c.12-.522.026-1.121.086-1.651a6.8 6.8 0 0 1 .477-1.839c.4-.975 1.056-1.899 1.908-2.54.8-.599 1.746-.976 2.75-.916.46.026.938.035 1.38.214.196.077.358.18.563.231.246.06.357.214.545.368.017.017.017-.034 0-.043-.418-1.009-1.414-1.83-2.53-1.916-1.116-.077-2.266.411-3.1 1.206-.92.881-1.542 2.019-1.917 3.225a8.5 8.5 0 0 0-.366 1.907c-.034.505-.145 1.309.128 1.762.025.043.05.026.068-.025v.017zM25.06 113.811c-.025-.069-.289-.727-.587-.71-.264.017-.417.505-.528.855a4.4 4.4 0 0 0 .102 2.951c.128.317.375.924.656.915.29-.017.452-.692.528-.958.162-.633.273-1.659-.162-3.053zM42.155 113.657c-.034-.086-.375-.864-.784-.847-.349.017-.545.599-.69 1.018a4.75 4.75 0 0 0 .137 3.507c.17.384.494 1.103.869 1.086.383-.017.604-.821.698-1.138.213-.752.366-1.967-.213-3.635h-.017zM11.442 265.317c-.733-.958-3.211-2.301-2.053-3.815.852-1.112 3.381-.077 4.42.163 1.559.376 3.007.479 4.574.094 1.576-.385 2.964-.975 4.523-1.215 3.075-.462 5.97.265 8.721 1.634 2.445 1.214 4.838 2.626 7.58 3.053.47.069.503-1.368-.033-1.454-2.683-.436-4.974-1.907-7.385-3.079s-4.923-1.916-7.623-1.753c-2.861.162-5.51 1.856-8.39 1.676-1.456-.094-2.835-.59-4.283-.787-1.014-.137-2.01.12-2.547 1.061-1.014 1.77.4 4.678 2.436 4.935.196.026.11-.436.051-.505z"/><path fill="#000" d="M9.73 264.23c1.763 1.215 3.841 1.891 5.945 2.25s4.25.402 6.388.453c-3.628.993-7.461.941-11.209.565a7.6 7.6 0 0 0 .562-2.284M38.944 264.436s-.026-.052-.051-.069l.025.069c0-.043 0-.086-.017-.129 0-.034-.017-.068-.025-.102l-.026-.052s-.034-.042-.068-.042l-.034.017s-.034.034-.043.06c-.017.025-.025.034-.025.059a.25.25 0 0 0-.026.12v.171l.026.12c0 .026.025.06.034.086 0 .017.026.025.026.034 0 .017.025.025.025.034a.6.6 0 0 0 .102.094c.026.026.06.017.085 0l.035-.043a.4.4 0 0 0 .05-.145c0-.051.018-.103.018-.146v-.162c0-.043-.017-.094-.026-.137 0-.034-.026-.068-.051-.103-.026-.025-.043-.051-.077-.051.102.077.12.077.043.017l-.043-.017h-.025.042c-.025 0-.042-.017-.068-.017h-.077l.077.616s0-.026.017-.034c.017-.026.026-.035.026-.06 0-.026.017-.052.017-.069v-.102l-.026.06s.026.017.034.025c0 0 .017.017.026 0s0-.017.017-.025v-.07700000000000001z"/><path fill="#000" d="M38.868 264.915c1.924.145 3.866-.026 5.791-.214a73 73 0 0 0 5.656-.787c3.798-.659 7.546-1.531 11.294-2.438 3.747-.906 7.503-1.864 11.285-2.668s7.64-1.557 11.49-1.976c2.138-.231 4.275-.385 6.422-.368 1.098 0 2.197.06 3.287.103 1.099.043 2.19.179 3.28.162.05 0 .042-.222 0-.248-.946-.308-1.96-.436-2.948-.581-.987-.146-1.907-.197-2.861-.231a64 64 0 0 0-5.732.025c-3.884.188-7.708.693-11.516 1.463-7.572 1.522-15.007 3.686-22.588 5.132-2.103.402-4.207.736-6.328 1.009-2.12.265-4.378.385-6.55.633-.28.026-.264.95.026.975zM52.01 285.195c-.384 1.214-.069 2.762 0 4.011.076 1.497.212 2.994.349 4.491.29 3.156.664 6.312 1.064 9.46.4 3.147.767 6.167 1.32 9.22.554 3.054.767 5.971 1.627 8.87.026.069.051 0 .051-.034-.017-3.088-.587-6.09-.886-9.161-.298-3.07-.783-6.201-1.226-9.289s-.869-6.107-1.218-9.177c-.17-1.532-.324-3.063-.477-4.585-.12-1.206.017-2.737-.485-3.849-.043-.094-.094-.026-.12.034z"/><path fill="#000" d="M43.51 331.52c2.861-1.54 5.374-3.917 7.878-6.013.766-.642 1.533-1.274 2.29-1.925.452-.384 1.074-1.12 1.662-1.257.826-.188 1.882.924 2.53 1.343.877.573 1.78 1.112 2.674 1.651 1.678 1.018 3.364 1.993 5.042 3.002a458 458 0 0 1 9.957 6.176 347 347 0 0 1 11.191 7.415q.1.065.188 0c3.526-2.788 6.975-5.679 10.467-8.527a127 127 0 0 0 5.136-4.405c1.678-1.514 3.543-2.968 5.272-4.508.06-.051.034-.334-.034-.282-2.376 1.676-4.667 3.447-7.052 5.123s-4.684 3.558-7.018 5.346c-1.116.864-2.249 1.728-3.373 2.592l-1.686 1.308c-.452.36-1.448 1.48-2.053 1.343-.256-.06-.639-.444-.852-.59-.28-.197-.57-.393-.852-.59-.57-.394-1.14-.778-1.712-1.163-1.235-.83-2.478-1.668-3.713-2.489a354 354 0 0 0-14.292-8.956c-2.436-1.445-4.88-2.959-7.452-4.165-.86-.402-1.985-1.112-2.93-.582-.358.205-.665.53-.971.796-1.32 1.12-2.658 2.223-3.978 3.353-2.189 1.864-4.471 3.635-6.37 5.816-.026.025-.026.214.033.179z"/><path fill="#D5D4D4" d="M342.558 233.353c.358 5.585.699 11.171 1.056 16.747-.076-1.394 1.346-2.506 2.734-2.557 1.389-.051 2.683.667 3.833 1.445 5.255 3.584 9.037 8.93 12.606 14.208-.205-6.92-1.917-13.703-3.62-20.417-1.303-5.115-2.598-10.239-3.901-15.362-1.635-6.449-3.279-12.907-5.136-19.305-.86-2.968-1.806-5.945-3.253-8.673-.418-.787-1.636-3.516-2.556-3.73-1.371-.316-1.345 2.062-1.448 2.968a139 139 0 0 0-.971 22.128c.145 4.183.401 8.365.673 12.548z"/><path fill="#000" d="M323.582 11.846c3.832 11.513 6.209 23.556 7.12 35.65.256 3.362.443 6.74.511 10.11 0 .043.034.043.034 0 .409-12.137-1.226-24.325-4.386-36.043-.903-3.336-2.036-6.56-3.22-9.802-.025-.086-.068.025-.059.068zM332.84 15.584c2.24 5.08 3.705 10.666 4.719 16.115 1.013 5.448 1.507 10.982 1.865 16.508.204 3.096.477 6.184.647 9.271 0 .043.034.043.034 0-.145-5.662-.247-11.273-.817-16.91-.563-5.56-1.448-11.119-3.033-16.482-.877-2.968-2.086-5.74-3.423-8.52v.018zM200.516 191.219c3.654-4.491 5.894-9.939 7.853-15.388.724-2.001 1.405-4.028 1.635-6.15.256-2.446-.127-4.918-.587-7.338a126 126 0 0 0-2.453-10.427c-.392-1.377-.827-2.78-1.678-3.926-1.21-1.608-3.254-2.557-5.255-2.429a90 90 0 0 0 .085 11.846c.136 1.891.332 3.832-.205 5.654-.443 1.497-1.345 2.788-2.248 4.063 0 .787-1.865 2.66-2.342 3.327-.784 1.112-1.559 2.216-2.343 3.327-.843 1.206-1.686 2.395-2.529 3.601-.494.702-2.215 2.412-2.113 3.276.162 1.472 4.608 4.072 5.75 5.038a568 568 0 0 1 6.43 5.509z"/><path fill="#000" d="M199.647 142.627c3.62.787 6.831 2.472 9.335 5.252 2.641 2.934 4.531 6.483 6.465 9.905 4.276 7.578 8.687 15.062 13.091 22.555 2.478 4.217 4.88 8.493 7.478 12.642l-.068-2.695c-2.836 3.285-5.809 6.407-8.824 9.537-3.058 3.191-5.954 6.604-8.654 10.102-.017.017 0 .111.026.085 6.507-5.097 11.941-11.358 18.065-16.884.63-.564.639-1.916.247-2.617-4.293-7.775-9.003-15.362-13.534-22.992-2.257-3.797-4.514-7.604-6.822-11.376-2.027-3.301-3.944-6.714-6.635-9.528-2.692-2.823-6.235-5.432-10.195-5.235-.409.026-.349 1.172.025 1.257z"/><path fill="#000" d="M205.984 149.325c.98 4.772 2.104 9.477 2.734 14.318a132 132 0 0 1 1.091 15.225c.161 10.469-.077 20.939-.418 31.399a1116 1116 0 0 1-.758 18.595c-.11 2.207-.306 4.542 0 6.817.068.497.486.804.656.172.52-1.925.537-3.909.639-5.877s.196-3.994.289-5.987c.162-3.721.307-7.441.443-11.162.213-6.304.392-12.616.46-18.929.111-9.622.222-19.313-1.167-28.859-.775-5.329-1.729-10.897-3.866-15.849-.06-.137-.094.119-.077.162h-.017zM184.555 198.746c-.401.162-.46.795-.537 1.163-.136.659-.264 1.309-.4 1.967a175 175 0 0 0-.724 4.226 470 470 0 0 0-1.269 8.545c-.401 2.848-.818 5.773-1.184 8.673-.179 1.419-.366 2.839-.469 4.268s-.025 2.968-.085 4.448c0 .085.094.325.136.119.282-1.3.724-2.549.954-3.874s.435-2.737.622-4.106c.4-2.883.792-5.774 1.21-8.665.408-2.882.826-5.585 1.226-8.382.205-1.394.409-2.78.588-4.174.153-1.215.613-2.805.196-3.994-.043-.12-.111-.274-.256-.214zM192.314 198.515c.162 1.642.809 3.267 1.295 4.833.485 1.565 1.056 3.216 1.584 4.824 1.022 3.079 2.078 6.15 3.126 9.237 1.047 3.088 2.061 6.185 3.1 9.272a317 317 0 0 0 1.644 4.747c.264.727.485 1.48.809 2.182.298.641.75 1.163 1.073 1.779.051.094.085-.06.077-.103-.162-.821-.213-1.659-.4-2.48-.179-.822-.486-1.66-.75-2.489a358 358 0 0 0-1.601-4.825c-1.065-3.113-2.164-6.226-3.228-9.348s-2.121-6.262-3.194-9.383c-.545-1.583-1.082-3.157-1.67-4.73-.46-1.224-.826-2.892-1.677-3.909-.171-.214-.213.299-.213.367z"/><path fill="#000" d="M201.87 193.845c-2.734-1.54-5.459-3.088-8.202-4.628l-1.047 11.017c3.807 10.709 7.631 21.426 11.438 32.135 1.968-.12 3.944-.222 5.92-.342.69-18.997.996-33.7 1.013-41.184 0-2.951-.025-6.835-.383-11.77-.29-3.917-.69-7.116-.979-9.238a36.7 36.7 0 0 1-1.891 13.13 36.3 36.3 0 0 1-5.877 10.871zM149.123 201.38c-.451.488-.502 1.42-.681 2.045-.213.769-.452 1.539-.682 2.3a133 133 0 0 1-1.55 4.747c-1.115 3.165-2.529 6.185-3.807 9.281-.605 1.463-.92 2.994-.63 4.567.298 1.574 1.09 2.977 1.788 4.346a42 42 0 0 0 2.402 4.062c.75 1.138 1.602 2.361 2.751 3.131.052.034.034-.12.026-.128-1.209-2.917-2.956-5.594-4.344-8.425a68 68 0 0 1-1.013-2.113c-.29-.625-.673-1.3-.656-2.002.017-1.411.996-2.899 1.541-4.157a88 88 0 0 0 3.22-8.493 72 72 0 0 0 1.184-4.157c.358-1.403.928-3.011.86-4.456 0-.18-.119-.881-.417-.548zM113.385 280.26c.8-.702 2.274-.454 3.287-.437 1.227.026 2.428.36 3.527.881 2.214 1.061 4.224 2.712 6.03 4.345 1.805 1.634 3.415 3.447 4.863 5.389.69.924 1.346 1.865 1.985 2.823q.457.693.979 1.334c.298.359.63.547.929.881.144.163.161-.265.144-.334-.417-1.351-.792-2.591-1.55-3.823a31 31 0 0 0-2.197-3.113 42 42 0 0 0-5.179-5.355c-1.874-1.625-3.994-3.353-6.388-4.199-1.115-.394-2.291-.599-3.466-.402-1.303.23-1.968 1.197-2.981 1.933-.026.017 0 .085.017.068zM170.255 197.275c2.35-2.669 4.701-5.329 7.052-7.998 2.393 3.635 4.795 7.279 7.188 10.906a1025.853 1025.853 0 0 0-4.548 29.646c-2.581.043-5.153.085-7.734.12a4596 4596 0 0 1-7.725-33.136 144 144 0 0 1-3.287-20.793 131 131 0 0 0 4.727 12.385 126 126 0 0 0 4.327 8.861z"/><path fill="#000" d="M168.082 148.991c-1.252.325-2.163 1.231-3.04 2.164a18.6 18.6 0 0 0-2.641 3.609c-1.354 2.447-2.197 5.158-2.64 7.912-.894 5.534-.307 11.197.571 16.696 2.172 13.583 5.084 27.055 8.253 40.441a797 797 0 0 0 2.231 9.143c.588 2.352.954 5.064 2.257 7.134.307.479.52-.531.511-.684-.093-2.31-.758-4.534-1.32-6.766a730 730 0 0 1-5.902-25.25 822 822 0 0 1-4.208-20.879c-.971-5.2-2.001-10.452-1.822-15.763.102-3.174.638-6.364 1.899-9.289a20.7 20.7 0 0 1 2.487-4.286c1.056-1.385 2.342-2.557 3.381-3.951.026-.026.034-.257-.025-.231h.017z"/><path fill="#000" d="M165.161 215.417c-.741-1.249-1.789-2.019-2.896-2.951a373 373 0 0 0-3.586-3.011c-2.376-1.959-4.761-3.901-7.018-6.005-2.248-2.104-4.591-4.14-6.882-6.209-.945-.856-2.163-1.685-2.896-2.746-.604-.881.052-2.181.35-3.096 1.797-5.552 4.028-10.949 6.405-16.269 2.376-5.329 4.803-10.854 7.495-16.123 1.431-2.788 2.87-5.551 4.965-7.912 2.096-2.352 4.472-3.618 7.257-4.653.307-.12.264-1.351-.111-1.309-2.572.3-4.931 1.985-6.745 3.738-1.951 1.882-3.535 4.089-4.957 6.39-3.211 5.174-5.937 10.726-8.441 16.268-2.513 5.534-5.085 11.616-7.044 17.646-.86 2.634-1.712 5.902.239 8.288.868 1.061 2.103 1.847 3.168 2.686 1.286 1 2.555 2.018 3.85 3.019 2.802 2.164 5.672 4.208 8.424 6.441a223 223 0 0 0 4.147 3.31c.733.573 1.482 1.155 2.223 1.728.673.521 1.159.975 2.01 1.043.111 0 .077-.265.052-.308v.026z"/><path fill="#000" d="M155.273 158.784c-3.552.993-6.942 2.404-10.434 3.541-1.729.565-3.467 1.035-5.196 1.566-1.626.496-3.219 1.206-4.803 1.822a409 409 0 0 0-20.305 8.553c-1.687.77-3.373 1.54-5.051 2.326-1.584.736-3.228 1.412-4.744 2.276-2.956 1.685-3.313 4.824-3.45 7.937-.332 7.322-.477 14.652-.579 21.974-.204 14.464-.375 28.996-2.12 43.374-.878 7.185-2.164 14.318-4.046 21.306s-4.106 14.191-2.317 21.478c1.43 5.816 5.51 10.504 9.181 15.062 1.849 2.301 3.671 4.611 5.596 6.843 1.065 1.24 2.138 2.481 3.186 3.738 1.047 1.257 2.086 2.669 3.287 3.823 1.21 1.155 2.59 2.079 3.825 3.225.068.068.068-.145.042-.188-1.133-1.737-2.061-3.567-3.194-5.295-.971-1.471-2.121-2.822-3.202-4.208-1.959-2.498-3.816-5.055-5.749-7.578-1.687-2.207-3.373-4.431-5.077-6.638s-3.338-4.174-4.608-6.517c-1.447-2.686-2.205-5.603-2.06-8.673.161-3.353 1.047-6.646 1.933-9.871 1.865-6.817 3.407-13.668 4.42-20.682 2.053-14.242 2.334-28.654 2.428-43.024.051-7.065.119-14.13.213-21.203.025-1.737.059-3.482.119-5.218.042-1.403-.06-2.985.468-4.311.579-1.445 1.968-2.198 3.288-2.865a424 424 0 0 1 4.829-2.378c6.397-3.114 12.87-6.073 19.36-8.998q2.477-1.116 4.965-2.207c1.661-.736 3.39-1.386 4.966-2.267 3.177-1.779 6.626-3.079 9.999-4.422 1.636-.65 3.254-1.343 4.864-2.07.051-.025.025-.256-.017-.239h-.017z"/><path fill="#fff" d="M253.238 324.959c-1.133-1.753-1.772-3.934-1.252-5.961.588-2.258 2.47-3.918 4.369-5.269a43 43 0 0 1 5.596-3.379c.818-.41 1.763-.804 2.615-.487.511.188.903.598 1.243 1.018.971 1.188 1.721 2.54 2.436 3.9 2.479 4.644 5.945 8.502 7.819 16.936.545 2.463.758 4.687-.187 6.971-.596 1.454-1.482 2.471-2.087 3.07a9473 9473 0 0 0-8.866-8.998c.298 1.907.511 3.584.689 4.978.103.873.12 1.086.137 1.343.119 1.719-.034 3.524-.895 5.012-.494.864-1.269 1.625-2.248 1.779-1.32.206-2.521-.735-3.492-1.642-.963-.907-1.934-1.924-2.215-3.207-.179-.856-.034-1.737.103-2.601.255-1.591.485-3.19.689-4.781.213-1.574.699-3.49-.638-4.576-1.44-1.163-2.811-2.532-3.816-4.097z"/><path fill="#000" d="M264.796 310.641c3.56 5.38 6.379 11.188 9.003 17.073a63 63 0 0 1 1.882 4.678c.502 1.429 1.141 2.78.537 4.251-.801 1.959-3.084 3.849-2.854 6.125 0 .051.068.256.162.188.358-.282.52-.821.784-1.189.357-.522.766-1.001 1.184-1.48.826-.949 1.635-1.839 1.95-3.096.409-1.685-.026-3.379-.579-4.97a70 70 0 0 0-1.951-4.918 152 152 0 0 0-4.607-9.571c-1.397-2.643-2.939-5.543-5.469-7.211-.042-.025-.025.103-.025.12z"/><path fill="#fff" d="M136.688 336.395c-.724-2.497-1.806-4.875-2.632-7.338-.596-1.779-1.065-3.601-1.456-5.44a7 7 0 0 0 .247-.924c.093-.659.127-1.309.127-1.309 0-1.266-.059-2.54-.187-3.797-.068-.71-.162-1.42-.443-2.07s-.741-1.206-1.209-1.737a43 43 0 0 0-2.504-2.634c-.571-.547-1.21-1.121-1.993-1.232-.52-.077-1.048.052-1.534.248-1.575.633-2.776 1.925-3.866 3.216-1.482 1.771-2.828 3.636-4.14 5.534a147 147 0 0 0-8.551 14.011c-.767 1.42-1.516 3.079-.937 4.584.451 1.164 1.039 1.985 1.38 2.353 1.925 2.044 4.889 5.277 8.679 9.366 1.141 0 2.291.017 3.432.025a389 389 0 0 0 2.717-5.713 1340 1340 0 0 0 3.007-6.433c.63 1.395 1.567 2.618 2.887 3.345 1.968 1.078 4.608.787 6.303-.693.307-.265.588-.573.75-.941.332-.744.144-1.616-.077-2.395z"/><path fill="#D5D4D4" d="M115.855 334.094c-.162-2.66.988-5.217 2.283-7.552a59.3 59.3 0 0 1 5.791-8.571c1.235 4.568 2.479 9.221 2.249 13.942-.017.3-.162 1.788 0 3.789.068.916.187 1.651.272 2.147-1.533 3.251-3.074 6.501-4.607 9.76-.827-2.387-1.832-4.431-3.177-6.586-1.321-2.122-2.675-4.363-2.828-6.92z"/><path fill="#000" d="M119.585 327.602c-.264 1.677-.613 3.225-.57 4.944.042 1.557.289 3.105.834 4.568.503 1.351 1.21 2.6 2.011 3.797.408.616.826 1.266 1.379 1.771.46.419 1.005.787 1.491 1.18.068.06.068-.188.051-.222-.715-1.232-1.363-2.455-2.197-3.618-.75-1.044-1.431-2.147-1.959-3.327a11.9 11.9 0 0 1-.98-4.166c-.085-1.591-.102-3.284.034-4.867 0-.102-.077-.214-.102-.06z"/><path fill="#000" d="M124.687 319.34c.665 2.6 1.303 5.209 1.397 7.912s-.392 5.166-.187 7.758c.162 2.069.732 4.345 2.197 5.901 1.372 1.446 3.322 2.087 5.281 2.105s3.79-.693 4.276-2.849c.485-2.164-.264-4.174-.963-6.081-.835-2.25-1.882-4.414-2.64-6.698-.358-1.086-.716-2.215-.878-3.352-.161-1.138-.102-2.318-.042-3.473.102-1.933.213-3.952-.46-5.808-.741-2.061-2.444-3.327-4.327-4.311-.962-.496-1.976-.821-3.057-.521-1.082.299-2.002 1.043-2.811 1.813-1.678 1.599-3.083 3.455-4.378 5.38-2.981 4.405-5.809 8.921-8.713 13.377-1.227 1.882-2.939 3.772-2.53 6.176.307 1.813 1.508 3.353 2.692 4.687 1.473 1.668 3.108 3.156 4.65 4.773 1.533 1.608 2.666 3.302 3.654 5.243.673 1.317 1.431 2.464 2.811 3.105 2.231 1.018 4.991.248 6.95-1.018.068-.051.085-.376-.026-.359-1.984.197-3.892.428-5.834-.24-1.278-.436-2.249-1.06-2.922-2.249-.672-1.189-1.26-2.498-2.061-3.661-1.039-1.505-2.325-2.78-3.628-4.054-1.303-1.266-2.547-2.455-3.688-3.806-.468-.556-.937-1.138-1.303-1.78-.29-.504-.622-1.137-.46-1.744.145-.548.588-1.07.886-1.532 2.606-3.985 5.221-7.971 7.827-11.966 1.184-1.804 2.342-3.635 3.654-5.354 1.303-1.728 2.674-3.464 4.48-4.482 2.044-1.146 4.327.128 5.996 1.411 1.678 1.283 1.993 3.182 1.993 5.201 0 1.873-.128 3.72.068 5.585.222 2.036.792 3.943 1.499 5.859.75 2.019 1.619 4.003 2.249 6.056.519 1.676.801 3.575-1.346 4.08-1.942.453-4.327.051-5.894-1.198-1.882-1.496-2.299-3.968-2.299-6.226 0-2.447.23-4.85-.034-7.288-.247-2.241-.793-4.585-1.951-6.535-.077-.137-.111.12-.094.171h-.025zM249.695 219.36c.545-6.817.732-13.66 1.601-20.452.511-4.003 1.107-8.236 3.194-11.76a29.7 29.7 0 0 1 5.843-7.048c.025-.026.025-.137-.017-.12-2.368 1.069-4.591 2.677-6.116 4.815-.911 1.275-1.55 2.737-2.052 4.226-1.883 5.636-2.3 11.803-2.649 17.705-.247 4.183-.264 8.459.17 12.616 0 .026.026.026.026 0zM227.269 201.132c.715 1.488 1.857 2.797 2.819 4.123.971 1.326 1.882 2.54 2.828 3.798 1.925 2.566 3.841 5.14 5.783 7.689.128.171.562.556.613.701.068.214-.264.839-.323 1.027-.264.795-.528 1.599-.784 2.395-.485 1.497-.971 2.976-1.456 4.473-1.048 3.216-1.959 6.432-2.556 9.76-.017.068.026.359.12.196 1.643-3.01 2.683-6.252 3.756-9.511.562-1.719 1.133-3.438 1.686-5.158.46-1.437 1.133-3.062.443-4.533-.656-1.403-1.916-2.634-2.862-3.849-1.099-1.403-2.214-2.78-3.313-4.174s-2.197-2.788-3.313-4.174c-.98-1.215-1.934-2.797-3.211-3.695-.324-.223-.273.787-.213.915zM13.92 261.014c-2.001-9.212-3.995-18.432-5.996-27.644-.46-2.164.92-4.32 3.075-4.782l34.188-7.39a4 4 0 0 1 3.015.556c.4.265 1.226.915 1.746 2.532.826 2.583 3.995 17.244 8.006 37.37-2.879.77-6.2 1.471-9.914 1.95-3.73.479-7.146.641-10.135.633-8.79-4.978-12.98-5.209-15.161-4.303-.545.231-2.683 1.258-5.647 1.343a14 14 0 0 1-3.186-.265z"/><path fill="#fff" d="M13.324 236.415a2.55 2.55 0 0 0 2.547-2.558 2.55 2.55 0 0 0-2.547-2.557 2.55 2.55 0 0 0-2.547 2.557 2.55 2.55 0 0 0 2.547 2.558"/><path fill="#000" d="M13.324 235.414c.856 0 1.55-.697 1.55-1.556s-.694-1.557-1.55-1.557-1.55.697-1.55 1.557c0 .859.694 1.556 1.55 1.556"/><path fill="#fff" d="M19.099 234.2c.95 0 1.72-.774 1.72-1.728s-.77-1.728-1.72-1.728-1.72.774-1.72 1.728.77 1.728 1.72 1.728"/><path fill="#D5D4D4" d="M294.717 122.629c.324.137.673.257 1.022.265.571.026 1.124-.214 1.644-.444.119-.052.238-.112.29-.223.034-.077.025-.162.025-.248a9.1 9.1 0 0 0-1.022-3.396c-.554-1.052-1.388-2.018-2.504-2.395-.86-.29-1.882-.119-2.572.488-.613.547-.486 1.172-.29 1.916.469 1.762 1.729 3.31 3.407 4.037"/><path fill="#000" d="M291.029 117.258c.46-.573 1.354-.736 2.044-.761.877-.035 1.746.376 2.368.975.664.641 1.082 1.496 1.456 2.318.358.769.631 1.573.869 2.377.017.06.051.026.06-.025.145-1.069-.102-2.13-.486-3.122-.383-.992-.954-2.019-1.72-2.763-.699-.659-1.661-1.061-2.624-.924-.971.137-1.66.958-1.993 1.839 0 .017 0 .111.026.069z"/><path fill="#D5D4D4" d="M337.865 129.592c.971-3.755-.851-7.673-.664-11.547.051-1.061.383-3.49 1.567-6.304a21.5 21.5 0 0 1 3.194-5.286c2.01-1.215 4.012-2.438 6.022-3.661-.835 5.457-1.678 10.906-2.513 16.363a122 122 0 0 0-2.359 8.1c-.954 3.772-1.158 5.371-2.708 7.065-1.602 1.753-3.586 2.446-4.319 2.694a11.3 11.3 0 0 1-5.144.47 15.2 15.2 0 0 0 4.207-3.37c.588-.684 2.138-2.275 2.717-4.533z"/><path fill="#000" d="M345.557 104.975v.197s0 .034.025.034.017-.026.017-.034v-.197s0-.034-.025-.034-.017.026-.017.034M341.664 106.66c-1.806 1.891-2.802 4.217-3.756 6.629-.954 2.404-1.635 5.124-1.388 7.835s1.311 5.628.698 8.434c-.332 1.531-1.124 2.78-2.155 3.934-1.03 1.164-2.282 2.395-3.569 3.251-.059.034-.051.265.035.231 1.328-.539 2.487-.984 3.602-1.925.946-.795 1.789-1.642 2.462-2.686 1.559-2.446 1.099-5.705.511-8.382-.315-1.471-.69-2.942-.818-4.456-.128-1.608.298-3.208.784-4.73.869-2.703 1.754-5.877 3.594-8.083v-.06z"/><path fill="#000" d="M340.318 121.646c.145.419.23.453.273.453.357.026 1.064-1.454.732-2.908-.059-.248-.255-1.086-.545-1.095-.451 0-1.005 1.942-.46 3.541zM344.722 103.419c-1.337.693-2.726 1.625-3.1 3.079-.026.094-.043.197 0 .282.11.265.502.137.741-.026a12.4 12.4 0 0 1 5.357-2.018c.111-.017.4-2.558.375-2.78-.469-.077-1.142.402-1.559.59-.605.283-1.209.565-1.806.881v-.017z"/><path fill="#D5D4D4" d="M321.529 109.346c.204.154.486.163.741.154.545-.034 1.065-.205 1.593-.265 1.967-.231 3.901.898 5.885.736.273-.026.554-.069.792-.197.605-.317.826-1.035.912-1.685.221-1.737-.137-3.499-.545-5.209-.137-.548-.358-1.198-.937-1.36-.333-.094-.69 0-1.022.12a15.4 15.4 0 0 0-4.327 2.309c-1.082.83-2.462 1.95-3.058 3.156-.272.548-.639 1.779-.025 2.241z"/><path fill="#000" d="M321.061 107.926c1.184-1.018 2.197-2.327 3.56-3.019 1.107-.565 2.342-.685 3.543-.941.784-.163 1.585-.419 2.155-1.035.571-.616.818-1.685.349-2.395-.332-.505-.928-.71-1.49-.753-1.525-.111-2.956.753-4.216 1.702-1.261.95-2.453 2.044-3.347 3.439-.307.487-.639.966-.869 1.505-.162.419-.63 2.31.315 1.497"/><path fill="#D5D4D4" d="M305.363 2.625c-3.858 11.026-6.498 22.65-6.004 34.325s4.318 23.462 12.094 32.152a133 133 0 0 0-14.53 5.586 134 134 0 0 0-11.797 6.064 220.61 220.61 0 0 0-9.488-62.328c8.117-9.212 19.675-15.302 31.838-16.757"/><path fill="#000" d="M284.743 99.013c.741-.333 1.312-.89 1.934-1.437a52 52 0 0 1 3.219-2.6c3.117-2.36 6.465-4.43 10.008-6.098 4.599-2.173 9.505-3.678 14.556-4.328 5.936-.77 11.779-.3 17.622.906 4.659.958 8.952 2.96 13.176 5.055.034.017.034-.11 0-.128-3.466-2.472-7.333-4.097-11.336-5.483-5.588-1.924-11.464-2.711-17.367-2.266-9.386.701-18.38 4.388-25.85 10.076a49 49 0 0 0-3.892 3.301c-.826.779-1.593 1.54-2.155 2.515-.043.077-.094.573.102.487zM287.094 80.145c5.255-2.968 10.425-5.945 16.123-8.006 4.284-1.548 8.722-2.592 13.227-3.182a58 58 0 0 1 7.427-.513c2.751-.017 5.511.385 8.211.838 5.332.89 10.629 2.36 15.689 4.268.025 0 .025-.077 0-.094-4.182-2.36-8.611-4.106-13.313-5.038-5.212-1.026-10.732-1.197-16.021-.77-8.355.676-16.668 3.353-24.001 7.416-2.607 1.446-5.102 3.028-7.368 4.97-.025.025-.025.12.017.102z"/><path fill="#000" d="M275.528 18.715c.57 4.422 1.788 8.784 2.657 13.155.869 4.353 1.61 8.724 2.291 13.112a268 268 0 0 1 2.751 26.216c.486 8.767.545 17.56.162 26.336-.392 8.767-1.116 17.628.699 26.267.919 4.363 2.453 8.588 4.974 12.292 1.141 1.685 2.529 3.164 3.739 4.781.63.83 1.209 1.693 1.686 2.626.213.402.341.889.613 1.257.196.257.443.368.682.573.179.154.289-.308.298-.376.562-3.789-2.879-7.005-4.94-9.819-2.308-3.157-3.884-6.869-4.872-10.649-2.146-8.169-1.508-16.671-1.116-25.01.843-17.749 0-35.54-2.691-53.108-.733-4.816-1.644-9.597-2.675-14.361a182 182 0 0 0-1.652-7.108c-.605-2.352-1.141-4.68-2.104-6.86-.298-.667-.545.453-.511.693h.017z"/><path fill="#000" d="M295.603 126.282c-4.864-1.181-7.896-5.286-7.495-9.17.272-2.677 2.214-5.585 5.05-6.235 3.535-.813 7.913 1.993 9.037 7.014a666 666 0 0 1 4.208-.428 13.8 13.8 0 0 1-.426-5.012c.068-.65.255-2.669 1.286-4.585 2.359-4.396 6.03-3.584 7.827-7.244.477-.975.554-1.668.443-6.946-.085-3.9-.204-7.304-.306-10.084-6.542 1.06-16.371 3.73-25.501 11.085a51.6 51.6 0 0 0-5.511 5.158 65 65 0 0 0-.63 13.753c.102 1.626.971 14.088 5.826 20.854.204.282.698.958 1.593 2.206a265 265 0 0 1 5.135 7.45c.111-2.848.137-5.893.034-9.1-.093-3.08-.298-5.996-.562-8.725zM275.749 19.202c.877-.684 1.601-1.54 2.393-2.3a59 59 0 0 1 3.791-3.345c3.56-2.866 7.495-5.252 11.694-7.031 10.255-4.37 21.915-4.918 32.646-2.044a55 55 0 0 1 5.979 1.992c1.176.47 2.334 1.018 3.569 1.292.017 0 0-.051 0-.06-2.257-1.959-5.374-3.045-8.159-4.003-4.71-1.633-9.625-2.591-14.616-2.668-10.859-.163-21.574 3.447-30.228 9.999a46 46 0 0 0-4.582 3.951c-.971.967-1.976 1.933-2.725 3.088-.12.188-.111 1.394.238 1.12z"/><path fill="#000" d="M283.415 17.56c1.056 3.396 1.882 6.877 2.725 10.332a204 204 0 0 1 2.283 10.461c1.303 6.894 2.274 13.848 3.126 20.802.485 3.969.988 7.92 1.567 11.872 0 .06.051.034.042-.017-1.064-14.088-2.878-28.278-6.183-42.023-.937-3.917-2.189-7.698-3.518-11.496-.025-.085-.068.026-.051.069zM293.601 13.3c1.448 6.706 3.407 13.292 4.898 19.99s2.699 13.47 3.423 20.296c.409 3.884.614 7.784.852 11.684 0 .026.026.052.026 0 .306-6.817-.511-13.71-1.55-20.434-1.065-6.877-2.581-13.702-4.327-20.442-.971-3.772-1.959-7.553-3.22-11.23-.059-.163-.119.059-.102.127zM302.553 8.57c3.858 13.865 7.674 27.73 9.582 42.023.545 4.071 1.047 8.185 1.303 12.291 0 .026.025.026.025 0-.426-14.48-3.245-28.68-7.146-42.613-1.115-3.969-2.384-7.852-3.739-11.744-.017-.034-.025.017-.025.026zM311.973 7.407c4.991 12.693 8.176 25.96 9.667 39.508a144 144 0 0 1 .826 11.65c0 .034.026.034.026 0 .085-13.84-2.07-27.568-6.346-40.732-1.167-3.61-2.589-7.1-4.114-10.572-.042-.094-.076.086-.059.137zM317.509 152.044c-.818 1.318-1.209 3.003-1.584 4.491a42 42 0 0 0-.911 5.166c-.367 3.344-.486 6.749.536 9.965.034.119.094 0 .094-.06.102-3.105 0-6.244.34-9.332.162-1.565.426-3.113.776-4.653.349-1.54.851-3.105 1.158-4.67.025-.145-.111-1.403-.409-.924zM291.753 158.023c.502 4.08 3.296 7.621 6.566 9.931 3.859 2.737 8.628 3.875 13.27 4.277l-.502-1.044c1.703 21.135 2.657 42.271 2.581 63.483-.026 5.979-.086 11.958 0 17.937 0 .248.221.402.255.068.928-10.572.928-21.255.784-31.861a636 636 0 0 0-1.244-32.11 499 499 0 0 0-1.456-17.825c-.026-.256-.162-.744-.486-.77-4.386-.308-8.815-1.266-12.58-3.652-3.338-2.113-5.57-5.149-6.933-8.818-.136-.377-.289.256-.272.384z"/><path fill="#000" d="M286.821 170.041c.954 2.138 2.087 4.182 3.62 5.962s3.211 3.164 5.085 4.396c3.73 2.438 8.211 4.165 12.699 3.421.068-.017.06-.205 0-.214-4.276-1.034-8.56-2.172-12.324-4.524-1.866-1.164-3.552-2.575-5.085-4.132s-2.896-3.113-3.969-4.926c-.017-.026-.026.025-.017.034zM311.658 178.354c.494.069.698-.196 1.013-.59.375-.47.69-.983 1.014-1.497a23.6 23.6 0 0 0 1.661-3.276c.928-2.258 1.558-4.687 1.729-7.133.017-.205.025-.813-.247-.89-.281-.077-.358.317-.375.522-.29 2.292-.809 4.516-1.695 6.655a25 25 0 0 1-1.542 3.079c-.298.504-.63.983-.937 1.48-.332.521-.494.975-.638 1.582 0 .026 0 .068.025.068zM314.869 183.469c1.048-.453 2.044-.923 2.964-1.608a12.3 12.3 0 0 0 2.385-2.369 14.6 14.6 0 0 0 1.771-2.874c.528-1.137.767-2.352.988-3.584 0-.043-.025-.162-.059-.068-.298 1.009-.826 1.95-1.295 2.882a17.5 17.5 0 0 1-1.771 2.814c-1.372 1.754-3.092 3.473-5.009 4.602-.051.026-.042.24.026.214zM310.218 154.61c2.223 2.087 5.153 2.207 6.252 2.207l1.38-4.268a15.9 15.9 0 0 1-5.239-4.345 16.2 16.2 0 0 1-3.117-6.886c-2.87 4.859-2.359 10.41.724 13.309zM255.912 177.653c.35-.025.665-.085 1.005-.137.358-.051.639-.025 1.005-.042.545-.026 1.142-.171 1.67-.308 1.26-.334 2.512-.796 3.747-1.223 2.53-.864 5.06-1.771 7.581-2.686 4.471-1.642 9.062-3.233 13.176-5.671 3.867-2.292 6.975-5.44 9.071-9.426 2.163-4.105 3.219-8.69 3.62-13.292.264-2.985.195-5.962.017-8.955-.179-2.985-.426-6.116-1.065-9.075-.06-.265-.204-.582-.494-.479s-.298.821-.29 1.035c.051 2.608.358 5.226.562 7.835.188 2.463.239 4.952.128 7.424-.196 4.388-1.09 8.741-3.015 12.702-1.925 3.96-4.94 7.15-8.636 9.528-3.688 2.386-8.049 4.2-12.214 5.945a239 239 0 0 1-7.853 3.139c-1.32.496-2.64.992-3.952 1.488-.664.257-1.346.53-1.959.898-.281.163-.502.402-.784.565-.417.239-.877.402-1.303.641-.025.017-.025.094 0 .094zM333.453 257.901c-.732-.214-1.218-.376-1.993-.214a2.97 2.97 0 0 0-1.499.804c-.656.676-.877 1.626-.69 2.541.417 2.095 2.683 3.772 4.259 5.021 4.114 3.284 8.968 6.406 14.053 7.911.886.266 1.797.514 2.717.651.486.068 1.167.179 1.584-.163 1.465-1.24-1.396-3.763-2.086-4.491-2.343-2.489-5.077-4.379-7.913-6.235-1.618-1.061-3.236-2.104-4.863-3.156a44 44 0 0 1-1.951-1.334c-.264-.189-.528-.454-.817-.591-.247-.119-.205.548-.111.642.307.342.784.59 1.158.847.886.607 1.763 1.223 2.641 1.839a221 221 0 0 1 6.098 4.422 42.5 42.5 0 0 0 9.539 5.423c1.184.479 2.394.898 3.637 1.197.46.111 1.099.368 1.508.017.375-.316.392-.932.323-1.385-.221-1.412-1.379-2.772-2.257-3.832-2.427-2.943-5.374-5.457-8.304-7.878-2.521-2.087-5.136-4.02-7.734-6.022-.264-.213-.4.898-.11 1.129 4.957 4.055 10.237 8.16 14.717 13.061a28 28 0 0 1 1.772 2.122c.239.325.46.65.664 1 .086.154.162.317.256.471.162.248.051.445.153.111l.247-.393c-.426.29-1.235-.052-1.678-.163a26 26 0 0 1-1.771-.547c-1.065-.368-2.095-.813-3.109-1.283a62 62 0 0 1-5.417-2.891c-2.768-1.643-5.306-3.636-8.015-5.372-.834-.539-1.729-.966-2.58-1.471-.477-.282-1.278-.684-1.61-1.009l-.111.641c.588.214 1.192.719 1.704 1.069 1.2.821 2.367 1.685 3.551 2.532 1.848 1.317 3.748 2.609 5.528 4.012s3.449 3.062 4.965 4.781c.333.376.673.761.98 1.155.145.171.272.419.434.573l.085.145c.12.282.154.12.12-.496 0 0-.418.086-.452.086-.332.017-.681-.052-1.013-.12-1.908-.368-3.782-1.283-5.553-2.07a46 46 0 0 1-5.699-3.019c-2.384-1.497-4.803-3.028-6.916-4.902-.681-.598-1.916-1.522-2.069-2.471-.119-.787.8-1.36 1.397-1.651.689-.334 1.49-.573 2.206-.847.051-.026.051-.197 0-.214z"/><path fill="#000" d="M339.629 252.042c1.098-1.257 2.41-1.642 4.003-1.018 1.456.565 2.776 1.634 3.986 2.592 2.529 2.027 4.769 4.439 6.984 6.8 2.061 2.206 4.173 4.619 5.153 7.527.076.231.366.821.281 1.069-.17.487-.69.214-.988.06-.375-.214-.724-.496-1.09-.719-1.261-.778-2.658-1.257-3.927-1.993-.085-.051-.085.214-.025.257 1.252.975 2.35 2.113 3.611 3.071.596.453 1.678 1.548 2.513 1.137.902-.453.8-1.993.613-2.797-.341-1.462-1.048-2.899-1.848-4.157-1.602-2.514-3.697-4.644-5.767-6.765-2.189-2.233-4.548-4.388-7.163-6.108-1.26-.829-2.81-1.813-4.403-1.454-1.175.266-2.061 1.121-2.044 2.361 0 .051.042.231.119.146z"/><path fill="#000" d="M344.619 248.937c.75-.163 1.397-.453 2.198-.351 1.081.137 2.087.702 2.981 1.3 1.831 1.224 3.492 2.806 5.076 4.337a60 60 0 0 1 4.514 4.867c1.414 1.711 2.896 3.55 3.637 5.688l.315-1.24c-1.056.077-1.959-.582-2.819-1.104a60 60 0 0 1-2.581-1.651c-1.626-1.086-3.108-2.412-4.897-3.207-.119-.06-.085.265-.051.308 1.346 1.822 3.1 3.139 4.94 4.439a41 41 0 0 0 2.717 1.762c.86.522 1.72 1.112 2.751 1.086.477 0 .4-.975.315-1.24-.715-2.258-2.291-4.131-3.79-5.91-1.635-1.933-3.339-3.781-5.196-5.5-1.678-1.557-3.475-3.302-5.536-4.345-1.354-.693-4.012-1.377-4.582.598 0 .026 0 .163.042.154h-.025zM341.017 193.451c-.137 1.745-.026 3.524.025 5.278.051 1.864.119 3.72.171 5.585.119 3.661.229 7.322.357 10.983.264 7.381.588 14.763.92 22.136.188 4.157.281 8.322.75 12.453.11.976.707.488.732-.239.085-3.669-.145-7.322-.306-10.983-.162-3.66-.333-7.321-.503-10.982-.349-7.322-.707-14.644-1.141-21.957-.12-2.104-.247-4.199-.367-6.295-.119-1.984-.144-4.02-.485-5.987-.026-.163-.145-.163-.162 0v.017z"/><path fill="#000" d="M344.066 195.607c-.136 1.129.128 2.352.213 3.472.076 1.121.068 2.336-.162 3.473a9.6 9.6 0 0 1-1.056 2.789c-.239.427-.528.821-.784 1.24-.34.547-.545 1.095-.792 1.685-.017.025-.025.205.043.197.477-.069.673-.095 1.039-.479.366-.385.656-.89.911-1.369.571-1.069.98-2.224 1.21-3.413.247-1.343.272-2.703.161-4.063a16 16 0 0 0-.264-2.018c-.102-.496-.178-1.121-.46-1.557-.025-.043-.051.034-.051.051zM346.221 290.173c-.366.316-.315 1.069-.349 1.497-.068.923-.12 1.864-.154 2.788-.076 1.95-.127 3.909-.161 5.868-.026 1.958-.094 3.815-.094 5.722 0 .949.06 1.907.094 2.857.025.77.161 1.385.332 2.104.042.188.179.162.221 0 .154-.556.307-1.044.358-1.677.06-.923.128-1.856.17-2.779.077-1.968.043-3.926.068-5.894s.026-3.815 0-5.722c-.017-.949-.051-1.907-.076-2.857-.026-.564.068-1.403-.307-1.873-.025-.026-.068-.06-.102-.026z"/><path fill="#000" d="M316.555 166.183c6.465 5.398 14.497 9.024 22.554 11.274 3.705 1.035 7.546 1.625 11.149 2.968 3.611 1.351 6.737 3.678 8.739 7.15 2.146 3.73 3.304 8.023 4.088 12.223.818 4.345 1.226 8.75 1.661 13.138.92 9.383 1.712 18.775 2.444 28.175.733 9.4 1.627 18.706 1.959 28.081.162 4.559.128 9.143-.443 13.676-.23 1.865-.715 3.704-2.274 4.884-1.328 1.01-2.964 1.403-4.599 1.574-1.814.188-3.637.077-5.46 0-2.325-.119-4.65-.256-6.975-.402q-6.45-.438-12.887-1.069c-7.291-.701-14.564-1.616-21.838-2.446-4.659-.539-9.292-1.129-13.917-1.873-3.211-.514-6.405-1.112-9.608-1.634-.698-.12-1.38-.257-2.086-.231-.529.017-1.21.145-1.721.051-.128-.025-.153.445.017.471.622.119 1.278.547 1.865.778.75.299 1.576.419 2.36.59 1.916.428 3.832.83 5.749 1.249.596.128 1.192.257 1.788.368 4.106.83 8.237 1.582 12.359 2.309 6.984 1.249 14.011 2.207 21.072 2.96 4.386.47 8.789.881 13.193 1.231 4.403.351 8.943.762 13.415.864 3.236.069 7.026-.316 9.096-3.156 1.235-1.685 1.61-3.823 1.857-5.85.289-2.412.434-4.842.494-7.279.264-9.563-.784-19.168-1.508-28.688s-1.499-19.357-2.385-29.013c-.434-4.713-.86-9.426-1.456-14.122-.596-4.687-1.371-8.964-2.879-13.232-1.32-3.746-3.117-7.484-6.183-10.102-3.067-2.625-6.738-3.566-10.434-4.447-4.114-.984-8.194-1.925-12.171-3.396a77 77 0 0 1-11.516-5.354 260 260 0 0 1-5.374-3.157c-.451-.265-.46 1.198-.145 1.454l-.017-.017z"/><path fill="#000" d="M283.381 298.786c3.202-.162 6.413-.829 9.547-1.488s6.329-1.42 9.472-2.215c6.209-1.574 12.494-3.276 18.371-5.868.06-.026.043-.274-.025-.265-6.252 1.309-12.376 3.25-18.551 4.875-3.092.813-6.192 1.557-9.301 2.301-3.108.736-6.422 1.437-9.53 2.472-.052.017-.052.18 0 .18h.017zM282.239 259.406c1.252.796 2.504 1.018 3.961 1.198 1.601.196 3.211.342 4.812.479 3.22.273 6.448.53 9.667.77 6.448.487 12.887.881 19.351 1.206 1.857.094 3.705.171 5.562.248 1.857.068 3.833.35 5.545-.308.059-.026.068-.223 0-.248-1.397-.633-3.007-.642-4.506-.71-1.618-.077-3.228-.163-4.846-.231a1233 1233 0 0 1-9.676-.479c-6.447-.351-12.886-.693-19.334-1.112a571 571 0 0 0-5.545-.342c-1.66-.094-3.372-.111-4.991-.488v.026zM309.435 141.37c.732 3.062 1.993 5.876 3.977 8.339 2.087 2.592 4.83 4.696 7.802 6.15 2.027.992 4.531 1.967 6.831 1.591 1.439-.239 2.734-.992 3.841-1.924 3.194-2.729 5.23-6.723 6.908-10.513 2.393-5.422 4.097-11.145 5.519-16.892 3.109-12.6 4.906-25.618 5.528-38.576.536-11.145.068-22.299-1.269-33.375-1.764-14.61-5.187-28.902-10.034-42.776-.656-1.882-1.371-3.755-2.069-5.628-.128-.342-.358-.248-.494.017-.179.342-.094.864.025 1.215 4.863 13.976 8.381 28.568 10.485 43.22a199 199 0 0 1 1.959 32.896c-.119 4.961-.486 10.333-1.022 15.482a203 203 0 0 1-3.066 19.869c-1.218 5.911-2.7 11.787-4.668 17.483-1.533 4.405-3.322 8.922-6.107 12.702-1.882 2.558-4.378 4.773-7.742 4.379-2.853-.342-5.604-1.736-7.955-3.335-2.802-1.916-5.11-4.457-6.814-7.39a24.5 24.5 0 0 1-1.533-3.063c-.06-.145-.111.12-.094.171l-.017-.025zM270.784 266.301c1.226 1.667 2.257 3.498 3.432 5.209a38 38 0 0 1 2.964 5.097c1.593 3.311 2.717 6.971 2.836 10.666.23 7.219-3.875 13.378-6.754 19.69-1.678 3.687-3.322 7.63-3.143 11.761.017.402.392 1.018.58.325.945-3.498 2.112-6.817 3.807-10.041s3.637-6.578 5.025-10.093c1.473-3.738 2.283-7.664 2.053-11.693s-1.304-7.903-3.041-11.521a38 38 0 0 0-3.296-5.56 22.6 22.6 0 0 0-2.027-2.463c-.733-.779-1.559-1.258-2.343-1.899-.153-.12-.144.427-.085.504z"/><path fill="#000" d="M216.725 158.724c5.859 3.567 12.086 6.339 18.312 9.195 4.812 2.207 9.565 4.585 14.351 6.86 3.475 1.642 7.163 3.114 10.4 5.209 3.926 2.541 6.677 6.355 7.844 10.906.034.145.068.299.111.445.017.068.034.153.051.23.085.377-.026-.162 0 .018.085.402.162.804.247 1.214.204 1.078.383 2.164.554 3.242.494 3.062.911 6.141 1.32 9.212 1.235 9.349 2.316 18.715 3.339 28.089.664 6.099 1.303 12.197 1.907 18.313.324 3.31.69 6.629 1.023 9.939.178 1.753.383 3.498.562 5.252.179 1.745.281 3.575.621 5.328.341 1.754.648 3.405.844 5.141.034.299.264.171.247-.077-.137-1.839-.137-3.678-.145-5.534 0-1.847-.256-3.609-.418-5.397-.332-3.541-.638-7.082-.97-10.615-.588-6.355-1.278-12.71-1.959-19.065-1.065-9.982-2.138-19.972-3.416-29.92-.707-5.534-1.346-11.137-2.555-16.585-.826-3.738-2.598-7.407-5.281-10.161-3.066-3.148-6.958-4.748-10.868-6.51-4.471-2.01-8.926-4.02-13.448-5.901-5.886-2.447-11.627-5.201-17.631-7.365a65 65 0 0 0-5.051-1.574c-.051-.017-.051.12-.017.137h.026zM37.232 99.227c.545 1.403 1.9 1.754 3.39 2.618 3.9 2.258 5.246 5.961 5.826 5.628.306-.171-.017-1.232-.264-2.07-.46-1.557-1.474-4.807-4.676-7.117-.537-.384-3.084-2.223-4.089-1.436-.553.436-.502 1.573-.195 2.369zM23.502 101.254c.162.12.384.257.554.146.162-.103.145-.317.102-.496-.383-1.617-1.363-3.062-2.564-4.251-1.2-1.198-2.614-2.181-4.011-3.156.042.778-.188 1.53-.366 2.283-.12.522-.452 1.283.119 1.608 1.346.762 2.708 1.446 3.994 2.31a36 36 0 0 1 2.164 1.565z"/><path fill="#000" d="M60.357 118.908c1.737-7.621-2.76-16.174-10.008-19.048q1.584-6.302 3.168-12.616c-7.078-3.07-15.484-2.917-22.443.427-.69.334-1.414.702-2.18.668-.588-.026-1.124-.3-1.652-.556-2.948-1.48-5.895-2.96-8.756-4.585-3.152-1.796-6.567-4.388-6.61-8.023-.042-3.823 3.62-6.518 6.959-8.34a114 114 0 0 1 19.888-8.527c3.287-1.052 6.728-1.968 10.152-1.583 2.87.317 5.562 1.54 8.202 2.729 7.887 3.584 15.808 7.185 23.108 11.855 1.039.667 2.095 1.377 2.768 2.395.75 1.129.97 2.523 1.158 3.866 2.47 18.03.358 37.233-9.216 52.697-2.103 3.405-4.582 6.646-5.919 10.427q.142-5.632.273-11.265c.69-.128 5.016-.992 7.503-5.115 0 0 2.717-4.285.946-9.289-.281-.795-.665-1.582-1.252-2.181-1.159-1.189-3.016-1.514-4.617-1.086-1.984.522-3.185 1.779-4.037 2.788-1.635 1.925-2.197 4.012-2.419 5.278M287.477 340.963c1.772-.513 3.594-.89 5.366-1.445 1.772-.556 3.432-1.164 5.136-1.788a188 188 0 0 0 11.771-4.807c8.534-3.824 16.77-8.4 24.615-13.506 4.096-2.669 7.98-5.628 11.983-8.442.349-.248.068-1.497-.17-1.309-3.296 2.746-6.865 5.166-10.451 7.527-3.952 2.6-7.98 5.098-12.111 7.416a197.5 197.5 0 0 1-23.866 11.367c-2.061.822-4.13 1.591-6.209 2.353-2.078.761-4.02 1.65-6.081 2.343-.085.026-.068.308 0 .282h.017zM5.804 309.29c4.812 4.105 10.288 7.484 15.68 10.786a263 263 0 0 0 18.993 10.614c13.449 6.817 27.588 12.548 42.033 16.842 6.712 1.993 13.432 4.123 20.373 5.218.136.025.145-.326.026-.36-2.871-.872-5.792-1.565-8.67-2.42-3.093-.924-6.252-1.651-9.327-2.618a287 287 0 0 1-20.058-7.108 280 280 0 0 1-40.84-20.297 325 325 0 0 1-9.37-5.901c-2.878-1.874-5.698-3.858-8.679-5.577-.28-.163-.306.693-.144.829h-.017z"/><path fill="#D5D4D4" d="M258.748 330.279a29.1 29.1 0 0 1-6.234-6.868c-.579-.881-1.116-1.856-1.159-2.908-.042-1.428.844-2.694 1.781-3.772 1.959-2.241 4.752-4.884 7.614-5.868a22.6 22.6 0 0 0-3.202 9.349 22.6 22.6 0 0 0 1.192 10.067z"/><path fill="#000" d="M257.786 329.612c-1.124-1.813-2.777-3.284-3.977-5.055-.622-.915-1.159-1.89-1.517-2.942-.442-1.291-.451-2.326.341-3.464 1.158-1.659 2.768-3.045 4.301-4.345a40 40 0 0 1 5.358-3.781c.034-.025.034-.205-.017-.188-1.116.248-2.274.479-3.305.992a21.4 21.4 0 0 0-2.981 1.788c-1.865 1.351-3.995 3.293-4.633 5.585-.639 2.293.315 4.67 1.516 6.603.647 1.044 1.422 1.993 2.248 2.883.724.778 1.653 1.779 2.606 2.258.137.069.086-.282.06-.334"/><path fill="#D5D4D4" d="M264.796 323.813c.076-1.009.187-2.036.639-2.942.161-.334.4-.676.775-.753.519-.111.971.359 1.26.796 1.491 2.164 2.266 4.721 3.032 7.236.784 2.583.997 3.917 1.014 4.037.451 2.994.162 5.5-.145 7.133-2.061-2.069-4.139-4.148-6.2-6.218a35 35 0 0 1-.494-4.627c-.12-2.523-.086-1.737.127-4.653z"/><path fill="#000" d="M255.998 321.598c.545 2.327 1.354 4.559 1.66 6.945a18 18 0 0 1-.025 4.739c-.281 2.01-.988 3.926-.963 5.987.026 2.164.818 4.26 2.121 5.971.877 1.154 2.462 2.737 4.063 2.181 1.209-.419 1.891-1.643 2.325-2.78.971-2.592 1.21-5.509.716-8.22-.341-1.83-.741-3.584-.827-5.466-.119-2.574.264-5.072.418-7.621 0-.085-.102-.496-.205-.248-.732 1.797-.919 3.875-.971 5.808a25.3 25.3 0 0 0 .333 4.747c.289 1.685.826 3.345.834 5.064 0 1.078-.17 2.155-.434 3.19s-.69 2.446-1.644 3.148c-1.337.975-3.041-.496-3.858-1.488-1.397-1.694-2.01-3.627-1.636-5.808.29-1.66.69-3.276.776-4.97a22.6 22.6 0 0 0-.401-5.363c-.4-2.035-.945-4.336-2.163-6.055-.085-.12-.102.188-.094.222l-.017.017zM267.785 326.003c.085 1.754.375 3.49.409 5.252.026.924-.026 1.83-.111 2.746-.076.829-.426 1.873-.042 2.643.042.077.11.179.213.179h.059c.29.017.358-.513.392-.693.273-1.83.349-3.669.204-5.508-.119-1.531-.298-3.293-1.115-4.627z"/><path fill="#D5D4D4" d="M184.487 200.2c-.29-.103.025-.522.315-.625a41 41 0 0 1 5.059-1.36c-1.397-1.283-2.206-3.07-2.972-4.815-.878-1.993-1.772-4.012-2.13-6.159s-.136-4.482 1.065-6.295a14.6 14.6 0 0 1-4.037-1.548c-1.431 1.762-2.956 3.481-4.31 5.294-1.346 1.822-.945 2.601.281 4.397a120 120 0 0 1 3.535 5.448c.374.616 2.751 5.654 3.194 5.654z"/><path fill="#000" d="M168.108 165.071c.92 1.471 2.189 2.763 3.339 4.063 1.073 1.214 2.189 2.403 3.287 3.601 2.232 2.429 4.48 4.832 6.72 7.253.384.411.878 1.215 1.38 1.428.273.12.818.026 1.107.035.401 0 .818.025 1.218.025l2.274.052c.384 0 .835.077 1.218.025.409-.06.426-.188.682-.581 1.763-2.754 3.526-5.5 5.281-8.254 1.984-3.114 3.96-6.219 5.945-9.332.272-.428.298-1.052.144-1.531-.076-.265-.417-.83-.698-.385-3.373 5.389-6.737 10.769-10.102 16.166-.323.522-.775 1.634-1.303 1.916s-1.635.068-2.257.06c-.758 0-1.516-.017-2.265-.026-.358 0-.733.051-1.065-.077-.4-.162-.741-.676-1.048-1.001-2.154-2.335-4.309-4.67-6.473-6.996-1.175-1.266-2.35-2.541-3.551-3.781-1.133-1.18-2.292-2.626-3.68-3.498-.306-.197-.213.718-.136.829zM175.016 185.368c.937 2.9 2.648 5.389 4.267 7.955 1.618 2.558 3.236 5.089 4.855 7.621.093.146.289.205.434.12a9.02 9.02 0 0 1 7.87-.77c.468.171.656-.556.673-.889a81.5 81.5 0 0 1 2.342-15.645c.111-.427.145-1.291-.23-1.616s-.622.051-.724.445a78.7 78.7 0 0 0-2.495 16.174l.672-.889c-2.81-1.053-5.894-.779-8.457.804l.434.119a1286 1286 0 0 0-4.787-7.364c-.783-1.189-1.533-2.387-2.359-3.541-.707-.992-1.397-1.968-2.453-2.618-.034-.025-.034.077-.025.094z"/><path fill="#000" d="M169.36 164.421c-.051.248-.23 1.035.094 1.882.162.445.494.804.8 1.155a106 106 0 0 0 13.202 12.385 334 334 0 0 0-12.384 14.686c-3.075-5.91-7.461-11.136-9.744-17.406-.758-2.07-2.81-8.177-.894-15.542 1.72-6.628 5.749-10.76 7.665-12.479.622 2.746.869 5.012.971 6.62.341 5.098.511 7.647.299 8.682v.017zM108.802 187.447c2.573 1.813 5.298 3.584 7.589 5.756 2.104 1.993 3.944 4.328 5.434 6.817 3.152 5.252 4.753 11.205 5.818 17.201.306 1.771.57 3.541.826 5.329.255 1.779.622 3.456 1.005 5.192.051.214.17 0 .17-.111-.17-6.68-1.235-13.532-3.381-19.878-1.84-5.432-4.497-10.803-8.705-14.781-2.615-2.472-5.562-4.362-8.704-6.073-.162-.094-.188.454-.052.548M254.047 289.891c.29-3.413 2.709-6.766 5.23-8.921 1.218-1.044 2.572-1.882 4.011-2.583 1.44-.693 3.067-1.489 4.685-1.899.042-.017.042-.163 0-.163-1.772 0-3.407.154-5.042.915a17 17 0 0 0-4.378 2.96c-2.59 2.403-4.949 5.927-4.804 9.597.017.291.264.487.298.077z"/><path fill="#fff" d="M33.288 255.241c3.19 0 5.775-2.596 5.775-5.799s-2.585-5.799-5.775-5.799c-3.189 0-5.774 2.596-5.774 5.799s2.585 5.799 5.774 5.799"/><path fill="#000" d="M334.39 257.422c.103-.12.06-.308.06-.453 0-.368.034-.685.119-1.035.145-.642.452-1.155.997-1.523a3.3 3.3 0 0 1 2.623-.453c1.031.265 2.002.889 2.879 1.471.485.316.996.556 1.473.89.264.188.528.367.801.538.255.154.562.385.86.42.034 0 .026-.086.017-.103-.358-.778-1.013-1.411-1.635-1.976-.528-.47-.997-.924-1.593-1.309-.928-.598-1.959-1.231-3.058-1.437-1.013-.188-2.137.112-2.887.83-1.116 1.069-.962 2.583-.749 3.977 0 .035.025.12.068.137l.025.017h.026zM307.484 211.739a3.39 3.39 0 0 0 3.382-3.396 3.39 3.39 0 0 0-3.382-3.396 3.39 3.39 0 0 0-3.381 3.396 3.39 3.39 0 0 0 3.381 3.396M307.484 236.723a3.39 3.39 0 0 0 3.382-3.396 3.39 3.39 0 0 0-3.382-3.395 3.39 3.39 0 0 0-3.381 3.395 3.39 3.39 0 0 0 3.381 3.396"/><path fill="#C42031" d="M52.835 274.409c-.213 1.702-.068 3.439.069 5.149.127 1.574.263 3.148.391 4.722-4.14.291-8.27.581-12.41.881-.093-1.728-.178-3.447-.272-5.166l-.128-2.524c-.034-.693-.298-1.257.494-1.026 2.65.77 5.187.958 7.879.103a13.3 13.3 0 0 0 2.138-.899c.298-.162 1.814-.872 1.848-1.214z"/><path fill="#000" d="M40.758 286.042c3.637.41 7.29-.069 10.936-.188 3.645-.12 7.29-.189 10.936-.086 3.629.103 7.308.291 10.91.642 3.612.35 6.9.624 10.366.547a64 64 0 0 0 5.12-.316c1.251-.12 2.665-.137 3.807-.702.34-.162.272-1.351-.111-1.445-1.082-.231-2.266.068-3.356.188-1.465.154-2.93.265-4.395.325-3.484.137-6.967-.094-10.434-.454-3.466-.359-6.992-.949-10.535-1.12-3.544-.163-7.308-.214-10.928.026-4.122.265-8.33.239-12.35 1.274-.35.086-.34 1.257.026 1.309zM50.68 263.572c0 1.591.307 3.225.503 4.798.196 1.574.4 3.276.588 4.919.358 3.207.605 6.44 1.26 9.596.018.069.069.069.069 0 .187-3.327-.145-6.654-.537-9.964a168 168 0 0 0-.656-5.072c-.221-1.523-.357-3.208-.877-4.662-.162-.453-.35.231-.358.385z"/><path fill="#000" d="M39.02 264c-.443 1.428.017 3.139.162 4.61.18 1.779.383 3.558.545 5.346.162 1.779.307 3.567.4 5.354.103 1.788-.042 3.824.29 5.628.034.206.12.685.358.762l.077.119c.025.06.068.06.102 0l.085-.119c.247-.086.307-.582.324-.779.221-1.693-.034-3.566-.128-5.277a174 174 0 0 0-.358-5.141c-.145-1.71-.315-3.412-.545-5.115-.221-1.702-.35-3.455-.894-5.003-.051-.154-.12-.351-.298-.368l-.077-.06s-.051.034-.06.06V264z"/><path fill="#fff" d="M185.202 285.187c-7.325 0-13.279-5.988-13.279-13.335s5.962-13.335 13.279-13.335c7.316 0 13.278 5.987 13.278 13.335a1.22 1.22 0 0 1-1.218 1.223 1.22 1.22 0 0 1-1.218-1.223c0-6.005-4.863-10.889-10.842-10.889s-10.843 4.884-10.843 10.889 4.864 10.888 10.843 10.888a1.22 1.22 0 0 1 1.218 1.223 1.22 1.22 0 0 1-1.218 1.224"/><path fill="#fff" d="M199.817 285.186c-6.166 0-11.183-5.037-11.183-11.23a1.22 1.22 0 0 1 1.218-1.223 1.22 1.22 0 0 1 1.218 1.223c0 4.841 3.918 8.776 8.739 8.776s8.739-3.935 8.739-8.776-3.918-8.776-8.739-8.776a1.22 1.22 0 0 1-1.218-1.223 1.22 1.22 0 0 1 1.218-1.223c6.166 0 11.183 5.038 11.183 11.23s-5.017 11.231-11.183 11.231"/></svg>