<svg xmlns="http://www.w3.org/2000/svg" width="381" height="351" fill="none" viewBox="0 0 381 351"><path fill="#16A44A" d="M110.186 69.733c-4.072-16.507-21.338-26.323-38.56-21.929S43.741 69.141 47.813 85.65c4.073 16.507 21.339 26.323 38.562 21.929s27.883-21.337 23.81-37.845"/><path fill="#16A44A" d="M118.657 209.625a340.8 340.8 0 0 0-15.94-62.619 339 339 0 0 0-17.839-41.004c2.687-.617 5.365-1.235 8.051-1.862a380 380 0 0 1 11.961 34.503c7.675 26.097 11.722 50.193 13.758 70.982zM19.238 109.727c13.168-3.707 26.635 3.516 30.065 16.142 1.121 4.108 1.036 8.276-.042 12.166a108 108 0 0 1 10.925 7.64c14.836 11.808 23.777 25.322 28.953 34.999-4.902-8.058-13.826-20.215-28.67-30.056a91 91 0 0 0-13.356-7.319c-3.14 5.674-8.564 10.208-15.434 12.139-13.168 3.707-26.635-3.515-30.066-16.142-3.439-12.617 4.45-25.862 17.617-29.569zM134.314 55.566c-12.389 10.538-14.511 28.708-4.749 40.578 9.763 11.869 27.721 12.957 40.11 2.419s14.511-28.708 4.749-40.577-27.721-12.958-40.11-2.42"/><path fill="#16A44A" d="M153.017 177.202c-4.21-10.303-9.378-26.898-8.975-47.591a117.7 117.7 0 0 1 3.559-26.549c1.985.226 3.978.443 5.963.67a116 116 0 0 0-5.766 27.202c-1.763 19.84 1.967 36.104 5.219 46.268"/><path fill="#fff" fill-rule="evenodd" d="M380.199 164.401c-.154-3.655-1.266-7.605-8.299-9.241-8.667-2.037-27.387-5.265-39.28-6.762-3.85-.478-5.792-.687-6.913-.731-.325-.008-.83-.034-1.386.053a38 38 0 0 1-1.343-.714 140 140 0 0 0-3.944-2.097c-.642-.313-4.355-2.324-8.376-4.543-6.554-3.585-10.216-5.464-12.244-6.265-2.524-4.534-6.494-11.304-7.828-13.227-2.156-3.124-4.8-5.325-7.632-6.344-.582-.217-1.206-.4-1.814-.53-.085-.549-.18-1.14-.274-1.767-.889-5.674-.676-7.475 1.617-13.74l.017-.044c.522-1.462 1.626-4.09 2.388-5.77 1.933-4.228 2.6-5.83 5.116-12.251a871 871 0 0 1 3.653-9.207c2.028-4.995 2.618-6.718 3.157-9.224.154-.722.633-2.35 1.044-3.49 1.506-4.264 1.728-6.474 1.052-10.242-.701-4.02-2.523-7.388-5.424-10.016-.214-.191-.83-.748-1.035-.992a7 7 0 0 1-.12-.583c-.53-2.915-1.805-5.317-3.97-7.466.111-.461.137-.94.069-1.418-.24-1.645-1.378-2.55-2.422-3.272-.436-.296-1.283-.853-2.164-1.227-.471-.2-1.044-.392-1.6-.54-.111-.73-.274-1.636-.514-2.297-.222-.6-1.788-4.499-4.491-5.517-.89-1.427-2.139-3.09-3.594-4.081-.385-.287-1.42-1.158-2.25-1.95-2.353-2.253-3.439-2.958-6.596-3.663l-.488-.104c-1.446-1.871-3.363-3.029-6.237-3.777a22 22 0 0 0-4.603-.705c-2.695-.113-5.519.279-9.121 1.27-3.379.906-4.748 1.271-8.718 2.22-2.344.574-6.622 1.635-9.651 2.393-2.387.609-4.654 1.174-5.69 1.435l-.53.13c-9.839 2.472-16.222 6.17-20.089 11.627-2.199 3.124-3.166 5.586-3.423 8.771-.248 2.837.018 4.43 1.258 7.423.976 2.367 3.414 6.344 5.322 8.685l.513.635c.009.774.137 1.418.342 1.94-.051.366-.119.783-.179 1.192-.531 3.342-1.292 17.404-1.138 20.894.06 1.218.145 3.498.197 5.047.299 9.31 2.344 21.146 4.979 28.786 2.738 7.892 7.906 17.021 12.842 22.721 2.302 2.662 4.107 4.22 6.22 5.273-.77.27-1.651.574-2.643.931-3.209 1.131-8.462 3.089-11.696 4.334-11.028 4.272-16.65 6.013-17.711 6.134-5.698.462-9.214 5.387-12.739 12.653-5.322 10.947-9.617 28.977-8.984 37.305-.898.653-1.625 1.558-1.933 2.541-.608 1.906-.471 6.709-.137 8.38q.012.091.051.235c-.975 2.393-3.337 9.015-4.723 13.236l-.368 1.105c-.778 2.341-1.745 5.256-2.275 6.77-2.678 7.753-3.731 10.964-4.749 14.68-1.711.54-2.935 1.201-4.406 2.584-1.215 1.14-1.882 2.054-2.652 3.42-.351-.252-.736-.53-1.155-.844-2.516-1.888-3.774-2.837-5.622-2.915-2.678-.113-4.894 1.732-5.655 4.717a11.6 11.6 0 0 0 .111 6.143c-.967-1.967-2.703-5.795-5.809-13.227-2.892-6.909-3.91-8.893-6.118-10.738l-.025-.026c-2.173-1.784-4.03-2.428-10.293-4.081-2.96-.766-6.896-1.81-8.761-2.315-2.969-.783-4.338-1.131-5.553-1.175-1.429-.061-2.404.322-3.268.714-1.532.661-2.421 1.392-3.363 2.767-2.301 3.22-1.728 6.631-1.095 8.919l.017.053c.326 1.114 2.08 5.351 2.978 7.466a591 591 0 0 1 2.353 5.517q-.231.522-.41 1.175l-.018.052c-.847 3.254.257 6.718 2.772 11.426a5 5 0 0 0-.214 1.322c0 .261-.017.653-.026 1.201-.042 2.141.052 2.941.805 4.899.813 2.08 2.618 5.526 4.004 7.467q-1.002-.327-2.105-.679c-7.255-2.332-8.992-2.802-12.457-2.95-2.182-.122-5.681.478-7.658 1.079-.633.191-3.165.844-5.723 1.471-1.712.4-3.936.948-5.81 1.4-.607.148-1.172.288-1.677.409a53 53 0 0 0 .36-1.461c1.035-4.473 1.873-10.808 2.139-16.142.213-3.925.333-6.292-1.917-8.38a9 9 0 0 0-1.266-.984c.043-.069.085-.148.128-.217 1.104-1.976 1.266-2.541 2.216-6.396.41-1.671.719-2.794.813-3.072.257-.67.445-1.575.479-2.323.137-3.368-2.327-4.369-3.645-4.421q-.36-.013-.641.026c-.018-1.705-.129-2.689-.488-4.159v-.044c-1.848-7.135-4.26-7.231-5.296-7.275-1.266-.052-3.02.479-4.184 3.281-.077.174-.197.365-1.848 1.836-.53.47-1.035.949-1.514 1.418-.941-1.792-2.011-3.515-4.39-3.611-.05 0-.513-.017-1.103.131-.12-1.471-1.164-3.359-3.807-3.472-1.737-.07-3.183.852-3.876 2.471-.248.583-.394 1.218-.633 2.358-.086.409-.403 1.497-.693 2.271l-.018.044a22 22 0 0 0-.761 2.558c-1.06-.47-2.207-.792-3.645-1.044a32 32 0 0 1-.907-.174 4 4 0 0 1-.205-.27c-.667-.931-1.9-2.654-4.021-2.741-1.403-.061-2.738.679-3.465 1.915l-.035.06-.034.061c-.505.931-.505 1.132-.556 6.231-.034 5.195.12 6.944 1.343 10.199.59 1.601 1.181 2.932 1.814 4.055-.915.661-1.711 1.453-2.233 2.375l-.026.053c-.359.643-.838 1.522-.864 7.065-.008 3.02.129 5.987.377 7.937.667 5.29 2.096 10.764 4.021 15.498h-.026c-5.68 1.209-9.787 2.088-9.616 8.423.085 3.699 1.052 6.631 2.96 8.972 1.471 1.81 2.943 2.61 5.895 3.837.795.331 2.78 1.201 5.86 2.585 2.388 1.096 8.197 3.681 12.432 5.552 4.039 1.792 8.924 3.933 11.593 5.108l.89.391c3.568 1.584 19.208 8.58 30.98 13.871 2.14.966 7.016 3.15 10.695 4.778 1.027.461 2.413 1.087 4.022 1.81 3.901 1.749 9.248 4.15 13.612 6.134 14.724 6.649 16.821 7.536 20.44 8.232.667.131 1.548.227 2.609.27 1.917.079 4.167 0 5.698-.209 1.027-.13 2.901-.504 4.278-.852 2.558-.618 36.824-7.893 42.078-8.902a949 949 0 0 0 8.299-1.68c2.549-.539 6.921-1.436 9.753-2.01 2.952-.592 9.155-1.871 13.827-2.846 4.38-.905 10.378-2.14 12.594-2.575 9.625-1.915 13.484-2.663 17.231-3.359 4.269-.801 6.802-1.297 8.453-1.662 2.096-.462 4.655-1.027 5.134-3.507 6.382.226 13.501.417 15.161.33 1.223-.052 3.02-.226 3.944-.33a55 55 0 0 1 3.876-.27c3.165-.087 4.662-.287 6.733-1.21 2.96-1.314 4.569-2.584 6.879-5.447q.397-.499.693-.853c.744-.104 1.805-.287 3.516-.592 1.985-.356 3.79-.652 4.175-.713.676-.078 1.951-.322 2.362-.4.778-.157 3.14-.61 5.253-.992 8.633-1.602 11.995-2.237 17.642-3.412 3.046-.652 8.556-1.775 12.688-2.61 4.663-.966 7.324-1.558 7.897-1.767l.086-.034c1.728-.679 3.337-1.924 4.406-3.42 2.096-2.942 2.362-5.752 3.14-17.204.24-3.777.591-8.667.77-10.843.146-1.583.351-4.194.531-6.491l.188-2.376c.214-2.741.548-7.014.736-9.45.137-1.645.333-4.064.505-6.283l.248-3.133c.196-2.697.522-6.718.718-8.989.163-2.106.531-6.935.77-10.607l.189-2.654c.231-3.255.496-7.11.684-9.59.214-3.202.693-10.181 1.07-15.55.376-5.691.718-10.347.795-10.982.274-2.585 1.506-20.667 1.446-22.373" clip-rule="evenodd"/><path fill="#16A44A" d="m202.589 283.652-5.844-1.226-7.383-2.507-5.844-3.141-4.047-4.664-4.338-5.9-4.466-4.499-7.555-3.481-7.092-2.628-1.301-.861.428-1.253.924-2.089 1.728-2.784 1.087-1.036 1.608-.983 2.131-.575 1.086-.417 1.369-4.491 5.502-16.733 2.892-8.72 2.096-6.309.701-1.47.035-.722-.505-2.402s-.103-.574-.12-1.34-.026-1.828 0-2.254.103-1.149.145-1.331c.043-.183.231-.749.497-1.045.265-.296.821-.513.821-.513l1.797-.496s-.266-.54-.368-2.776c-.103-2.236.291-5.604.496-6.84s.881-5.247 1.087-6.3 3.55-13.862 4.859-16.812 5.467-11.565 7.983-13.009 3.884-1.28 4.868-1.723 4.261-1.558 9.951-3.777c5.681-2.228 21.919-8.284 24.76-9.059s3.371-.174 3.371-.174.145 1.314-.376 2.881c-.522 1.566-2.276 7.509-2.636 8.38-.359.87-1.873 5.369-1.873 5.369s-.616 1.47-.659 1.949c-.043.478-.094 1.009-.069 1.671.026.661.154 3.785-.196 5.021-.351 1.235-3.791 18.143-4.775 22.05-.983 3.907-7.554 36.783-7.554 36.783l-5.519 23.635-6.28 18.23-1.711 4.725-.573 8.093-1.129 7.553zM274.124 162.269l1.378 3.281 2.25 6.204 2.686 7.554 1.189 2.584 2.884-1.793 4.107-1.94 4.132-1.532 2.456-.583.282-2.706v-6.483l.368-7.553.65-7.449.796-7.867.137-2.132 2.421 1.184 2.892 1.375 5.407 2.75 5.27 2.941 3.962 2.228 7.187 3.48 12.097 6.588 6.623 2.967 5.099 2.698 2.858 9.955.821 10.894-1.164 20.032-4.449 18.153-6.733 27.907-6.126 17.43-10.404 18.578-3.927 7.989-6.579 9.537-3.876 5.708-2.781 3.011-4.064 2.646-10.438.583-9.762.139-14.057-.522-10.644-.583-12.962-.94-10.378-1.079-11.362-1.001-9.103-1.218-1.575-.766 1.404-1.871 2.797-5.517.95-6.561-.068-5.03-.505-6.352-1.438-3.577-1.197-.931.205-1.148 3.106.53 10.857 1.662 6.16.261.822-6.883 1.779-12.496 2.242-11.408 4.141-14.471 2.669-10.799 3.807-11.809 5.331-13.549 3.105-7.266 5.741-12.966 2.901-6.056 5.809-12.366z"/><path fill="#000" fill-rule="evenodd" d="M216.766 172.337c4.09-6.021 19.49-28.994 17.899-33.032-.334-.844-.933-1.288-.933-1.288-1.086-.809-2.72-.557-4.286.017-1.951.714-2.866 1.236-3.876 1.941-1.463 1.009-6.665 3.428-22.707 9.511-3.619 3.785-9.471 10.956-12.517 21.546-2.729 9.468-1.574 17.352-1.146 25.236.675 12.409 3.892 17.525 6.305 27.437 7.119 29.334-4.047 54.839-2.421 55.074 1.523.218 4.697-11.626 6.151-20.188.625-3.672.907-6.596 1.464-14.132.761-10.382 1.146-15.568 1.54-23.869.419-8.955 1.617-22.06 5.056-39.881" clip-rule="evenodd" opacity=".1"/><path fill="#16A44A" fill-rule="evenodd" d="m233.21 138.696-8.555 11.173-11.294 15.89 4.594 6.874 10.918-7.327a26.3 26.3 0 0 0 1.437-5.726c.205-1.54.257-2.941.231-4.151l5.441-17.151M297.85 140.271l-2.533 35.504-13.664 5.917-2.472-5.961L274.817 163a26.2 26.2 0 0 1 2.464-5.351c.805-1.323 1.096-3.464 1.874-4.386-2.703-20.615-2.336-31.484 1.121-32.615 1.985-.653 4.979 1.914 8.992 7.684" clip-rule="evenodd"/><path fill="#D5D5D4" d="M265.046 228.743s20.825-2.584 25.942-2.219l1.514.061s-2.173 7.545-4.98 9.92c0 0-17.094 2.341-27.814 1.245z"/><path fill="#16A44A" d="M266.775 225.097s20.303-2.602 25.282-2.245l1.48.052s-2.122 7.545-4.868 9.929c0 0-16.667 2.358-27.113 1.279l5.21-9.006z"/><path fill="#D5D5D4" d="M238.934 203.377c-.924.148-2.275 1.053-6.528-5.082-.462 1.079-1.754 6.022-2.892 11.957-2.01 10.529-2.823 14.175-1.916 17.873.693 2.829 1.942 5.9 1.942 5.9a47 47 0 0 0 2.25 4.752 195 195 0 0 1 8.342-9.242c2.516-2.602 3.953-3.942 4.92-6.526.701-1.871.641-3.029.975-7.188.334-4.107.351-2.498.941-8.833.899-9.711 1.737-22.981 1.865-24.991-1.617-.888-.53-1.262-2.147-2.15.453 2.611 1.283 9.511-2.379 16.586a24.6 24.6 0 0 1-5.373 6.953"/><path fill="#D5D5D4" d="M243.015 177.262c.993-2.053 1.994-4.124 2.456-6.361.462-2.227.325-4.681-.839-6.631 1.48-.269 1.48.392 2.806-.295 1.404 1.905 4.638 2.358 5.664 4.577.993 2.149.873 2.767-.47 4.594s-3.046 5.204-4.287 7.093c-.316.391-6.1-1.436-5.338-2.977"/><path fill="#16A44A" fill-rule="evenodd" d="m239.585 152.758 1.959.391 3.602 4.421 2.686 6.439-8.359.757s-1.6-9.589.129-12.008M257.552 164.749l-1.977-5.203-2.738-3.734-3.371 8.407 5.1 5.665s3.234-2.15 2.986-5.126" clip-rule="evenodd"/><path fill="#000" fill-rule="evenodd" d="M346.233 167.708c.889-.139 1.762.731 2.481 1.636 5.612 6.97 5.809 19.049 2.01 37.975-3.285 16.395-7.05 36.2-17.573 62.097-10.43 25.671-11.225 17.63-19.328 37.297-1.557 3.776-3.525 8.449-8.299 11.373a14 14 0 0 1-1.386.748c-5.168 2.385-9.976 2.089-11.858 1.941-12.911-.975-22.69.792-22.973-.949-.196-1.253 4.638-3.82 26.523-9.546a279 279 0 0 0 8.043-11.504c14.1-21.293 34.591-52.237 38.569-90.413 2.02-19.379-.273-40.02 3.782-40.664" clip-rule="evenodd" opacity=".1"/><path fill="#D5D5D4" d="M214.927 308.74a136 136 0 0 0-20.149-8.345c-8.753-2.819-17.12-4.516-22.382-5.117-.736-.087-3.568-.383-7.161-.696-4.004-.339-5.818-.418-7.067-.522-8.804-.748-15.931-5.265-16.41-5.569-2.482-1.61-6.469-4.673-9.985-10.042a56 56 0 0 1 6.126 2.445c2.293 1.07 3.414 1.784 4.611 2.419 1.532.809 9.934 5.273 17.608 3.55 1.155-.261 2.807-.774 5.322-.809 2.37-.035 4.158.383 4.945.566 6.751 1.601 12.321 3.959 18.233 5.308.872.2 9.753 1.27 16.769 1.888 2.849.253 5.69.54 8.513.984.958.156 2.242.087 2.789 1.018.65 1.096.531 2.445.351 3.385a212 212 0 0 1-2.105 9.537"/><path fill="#D5D5D4" fill-rule="evenodd" d="M105.677 251.525c2.328 6.483 5.476 10.599 7.675 13.009 3.354 3.664 7.589 6.683 11.756 9.659 3.268 2.333 4.183 2.733 4.124 2.863-.231.444-12.116-4.072-18.464-11.834-1.112-1.366-3.696-4.604-4.902-9.52a23 23 0 0 1-.505-2.811" clip-rule="evenodd"/><path fill="#D5D5D4" fill-rule="evenodd" d="M107.671 263.281c1.745 3.568 4.543 7.989 9.155 11.635 5.638 4.455 11.901 6.1 11.747 6.535-.112.313-3.431-.496-6.563-1.697-3.875-1.479-7.486-2.863-10.48-6.361-1.104-1.297-2.841-3.707-3.825-7.484M66.15 253.378c.89-.287 2.686-.165 4.004.888.967.774 1.377 1.81 1.557 2.393l-.214 5.351-.35 5.239-2.542 11.46-3.559 10.625-9.557 1.732c-2.335-.27-4.68-.531-7.015-.8 8.863-5.935 12.371-12.105 13.843-16.969 2.652-8.746.376-18.788 3.833-19.919M115.551 279.101c3.208 2.184 7.786 4.629 13.595 5.543 4.868.766 8.154.079 8.196.453.06.539-6.699 3.272-13.543.87-3.389-1.184-5.681-3.237-6.956-4.603" clip-rule="evenodd"/><path fill="#16A44A" fill-rule="evenodd" d="M252.486 155.09c.368-.391.95-.957 1.729-1.523 1.497-1.087 2.849-1.549 3.122-1.653 2.687-.975 7.923-5.578 11.132-8.78 6.143-6.126 9.308-9.285 10.908-14.637.702-2.332 1.087-5.021 1.831-5.012.573 0 .727 1.592 2.61 6.787a538 538 0 0 0 1.497 4.055c-2.028 9.938-5.382 16.995-7.871 21.346-2.114 3.699-3.782 5.77-4.449 6.562-4.544 5.464-9.617 8.58-13.022 10.294" clip-rule="evenodd"/><path fill="#000" fill-rule="evenodd" d="M145.351 349.387c-3.183-.609-4.877-1.306-19.67-7.989-6.126-2.776-14.074-6.335-17.633-7.936a1736 1736 0 0 1-10.687-4.777c-11.345-5.1-27.276-12.226-31.006-13.88-2.318-1.018-7.931-3.481-12.474-5.491-4.56-2.01-10.139-4.49-12.38-5.525-2.26-1.019-4.954-2.219-6.007-2.646-2.678-1.105-3.542-1.636-4.457-2.767-1.37-1.679-2.062-3.864-2.13-6.709-.078-2.994.496-3.394 6.733-4.725a447 447 0 0 0 4.432-.984c.017-.034-.197-.504-.462-1.07-2.464-4.986-4.338-11.408-5.108-17.534-.48-3.82-.454-11.809.051-12.723.66-1.148 2.798-2.375 4.51-2.558l.872-.096-.83-.626c-1.531-1.166-2.635-2.968-3.867-6.3-1.001-2.663-1.147-3.942-1.112-8.885.025-2.393.068-4.403.102-4.482.214-.356.676-.008 1.463 1.097.48.661 1.087 1.314 1.36 1.418.266.122 1.224.348 2.105.488 2.61.461 3.8 1.079 6.665 3.446l.77.644-.06-1.663a16.25 16.25 0 0 1 1.01-6.282c.342-.905.719-2.184.856-2.802.402-1.88.444-1.958.82-1.941.198 0 .343.035.343.07-.026.696.48 2.454 1.224 4.272.513 1.253 1.103 2.846 1.291 3.525l.368 1.209.42-.905c.47-.974.83-2.567.88-3.985.027-.723.112-.862.377-.853.42.017.66.339 1.566 2.097a65 65 0 0 0 1.574 2.793l.83 1.384 1.07-1.453c.65-.896 1.959-2.263 3.388-3.533 2.01-1.801 2.395-2.228 2.789-3.15.257-.635.565-1.062.71-1.062.36.018 1.403 2.515 1.925 4.525.342 1.392.402 2.123.377 4.699l-.035 3.063 1.66-.339c.916-.183 1.9-.383 2.173-.444.48-.113.514-.087.488.54a4.6 4.6 0 0 1-.222 1.113c-.12.27-.548 1.863-.959 3.542-.932 3.777-.992 3.925-1.848 5.456-.821 1.445-1.788 2.55-2.797 3.22l-.71.487 1.231.139c1.318.148 3.132.975 4.099 1.889.872.809.975 1.479.761 5.473-.257 5.117-1.06 11.226-2.053 15.498-.59 2.594-1.788 6.736-2.396 8.18-.205.505-.693 1.871-1.103 3.055-1.164 3.324-1.515 3.959-2.345 4.142-.205.043-.992.217-1.737.391-2.181.496-3.182.627-6.562.783-4.757.192-7.443-.2-13.039-1.923-.573-.191-.761-.4-1.3-1.435-.557-1.071-.676-1.21-1.164-1.227-.599-.027-3.628.443-7.024 1.079-2.798.53-2.687.496-3.414 1.096-.659.548-.847 1.218-.599 2.297.154.723 2.25 1.749 12.79 6.318 3.62 1.566 7.094 3.063 7.701 3.342 1.566.696 6.597 2.836 11.02 4.681 2.053.862 4.98 2.106 6.511 2.759 1.514.67 3.208 1.383 3.747 1.61.556.208 2.319 1 3.919 1.731 1.626.714 5.133 2.297 7.837 3.481 2.695 1.183 5.895 2.602 7.127 3.15a1155 1155 0 0 0 12.03 5.291l5.792 2.541c1.403.644 5.219 2.297 8.47 3.707 3.226 1.41 7.486 3.263 9.446 4.133 1.959.897 4.842 2.176 6.416 2.863 1.566.67 3.354 1.471 3.979 1.749 3.174 1.419 8.042 3.029 10.583 3.481 2.379.409 6.554.365 8.907-.113 1.044-.218 3.927-.775 6.4-1.227 2.447-.453 7.016-1.297 10.138-1.871 21.963-4.073 41.693-7.318 51.754-8.51a3017 3017 0 0 0 16.684-2.228 726 726 0 0 1 13.236-1.758c1.857-.235 5.065-.679 7.11-1.001 8.282-1.261 10.01-1.453 10.002-1.096-.009.278-2.721.861-10.704 2.358-3.764.696-7.751 1.471-17.274 3.368-2.173.426-7.845 1.592-12.62 2.576-4.791 1-10.994 2.279-13.809 2.845s-7.221 1.471-9.779 2.01c-2.575.54-6.288 1.288-8.248 1.671-5.082.975-39.519 8.275-42.248 8.937-1.249.313-3.003.67-3.876.783-2.113.278-5.647.278-7.161-.017m-93.738-59.156c-2.455-.357-7.4-1.41-8.033-1.714-.805-.383-.976-.67-2.773-4.63-2.849-6.335-4.688-12.444-5.415-17.934-.556-4.317-.65-10.095-.18-10.904.23-.435 1.198-.87 2.772-1.305 2.113-.592 2.379-.583 3.226.13.82.696.907.923.29.897-.23-.009-.82.165-1.326.426-.496.235-1.12.418-1.377.409-1.087-.104-1.78 1.436-.916 2.045 1.643 1.209 7.52 2.471 14.87 3.211 4.244.418 12.355-.487 14.922-1.671 1.736-.792 2.062-2.071.838-3.211-.453-.426-.701-.487-1.77-.531-.685-.026-1.25-.122-1.242-.2 0-.069.129-.513.274-.948.266-.766.325-.836.959-.862 1.291-.061 4.063 1.218 4.543 2.089.453.826.359 3.28-.317 8.493-1.087 8.162-2.173 12.731-4.834 20.275-.573 1.601-1.19 3.342-1.352 3.873-.248.713-.445 1.018-.753 1.113-1.07.366-8.812 1.297-10.258 1.236-.197 0-1.155-.139-2.13-.27m-3.252-31.248a.8.8 0 0 1 .54.026c.145.061.016.113-.275.096-.308-.009-.436-.07-.265-.122m2.473-.505c.008-.278.376-.313 1.497-.2.573.078.993.191.95.278-.137.218-2.456.122-2.447-.087m3.148.122c-.05-.096.009-.217.12-.287.351-.191 5.39-.096 5.51.113.12.226-2.395.383-3.131.183-.325-.087-.6-.061-.676.043-.137.235-1.711.192-1.831-.061m6.194-.087c-.051-.095.197-.417.54-.713.598-.548.675-.566 1.65-.392 1.01.157 1.25.418.762.81-.128.104-.753.243-1.369.33-1.369.183-1.48.183-1.574-.026m-12.74-1.384a11.05 11.05 0 0 1-4.509-2.915c-1.428-1.514-1.369-1.583 1.018-1.34 1.772.183 2.738.557 3.568 1.453.719.731 1.943 2.776 1.806 2.985-.137.235-.873.148-1.883-.191m2.165-1.062c-.385-.809-1.087-1.888-1.574-2.428-1.01-1.131-1.934-1.496-4.715-1.932-1.907-.278-2.352-.539-4.183-2.419-1.848-1.905-3.542-5.665-4.116-9.058-.145-.931-.282-2.855-.282-4.273v-2.584l.445.574c.24.304.445.609.445.661.017.409 1.266 1.01 2.883 1.41 1.001.261 2.276.67 2.85.931 3.421 1.584 6.544 5.012 8.46 9.241 1.019 2.272 1.455 3.551 1.738 5.126.265 1.427.376 4.664.17 5.595-.136.618-.187.679-.77.653-.615-.026-.667-.105-1.351-1.497m-2.892-6.674c-.984-2.184-3.456-5.752-6.143-8.867-1.318-1.515-1.557-1.854-.941-1.367 2.866 2.28 5.75 6.248 7.118 9.773.445 1.14.411 1.47-.034.461m5.664 7.71c-.36-.958.376-6.64 1.044-7.893.334-.67 1.754-1.645 2.353-1.601.744.035 2.207 1.07 2.755 1.94.513.792.924 2.324.89 3.229-.018.444.17 1.131.393 1.418.154.192 1.822-1.993 2.319-3.037.137-.252.65-1.74 1.163-3.289 1.24-3.733 1.711-4.656 3.029-5.943 1.223-1.201 1.985-1.671 4.158-2.507l1.489-.565-.129.513c-.265 1.166-2.215 7.301-2.532 7.954-.633 1.392-1.831 2.767-3.636 4.22-2.02 1.636-3.525 2.994-4.706 4.255-.744.818-.813.853-1.771.81-.54-.026-1.335-.183-1.745-.348-1.164-.47-2.952-.488-3.936-.053-.445.201-.796.427-.796.505 0 .218 1.198.348 2.225.235 1.095-.104 2.404.104 2.105.331-.112.087-1.164.156-2.362.156-1.96 0-2.19-.034-2.31-.33m-10.806-.653c-.051-.096.12-.305.385-.461.462-.279.496-.27.813.035.188.191.35.4.342.496 0 .2-1.437.148-1.54-.061m22.844.252a.83.83 0 0 1 .539.026c.145.061.017.113-.274.096-.308-.009-.436-.07-.265-.122m-2.062-.531c0-.095.505-.792 1.112-1.575 1.13-1.409 1.746-1.905 1.72-1.349-.017.444-1.112 2.498-1.455 2.742-.393.278-1.394.426-1.386.182m-2.31-3.855c-.094-2.697-.82-4.02-2.806-5.134-1.138-.652-1.3-.696-1.882-.522-.822.244-2.293 1.549-2.31 2.062-.026.61-.505 2.246-.65 2.246-.069 0-.214-.453-.326-.992-.102-.54-.402-1.697-.675-2.559-.257-.879-.66-2.219-.865-2.985-.3-1.174-.35-1.27-.308-.565l.077.835-.333-.618c-.36-.644-.411-1.105-.188-1.636.136-.304.154-.304.273.026.077.279.12.192.154-.304.052-.923.976-3.498 1.557-4.36l.462-.679.83.992c1.37 1.628 2.088 2.689 2.464 3.664.214.522.402.809.445.644.111-.461-.342-1.488-1.377-3.098-1.557-2.41-1.574-2.445-1.001-4.116.265-.783.59-2.019.727-2.758.137-.749.325-1.349.436-1.367.223-.043 3.363 6.666 4.33 9.277 1.257 3.446 2.164 7.666 2.07 9.876-.017.514-.257 1.393-.539 2.08l-.496 1.175-.06-1.184m1.771-3.228c-.034-.131-.077-.775-.103-1.445-.051-1.418-.795-4.142-2.053-7.57-.505-1.349-.95-2.654-1.01-2.915-.102-.557.402-1.401 1.789-3.003 1.103-1.305 3.987-4.02 4.09-3.889.033.034-.103.661-.309 1.375-.188.696-.445 2.175-.547 3.298-.248 2.575-.411 3.045-1.053 3.332-.83.375-1.274 1.515-1.232 3.229.026 1.627.41 4.22.505 3.324.197-2.202.548-4.16.821-4.673.428-.757 1.267-4.116 1.617-6.483.146-1.009.48-2.419.702-3.106.41-1.219 1.087-2.628 1.266-2.62.18 0 .77 1.584 1.164 3.107.36 1.47.393 1.975.3 4.699-.052 1.662-.163 3.254-.249 3.515-.085.27-.813 1.201-1.608 2.054-1.626 1.758-2.08 2.55-2.97 5.43-.684 2.115-.983 2.785-1.111 2.35m-13.168-7.38c-.145-.339-.487-.939-.761-1.357-.736-1.175-.993-2.811-.813-5.108.137-1.671.29-2.297 1.104-4.569.513-1.435.975-2.636.992-2.654.034-.035.3.583.616 1.393.317.791.856 2.158 1.224 3.037.89 2.158.924 3.176.154 4.246-.343.461-.83 1.627-1.224 2.846-.35 1.131-.727 2.219-.821 2.419-.197.322-.231.304-.48-.261" clip-rule="evenodd"/><path fill="#D3D3D3" d="m216.39 67.14-7.221 4.438c-.103 2.715-.214 5.43-.317 8.153.599 4.586 1.206 9.18 1.805 13.767.445 1.514 1.575 4.655 4.441 7.483 3.388 3.333 7.195 4.264 8.71 4.552-.924-1.367-1.848-2.724-2.772-4.09l-.437-4.36.702-5.23c.299-1.61.599-3.21.907-4.82l.385-5.1c0-1.07.017-2.14.025-3.211l-.599-2.872-1.428-4.063-1.908-3.594z"/><path fill="#D5D5D4" d="M257.235 137.417c2.13 2.271 5.698 2.192 8.333.565s4.252-4.594 5.005-7.631c.762-3.037.787-6.214.95-9.346.265-5.161.924-10.295 1.959-15.342.479-2.341 1.078-4.742 2.362-6.726.316-.488.932-.636 1.454-.392.556.27 1.147.487 1.737.653.599.165-.205.687-.334 1.305-1.805 9.085-.445 18.431.762 27.55.154 1.027-3.14 5.065-3.183 6.1-.06 1.088-12.628 12.653-12.962 13.688-4.278 3.177-5.621 1.819-10.592 7.014-1.189 1.245-1.395 4.464-1.942 5.691-1.352 3.028-2.148 4.229-2.61 3.672-.693-.835-2.798-6.23-3.627-7.614-.659-1.087.025-2.393 2.224-6.143 0-.018 10.472-13.053 10.472-13.053"/><path fill="#D3D3D3" d="M232.586 63.972s-3.962 5.656-3.833 8.328c.128 2.671 14.835.235 14.835.235l-7.135-7.24-3.867-1.332z"/><path fill="#000" fill-rule="evenodd" d="M261.179 321.349c-2.207-.183-6.511-.522-9.523-.766-3.037-.235-7.229-.574-9.308-.774-4.047-.348-8.368-.766-19.602-1.915-3.704-.374-10.9-1.314-11.456-1.505-.95-.314-2.421-2.593-3.157-4.891-.214-.618-.547-2.123-.77-3.35l-.402-2.228-1.865-.557c-1.044-.322-3.602-1.183-5.707-1.931-4.774-1.706-6.365-2.185-12.457-3.794-2.67-.705-6.1-1.619-7.623-2.045-4.398-1.219-4.852-1.253-11.825-1.41-6.741-.148-7.358-.209-12.825-1.305-5.039-1.001-6.99-1.689-10.284-3.673-3.473-2.062-5.364-3.637-8.461-6.97a224 224 0 0 0-1.934-2.054l-.436-.443s-1.643-1.897-2.892-2.576a15 15 0 0 0-2.627-1.053c-.753-.174-2.276-.775-3.397-1.323-1.137-.548-2.455-1.166-2.934-1.392-1.6-.714-4.98-2.55-6.049-3.315-2.062-1.454-3.08-2.802-6.443-8.563-3.824-6.5-4.894-9.555-4.278-11.948.257-.931.685-1.592.907-1.349.052.061-.025.627-.162 1.288-.488 2.289.231 4.177 4.167 11.017 2.121 3.663 3.062 4.977 4.38 6.048 1.052.87 13.227 7.962 13.698 7.979.291.009-2.267-3.193-4.287-5.36-1.771-1.897-4.038-3.803-6.861-5.778-1.446-1.001-3.97-3.672-5.305-5.622-.513-.757-1.531-2.532-2.259-3.933-.701-1.41-1.719-3.28-2.25-4.151-.53-.887-1.112-2.036-1.317-2.541-.18-.522-1.472-3.567-2.849-6.761-1.361-3.211-2.627-6.379-2.824-7.031-.71-2.576-.556-4.247.556-5.787.556-.827.916-1.123 1.857-1.532 1.403-.643 1.643-.617 6.468.653 1.865.505 5.818 1.549 8.778 2.315 5.998 1.575 7.35 2.088 8.915 3.376 1.523 1.279 2.302 2.698 5.091 9.337 3.457 8.276 5.647 13.105 6.725 14.994.915 1.61.967 1.662 1.934 1.984 2.019.652 11.755 2.993 12.679 3.011.197 0-.308-.383-1.103-.862-6.058-3.646-8.813-8.145-7.692-12.583.325-1.262 1.078-1.984 2.002-1.949.616.026 1.146.339 3.611 2.193 2.395 1.792 4.423 3.115 4.859 3.133.034 0 .094-.148.086-.331 0-.183.522-1.271 1.129-2.402.899-1.679 1.343-2.288 2.344-3.22 1.224-1.148 2.054-1.557 4.364-2.14.479-.131.573-.27.83-1.236 1.061-3.959 1.976-6.84 4.928-15.368.616-1.766 1.788-5.308 2.652-7.91 1.421-4.351 3.876-11.182 4.715-13.2.342-.801.342-.888.068-2.211-.291-1.453-.274-5.508.043-6.491.145-.47 1.189-1.166 1.394-.94.052.061-.119.183-.393.278-.317.113-.539.366-.685.853-.872 2.75-.427 5.813 1.925 13.227.343 1.027.411 1.532.283 1.949l-.146.549-.299-.662c-.437-.94-1.438-3.916-1.557-4.586-.086-.539-.112-.522-.402.444-.163.548-.694 2.402-1.164 4.142-1.087 4.073-4.278 13.636-8.838 26.506-.762 2.202-1.378 4.021-1.361 4.038.018.035.625-.122 1.318-.331 1.814-.531 3.765-.748 5.048-.548 2.935.453 6.81 2.994 8.855 5.804 1.412 1.923 3.029 4.978 3.679 6.936.257.818-.188.235-1.814-2.385-2.635-4.298-4.081-5.926-6.802-7.71-2.968-1.931-5.142-2.097-9.565-.748-.915.279-2.105.505-2.635.522-1.36.035-3.097.87-4.158 1.967-.856.887-3.328 5.247-3.157 5.569.051.078.462.313.924.496.753.348.949.357 2.113.157.71-.105 1.968-.157 2.764-.131 1.394.061 1.48.078 2.72.923.685.487 1.232.896 1.198.957-.034.035-.65-.105-1.335-.296-1.309-.348-4.568-.592-4.269-.305.086.079 1.301.549 2.678 1.036 5.826 2.088 7.076 2.671 9.608 4.542 2.148 1.619 5.356 5.369 7.692 9.024 1.403 2.176 2.019 2.959 3.439 4.351 1.275 1.236 3.731 2.924 5.459 3.733 2.079.992 6.434 2.776 7.888 3.203 1.241.382 4.561 1.113 5.142 1.131.094 0 .223-.618.274-1.41.069-.792.223-2.332.351-3.437.154-1.114.428-3.968.633-6.335.359-4.003.428-4.429.933-5.587 1.497-3.463 4.603-12.626 6.348-18.735 2.567-8.954 5.698-22.364 9.343-40.099 1.805-8.849 4.62-21.258 8.154-36.182 1.309-5.482 1.283-5.317 1.043-5.326-.111 0-.239.079-.316.192-.06.087-.753.574-1.549 1.079-.778.487-2.421 1.618-3.653 2.489a123 123 0 0 1-3.636 2.471c-1.6.983-2.481 1.688-6.135 4.742-1.403 1.175-3.208 2.602-3.97 3.142-.787.539-1.471 1.009-1.531 1.079-.359.261-2.036 13.27-3.508 26.985-.231 2.262-.548 5.125-.71 6.335-.847 7.179-1.686 17.247-2.439 29.873-1.052 17.334-1.702 21.25-4.996 30.187-.898 2.419-2.19 4.891-2.336 4.421-.017-.096.411-1.61.984-3.35 3.328-10.338 3.807-13.106 4.843-27.82.949-13.854 2.147-27.472 3.165-36.113.933-7.971 3.157-24.61 3.876-28.987.334-1.992.531-2.393 1.686-3.272 3.268-2.445 7.58-6.343 7.597-6.839 0-.148-.488-1.001-1.087-1.854-1.694-2.506-2.498-3.846-2.481-4.194 0-.165 1.036-1.784 2.285-3.577a1773 1773 0 0 0 4.748-6.848c5.835-8.502 11.516-15.977 13.073-17.221.283-.209.454-.392.377-.392-.163-.026-3.782 1.227-6.674 2.289-5.356 1.958-8.282 3.089-13.535 5.212-9.899 3.986-16.453 6.422-17.762 6.605-.787.113-1.061.27-1.916 1.123-2.986 2.976-6.229 9.406-8.838 17.491-2.55 7.988-4.193 15.559-4.663 21.424-.18 2.349-.171 3.054.094 4.89.53 3.62 1.702 7.336 3.088 9.79.403.74.651 1.375.608 1.627-.069.366-.171.287-.821-.696-1.01-1.558-2.387-4.821-3.149-7.458-.351-1.192-.702-2.332-.804-2.523-.086-.209-.283-1.192-.402-2.21-.924-7.214 3.413-25.497 8.547-36.061 3.593-7.397 6.306-10.329 9.779-10.608 1.78-.148 8.95-2.584 18.712-6.37 3.208-1.235 8.41-3.176 11.593-4.298 5.296-1.889 6.896-2.393 9.146-2.889.881-.201 1.146-.601 1.951-2.872l.393-1.149-.582.087c-3.242.435-4.312.392-6.262-.261-2.439-.818-4.107-2.088-6.674-5.056-4.629-5.334-9.591-14.158-12.149-21.511-2.507-7.257-4.492-18.813-4.774-27.68-.052-1.532-.137-3.82-.197-5.1-.145-3.176.582-16.925 1.095-20.136.462-2.985.462-3.028.137-3.037-.214-.009-.282-.253-.248-.992.043-.957.026-.992-1.343-2.672-1.694-2.08-3.927-5.717-4.766-7.762-1.01-2.436-1.189-3.42-.992-5.665.213-2.54.958-4.385 2.763-6.953 3.363-4.75 9.001-7.927 18.019-10.198.436-.113 3.242-.81 6.228-1.566 2.969-.749 7.29-1.82 9.617-2.385 4.013-.957 5.459-1.34 8.795-2.236 4.971-1.366 8.274-1.506 11.901-.557 2.097.548 3.354 1.279 4.287 2.48l.813 1.044 1.762.383c2.336.522 2.883.835 4.877 2.75.924.887 2.139 1.914 2.686 2.306 1.096.73 2.507 2.628 3.594 4.83.676 1.322 1.908 4.986 2.19 6.439.206 1.114.428 1.218.625.357.376-1.74-.522-4.69-2.037-6.596-.222-.288-.273-.436-.128-.523.428-.26 1.977 1.793 2.498 3.333.163.453.351 1.584.445 2.506l.137 1.663 1.267.165c.684.104 1.711.365 2.258.609.984.409 2.567 1.549 2.396 1.688-.034.035-.736-.191-1.557-.54-.967-.391-1.985-.67-2.849-.783-2.405-.26-2.464.357-.129 1.306 2.019.818 3.346 1.618 4.749 2.776 2.122 1.818 3.26 3.698 3.722 6.221.316 1.706.513 2.028 2.301 3.655 2.31 2.089 3.713 4.673 4.269 7.902.565 3.141.394 4.699-.898 8.353-.445 1.236-.975 3.02-1.172 3.934-.488 2.245-1.001 3.759-2.969 8.623a890 890 0 0 0-3.67 9.26c-2.524 6.447-3.166 7.97-5.031 12.06-.813 1.793-1.96 4.516-2.507 6.074-2.507 6.831-2.781 9.328-1.797 15.603.77 4.847 1.044 7.126.984 8.51-.026.609.026 1.68.103 2.384.154 1.166.128 1.367-.3 2.437-1.531 3.881-6.357 10.616-10.463 14.637-3.363 3.254-5.989 5.16-10.918 7.779-1.386.74-3.114 1.68-3.833 2.089-1.428.809-1.873 1.401-1.3 1.749.847.565 2.319 2.784 3.371 5.116 1.078 2.446 3.533 10.147 3.516 11.026-.042 1.053.214.966 2.807-.862 4.423-3.098 8.829-6.831 10.061-8.528.847-1.166 4.021-7.544 5.818-11.678 2.199-5.055 4.483-11.486 5.33-14.941l.351-1.497-.778-1.897c-.428-1.035-1.258-2.984-1.823-4.333-1.3-2.985-1.548-3.846-1.514-4.873s.316-1.036 1.557.026a9.05 9.05 0 0 1 2.524 3.611c.394 1.01 1.035 4.508 1.001 5.448-.043.957.299.287.471-.923.273-1.871.522-2.193.864-1.105.428 1.497-.18 4.508-2.276 11.121-1.66 5.186-3.542 9.755-7.606 18.3l-1.823 3.855 1.01 2.384c.958 2.272 2.977 7.719 4.62 12.479.419 1.236.856 2.271.958 2.306.214.087 1.267-.392 2.952-1.357 2.892-1.636 6.4-3.037 9.155-3.629l1.283-.279v-.722c0-.383 0-2.915-.017-5.587-.043-5.273.188-9.284.984-17.943.53-5.508.556-7.631.171-8.919-.128-.409-1.086-2.298-2.156-4.203a282 282 0 0 1-3.328-6.187c-.77-1.506-1.754-3.333-2.182-4.056-1.001-1.679-3.687-4.777-4.611-5.316-.907-.514-3.081-1.384-3.534-1.401-.197.008-.308-.105-.265-.235.137-.348 1.805-.148 3.251.391 2.182.792 4.201 2.515 5.912 5.004 1.301 1.879 5.63 9.267 8.085 13.723.12.209.565.504.993.67 1.642.565 5.321 2.436 12.243 6.222 3.936 2.175 7.777 4.246 8.505 4.612.727.365 2.429 1.261 3.798 2.019 2.413 1.34 3.166 1.609 3.431 1.192.154-.218 1.959-.07 7.504.626 11.713 1.48 30.244 4.664 38.903 6.692 4.047.94 5.347 2.323 5.501 5.813.043 1.218-1.112 18.735-1.429 21.816-.085.757-.444 5.752-.804 11.129a5681 5681 0 0 0-1.069 15.542c-.231 3.185-.616 8.685-.864 12.226a772 772 0 0 1-.77 10.573 817 817 0 0 0-.719 9.007c-.214 2.662-.548 6.892-.753 9.372-.188 2.462-.522 6.726-.744 9.467-.214 2.724-.522 6.692-.719 8.824-.171 2.115-.539 7.04-.779 10.938-.787 11.53-1.052 13.314-2.455 15.281-.65.914-1.703 1.714-2.772 2.132-.368.13-3.696.861-7.41 1.627-3.73.748-9.454 1.915-12.705 2.611-5.647 1.166-8.992 1.801-17.548 3.385-2.062.374-4.457.826-5.296 1-.856.166-1.805.331-2.096.357-.308.044-2.267.366-4.364.74-4.106.731-4.603.792-4.372.426.334-.539-.333.227-2.01 2.315-1.951 2.41-3.089 3.324-5.527 4.403-1.48.662-2.464.818-5.382.905-1.36.035-3.234.183-4.184.287-.966.105-2.618.261-3.696.305-2.712.148-23.537-.566-28.431-.966m-1.497-2.689c-4.552-.357-11.174-.887-18.652-1.549-2.19-.183-5.723-.531-7.854-.766a724 724 0 0 0-11.559-1.122c-4.226-.4-7.862-.749-8.076-.809-.377-.087-.377-.105.154-.636 1.343-1.348 2.626-4.89 3.49-9.702.394-2.158.676-9.303.462-11.139-.385-3.115-1.283-6.526-1.916-7.344-.137-.192-.419-.444-.616-.54-.565-.278 1.797.035 3.157.427.625.174 3.02.583 5.313.905 3.662.522 5.236.644 13.655.992 13.467.574 19.182.591 25.933.052 7.572-.609 14.759-.757 19.131-.427 4.252.305 6.185.792 8.727 2.167 1.565.862 2.053 1.245 3.182 2.489.959 1.07 1.489 1.871 1.917 2.863.53 1.262.599 1.331.727.896.359-1.279-2.575-5.473-5.065-7.214-1.232-.861-3.208-1.844-4.517-2.253-2.901-.897-4.723-1.132-10.661-1.367-5.869-.243-6.614-.217-14.254.357-2.165.165-4.62.348-5.459.383-2.327.148-23.922-.357-27.524-.635-3.199-.244-4.568-.409-10.489-1.279a213 213 0 0 0-4.526-.644l-1.189-.157-.36.722c-.239.47-.479.74-.701.731-.377-.017-.394-.087-.12-.591.12-.218.334-1.628.488-3.151.487-5.047 1.352-12.078 1.985-16.168 1.292-8.206 1.865-11.747 1.95-12.095.043-.201.437-2.637.847-5.404.403-2.785.907-5.996 1.104-7.145.291-1.775 1.797-11.808 2.866-19.135.154-1.079.266-2.628.223-3.403-.052-1.401 1.223-10.607 2.395-17.221.257-1.479.805-4.629 1.19-6.996 1.197-7.214 3.345-17.587 5.065-24.339.496-1.932.599-2.724.718-5.343l.137-3.072.385.4c.334.331.394.609.351 1.567-.026.626.026 1.2.128 1.279.086.061.497-.131.89-.409.856-.644 1.669-.853 1.865-.479.086.131.112 1.297.06 2.567-.051 1.366 0 2.402.103 2.515.257.287 1.044.113 1.283-.261.197-.339 1.147-.931 1.788-1.105.351-.078.488.035.856.774.693 1.306.907 2.211 1.095 4.377.197 2.315.137 4.856-.265 8.433-.317 2.958-.394 3.141-1.874 4.203-1.737 1.235-3.2 3.776-4.5 7.892-3.149 9.772-4.988 19.623-5.604 30.126l-.342 5.874-.471-1.297c-.265-.713-.633-1.923-.856-2.688l-.376-1.401.068 1.018c.112 1.723.642 3.881 1.592 6.43 1.035 2.794 3.876 9.233 4.321 9.825.29.4.308.383 1.83-1.305 2.978-3.368 4.218-4.821 6.357-7.449a176 176 0 0 1 3.431-4.099 67 67 0 0 0 1.711-1.993c.249-.322.89-.939 1.429-1.374l.993-.792-.188.583c-.12.33-.539 1.749-.959 3.15-.402 1.401-1.215 4.029-1.771 5.83a201 201 0 0 0-1.788 6.109 372 372 0 0 1-1.232 4.56c-.402 1.366-3.063 12.139-3.525 14.28-.068.269-.197.504-.308.504-.111.018-1.146.966-2.276 2.141-3.704 3.759-9.078 8.075-10.395 8.293-.676.139-.89-.035-1.566-1.227-1.121-1.984-5.715-10.747-6.083-11.591-.702-1.575-.573-.653.137 1.114.385.905.924 2.254 1.223 2.984.822 2.045 3.568 7.38 4.578 8.894.907 1.349 1.352 1.679 1.591 1.114.06-.148.377-.392.693-.54.317-.156 1.378-.809 2.362-1.453 1.848-1.236 6.442-5.474 8.547-7.893.624-.713 1.138-1.261 1.172-1.244.017.017-.205 1.149-.513 2.523-1.395 6.396-1.9 9.459-2.584 15.742-.479 4.203-.608 6.596-.462 7.545.102.635.47.94.787.644.094-.087.436-1.897.778-4.012.317-2.088.762-4.969.984-6.378 2.405-15.672 5.459-28.255 12.098-49.671 2.473-7.936 3.448-10.573 8-21.433 5.014-11.965 7.221-16.908 10.943-24.269a392 392 0 0 0 2.327-4.795 146 146 0 0 1 1.78-3.707 95 95 0 0 0 1.685-3.62c.539-1.175 1.052-2.228 1.164-2.332.282-.27 1.651 3.167 3.816 9.467a518 518 0 0 1 2.267 6.718c.436 1.366 1.583 4.36 3.568 9.294 1.437 3.542 1.454 3.637.958 4.525-.214.4-1.335 2.027-2.447 3.646a265 265 0 0 0-3.328 4.804c-.71 1.018-2.02 2.923-2.892 4.211-6.58 9.564-15.563 24.574-21.663 36.235-6.751 12.87-12.543 26.576-13.801 32.65-.428 1.975-.513 3.393-.24 3.237.095-.07.197-.383.206-.67.068-1.619 3.995-11.548 7.238-18.292 2.806-5.839 11.875-23.069 13.184-25.061l.386-.575 2.754.096c5.237.218 14.716.235 16.898.052 4.877-.426 6.888-.879 7.906-1.775.718-.635 3.833-6.518 4.235-8.014.291-1.018-.24-.287-1.686 2.367-1.933 3.48-3.217 5.177-4.209 5.578-1.36.548-7.948 1.052-13.92 1.087-2.156 0-5.622.026-7.709.053-2.071 0-3.807-.009-3.842-.053-.171-.174 4.372-7.84 4.783-8.032.428-.2 2.943-.583 5.347-.791 1.164-.122 3.551-.349 5.279-.523 4.715-.504 5.681-.574 8.009-.687 1.18-.061 3.054-.148 4.2-.191 1.13-.061 2.43-.087 2.901-.07 1.394.061 1.394-.844 0-1.288-.933-.296-5.852-.061-12.192.6-4.663.47-11.859 1.393-12.629 1.619-.462.131-.804.705 5.271-9.024.813-1.296 3.764-5.726 6.596-9.877 2.832-4.142 5.604-8.31 6.186-9.241 1.592-2.593 1.574-2.698-.633-7.867a385 385 0 0 1-2.139-5.142l-.376-1.01.539-.417c1.061-.801 7.76-3.681 11.328-4.9 1.18-.391 1.377-.531 1.522-.992.103-.313.197-3.202.223-6.448.026-6.126.248-9.929.915-15.733.223-1.871.539-4.977.745-6.883.188-1.932.359-3.524.393-3.559.112-.122 3.08 1.47 7.812 4.177 5.279 3.037 13.15 7.24 17.137 9.172 1.403.704 3.73 1.888 5.151 2.645 1.403.774 4.124 2.184 6.04 3.124 4.714 2.332 7.093 3.707 7.076 4.055 0 .078-.514.165-1.13.191-3.054.209-6.528.966-8.667 1.871-3.268 1.436-6.639 4.482-10.669 9.764-4.474 5.83-8.136 12.148-10.25 17.787-2.044 5.377-3.61 10.86-4.397 15.315-.137.809-.42 2.358-.625 3.481-.53 2.889-.796 6.813-.65 9.528l.103 2.35-.719 1.671c-.419.922-1.01 2.158-1.326 2.75l-.582 1.061-.231-.618c-.342-.939-.625-2.497-.881-4.742-.257-2.298-.103-8.859.273-11.983.351-2.95.077-1.949-.487 1.68-.591 3.924-.728 6.5-.514 10.085.18 2.828.3 3.777.805 5.717.265 1.062.291 1.393.102 1.941a114 114 0 0 0-.855 2.767c-1.164 2.724-2.841 5.682-3.166 6.692-.24.757-1.164 3.655-3.653 9.346-4.569 10.416-9.626 23.547-9.694 25.148-.043.992-.368 1.401-1.437 1.88-1.164.487-1.694 1.088-2.088 2.349-.145.47-.334 1.036-.411 1.236-.085.2.146-.052.514-.548 1.531-2.036 2.601-2.498 5.219-2.184 3.268.374 5.647 1.227 8.402 2.967 2.9 1.854 4.739 3.942 6.262 7.066.839 1.714.984 1.149.171-.679-.847-1.897-1.89-3.489-3.148-4.777-2.687-2.732-5.134-3.959-10.096-5.065-1.009-.208-1.831-.461-1.831-.539s.522-.348 1.147-.601c1.052-.435 1.326-.478 3.242-.4 4.655.192 9.061 2.35 12.449 6.118 1.266 1.418 2.952 4.124 3.542 5.699.821 2.158.821 2.176.856 1.784.025-.548-.941-3.176-1.771-4.742-2.396-4.595-5.835-7.493-11.003-9.268-1.147-.383-2.208-.609-3.671-.722-2.455-.235-3.259-.078-4.397.757-.445.331-.839.574-.873.54-.257-.27 5.134-13.75 10.472-26.219 1.617-3.768 2.524-6.074 3.594-9.163.393-1.106 1.685-3.56 1.651-3.586-.034-.034.069-.4.231-.783.163-.4.522-1.366.813-2.158s1.104-2.724 1.822-4.255c.736-1.558 1.806-3.873 2.422-5.16 1.189-2.55 5.843-14.698 6.553-17.065.522-1.784 1.267-4.969 1.292-5.552 0-.217-.077-.374-.171-.304-.111.052-.188.269-.197.487-.025.557-.676 2.759-.881 2.95-.094.087-.154.322-.162.531-.035.861-3.705 9.694-4.997 12.026l-.779 1.383-.094-1.279c-.06-.705-.025-3.028.06-5.143.146-4.011.436-5.943 1.626-10.816.872-3.594 2.789-9.381 4.021-12.104 3.123-6.901 8.633-14.654 13.869-19.554 3.901-3.62 7.212-5.256 12.526-6.143 1.497-.253 4.551-.07 5.749.348 1.343.444 1.899 1.018 2.704 2.75 1.086 2.349 1.668 5.082 2.464 11.504.744 5.969.744 12.391 0 18.813-.804 7.031-2.943 18.344-4.851 25.627-.574 2.211-1.318 5.204-1.626 6.666-.753 3.472-2.455 9.764-3.593 13.314-.933 2.819-5.45 15.141-6.751 18.352-1.985 4.865-2.849 6.91-5.142 12.148-5.245 12.009-9.89 21.189-14.297 28.281-4.722 7.554-7.477 10.982-9.865 12.227-2.079 1.114-3.353 1.357-6.998 1.375-1.848.017-4.432.095-5.724.208-4.945.401-9.505.453-18.147.192-4.834-.165-10.849-.427-13.355-.627m50.966-5.029c.077-.131.42-.592.753-1.019.693-.931 2.841-4.368 4.963-7.91l1.437-2.427.051 1.514c.069 1.479.539 3.872 1.173 6.082.436 1.454.402 1.749-.206 1.967-.274.078-2.053.47-3.935.835-1.883.383-3.637.792-3.885.949-.316.174-.428.165-.342.026m-98.7-7.701c-3.123-1.253-9.805-3.725-11.901-4.421-4.098-1.349-10.241-2.932-13.569-3.489-.993-.166-1.891-.374-1.977-.47-.102-.096-.008-.165.189-.157.436.018 1.471-.583 1.266-.739-.086-.061-1.01-.227-2.054-.383-1.026-.174-2.737-.522-3.756-.801-1.043-.278-2.207-.592-2.601-.696-.393-.087-4.722-.339-9.591-.566-8.821-.365-11.293-.591-16.41-1.505-3.08-.548-5.381-1.532-8.752-3.733-2.653-1.749-4.381-3.298-7.615-6.823l-3.003-3.28 1.925.87c1.07.487 2.618 1.123 3.465 1.418.822.314 2.105.932 2.849 1.41 1.378.87 2.926 1.706 3.234 1.723s-.248-.583-1.326-1.401c-1.565-1.175-4.32-2.576-7.503-3.829-4.569-1.792-5.245-2.28-7.837-5.778-.736-1.009-2.088-2.628-3.012-3.629-1.497-1.627-2.875-3.437-2.601-3.428.257.009 3.902 2.637 5.818 4.186 2.755 2.236 5.133 3.55 8.53 4.759.787.288 2.233.81 3.234 1.167 1.001.356 2.413.983 3.157 1.383l1.335.757-.231-.504c-.684-1.489-2.661-2.75-6.81-4.325-3.756-1.427-4.783-1.984-9.078-4.839-1.677-1.14-3.645-2.384-4.329-2.776-1.455-.818-2.884-2.201-4.715-4.603-2.327-3.028-2.874-4.272-2.13-4.847.222-.174.334-.13.607.261.873 1.236 3.192 2.785 10.045 6.814 4.286 2.523 6.605 3.646 9.18 4.525 2.721.922 11.474 2.985 12.843 3.019l.47.018-.487-.444c-.634-.557-3.38-1.671-6.819-2.767-3.423-1.079-8.462-2.968-10.456-3.899-1.694-.792-11.02-6.004-12.046-6.735-1.027-.722-1.318-1.157-1.061-1.61.197-.322.393-.357 1.446-.313 2.045.087 6.143 1.471 12.97 4.394 4.159 1.776 6.486 2.446 14.913 4.325 2.909.653 6.836 1.018 11.2 1.071 4.004.034 4.243.087 5.955 1.2l1.043.688-.992-1.036c-1.326-1.383-2.002-1.609-5.673-1.914l-2.969-.235-1.702-1.009c-2.002-1.193-4.509-2.898-5.809-3.968-1.138-.932-2.892-3.307-3.44-4.639-.479-1.183-.488-3.785-.008-4.246.359-.34.462-.279 3.593 2.123 4.132 3.176 5.022 3.655 13.09 6.831 2.875 1.114 5.87 2.402 6.648 2.837 3.106 1.732 6.237 4.96 9.6 9.877 2.036 2.958 3.08 4.203 4.603 5.447 2.25 1.827 4.594 2.941 9.771 4.647 5.099 1.688 5.732 1.819 15.451 3.237 7.102 1.053 6.349.818 6.862 2.088.471 1.254.958 3.29 1.206 5.274.368 2.967-.273 10.886-1.103 13.636-.291.887-.539.879-3.132-.148m-77.917-48.94c-1.155-1.949-3.594-7.196-5.75-12.278-1.146-2.724-1.548-3.881-1.574-4.569-.017-.853 0-.905.222-.583.154.209.479 1.053.745 1.88.847 2.767 5.347 13.209 6.733 15.716 1.189 2.079.847 1.957-.376-.166m-19.952-9.076c-1.446-.557-2.884-2.201-2.627-3.864.094-.574.359-1 .53-1.227 0 0 .189-.409.787-.643.462-.183 3.312-.523 4.355 1.557.565 1.123.326 2.411-.162 3.237-.154.261-.471.801-1.104 1.053-.736.296-1.429.026-1.788-.113m-9.968-10.756c-.359-.574-.35-.722-.017-1.07.813-.739 2.276.601 1.712 1.549-.283.461-1.318.183-1.695-.487m17.762-.731c-1.189-.731-5.339-2.08-11.139-3.577-1.686-.435-3.859-1.061-4.843-1.401l-1.788-.609 1.001.026c1.232.035 5.151.897 8.718 1.906 6.742 1.906 7.581 2.254 8.71 3.603.342.417.582.765.548.757-.052 0-.608-.322-1.207-.714m220.714 16.099c0-.218.325-1.219.71-2.211.377-.966 1.036-3.428 1.463-5.438.42-2.037.907-4.099 1.113-4.595.205-.531.77-2.906 1.266-5.317 1.01-4.977 3.14-13.235 3.533-13.914.462-.74.351.583-.581 6.135-1.113 6.9-1.934 11.008-2.721 13.627-.18.592-.65 2.28-1.052 3.75-.873 3.124-3.791 9.355-3.739 7.963m-112.098-16.812c-1.558-3.62-2.464-6.057-2.721-7.197-.18-.879-.171-1.183.813-10.355.282-2.55 1.155-8.119 1.813-11.452 1.027-5.273 3.799-14.767 5.194-17.865.855-1.88 1.386-2.584 2.721-3.576.633-.453 1.317-1.123 1.488-1.471.18-.339.479-1.566.668-2.706.214-1.21.445-2.124.599-2.211.427-.261 2.233-.078 3.302.357.59.226 1.583.748 2.225 1.14 1.326.862 1.274.731 1.446 4.708.213 4.716-.3 10.755-2.285 27.411a162 162 0 0 0-.693 7.405l-.239 3.846-.873 1.001c-.479.548-1.275 1.419-1.763 1.958-.513.513-2.293 2.541-4.004 4.516-1.694 1.958-3.67 4.238-4.372 5.056a175 175 0 0 0-1.651 1.941l-.376.444-1.258-2.968m15.52-14.462c.034-.792.145-1.915.265-2.515.428-2.106 1.429-9.955 2.002-15.594.069-.809.351-3.342.608-5.604.522-4.865.667-10.303.359-13.967l-.214-2.462.813-1.297c.462-.722 1.472-2.358 2.267-3.629 2.114-3.42 2.096-3.385 3.85-3.881 2.49-.67 2.473-.67 2.79.044.145.339.445.792.616 1.018.333.383.402.383 1.155.191 1.009-.269 2.575-1.244 5.099-3.185a208 208 0 0 1 2.9-2.166 30 30 0 0 0 1.951-1.584c.616-.548.958-.757.873-.54-.984 2.428-1.583 3.681-3.251 6.988-4.33 8.51-10.148 21.233-12.518 27.315-.444 1.14-1.394 3.507-2.096 5.265-.718 1.74-2.276 5.769-3.473 8.954-2.379 6.361-2.653 6.988-3.474 7.641l-.565.435.06-1.436m.924-41.752c-.274-.339-.984-.888-1.548-1.21-.924-.539-1.19-.583-2.824-.652l-1.814-.078.12-2.489c.205-4.16.077-5.604-.642-7.501-.444-1.219-.564-1.741-.427-1.941.119-.156.727-.47 1.369-.661 1.061-.322 1.428-.348 3.542-.183 1.283.087 2.763.261 3.285.392 2.207.53 4.62 2.436 4.988 3.968.223.818.18.913-1.317 2.915-1.78 2.402-3.303 5.43-3.748 7.484-.154.748-.359.739-.992-.061m-30.51-9.233c-2.576-3.707-2.713-3.933-2.627-4.151.06-.113.65-.931 1.326-1.81 1.164-1.479 1.78-2.376 5.733-8.302 3.815-5.743 9.197-12.713 12.029-15.628.736-.731 1.942-1.506 2.344-1.488.42.017-.907 4.577-3.2 11.121-1.514 4.325-1.993 6.248-1.925 7.849.026.757.043 1.592.052 1.845 0 .426-.377 2.175-.95 4.333-.282 1.079-.334 1.132-2.139 2.158-.727.418-2.695 1.732-4.381 2.959-2.857 2.036-4.534 3.15-4.748 3.141-.051 0-.744-.931-1.514-2.036m38.201.853c.12-.348 2.242-2.898 2.404-2.906.146-.009.805 1.749.839 2.262.026.374-.111.435-1.48.679-1.848.33-1.9.348-1.754-.035m-.856-2.506c-.487-1.297-2.104-3.098-3.337-3.716-.547-.278-.727-.452-.624-.67.359-.87 1.942-5.012 2.336-6.178.265-.766.53-1.436.607-1.523.205-.209 1.677 2.097 2.456 3.864.932 2.044 1.582 4.507 1.531 5.708-.034.844-.137 1.105-.821 1.958-.419.557-.993 1.157-1.232 1.349l-.471.348zm-14.237-5.883c-.017-.887-.077-3.063-.119-4.838-.129-4.577-.146-4.542.308-4.447 1.257.253 3.114 2.011 4.389 4.169.881 1.47 2.917 5.873 2.9 6.282 0 .166-.154.218-.419.131-.214-.061-1.044-.192-1.84-.296-1.172-.139-1.719-.104-2.78.157-.736.174-1.574.356-1.865.4l-.548.07zm8.146.375c-.231-.566-.411-1.071-.411-1.106 0-.052-.667-1.462-1.472-3.141-1.771-3.724-2.618-4.777-4.928-6.048-1.72-.94-2.276-1.018-3.893-.583-1.814.496-3.508 1.479-5.048 2.95l-1.428 1.34 1.582-4.194c.873-2.324 2.002-5.596 2.524-7.292.522-1.68 1.044-3.351 1.164-3.699.12-.365.402-1.462.642-2.462.325-1.427.65-2.28 1.497-3.812 1.052-1.932 1.42-3.246.95-3.411-.146-.061 1.274-1.088 3.473-2.497.128-.087.3-.14.334-.079.137.157.282 4.351.257 4.534-.035.209.282 1.114.342 1.244a3.66 3.66 0 0 0 1.899 1.845c.702.287 1.6.487 2.327.2a13 13 0 0 0 1.694-.835c1.292-.731 2.55-1.566 3.696-2.524.172-.148.343-.295.514-.452 3.995-3.742 5.775-8.798 5.15-14.619a69 69 0 0 1-.273-3.15c-.077-2.089-.026-2.089-1.703-.018-3.474 4.264-6.306 6.735-11.08 9.581-3.285 1.984-5.21 2.906-7.306 3.533-1.232.392-1.78.444-3.534.392-1.737-.07-2.259-.148-3.114-.514-1.694-.731-3.448-2.175-5.758-4.716-4.638-5.082-8.856-12.609-11.628-20.728-2.678-7.84-4.423-17.857-4.748-27.35-.077-2.272-.051-2.324.393-3.064.796-1.279 2.234-2.306 4.929-3.524 2.07-.93 2.515-1.21 2.583-1.557.394-2.176-3.602-2.42-6.057-.4-.488.4-1.112 1.044-1.42 1.418l-.539.713.137-3.498c.136-3.542.393-7.083.77-10.608.145-1.296.29-2.601.513-3.89.137-.817.231-1.705.796-2.349.513-.592 1.266-.931 1.967-1.227 2.234-.94 3.748-1.096 7.179-.827 2.926.253 2.96.253 3.747-.174.428-.226 1.805-.626 3.046-.905 1.976-.417 2.798-.478 6.092-.504 4.192-.026 4.5 0 6.896.8l1.651.548 1.66-.26c1.591-.227 1.677-.227 2.37.113.393.2.813.609.958.905.137.295.317 1.67.419 3.063.257 3.663.847 6.065 2.43 9.598.745 1.706 1.703 3.263 4.406 7.266 1.01 1.48 2.139 3.298 2.507 4.073 1.96 3.976 2.849 8.084 3.038 13.81l.042 1.627.762-.096c3.491-.444 5.638-2.463 7.469-5.378 1.78-2.828 3.277-4.838 6.579-5.717 2.456-.67 4.415-.165 6.126 1.54 1.532 1.54 2.131 3.411 2.02 6.283-.077 2.263-.368 3.307-1.412 5.29-1.643 3.09-4.646 5.561-8.719 7.171-1.052.418-2.027.88-2.181 1.036-.266.243-.214.27.59.191.488-.052.984-.122 1.095-.156.129-.053.479.757.83 1.914.625 1.967.924 2.732 2.704 6.753l.915 2.106.146 2.715c.154 3.437.778 8.554 1.54 12.844.684 3.811.693 4.438.128 5.978-.83 2.201-4.466 7.466-7.512 10.903-3.944 4.412-8.29 7.754-14.819 11.4-3.636 2.027-3.978 2.419-4.517 4.96-.359 1.758-1.788 6.239-2.276 7.118-.291.522-.496.696-.821.688-.377-.018-.539-.209-.864-1.071m-16.188-46.903c-.428-.253-.47-.531-.111-.522.145 0 .898-.183 1.685-.409 3.465-1.001 6.486-3.881 7.88-7.536.368-1.001.428-1.07.573-.714.249.636-.248 2.48-1.026 3.96-1.609 2.993-5.356 5.586-7.923 5.482-.402-.017-.881-.148-1.078-.27m-5.946-9.128c-2.849-.931-4.697-3.185-5.313-6.457-.36-1.845-.146-5.5.53-9.215 1.386-7.58 1.609-9.947 1.172-13.105-.462-3.429-1.882-7.423-3.26-9.225-.675-.878-.701-.992-.616-1.923.086-.791.146-.896.24-.54.077.245.462 1.123.864 1.976 4.338 8.998 4.689 12.018 2.678 22.834-.95 5.16-1.052 7.205-.47 9.146.812 2.689 1.873 4.003 4.44 5.517 2.036 1.192 1.891 1.723-.274 1.001m-9.077-19.18c-.83-.974-1.327-2.767-1.258-4.481.043-1.601.736-1.645 1.437-.087.83 1.827 1.215 4.177.753 4.734-.308.374-.522.33-.932-.165m19.55-1.383c-.916-1.236-1.404-2.933-1.344-4.595.035-.861.077-.992.497-1.157.385-.165.53-.148.932.183 1.301 1.07 2.396 5.003 1.651 5.934-.385.479-1.24.296-1.745-.365m6.468-14.237c-.804-1.14-2.592-2.706-3.764-3.35-1.284-.678-4.064-1.349-5.373-1.27-.488.035-1.138-.026-1.429-.13-1.395-.462-1.771-1.863-.745-2.76.616-.547 1.258-.687 2.601-.635 1.686.07 5.194 1.706 6.734 3.16 1.257 1.192 3.106 4.403 3.071 5.325-.025.61-.504.461-1.095-.34m124.555 95.026c-.119-.209-10.523-2.15-14.835-2.75-1.01-.131-2.541-.418-3.423-.601-.864-.2-2.267-.374-3.105-.383-1.429-.026-1.737-.087-4.218-1.096-1.48-.592-4.244-1.932-6.143-2.967l-3.457-1.897 2.515.217c9.977.888 35.25 5.16 36.097 6.1.24.27.223.34-.308.87-.83.836-1.351 1.602-1.497 2.167-.111.418-.197.487-.838.461-.402-.017-.753-.087-.796-.121M173.131 314.588c-1.197-.453-6.93-2.663-12.714-4.917-5.8-2.254-11.593-4.481-12.859-4.942-1.283-.479-4.629-1.706-7.418-2.742a1177 1177 0 0 0-11.447-4.089c-18.276-6.379-25.086-8.911-24.804-9.155.043-.052.83.165 1.763.461s2.934.914 4.474 1.384c4.21 1.314 7.846 2.558 12.791 4.386a189 189 0 0 0 6.973 2.48 619 619 0 0 1 12.517 4.499c2.559.957 5.485 2.036 6.52 2.393 2.823 1 15.204 5.795 18.66 7.222 1.66.696 4.193 1.758 5.638 2.376 1.446.609 2.696 1.122 2.807 1.131.111 0 .231.087.282.192.18.374-1.052.104-3.183-.688" clip-rule="evenodd"/><path fill="#000" fill-rule="evenodd" d="M130.447 288.917c-.214-.061-1.9-.522-3.713-1.001-4.432-1.175-13.125-3.716-19.088-5.587-2.67-.826-6.041-1.888-7.504-2.34-4.098-1.28-7.41-1.602-10.763-1.053-1.549.226-8.641 1.636-10.507 2.053-.804.192-2.173.444-3.02.609-.855.148-2.464.453-3.559.662-2.079.391-3.174.478-2.635.183.145-.087 1.89-.549 3.85-1.027 1.96-.47 5.621-1.375 8.145-1.967 2.507-.618 5.185-1.296 5.938-1.523 1.857-.565 4.885-1.018 6.46-.931 2.934.122 4.158.409 11.533 2.785 6.442 2.071 11.661 3.707 12.269 3.846.59.139.607.139.35-.209-.154-.209-.598-.818-1.018-1.383-.41-.549-1.086-1.741-1.523-2.628-.633-1.358-.906-1.75-1.719-2.359-.548-.409-1.369-1.2-1.831-1.757-1.044-1.201-3.123-5.021-3.962-7.171-.539-1.41-.581-1.723-.547-3.472.034-1.784.034-1.862.162-.844.283 2.463.591 3.324 2.584 7.136 1.985 3.785 2.798 4.525 6.597 5.934 2.515.949 8.119 2.881 8.393 2.889.111 0 .607.209 1.087.47.479.261 1.317.644 1.873.853q.967.375.437.513c-.308.079-1.018.07-1.575-.008-1.3-.166-6.382-1.758-9.189-2.872-1.163-.452-2.164-.792-2.198-.757-.206.192 2.703 4.595 3.542 5.369.616.557 1.985 1.227 4.021 1.958 3.183 1.149 8 3.002 8.265 3.202.582.392-.188.697-1.121.418M183.647 272.305c-.026-.165-.026-.374.034-.461.12-.2-.368-4.351-.702-6.004-.257-1.306-1.403-3.951-2.353-5.5-1.292-2.097-3.114-3.742-5.775-5.256-1.471-.818-4.937-2.141-6.588-2.506-.701-.157-1.24-.348-1.198-.435.171-.235 2.832-.07 4.27.287 1.848.426 2.815.835 5.065 2.054 2.344 1.296 3.465 2.34 4.697 4.42.881 1.471 2.259 4.647 2.259 5.221 0 .705.376-.757.735-2.863.214-1.305.531-2.819.676-3.367.522-1.749.993-4.038 1.498-7.04.427-2.585.564-4.569 1.146-16.09.377-7.249.856-15.202 1.07-17.665.273-3.324.367-5.151.282-6.996l-.103-2.498-.992-1.888c-1.13-2.184-1.489-3.159-2.122-5.9-.608-2.515-.89-5.073-.77-7.04l.077-1.566.145 1.853c.086 1.019.351 2.524.591 3.342.427 1.497 2.421 6.204 2.78 6.57.12.113.137.113.077-.035-.068-.13-.256-2.758-.436-5.83-.171-3.089-.419-6.274-.53-7.084-.129-.852-.189-2.906-.172-4.707.06-3.333.095-3.281.445.705.206 2.593.368 2.558.625-.122.462-5.221 1.386-11.965 2.079-15.298.582-2.802 2.182-7.936 2.327-7.432.034.113-.282 1.558-.71 3.203-.967 3.759-1.609 7.553-2.319 14.036-.368 3.376-.701 15.202-.479 17.082.137 1.096.308 4.916.496 10.72.06 2.054-.008 4.874-.299 9.303-.214 3.481-.607 11.652-.89 18.135-.539 12.078-.787 15.28-1.583 19.213-.564 2.82-1.095 6.022-1.591 9.799-.402 3.159-.607 4.255-1.172 6.631-.325 1.348-.445 1.549-.582 1.026" clip-rule="evenodd"/><path fill="#000" fill-rule="evenodd" d="M178.359 253.822c-.753-.696-1.788-1.531-2.319-1.862-.547-.357-1.146-.783-1.343-.975-.205-.191-.813-.53-1.326-.757-1.643-.661-1.993-.835-1.925-.931.145-.122 2.635.74 3.439 1.192 2.002 1.132 5.048 3.821 5.031 4.43-.008.296-.154.217-1.548-1.097" clip-rule="evenodd"/><path fill="#D5D5D4" d="M274.467 81.838c1.865-.462 3.542.617 4.021.957.017.148.299 3.541-2.396 5.56-2.481 1.862-5.304.914-5.544.827-.436-3.681 1.463-6.735 3.919-7.344"/><path fill="#000" d="M270.59 89.225c.146-.54.069-1.166.154-1.723.103-.661.3-1.305.574-1.905.453-1.01 1.172-1.941 2.079-2.576.855-.6 1.848-.94 2.883-.836.479.053.967.079 1.42.279.197.096.368.209.574.27.248.07.359.243.556.409.017.017.017-.035 0-.044-.394-1.07-1.386-1.984-2.533-2.115-1.146-.13-2.361.34-3.251 1.132-.992.879-1.677 2.045-2.122 3.298a8.7 8.7 0 0 0-.462 1.984c-.06.53-.205 1.357.06 1.853.017.044.051.026.068-.017v.017z"/><path fill="#fff" d="M67.724 94.498a1.9 1.9 0 0 0 2.703-.182l8.685-10.086a1.985 1.985 0 0 0-.18-2.75l-3.517-3.132a1.887 1.887 0 0 0-2.695.182l-8.684 10.086a1.976 1.976 0 0 0 .18 2.75l3.516 3.141zM75.44 83.9a.36.36 0 0 1 .505-.034c.145.13.163.357.034.513l-5.818 6.761a.34.34 0 0 1-.248.122.38.38 0 0 1-.257-.087.37.37 0 0 1-.034-.513zm-8.299 4.569 5.827-6.77a.36.36 0 0 1 .504-.035c.154.13.163.366.035.514l-5.818 6.76a.36.36 0 0 1-.24.123.38.38 0 0 1-.257-.087.35.35 0 0 1-.12-.253c0-.095.026-.191.086-.26zm14.656-12.017-1.9-1.697 8.266-9.555s.06-.087.077-.14l.641-2.227 3.568-2.428 1.711 1.523-1.89 3.916-2.088.94a.34.34 0 0 0-.129.087l-8.256 9.572zm12.611 6.83a6.16 6.16 0 0 1 1.789 2.785 6.27 6.27 0 0 1 .11 3.324l-3.601-3.228a.36.36 0 0 0-.505.035l-3.234 3.75a.36.36 0 0 0-.086.261.37.37 0 0 0 .12.253l3.62 3.228a5.99 5.99 0 0 1-4.493-.026 6.1 6.1 0 0 1-3.25-3.167 6.3 6.3 0 0 1-.215-4.569.39.39 0 0 0-.102-.392l-8.684-7.727-5.177-4.603a.34.34 0 0 0-.256-.087.4.4 0 0 0-.137.035 6 6 0 0 1-4.484.382 6.06 6.06 0 0 1-3.507-2.854 6.24 6.24 0 0 1-.616-4.533l3.619 3.228c.145.13.376.113.505-.035L69.05 65.6a.373.373 0 0 0-.034-.513l-3.62-3.228a5.99 5.99 0 0 1 4.492.026 6.1 6.1 0 0 1 3.243 3.158 6.3 6.3 0 0 1 .223 4.569c-.043.14 0 .296.102.391l13.826 12.314a.35.35 0 0 0 .394.052 5.94 5.94 0 0 1 3.5-.583A6.05 6.05 0 0 1 94.4 83.29zM155.061 66.687c-.359 1.706-1.813 2.95-3.524 3.002l-5.767.218c-1.711.06-3.251-1.062-3.739-2.733l-.958.035.83 22.582 11.079-.427-.231-6.343c-.094-2.376 1.429-4.508 3.688-5.152l-.411-11.225-.958.034zm-2.9 12.4-6.323.244a1.323 1.323 0 0 1-1.343-1.288 1.33 1.33 0 0 1 1.249-1.384l6.323-.243a1.32 1.32 0 0 1 1.343 1.288c.026.73-.53 1.349-1.249 1.383m-.154-4.229-6.323.244a1.323 1.323 0 0 1-1.343-1.288c-.026-.73.522-1.349 1.241-1.384l6.322-.243a1.324 1.324 0 0 1 1.344 1.288c.025.73-.522 1.348-1.241 1.383m1.831 20.815-14.271.54c-2.002.07-3.679-1.523-3.756-3.56l-1.027-27.82a3.7 3.7 0 0 1 .959-2.645 3.6 3.6 0 0 1 2.523-1.175l3.397-.13.137 3.629-2.139.078c-.727.026-1.292.653-1.266 1.384l.932 25.244a1.327 1.327 0 0 0 1.361 1.288l12.389-.47a6.83 6.83 0 0 0 .752 3.629zm8.273-31.875.505 13.697-3.568.14-.453-12.419a1.325 1.325 0 0 0-1.36-1.279l-2.139.079-.137-3.629 3.396-.13c.959-.044 1.9.313 2.601.974a3.7 3.7 0 0 1 1.155 2.567m-9.787-3.855.214 5.874c.017.313-.095.61-.3.835a1.12 1.12 0 0 1-.796.366l-5.775.217a1.12 1.12 0 0 1-.821-.304 1.16 1.16 0 0 1-.359-.818l-.214-5.874a1.17 1.17 0 0 1 .299-.844c.205-.226.496-.366.796-.374l5.775-.218c.308-.008.599.105.821.314.223.208.351.504.36.817m15.417 20.041-10.044.383c-1.344.06-2.379 1.21-2.319 2.576l.377 10.207c.051 1.358 1.172 2.42 2.506 2.376l10.045-.383c1.343-.052 2.387-1.201 2.336-2.559l-.377-10.207a2.5 2.5 0 0 0-.77-1.723 2.37 2.37 0 0 0-1.745-.661m-7.238 13.444-1.498.061a1.324 1.324 0 0 1-1.343-1.288c-.026-.73.53-1.349 1.241-1.383l1.497-.061a1.323 1.323 0 0 1 1.343 1.287c.026.731-.53 1.35-1.24 1.384m5.886-7.849a5.73 5.73 0 0 1-6.939.261 1.3 1.3 0 0 1-.556-.853c-.068-.348 0-.713.197-1 .197-.296.496-.496.838-.566.343-.07.702.009.984.209a3.18 3.18 0 0 0 3.842-.148 1.3 1.3 0 0 1 1.831.226 1.35 1.35 0 0 1-.197 1.862zM35.469 124.668l-5.716-5.116a2.2 2.2 0 0 0-1.65-.575l-13.237.853c-1.274.078-2.207 1.157-2.13 2.454l1.403 22.538c.086 1.297 1.138 2.245 2.413 2.167l18.609-1.201c1.274-.078 2.207-1.157 2.13-2.454l-1.06-17.073c-.044-.618-.3-1.227-.77-1.593m-12.544 3.977q-1.396 1.619-2.806 3.237c-.727.836-1.968-.322-1.24-1.105 1.137-1.314 2.233-2.576 3.37-3.89a.8.8 0 0 1 1.164-.078c1.06.949 2.122 1.897 3.183 2.854.932-1.079 1.916-2.219 2.857-3.298.728-.835 1.968.331 1.241 1.105-1.138 1.323-2.284 2.637-3.422 3.951a.8.8 0 0 1-1.164.078l-3.183-2.845m2.447 7.075-.83.052c-1.942.122-3.875.252-5.758.374-1.052.07-1.155-1.619-.102-1.688l.83-.052c1.942-.122 3.875-.253 5.758-.375 1.052-.069 1.155 1.628.102 1.689M19 140.715c.385-.026.718-.044 1.103-.07 2.601-.165 5.151-.331 7.752-.496 1.052-.07 1.155 1.627.103 1.688-.385.026-.719.044-1.104.07-2.601.165-5.15.331-7.752.496-1.052.069-1.155-1.619-.102-1.688m12.876-2.298c-.556.035-1.052.07-1.608.105l-11.302.731c-1.053.069-1.155-1.619-.103-1.688.556-.035 1.052-.07 1.608-.105l11.303-.731c1.052-.069 1.155 1.619.102 1.688"/></svg>